<svg xmlns="http://www.w3.org/2000/svg" width="600" height="600" viewBox="0 0 600 600" fill="none">
<path fill-rule="evenodd" clip-rule="evenodd" d="M59.5891 300C59.5891 432.572 167.445 540.411 300 540.411C432.555 540.411 540.411 432.572 540.411 300C540.411 167.428 432.564 59.5891 300 59.5891C167.436 59.5891 59.5891 167.428 59.5891 300ZM104.951 300C104.95 261.423 116.389 223.712 137.821 191.636C159.253 159.56 189.715 134.559 225.356 119.796C260.996 105.033 300.214 101.169 338.05 108.695C375.886 116.221 410.641 134.797 437.919 162.075C465.198 189.353 483.775 224.107 491.301 261.943C498.827 299.779 494.965 338.997 480.202 374.638C465.439 410.279 440.44 440.741 408.364 462.174C376.288 483.606 338.577 495.046 300 495.046C248.288 494.987 198.712 474.419 162.146 437.853C125.58 401.288 105.011 351.712 104.951 300V300Z" fill="white"/>
</svg>