<svg xmlns="http://www.w3.org/2000/svg" width="600" height="600" viewBox="0 0 600 600" fill="none">
<path d="M0 0V600H600V0H0ZM582.882 15.1342C583.687 15.8914 584.454 16.6869 585.173 17.5016C585.642 18.0288 586.131 18.5942 586.524 19.1406L586.62 19.2748C585.336 21.1438 584.089 22.9073 582.834 24.6613C581.243 22.8019 579.556 21.0096 577.821 19.3131C579.585 17.8275 581.291 16.4281 582.882 15.1342ZM582.796 46.9649C584.43 49.8134 585.917 52.7435 587.252 55.7444C585.882 58.9073 584.377 62.2045 582.786 65.5495C580.869 62.2716 578.76 58.9744 576.518 55.754C578.76 52.7157 580.879 49.7157 582.796 46.9649ZM582.796 95.1949C584.473 99.2109 586.045 103.409 587.463 107.655C586.332 111.077 585.345 113.962 584.348 116.722V116.837C583.936 117.987 583.495 119.166 583.064 120.316L582.834 120.92C581.252 117.518 579.882 114.7 578.54 112.102C577.907 110.866 577.236 109.639 576.623 108.45L576.201 107.674C578.425 103.514 580.677 99.2684 582.748 95.2141L582.796 95.1949ZM582.796 156.623C584.521 161.607 586.121 166.716 587.588 171.815C586.141 176.981 584.549 182.243 582.796 187.486C580.658 182.204 578.358 176.943 575.962 171.796C578.319 166.716 580.61 161.617 582.748 156.642L582.796 156.623ZM336.422 557.674C333.796 556.275 331.16 554.856 328.61 553.438C324.383 551.099 319.936 548.54 315.01 545.617C320.003 542.473 324.537 539.53 328.84 536.636L328.946 536.569C331.265 535.016 333.738 533.339 336.46 531.431C343.658 536.434 350.789 541.208 357.661 545.626C350.799 549.795 343.639 553.85 336.422 557.674ZM41.6454 523.035C41.4153 522.719 41.2045 522.403 40.984 522.077L40.5335 521.415C43.131 517.581 45.8147 513.748 48.5176 509.914L50.4345 507.23L50.9712 506.473C54.9105 511.668 59.0128 516.69 63.1629 521.406L50.9617 534.824C47.607 530.99 44.4728 526.974 41.6454 523.035ZM549.01 191.847C544.974 185.137 540.661 178.428 536.185 171.805C540.633 165.297 544.946 158.837 549.01 152.588L549.652 153.652C550.189 154.514 550.735 155.396 551.252 156.288C554.185 161.252 557.08 166.466 559.879 171.776C559.668 172.189 559.457 172.591 559.256 173.003C558.863 173.751 558.479 174.508 558.077 175.265L558.019 175.38C555.211 180.661 552.192 186.201 549.01 191.847ZM312.891 429.633C320.665 422.262 328.601 414.604 336.47 406.859C344.252 414.527 352.093 422.195 359.76 429.633C355.792 433.466 352.486 436.562 349.361 439.466C345.46 443.118 341.233 446.981 336.46 451.294C328.754 444.345 320.827 437.061 312.891 429.633ZM263.511 451.294C258.719 446.99 254.53 443.128 250.61 439.466C247.514 436.591 244.208 433.457 240.211 429.633C247.879 422.176 255.748 414.518 263.511 406.859C271.38 414.604 279.307 422.262 287.089 429.633C279.153 437.061 271.246 444.345 263.511 451.294ZM454.879 360.652C454.332 360 453.776 359.358 453.22 358.735L452.157 357.489C456.949 351.891 461.655 346.217 466.236 340.601C468.22 338.176 470.204 335.703 471.901 333.594C478.179 341.578 484.361 349.61 490.256 357.479C484.275 365.435 478.102 373.323 471.901 380.933C466.141 373.955 460.409 367.15 454.879 360.652ZM336.47 256.936C344.348 265.102 352.294 273.431 360.086 281.703C352.294 289.984 344.348 298.371 336.47 306.623C328.447 298.236 320.406 289.85 312.556 281.703L316.553 277.562C323.003 270.853 329.712 263.914 336.47 256.936ZM429.048 281.712L428.089 282.824L424.399 287.08C419.003 293.291 413.252 299.77 407.348 306.422C402.738 301.304 398.55 296.703 394.582 292.371L394.495 292.275C391.62 289.102 388.39 285.642 384.738 281.732C392.252 273.642 399.863 265.38 407.348 257.176C414.633 265.256 421.946 273.518 429.048 281.712ZM419.291 243.978C423.642 239.137 427.61 234.824 431.31 230.674L431.387 230.578C434.204 227.454 437.137 224.157 440.636 220.236C447.489 228.029 454.284 236.013 460.85 243.987C454.332 251.933 447.527 260.08 440.636 268.198C433.62 260.051 426.441 251.904 419.291 243.978ZM374.914 265.879L373.332 267.575L372.374 268.534C364.706 260.329 356.789 252.067 348.968 243.968C356.856 235.831 364.725 227.722 372.383 219.872C377.53 225.192 382.639 230.54 387.575 235.783C390.125 238.495 392.693 241.246 395.243 243.958C388.304 251.502 381.47 258.872 374.914 265.879ZM323.003 244.879C315.518 252.546 307.773 260.578 300 268.658C292.112 260.492 284.358 252.489 276.997 244.879L276.125 243.987C284.089 235.831 292.131 227.693 300.038 219.796C307.955 227.712 315.997 235.85 323.943 243.987L323.003 244.879ZM283.409 277.562L287.396 281.712C279.479 289.936 271.438 298.323 263.492 306.633C255.642 298.399 247.696 290.013 239.875 281.712C247.696 273.412 255.633 265.083 263.482 256.946L283.409 277.562ZM227.54 268.553L226.581 267.518L225.058 265.879C218.473 258.824 211.639 251.502 204.728 243.978C207.297 241.208 209.866 238.457 212.396 235.802C217.304 230.588 222.412 225.259 227.588 219.891C235.188 227.703 243.067 235.802 250.994 243.987C243.163 252.077 235.284 260.339 227.559 268.553H227.54ZM215.262 281.712C211.505 285.757 208.409 289.121 205.505 292.256L205.428 292.351C201.45 296.684 197.272 301.284 192.652 306.403C186.69 299.693 180.939 293.233 175.562 287.061C174.24 285.546 172.927 284.028 171.623 282.508L170.904 281.693C178.006 273.489 185.281 265.227 192.652 257.137C200.195 265.399 207.805 273.661 215.281 281.712H215.262ZM159.326 268.198C152.415 260.051 145.61 251.904 139.121 243.987C145.687 236.003 152.482 228.019 159.326 220.236C162.891 224.243 165.834 227.53 168.575 230.578C172.236 234.661 176.195 239.051 180.671 243.997C173.55 251.895 166.371 260.032 159.345 268.198H159.326ZM147.824 281.703C141.01 289.831 134.348 297.997 128.032 305.875C121.706 297.786 115.514 289.658 109.639 281.703C115.553 273.7 121.735 265.62 128.032 257.684C134.435 265.562 141.096 273.642 147.863 281.703H147.824ZM128.07 333.546C129.757 335.645 131.732 338.099 133.744 340.553C138.316 346.16 143.051 351.843 147.815 357.441L146.77 358.668L145.169 360.537L145.093 360.633C139.562 367.131 133.84 373.946 128.07 380.885C121.879 373.275 115.696 365.387 109.716 357.431C115.61 349.601 121.783 341.559 128.07 333.546ZM139.093 319.706C143.492 314.262 147.891 308.895 152.176 303.748L152.233 303.69C154.572 300.863 156.968 298.016 159.335 295.217C166.409 303.47 173.588 311.693 180.671 319.649L180.728 319.716C173.482 327.891 166.275 336.077 159.345 344.089C152.521 336.096 145.687 327.901 139.093 319.725V319.706ZM192.652 333.019C200.061 341.195 207.652 349.409 215.214 357.451C207.709 365.396 200.252 373.313 193.045 380.99L192.652 381.412L191.904 380.607C190.457 379.054 189.029 377.502 187.572 375.93C182.185 370.073 176.588 363.863 170.942 357.451C178.112 349.313 185.415 341.089 192.652 333.019ZM204.671 319.735C212.157 311.502 219.853 303.134 227.54 294.882L228.786 296.166L231.067 298.61C237.403 305.32 244.112 312.46 251.013 319.697C243.163 327.949 235.265 336.259 227.559 344.396C219.872 336.259 212.176 327.949 204.69 319.735H204.671ZM250.783 346.093L263.492 332.808C271.342 340.994 279.364 349.284 287.339 357.451C279.374 365.588 271.351 373.744 263.482 381.623C255.681 373.744 247.754 365.617 239.923 357.451L250.783 346.093ZM276.038 319.735C283.946 311.482 292.006 303.086 300 294.815L323.962 319.735C318.911 325.006 314.291 329.799 309.853 334.39L300 344.53L290.147 334.38C285.623 329.712 281.022 324.92 276.038 319.735ZM336.479 332.808L349.189 346.093L360.038 357.451C352.217 365.617 344.291 373.744 336.479 381.623C328.639 373.735 320.607 365.607 312.623 357.451C320.511 349.361 328.534 341.07 336.47 332.808H336.479ZM348.939 319.725C355.84 312.479 362.55 305.348 368.885 298.639L371.176 296.195L372.393 294.891C380.061 303.125 387.728 311.482 395.262 319.744C387.776 327.958 380.08 336.268 372.393 344.435C364.706 336.288 356.818 327.978 348.958 319.725H348.939ZM407.348 333.019C414.594 341.089 421.898 349.313 429.048 357.451C423.383 363.882 417.796 370.093 412.428 375.93C410.99 377.502 409.553 379.054 408.096 380.607L407.348 381.412L406.955 380.99C399.738 373.323 392.281 365.396 384.776 357.451C392.3 349.409 399.891 341.214 407.348 333.019ZM419.291 319.735L419.348 319.668C426.412 311.722 433.591 303.498 440.674 295.236C443.061 298.054 445.466 300.901 447.786 303.709C452.061 308.847 456.479 314.252 460.917 319.725C454.304 327.891 447.498 336.086 440.674 344.07C433.744 336.125 426.518 327.939 419.252 319.735H419.291ZM452.147 281.703C458.923 273.633 465.566 265.553 471.939 257.684C478.236 265.62 484.399 273.7 490.342 281.703C484.466 289.649 478.284 297.776 471.939 305.875C465.566 297.949 458.914 289.812 452.109 281.703H452.147ZM471.939 230.348C465.489 222.479 458.875 214.677 452.281 207.153C458.827 199.735 465.441 192.182 471.939 184.706C475.323 188.684 478.102 192 480.681 195.153L480.757 195.249C483.633 198.776 486.738 202.677 490.227 207.153C486.681 211.744 483.518 215.78 480.642 219.45C478.006 222.719 475.246 226.198 471.901 230.348H471.939ZM440.665 194.176C437.128 190.294 434.166 187.083 431.348 184.083C427.831 180.335 423.978 176.319 419.569 171.805C426.748 164.53 433.85 157.361 440.655 150.489C447.527 157.495 454.256 164.665 460.649 171.796C454.054 179.233 447.326 186.738 440.626 194.176H440.665ZM428.962 207.153C421.955 214.888 414.681 222.872 407.348 230.875C399.997 222.93 392.435 214.955 384.872 207.153C392.54 199.294 400.112 191.578 407.348 184.227C414.681 191.799 421.955 199.505 428.923 207.153H428.962ZM387.748 179.099C382.773 184.102 377.626 189.278 372.46 194.502C364.725 186.719 356.943 179.089 349.342 171.805C357.125 164.425 364.907 157.16 372.46 150.201L373.553 151.16L375.192 152.674C381.566 158.626 388.246 165.038 395.022 171.757L387.748 179.099ZM359.952 207.163C352.284 214.936 344.406 222.987 336.498 231.125C334.269 228.843 332.032 226.572 329.789 224.31L329.703 224.224L329.607 224.128C324.077 218.521 318.403 212.827 312.728 207.192C318.479 201.556 324.096 196.026 329.53 190.764L329.626 190.677C331.907 188.454 334.192 186.252 336.479 184.073C344.272 191.55 352.16 199.361 359.923 207.163H359.952ZM300 194.569C292.102 186.843 284.157 179.166 276.355 171.767L276.805 171.335C284.348 164.262 292.141 157.112 300 150.077C307.85 157.112 315.652 164.262 323.185 171.335L323.636 171.767C315.824 179.233 307.869 186.901 300 194.569ZM287.252 207.153C281.502 212.827 275.837 218.559 270.288 224.176L270.201 224.272C267.965 226.534 265.729 228.805 263.492 231.086C255.566 222.958 247.677 214.917 240.038 207.125C247.802 199.294 255.69 191.521 263.502 183.997C265.783 186.182 268.068 188.383 270.355 190.601C275.837 195.939 281.521 201.498 287.252 207.153ZM227.559 194.502C222.383 189.278 217.246 184.093 212.272 179.099L204.997 171.805C211.773 165.096 218.415 158.684 224.827 152.722L226.495 151.179C226.854 150.865 227.208 150.546 227.559 150.22C235.121 157.179 242.895 164.444 250.687 171.824C243.058 179.109 235.275 186.738 227.559 194.502ZM215.099 207.153C207.537 214.955 199.974 222.939 192.633 230.875C185.272 222.853 177.997 214.869 171.01 207.144C177.997 199.476 185.262 191.808 192.623 184.227C199.898 191.578 207.46 199.294 215.137 207.153H215.099ZM168.69 184.083C165.891 187.073 162.843 190.371 159.374 194.176C152.607 186.652 145.879 179.118 139.371 171.796C145.773 164.665 152.492 157.495 159.364 150.489C166.15 157.313 173.252 164.482 180.45 171.805C176.042 176.358 172.189 180.335 168.69 184.083ZM147.767 207.153C141.173 214.677 134.559 222.489 128.099 230.348C124.744 226.169 121.974 222.681 119.415 219.45C116.473 215.732 113.339 211.706 109.831 207.153C113.348 202.629 116.473 198.7 119.415 195.153C121.974 192.019 124.754 188.693 128.147 184.706C134.559 192.173 141.173 199.725 147.738 207.153H147.767ZM99.3451 193.457C93.7764 186.086 88.3802 178.802 83.3195 171.815C88.476 164.751 93.8626 157.792 99.3355 151.141C103.572 156.153 107.904 161.252 112.208 166.275L116.435 171.201L116.942 171.796C111.019 178.735 105.096 186.019 99.3163 193.457H99.3451ZM117.153 243.987C115.409 246.192 113.712 248.348 112.064 250.495C107.76 256.054 103.438 261.748 99.3355 267.403C93.8243 259.668 88.3802 251.78 83.1565 243.968C88.2364 236.396 93.6997 228.633 99.3355 220.965C105.125 228.642 111.115 236.387 117.125 243.987H117.153ZM99.3451 296.032C105.029 303.824 111.038 311.799 117.192 319.725C111.719 326.78 106.505 333.623 101.712 340.074C101.214 340.744 100.754 341.406 100.246 342.067C99.9393 342.47 99.6422 342.882 99.3451 343.284C95.7891 338.329 92.6358 333.891 89.8371 329.741C87.7764 326.732 85.591 323.454 83.1278 319.735C88.2843 311.875 93.738 303.901 99.3163 296.032H99.3451ZM99.2971 371.588V371.54C105.048 379.284 111.058 386.933 117.029 394.284C111.048 401.607 105.086 409.016 99.2875 416.329L99.1821 416.195C93.8147 409.208 88.4281 401.818 83.1853 394.284C88.4569 386.655 93.8626 379.016 99.2684 371.588H99.2971ZM128.099 407.55C133.917 414.383 139.677 420.968 145.227 427.035C145.706 427.553 146.185 428.08 146.674 428.597L147.633 429.633C143.051 434.546 138.496 439.453 133.965 444.355C132 446.463 130.054 448.572 128.099 450.681C121.869 443.808 115.754 436.725 109.888 429.594C115.879 422.272 121.994 414.843 128.07 407.55H128.099ZM140.895 396.268C140.569 395.895 140.252 395.511 139.936 395.128L139.217 394.284L139.859 393.527C140.204 393.105 140.559 392.693 140.914 392.272C146.665 385.466 152.885 378.23 159.345 370.773C166.304 378.69 173.454 386.597 180.594 394.284C173.684 401.665 166.534 409.313 159.345 417.019C152.895 410.003 146.645 403.016 140.895 396.268ZM187.534 412.457L192.661 407.07L193.102 407.521C200.099 414.805 207.479 422.243 214.965 429.633C207.441 436.946 199.936 444.182 192.661 451.121C185.502 444.23 178.284 437.003 171.201 429.633L187.534 412.457ZM204.834 394.246C212.688 386.047 220.262 378.108 227.559 370.428C233.089 376.179 238.658 381.93 244.102 387.46C246.422 389.818 248.722 392.128 250.859 394.284C248.617 396.527 246.381 398.763 244.15 400.994C238.668 406.438 233.089 411.939 227.569 417.355C219.987 409.869 212.339 402.115 204.834 394.284V394.246ZM276.182 394.246C284.032 386.425 292.035 378.364 299.99 370.284C307.984 378.393 315.987 386.454 323.789 394.246C315.882 402.086 307.869 409.869 299.99 417.403C292.093 409.888 284.089 402.096 276.182 394.275V394.246ZM355.831 400.955L349.121 394.246C351.144 392.214 353.511 389.828 355.879 387.422C361.304 381.92 366.863 376.198 372.431 370.399L395.157 394.246C387.633 402.086 379.984 409.84 372.422 417.297C366.911 411.939 361.342 406.39 355.831 400.974V400.955ZM406.879 407.502L407.31 407.051L412.438 412.438L428.732 429.613C421.649 436.984 414.431 444.22 407.272 451.102C399.997 444.163 392.492 436.927 384.968 429.613C392.511 422.252 399.872 414.815 406.879 407.521V407.502ZM419.339 394.265C426.479 386.597 433.629 378.671 440.588 370.754C447.048 378.211 453.249 385.447 459.019 392.252L460.083 393.508L460.716 394.265L460.006 395.109C459.681 395.492 459.364 395.875 459.048 396.249C453.297 402.958 447.067 409.965 440.597 417C433.275 409.131 426.125 401.482 419.377 394.284L419.339 394.265ZM453.355 428.597L454.802 427.035C460.351 420.939 466.112 414.383 471.92 407.55C478.035 414.882 484.141 422.31 490.131 429.594C484.313 436.687 478.198 443.76 471.92 450.681L466.064 444.355L452.396 429.633L453.355 428.597ZM482.952 394.284C488.923 386.943 494.885 379.284 500.693 371.54V371.588C506.089 379.006 511.505 386.645 516.767 394.284C511.524 401.847 506.137 409.227 500.77 416.195L500.665 416.329C494.885 409.026 488.923 401.597 482.933 394.284H482.952ZM500.674 343.284L499.831 342.134L498.393 340.217L498.316 340.112C493.524 333.652 488.3 326.808 482.837 319.764C488.99 311.828 494.99 303.863 500.684 296.07C506.252 303.93 511.697 311.904 516.882 319.773C514.419 323.521 512.224 326.789 510.173 329.78C507.316 333.911 504.201 338.339 500.655 343.284H500.674ZM487.965 250.495C486.307 248.348 484.61 246.192 482.875 243.987C488.866 236.396 494.856 228.652 500.684 220.984C506.329 228.652 511.773 236.396 516.863 243.987C511.639 251.799 506.204 259.687 500.693 267.422C496.486 261.757 492.249 256.064 487.946 250.495H487.965ZM500.684 193.457C494.933 186.029 488.99 178.744 483.077 171.796L483.594 171.201C485.003 169.553 486.47 167.914 487.812 166.275C492.153 161.214 496.438 156.115 500.684 151.141C506.157 157.802 511.553 164.76 516.7 171.805C511.62 178.802 506.233 186.086 500.665 193.457H500.684ZM511.313 138.479C516.518 132.24 521.626 126.019 526.524 120.067C531.096 125.904 535.62 132.096 539.943 138.489C535.974 144.393 531.978 150.249 528.038 155.875L527.08 157.246L526.495 158.07C523.294 153.7 520.419 149.885 517.696 146.425C515.655 143.875 513.594 141.278 511.294 138.479H511.313ZM500.684 126.019C495.201 119.827 489.441 113.665 483.537 107.712C488.597 102.728 493.409 98.0032 497.828 93.6805L500.703 90.901C504.364 94.5527 507.604 97.9361 510.613 101.224L510.7 101.319C512.559 103.351 514.466 105.498 516.364 107.693C511.332 113.607 506.07 119.808 500.665 126.038L500.684 126.019ZM489.93 138.479C484.054 145.236 477.997 152.157 471.92 159.048C465.709 152.128 459.211 145.217 452.607 138.489C459.403 131.684 465.901 125.195 471.92 119.224C478.15 125.559 484.208 132.019 489.911 138.479H489.93ZM448.083 119.377L440.636 126.633C433.927 120.201 427.074 113.847 420.125 107.732C427.179 101.674 434.08 95.8562 440.626 90.4792C447.192 95.9713 453.748 101.789 460.112 107.732C455.885 111.805 451.946 115.62 448.083 119.377ZM424.697 134.77C425.655 135.642 426.527 136.534 427.447 137.425L428.54 138.489C421.658 145.256 414.518 152.329 407.31 159.498C400.035 152.329 392.617 145.256 385.265 138.479C388.524 135.537 391.428 132.93 394.121 130.514C398.281 126.796 402.604 122.981 407.319 118.85C413.377 124.208 419.224 129.565 424.697 134.77ZM372.412 126.911L371.166 125.799L368.569 123.508C362.665 118.351 356.387 113.051 349.917 107.732C357.326 101.799 364.898 95.9042 372.422 90.2204C379.898 95.9042 387.288 101.789 394.39 107.722C387.278 113.818 379.888 120.268 372.412 126.911ZM359.511 138.479C351.786 145.476 344.032 152.607 336.508 159.69C329.55 153.201 322.764 147 316.38 141.268L316.294 141.192L314.377 139.534L313.198 138.489C321.029 131.674 328.869 125.013 336.518 118.687C344.252 125.137 352.006 131.799 359.511 138.479ZM299.99 126.978C292.476 120.518 284.751 114.048 276.987 107.732C281.636 104.042 285.757 100.831 289.591 97.9073C292.697 95.5399 296.003 93.115 299.971 90.1629C303.958 93.0958 307.256 95.5591 310.342 97.9073C314.176 100.783 318.278 104.032 322.946 107.741C315.211 114.058 307.486 120.527 300 126.978H299.99ZM286.821 138.479L285.671 139.495L283.706 141.268L283.61 141.355C277.227 147.105 270.479 153.22 263.54 159.69C255.958 152.597 248.204 145.466 240.489 138.479C248.003 131.77 255.757 125.137 263.492 118.687C271.16 125.013 279 131.684 286.821 138.489V138.479ZM231.403 123.498L228.834 125.77L227.559 126.901C220.112 120.288 212.722 113.837 205.581 107.732C212.684 101.799 220.073 95.9137 227.559 90.23C235.064 95.9137 242.636 101.799 250.054 107.741C243.585 113.099 237.307 118.361 231.403 123.508V123.498ZM205.859 130.505L205.955 130.581C208.61 132.958 211.476 135.546 214.716 138.47C207.355 145.246 199.936 152.319 192.671 159.498C185.415 152.272 178.294 145.198 171.441 138.479L172.581 137.367C173.482 136.495 174.383 135.623 175.294 134.76C180.748 129.566 186.604 124.217 192.681 118.84C197.444 123 201.728 126.815 205.859 130.514V130.505ZM159.335 126.671C156.831 124.217 154.351 121.798 151.898 119.415C148.064 115.677 144.105 111.863 139.859 107.77C146.233 101.78 152.789 95.9617 159.345 90.5176C165.901 95.9425 172.764 101.76 179.856 107.77C172.917 113.837 166.016 120.192 159.335 126.633V126.671ZM147.393 138.527C140.78 145.236 134.281 152.166 128.07 159.086C121.984 152.176 115.927 145.256 110.07 138.518C115.821 132.048 121.831 125.569 128.07 119.262C134.185 125.281 140.665 131.76 147.393 138.489V138.527ZM99.3067 126.067C93.9201 119.808 88.6486 113.607 83.6454 107.741C85.5623 105.508 87.4792 103.332 89.3962 101.272C92.4153 97.9744 95.655 94.5623 99.3067 90.9489L100.265 91.9073L102.182 93.738C106.591 98.0415 111.393 102.767 116.473 107.77C110.55 113.693 104.789 119.808 99.3067 126.038V126.067ZM88.6869 138.527C86.3674 141.335 84.278 143.933 82.2843 146.473C79.5623 149.942 76.6869 153.748 73.4856 158.118L72.8914 157.275C72.5655 156.82 72.2463 156.37 71.9329 155.923C67.984 150.288 63.9776 144.422 60.0288 138.537C64.361 132.144 68.885 125.952 73.4473 120.115C78.393 126.086 83.5112 132.268 88.6869 138.479V138.527ZM73.476 185.751C78.3355 192.623 83.5399 199.821 88.9553 207.153C83.5495 214.524 78.3355 221.952 73.476 229.198C68.6837 221.636 64.0447 214.208 59.8275 207.153C64.0447 200.109 68.6358 192.911 73.476 185.751ZM72.9297 259.744L73.4856 258.872C76.6294 263.665 79.4569 267.872 82.1118 271.744C84.1629 274.754 86.4345 278.022 89.0607 281.76C83.6933 289.428 78.4601 297.153 73.4856 304.764C68.8275 297.288 64.2268 289.553 59.7891 281.76C63.8722 274.581 68.0032 267.633 72.0863 261.096C72.3546 260.597 72.6422 260.147 72.9297 259.744ZM89.0224 357.508C83.8083 364.802 78.5847 372.326 73.4856 379.859C68.6933 372.451 64.0831 364.936 59.7891 357.518C60.901 355.601 62.3578 353.08 63.8626 350.54C66.8626 345.479 70.0927 340.179 73.4473 334.783C78.3642 342.173 83.5974 349.84 89.0224 357.441V357.508ZM88.8498 429.709C83.4824 436.61 78.3067 443.367 73.5144 449.837C70.1118 445.121 66.8051 440.377 63.7859 435.728L63.7188 435.623C62.3962 433.61 61.0831 431.53 59.9521 429.738C64.1885 422.962 68.7604 415.888 73.524 408.719C78.4888 415.831 83.655 422.904 88.8498 429.642V429.709ZM73.5144 475.994C78.3067 482.109 83.3962 488.089 88.4856 493.773L82.5527 500.262C79.4856 503.607 76.4856 506.904 73.5144 510.153C73.2843 509.895 73.0543 509.645 72.8339 509.387C72.4505 508.965 72.0671 508.534 71.6933 508.102L71.6454 508.045C67.869 503.645 64.0351 498.843 60.2492 493.783C64.5144 487.859 69.0096 481.859 73.476 475.927L73.5144 475.994ZM83.4345 462.939C85.639 460.064 87.6613 457.505 89.6262 455.003C92.5016 451.275 95.722 447.268 99.3163 442.773L100.208 443.875C100.754 444.537 101.291 445.208 101.837 445.859C106.466 451.438 111.479 457.189 116.732 462.939C110.981 469.208 105.086 475.572 99.3067 481.859C93.8339 475.735 88.4952 469.371 83.4345 462.939ZM128.061 475.045C134.109 481.284 140.521 487.562 147.067 493.696C140.55 499.629 134.157 505.39 128.051 510.805C122.137 505.466 116.185 499.706 110.339 493.696L128.061 475.045ZM139.562 462.939L159.345 442.112C166.054 449.061 173.061 456.067 180.22 462.939C173.176 469.581 166.16 476.147 159.345 482.444C156.757 480.019 154.256 477.652 151.907 475.351C147.911 471.489 143.875 467.435 139.553 462.939H139.562ZM172.984 492.652L175.208 490.658C180.7 485.684 186.575 480.307 192.681 474.671C197.406 479.003 201.738 482.885 205.907 486.518C208.572 488.837 211.332 491.204 214.351 493.754C207.029 499.735 199.735 505.591 192.652 511.131C185.569 505.524 178.534 499.629 171.748 493.706L172.984 492.652ZM205.246 462.939C212.435 456.23 219.949 449.099 227.569 441.805C235.236 449.051 242.904 456.182 250.438 462.939C243.824 468.767 237.441 474.307 231.46 479.396L228.796 481.649L227.569 482.674C220.035 476.291 212.521 469.649 205.236 462.939H205.246ZM263.521 474.441C271.045 480.958 278.76 487.428 286.447 493.668L285.489 494.454L284.042 495.604L283.936 495.69C277.428 500.799 270.566 506.032 263.53 511.236L263.3 511.064C255.987 505.639 248.454 499.792 240.891 493.677C248.166 487.639 255.786 481.15 263.511 474.441H263.521ZM276.623 462.939C281.482 458.617 285.843 454.697 289.936 450.968C292.965 448.208 296.252 445.217 300 441.719C303.834 445.275 307.035 448.217 310.054 450.968C314.137 454.687 318.489 458.636 323.367 462.939C315.527 469.802 307.668 476.473 300 482.78C292.332 476.473 284.454 469.802 276.613 462.939H276.623ZM336.479 474.441C344.195 481.15 351.815 487.61 359.128 493.677C351.565 499.802 344.022 505.649 336.728 511.064L336.489 511.236C329.502 506.061 322.668 500.866 316.198 495.776L316.083 495.69L314.54 494.463L313.581 493.668C321.23 487.457 328.936 480.987 336.47 474.441H336.479ZM349.553 462.939C357.105 456.173 364.802 449.061 372.422 441.805C380.042 449.089 387.546 456.182 394.744 462.939C387.46 469.649 379.946 476.291 372.422 482.674L371.137 481.591L368.53 479.396C362.54 474.316 356.157 468.776 349.543 462.939H349.553ZM394.083 486.47C398.243 482.847 402.575 478.965 407.319 474.623C413.435 480.278 419.31 485.655 424.792 490.61L427.102 492.69L428.214 493.696C421.438 499.658 414.403 505.514 407.31 511.121C400.256 505.591 392.933 499.725 385.639 493.706C388.629 491.176 391.399 488.818 394.074 486.479L394.083 486.47ZM419.808 462.939C426.958 456.077 433.974 449.07 440.674 442.112L460.419 462.939C456.105 467.415 452.07 471.47 448.083 475.351C445.735 477.633 443.233 480.019 440.645 482.444C433.821 476.147 426.796 469.591 419.808 462.939ZM471.949 475.045L489.671 493.696C483.834 499.706 477.882 505.457 471.958 510.805C465.853 505.38 459.451 499.62 452.943 493.696C459.489 487.562 465.882 481.284 471.911 475.054L471.949 475.045ZM483.24 462.939C488.502 457.189 493.514 451.438 498.134 445.859C498.681 445.208 499.227 444.537 499.764 443.875C500.061 443.511 500.358 443.137 500.665 442.773C504.249 447.268 507.374 451.275 510.345 455.003C512.262 457.505 514.342 460.102 516.537 462.939C511.486 469.361 506.147 475.725 500.665 481.859C494.962 475.658 489.096 469.294 483.24 462.939ZM526.495 475.917C530.99 481.831 535.447 487.821 539.77 493.706C535.936 498.786 532.102 503.607 528.316 508.026C527.943 508.457 527.569 508.888 527.185 509.31L526.495 510.077C523.537 506.824 520.524 503.527 517.457 500.185L511.524 493.696C516.613 488.022 521.655 482.042 526.495 475.927V475.917ZM536.224 435.661C533.176 440.31 529.907 445.054 526.505 449.77C521.645 443.31 516.479 436.553 511.169 429.642C516.355 422.933 521.521 415.831 526.505 408.623C531.297 415.792 535.84 422.856 540.086 429.642C538.888 431.559 537.623 433.524 536.31 435.527L536.224 435.661ZM526.486 379.792C521.396 372.268 516.173 364.754 510.958 357.441C516.393 349.773 521.617 342.163 526.495 334.716C529.888 340.131 533.128 345.431 536.08 350.473C537.575 352.994 539.042 355.524 540.153 357.451C535.888 364.869 531.278 372.383 526.486 379.792ZM526.486 304.725C521.521 297.058 516.278 289.39 510.911 281.722C513.498 278.042 515.77 274.773 517.859 271.706C520.514 267.872 523.332 263.617 526.486 258.834L527.051 259.716L527.904 261.058C531.978 267.585 536.109 274.534 540.192 281.722C535.783 289.505 531.153 297.249 526.495 304.725H526.486ZM526.486 229.217C521.626 221.952 516.422 214.534 511.006 207.173C516.412 199.859 521.617 192.661 526.486 185.77C531.326 192.93 535.927 200.147 540.134 207.163C535.946 214.208 531.355 221.636 526.495 229.217H526.486ZM549 124.744C544.879 118.754 540.681 113.042 536.54 107.76C540.805 102.46 545.013 97.2173 549 92.0511C552.594 96.9201 556.16 102.211 559.601 107.78C556.323 113.185 552.748 118.85 549.01 124.696L549 124.744ZM538.994 80.655L536.521 83.655C533.348 87.4888 529.974 91.5431 526.495 95.6933C521.856 90.3738 516.911 85.1502 511.879 80.0607C516.939 75.1725 521.847 70.476 526.486 66.0479C531.144 70.6486 535.524 75.3546 539.502 80.032L538.994 80.655ZM501.278 68.7508L500.655 69.3355C495.585 64.7636 490.179 60.2109 484.591 55.8115C490.246 51.6134 495.652 47.7029 500.655 44.1757L501.029 44.4441L501.709 44.9329C506.195 48.1917 510.805 51.853 515.406 55.8019C510.719 60.0863 505.965 64.4377 501.278 68.7508ZM489.22 80.0224C483.796 85.1214 477.978 90.6326 471.911 96.4217C469.639 94.2843 467.617 92.4249 465.748 90.7284C461.914 87.2684 457.859 83.7604 453.383 80.0224L453.757 79.7252L454.256 79.3227C460.006 74.6837 465.958 70.0064 471.911 65.4249C477.757 69.9681 483.575 74.9137 489.22 80.0224ZM440.626 69.7764C434.147 64.7732 427.697 60.0767 421.457 55.7923C427.735 51.7476 434.185 47.7508 440.626 43.9169C446.895 47.6837 453.086 51.6709 458.923 55.8019C453.105 60.1438 446.943 64.8498 440.626 69.7764ZM427.716 80.0128C420.939 85.476 414.058 91.1118 407.348 96.8051C400.323 90.9681 393.22 85.3035 386.262 80.0607C393.22 75 399.93 70.2652 406.217 65.9808L406.859 65.5495L407.348 65.1757C409.265 66.5176 411.182 67.8403 413.099 69.1917L413.204 69.2684C418.054 72.6901 422.923 76.3035 427.716 80.0128ZM372.422 69.9681C366.556 65.8179 360.728 61.8498 355.093 58.1885L352.553 56.5495L351.383 55.8115L352.514 55.1214L354.92 53.6741C360.671 50.262 366.566 46.9649 372.403 43.7732C379.265 47.5016 386.185 51.5463 392.99 55.8019C386.176 60.3834 379.256 65.099 372.422 69.9681ZM358.553 80.032C355.38 82.3898 352.495 84.5559 349.725 86.655C345.661 89.7412 341.329 93.1054 336.479 96.9297C329.204 91.1789 321.681 85.5335 314.118 80.032C321.403 74.9425 328.917 69.9105 336.47 65.0799C343.792 69.7764 351.22 74.7604 358.553 80.0224V80.032ZM300 70.0256C292.706 65.0032 285.479 60.2205 278.492 55.8019C285.518 51.6326 292.744 47.5783 300 43.7636C307.246 47.5974 314.482 51.6326 321.498 55.8019C314.511 60.2109 307.275 64.9936 300 70.0256ZM285.863 80.0224C278.291 85.524 270.767 91.2077 263.502 96.9201C258.642 93.0863 254.3 89.7316 250.246 86.6454C247.486 84.5463 244.591 82.3802 241.419 80.0224C248.751 74.7987 256.179 69.7668 263.511 65.0703C271.054 69.901 278.569 74.9329 285.863 80.0224ZM247.419 56.5495L244.879 58.1693C239.262 61.8307 233.435 65.8371 227.55 69.9489C220.725 65.099 213.805 60.3642 206.981 55.8115C213.786 51.5559 220.716 47.5112 227.569 43.7827C233.415 46.9457 239.291 50.2812 245.051 53.6837C245.856 54.1534 246.661 54.6422 247.457 55.1214L248.588 55.8115L247.419 56.5495ZM213.796 80.032C206.799 85.3035 199.696 90.9393 192.709 96.7764C185.942 91.1022 179.07 85.4665 172.294 80.0128C177.086 76.3035 181.965 72.6901 186.786 69.2684L186.891 69.1917C188.808 67.8307 190.725 66.508 192.709 65.1661L193.217 65.5112C193.438 65.655 193.658 65.7987 193.869 65.9521C200.109 70.2268 206.827 74.9617 213.796 80.032ZM159.345 69.7764C153.029 64.8498 146.885 60.1917 141.029 55.8019C146.904 51.6709 153.067 47.6741 159.335 43.9169C165.796 47.7508 172.256 51.7572 178.505 55.7923C172.275 60.0767 165.815 64.7828 159.345 69.7764ZM145.687 79.3227L146.204 79.7444L146.55 80.0224C142.064 83.77 138.019 87.2684 134.195 90.7284C132.278 92.4249 130.294 94.2843 128.022 96.4217C121.946 90.6709 116.128 85.1022 110.712 80.0224C116.367 74.9042 122.214 69.9968 128.022 65.4249C134.022 70.016 139.936 74.6933 145.687 79.3227ZM99.2971 69.3355L98.6645 68.7508C94.016 64.4473 89.262 60.1246 84.5367 55.8019C89.1374 51.853 93.7476 48.1917 98.2332 44.9329L98.9042 44.4537L99.2875 44.1757C104.291 47.6933 109.696 51.6134 115.361 55.8115C109.764 60.2109 104.358 64.7636 99.2971 69.3355ZM88.0831 80.0224C83.0224 85.0831 78.1054 90.3355 73.476 95.655C69.968 91.5144 66.6326 87.4697 63.4409 83.6166L60.8914 80.5112L60.4601 79.984C64.4377 75.2971 68.8179 70.5911 73.476 66C78.1054 70.4185 83.0128 75.1246 88.0831 80.0224ZM63.4505 107.712C59.2811 112.994 55.0831 118.706 50.9904 124.696C47.2524 118.888 43.6773 113.195 40.361 107.732C43.8019 102.163 47.3674 96.8818 50.9617 92.0032C54.9681 97.1214 59.1757 102.403 63.4505 107.712ZM50.3291 153.633L50.9712 152.588C55.016 158.808 59.3291 165.278 63.7859 171.805C59.3099 178.419 54.9968 185.157 50.9617 191.847C47.77 186.182 44.7508 180.642 41.9808 175.38C41.5591 174.575 41.1566 173.789 40.754 173.003L40.1214 171.776C42.8818 166.486 45.7764 161.233 48.7476 156.288C49.246 155.396 49.8403 154.495 50.3291 153.633ZM50.9617 222.642C55.0543 229.639 59.4153 236.818 63.9297 243.987C59.4058 251.204 55.0447 258.498 50.9712 265.668L50.3099 264.431C49.8115 263.473 49.3514 262.581 48.8435 261.661C45.853 255.911 42.8914 249.958 40.0447 243.997L40.6773 242.665C41.1182 241.706 41.5783 240.748 42.0383 239.789C44.7987 234.201 47.8083 228.422 50.9617 222.642ZM50.9617 297.776C55.1406 305.176 59.5016 312.556 63.9297 319.725C59.5783 326.76 55.2173 334.102 50.9617 341.578C47.1278 334.476 43.4952 327.115 40.016 319.716C43.3802 312.585 47.0607 305.204 50.9712 297.776H50.9617ZM55.8498 381.518C58.1885 385.351 60.8147 389.559 63.8722 394.284C60.8339 398.962 58.2173 403.035 55.8882 406.744C54.2588 409.351 52.6006 412.026 50.9521 414.719C47.1182 408.01 43.4665 401.147 40.0735 394.275C43.476 387.355 47.1374 380.281 50.9521 373.236C52.5719 376.026 54.2205 378.805 55.8594 381.518H55.8498ZM50.9521 444.268C55.0735 450.728 59.3387 457.016 63.6422 462.958C59.377 468.767 55.1118 474.7 50.9521 480.585C47.1182 474.834 43.5336 468.911 40.1981 462.968C43.6677 456.738 47.2812 450.479 50.9617 444.268H50.9521ZM73.4473 532.447V532.505C77.7508 536.847 82.4569 541.246 87.4505 545.588C82.5911 549.594 78.0192 553.256 73.869 556.591L73.7636 556.668L73.3994 556.955C69.1342 553.457 64.9169 549.642 60.853 545.597L73.4473 532.447ZM83.9904 521.377L99.3259 505.294C103.696 509.77 108.153 514.121 112.581 518.233C113.396 518.99 114.24 519.748 115.054 520.476L116.013 521.377C110.406 526.256 104.78 531.096 99.2684 535.754C94.131 531.316 88.984 526.486 84 521.406L83.9904 521.377ZM118.687 539.588C121.447 537.307 124.438 534.796 128.061 531.767C133.812 536.559 139.84 541.208 145.831 545.559C139.792 549.7 133.821 553.658 128.061 557.339C124.399 554.962 121.351 552.911 118.476 550.888L118.38 550.821C116.185 549.249 113.875 547.534 111.316 545.569C114.058 543.45 116.454 541.534 118.696 539.617L118.687 539.588ZM140.31 521.377C146.511 516.038 152.914 510.451 159.335 504.767C166.045 510.604 172.754 516.192 179.31 521.377C175.476 524.252 172.265 526.696 169.284 528.901C166.304 531.105 163.102 533.425 159.335 536.118C152.837 531.45 146.434 526.486 140.319 521.406L140.31 521.377ZM192.652 531.546C199.361 536.463 206.166 541.198 212.914 545.626C206.204 549.786 199.342 553.821 192.613 557.607C186.211 553.974 179.626 549.939 173.032 545.626C179.636 541.045 186.23 536.31 192.652 531.546ZM211.658 525.46C209.808 524.137 207.949 522.767 206.137 521.435C212.454 516.642 218.655 511.744 224.559 507.057L226.39 505.581L227.559 504.623C234.757 510.374 242.137 516.067 249.479 521.463C242.032 526.725 234.661 531.757 227.55 536.406C222.211 532.84 216.872 529.179 211.687 525.46H211.658ZM263.463 531.431C266.204 533.348 268.658 535.016 270.978 536.569L271.083 536.636C275.396 539.511 279.93 542.473 284.914 545.617C279.987 548.492 275.54 551.099 271.323 553.438C268.764 554.856 266.137 556.313 263.502 557.674C256.304 553.84 249.125 549.795 242.262 545.626C249.201 541.208 256.294 536.434 263.492 531.431H263.463ZM277.591 521.406C285 516.01 292.534 510.316 299.99 504.498C307.428 510.316 314.962 516 322.38 521.406C315.01 526.562 307.476 531.594 299.99 536.367C292.495 531.604 284.962 526.572 277.591 521.406ZM350.492 521.406C357.843 516 365.214 510.345 372.412 504.565L373.581 505.524L375.412 507C381.335 511.735 387.527 516.585 393.843 521.377H393.786C391.994 522.709 390.134 524.08 388.294 525.393C383.099 529.112 377.751 532.773 372.422 536.281C365.32 531.7 357.939 526.668 350.492 521.406ZM407.348 531.546C413.789 536.339 420.383 541.045 426.958 545.626C420.364 549.949 413.78 553.984 407.377 557.607C400.668 553.821 393.824 549.795 387.077 545.626C393.776 541.198 400.639 536.463 407.348 531.546ZM420.652 521.406C427.246 516.211 433.974 510.623 440.626 504.796C447.048 510.479 453.451 516.067 459.661 521.406C453.527 526.486 447.134 531.441 440.636 536.147C436.802 533.425 433.658 531.125 430.677 528.92C427.697 526.716 424.514 524.348 420.652 521.406ZM471.911 531.824C475.534 534.872 478.514 537.355 481.284 539.645C483.585 541.562 485.981 543.479 488.597 545.626C486.038 547.591 483.728 549.307 481.543 550.879L481.438 550.946C478.639 552.949 475.514 555.057 471.901 557.396C466.15 553.716 460.169 549.728 454.131 545.617C460.112 541.284 466.093 536.645 471.911 531.834V531.824ZM483.949 521.406L484.907 520.505C485.722 519.776 486.566 519.019 487.39 518.262C491.808 514.16 496.265 509.808 500.636 505.323C506.496 511.482 511.607 516.843 515.971 521.406C510.978 526.476 505.84 531.307 500.636 535.783C495.182 531.134 489.546 526.294 483.949 521.406ZM526.466 532.534L526.524 532.476L539.061 545.626C535.006 549.671 530.78 553.486 526.514 556.984L526.15 556.696L526.054 556.62C521.885 553.313 517.313 549.613 512.463 545.617C517.457 541.284 522.173 536.885 526.466 532.543V532.534ZM536.818 521.415C540.978 516.7 545.08 511.677 549.01 506.482L549.604 507.316L551.463 509.923C554.147 513.757 556.84 517.591 559.438 521.425L558.997 522.077C558.786 522.374 558.585 522.681 558.374 522.968V523.035C555.498 526.974 552.412 530.962 549.067 534.882L536.818 521.415ZM549.01 480.575C544.859 474.69 540.585 468.757 536.329 462.949C540.633 456.997 544.898 450.709 549.01 444.259C552.69 450.441 556.313 456.719 559.764 462.958C556.428 468.92 552.805 474.843 549.01 480.585V480.575ZM544.073 406.773C541.735 403.045 539.128 398.962 536.099 394.313C539.147 389.588 541.773 385.409 544.112 381.546C545.76 378.815 547.409 376.035 549.01 373.275C552.843 380.32 556.486 387.403 559.898 394.313C556.495 401.185 552.834 408.067 549.01 414.757C547.38 412.054 545.722 409.38 544.073 406.754V406.773ZM549.01 341.597C544.754 334.131 540.383 326.78 536.032 319.744C540.46 312.585 544.821 305.195 549 297.796C552.911 305.224 556.601 312.604 559.946 319.735C556.466 327.125 552.786 334.505 549.01 341.578V341.597ZM549.652 264.47L549 265.687C544.936 258.518 540.575 251.224 536.042 244.006C540.556 236.837 544.917 229.629 549.01 222.661C552.173 228.412 555.173 234.22 557.933 239.837C558.393 240.796 558.844 241.754 559.284 242.655L559.927 244.016C557.051 249.978 554.128 255.92 551.128 261.681C550.649 262.62 550.16 263.521 549.652 264.451V264.47ZM559.371 209.981C559.073 209.415 558.757 208.859 558.412 208.294L557.789 207.173C557.99 206.808 558.201 206.444 558.403 206.07C558.719 205.514 559.035 204.949 559.361 204.393C562.294 199.026 565.112 193.601 567.872 188.272C570.633 194.348 573.288 200.732 575.77 207.173C573.288 213.661 570.633 220.179 567.872 226.562C565.169 220.974 562.313 215.406 559.371 209.962V209.981ZM575.665 138.489C573.335 143.923 570.7 149.712 567.834 155.741C564.709 149.904 561.393 144.115 557.962 138.537C560.837 133.888 563.597 129.383 566.099 125.118C566.502 124.447 566.895 123.776 567.288 123.105C567.47 122.789 567.652 122.473 567.843 122.147C570.585 127.38 573.105 132.604 575.329 137.665L575.521 138.115L575.665 138.489ZM567.843 93.7955C564.757 88.9457 561.566 84.3163 558.345 80.0128C561.728 75.623 564.93 71.3866 567.863 67.5527C568.687 68.77 569.54 70.0351 570.345 71.3099C571.984 73.9073 573.652 76.7732 575.444 80.0799C573.086 84.508 570.527 89.1374 567.872 93.7764L567.843 93.7955ZM567.843 27.853C570.351 30.2406 572.707 32.7824 574.898 35.4633C573.316 37.5719 571.946 39.3642 570.613 41.1086L567.911 44.6166C565.208 41.4441 562.342 38.377 559.38 35.4728C562.351 32.7604 565.217 30.2013 567.911 27.7955L567.843 27.853ZM548.962 68.377C547.045 66.1054 545.214 64.0927 543.47 62.2236C541.725 60.3546 539.636 58.1981 537.23 55.8115C539.272 53.8946 541.284 51.9776 543.24 50.1949C545.195 48.4121 546.987 46.7061 548.99 44.8946C552.55 48.347 555.925 51.9843 559.102 55.7923C556.064 59.6358 552.757 63.7572 549.029 68.3578L548.962 68.377ZM548.962 14.3099C551.859 15.8262 554.666 17.5093 557.367 19.3514C554.712 21.508 551.875 23.8466 548.952 26.3099C545.885 23.8562 542.712 21.5176 539.492 19.3706C542.847 17.5208 546.038 15.8243 549.058 14.2907L548.962 14.3099ZM526.524 27.0575C530.262 29.4249 533.875 31.9649 537.268 34.5911L537.335 34.6486L537.92 35.1182L538.323 35.4537C534.604 38.6837 530.655 42.1629 526.514 45.8434C522.412 42.3067 518.003 38.8179 513.422 35.4728C517.888 32.492 522.297 29.7125 526.524 27.0575ZM500.645 14.0511C504.834 15.6613 508.946 17.4441 512.78 19.361L512.492 19.5335L511.534 20.0703C508.15 22.1022 504.46 24.3834 500.588 26.8466L499.697 26.2907C498.738 25.7061 497.78 25.1022 496.821 24.5367C493.859 22.7732 490.764 21.0383 487.629 19.3706C492.163 17.4345 496.486 15.6518 500.693 14.0511H500.645ZM471.891 26.7796C477.201 29.4537 482.435 32.3674 487.514 35.4633C482.54 38.8179 477.278 42.4792 471.872 46.3419C466.409 42.508 460.85 38.8371 455.339 35.4824C458.962 33.4792 461.962 31.869 464.751 30.4121C467.118 29.1853 469.524 27.9681 471.92 26.7796H471.891ZM440.645 13.9649C443.799 14.9808 446.847 16.0351 449.703 17.099C451.62 17.7891 453.537 18.5367 455.578 19.3802C450.671 21.7859 445.658 24.3642 440.645 27.0479C435.566 24.3355 430.351 21.7572 425.147 19.3802C430.351 17.4249 435.537 15.6038 440.645 13.9649ZM425.607 35.4633C421.524 37.8403 417.412 40.2556 413.377 42.7668C411.345 44.0128 409.275 45.3163 407.31 46.5431L406.716 46.1693L405.968 45.6901C400.284 42.1725 394.39 38.7412 388.438 35.4633C394.773 32.3195 401.118 29.3578 407.3 26.655C413.482 29.3866 419.645 32.3482 425.607 35.4633ZM365.78 12.4601L372.422 13.9361L389.137 19.3898C383.607 21.8243 377.99 24.4409 372.431 27.1629C365.022 23.5399 357.498 20.1757 350.07 17.147L365.78 12.4601ZM350.588 32.7796C352.505 33.6613 354.422 34.5815 356.243 35.4824C349.84 38.9329 343.131 42.6901 336.47 46.6486C327.997 41.6454 319.342 36.8914 310.735 32.5112L311.808 32.0128L315.067 30.5463C320.099 28.3323 325.265 26.1853 330.403 24.1725C337.15 26.8371 343.936 29.7125 350.588 32.7796ZM300 13.9169C305.818 15.5655 311.665 17.4058 317.396 19.3898C315.153 20.3482 313.16 21.1917 311.32 21.9968C307.936 23.4824 304.342 25.1406 300 27.2109C295.649 25.1406 292.054 23.4824 288.671 21.9968C286.831 21.1917 284.837 20.3291 282.594 19.3898C288.316 17.4058 294.173 15.5655 300 13.9169ZM263.502 26.6166C270.115 29.3387 276.834 32.3195 283.495 35.4824C276.786 39.0096 270.077 42.7668 263.502 46.6486C256.792 42.6901 250.16 38.9329 243.738 35.4824C245.588 34.5815 247.495 33.6613 249.383 32.7796C253.994 30.6709 258.709 28.5911 263.502 26.6166ZM227.559 13.9265C229.687 14.5495 231.45 15.0767 233.089 15.5847H233.204C236.923 16.7444 240.738 18.0096 244.553 19.3514C238.879 21.7668 233.166 24.3834 227.559 27.1246C221.99 24.393 216.374 21.7764 210.843 19.3514C216.316 17.4058 221.933 15.5751 227.559 13.9265ZM211.543 35.4633C205.581 38.7316 199.687 42.1725 194.003 45.6901L193.256 46.1693L192.661 46.5431C190.744 45.3163 188.626 44.0128 186.594 42.7668C182.569 40.2939 178.457 37.8403 174.364 35.4633C180.335 32.3387 186.498 29.377 192.681 26.655C198.853 29.3674 205.198 32.3291 211.543 35.4633ZM150.268 17.099C153.144 16.0351 156.173 14.9808 159.326 13.9649C164.444 15.6038 169.658 17.4249 174.824 19.3802C169.62 21.7668 164.415 24.3546 159.335 27.0479C154.313 24.345 149.3 21.7668 144.403 19.3802C146.473 18.5367 148.39 17.7987 150.268 17.099ZM128.061 26.7796C130.447 27.9681 132.853 29.1853 135.201 30.4121C137.981 31.8594 140.952 33.4697 144.613 35.4824C139.102 38.8371 133.534 42.4888 128.07 46.3419C122.693 42.508 117.431 38.8371 112.438 35.4633C117.489 32.3674 122.751 29.4441 128.061 26.7796ZM99.3067 14.0511C103.476 15.6518 107.837 17.4345 112.256 19.3706C109.102 21.0383 106.016 22.7732 103.054 24.5367C102.096 25.1022 101.137 25.6965 100.179 26.2812L99.278 26.8466C95.4441 24.3834 91.7157 22.0543 88.3227 20.0703L87.3642 19.4856L87.1534 19.361C91.0543 17.4441 95.1278 15.6613 99.2875 14.0511H99.3067ZM62.0799 35.1374L62.7316 34.6102C66.115 31.984 69.7284 29.4441 73.4665 27.0767C77.6358 29.7125 82.0831 32.492 86.5591 35.4633C81.968 38.8083 77.5591 42.2971 73.4569 45.8339C69.345 42.1725 65.377 38.6837 61.6486 35.4633L62.0799 35.1374ZM50.9137 14.2907C53.9425 15.8243 57.1246 17.5304 60.3834 19.3514C57.1725 21.4984 53.9904 23.8371 50.9233 26.2907C48.0479 23.8466 45.1725 21.4984 42.508 19.3323C45.2128 17.4939 48.0192 15.8109 50.9137 14.2907ZM50.9137 44.8754C52.8307 46.5911 54.6805 48.3546 56.6645 50.1757L62.6741 55.7923C60.2588 58.1789 58.2748 60.2205 56.4249 62.2045C54.5751 64.1885 52.8978 66.0383 50.9329 68.3578C47.3003 63.8722 43.8978 59.6358 40.8307 55.7732C44.0118 51.9652 47.3904 48.3278 50.9521 44.8754H50.9137ZM32.0607 27.7955C34.754 30.1629 37.6198 32.7125 40.6006 35.3962C37.639 38.2716 34.7636 41.3674 32.0607 44.5399L29.3674 41.032L29.2907 40.9361C27.9681 39.2109 26.5879 37.3898 25.0735 35.3866C27.2444 32.7144 29.5783 30.1792 32.0607 27.7955ZM29.607 71.2428C30.4121 69.9681 31.2652 68.7029 32.0895 67.4856C34.9649 71.377 38.1949 75.5847 41.5974 79.9457C38.3866 84.2492 35.1853 88.8786 32.099 93.7284C29.4441 89.0895 26.885 84.4601 24.4984 79.9649C26.2907 76.6773 27.9681 73.8019 29.607 71.2428ZM24.4313 138.115C24.4792 137.99 24.5272 137.866 24.5847 137.741V137.665C26.8083 132.604 29.3291 127.38 32.0799 122.147C32.262 122.463 32.4441 122.78 32.6358 123.105C33.0192 123.744 33.4121 124.415 33.8147 125.118C36.3355 129.364 39.0767 133.859 41.9617 138.537C38.5304 144.115 35.2045 149.904 32.0895 155.741C29.2141 149.732 26.5783 143.943 24.2492 138.489L24.4313 138.115ZM32.099 188.252C34.8115 193.572 37.6677 198.987 40.6102 204.374L41.5687 206.061L42.1725 207.153C41.9712 207.527 41.7604 207.901 41.5495 208.275L40.5911 209.962L40.524 210.077C37.6486 215.473 34.7732 221.003 32.0895 226.543C29.3291 220.15 26.6741 213.633 24.2013 207.153C26.6837 200.693 29.3387 194.329 32.099 188.252ZM13.4665 19.1693C13.8978 18.623 14.3387 18.0671 14.7987 17.5495C15.5176 16.7348 16.2843 15.9393 17.0895 15.1821C18.6901 16.476 20.3866 17.8754 22.1502 19.361C20.4153 21.0575 18.7284 22.8498 17.147 24.7093C15.8914 22.9649 14.6454 21.1917 13.3131 19.3227L13.4665 19.1693ZM17.1853 46.9649C19.1022 49.7157 21.2204 52.6677 23.4537 55.754C21.2109 58.984 19.1118 62.2716 17.1949 65.5495C15.5942 62.2045 14.0895 58.9073 12.7188 55.7444C14.0597 52.7444 15.5502 49.8144 17.1853 46.9649ZM17.1853 95.1949C19.2843 99.2492 21.5272 103.457 23.8946 107.655L23.4824 108.403C22.8307 109.601 22.1597 110.837 21.5655 112.083C20.2141 114.7 18.8435 117.508 17.2716 120.901L17.0224 120.24C16.5911 119.109 16.1502 117.949 15.7476 116.818C14.7316 114.029 13.7348 111.067 12.5942 107.636C13.9649 103.428 15.5367 99.23 17.2524 95.2141L17.1853 95.1949ZM17.1853 156.623C19.3323 161.607 21.623 166.706 24.0096 171.796C21.6134 176.943 19.3131 182.224 17.1853 187.486C15.4696 182.252 13.8786 176.942 12.4409 171.815C13.9073 166.773 15.4984 161.617 17.2524 156.642L17.1853 156.623ZM17.2524 227.157C19.3994 232.677 21.7189 238.332 24.1438 243.949C21.738 249.527 19.4281 255.24 17.2524 260.933C15.5176 255.249 13.9073 249.527 12.4601 243.939C13.8978 238.284 15.508 232.649 17.2524 227.157ZM17.1565 572.607C15.6144 570.498 14.1997 568.3 12.9201 566.022C14.2524 563.511 15.6805 560.914 17.1661 558.297C19.016 560.962 21 563.559 23.0032 565.965L17.1565 572.607ZM17.1565 532.217C15.4984 528.757 13.9553 525.144 12.5655 521.463C13.9553 517.706 15.508 513.796 17.1661 509.799C19.1789 513.7 21.3642 517.61 23.6837 521.425C21.4505 525.077 19.2556 528.709 17.1949 532.217H17.1565ZM23.6933 463.466C22.9457 464.952 22.1693 466.495 21.4313 468C20.099 470.712 18.7476 473.559 17.1853 476.923L16.9553 476.329C16.5335 475.198 16.0831 474.029 15.6709 472.85C14.6454 469.974 13.6198 466.783 12.4696 462.949C13.8978 458.157 15.4888 453.249 17.1853 448.342C19.3419 453.278 21.623 458.147 23.9617 462.939L23.6933 463.466ZM17.2524 410.406C15.508 405.058 13.9073 399.633 12.4601 394.284C13.8882 388.927 15.4888 383.387 17.2524 377.808C19.3994 383.31 21.7093 388.859 24.1246 394.284C21.6709 399.681 19.361 405.125 17.2524 410.406ZM17.2524 336.891C15.5272 331.256 13.9265 325.486 12.4601 319.744C13.6581 315.01 14.722 311.051 15.8051 307.284C16.1789 305.99 16.5815 304.668 16.9649 303.393L17.2428 302.502C18.7572 306.508 20.0607 309.863 21.345 313.045C22.2556 315.278 23.1853 317.482 24.1534 319.754C21.7189 325.428 19.3994 331.198 17.2524 336.891ZM32.1374 261.556C35.3482 268.265 38.7412 275.07 42.2205 281.684C39.2396 287.367 36.3546 293.089 33.6709 298.687C33.3163 299.406 32.9808 300.134 32.6454 300.853L32.1182 301.917C29.4153 295.495 26.9233 289.198 24.7188 283.217C24.6134 282.93 24.508 282.633 24.4121 282.345C24.3163 282.058 24.2492 281.885 24.1629 281.645C26.5112 275.243 29.1853 268.476 32.1182 261.556H32.1374ZM32.1374 337.438C35.3195 344.147 38.7125 350.856 42.2205 357.47C38.6454 364.179 35.2524 370.773 32.147 377.147L31.7636 376.284C31.1789 374.943 30.5655 373.543 29.9904 372.173C28.0735 367.524 26.1565 362.712 24.2396 357.47C26.7125 350.617 29.377 343.888 32.1086 337.438H32.1374ZM29.9617 416.032L30.0096 415.917C30.5847 414.613 31.1885 413.281 31.7732 411.997L32.1374 411.173C35.2141 417.268 38.5687 423.47 42.115 429.623C38.6741 435.566 35.3099 441.546 32.1278 447.431C29.4153 441.805 26.77 435.824 24.2684 429.633C26.1661 424.821 28.0351 420.374 29.9329 416.032H29.9617ZM24.5847 493.284C26.8275 488.559 29.377 483.441 32.1374 478.073L32.6837 479.032C33.0671 479.712 33.4697 480.412 33.8722 481.093C36.3067 485.195 38.9904 489.441 41.8658 493.725C38.4633 498.709 35.1566 503.607 32.1374 508.284C29.3195 503.492 26.7125 498.585 24.3834 493.725L24.5847 493.284ZM35.3578 584.789C34.3035 585.47 33.23 586.141 32.0799 586.859C29.908 585.421 27.8358 583.835 25.8786 582.115C27.8339 580.108 29.9013 577.974 32.0799 575.712C34.4377 577.946 36.9201 580.102 39.4505 582.105C38.0224 583.045 36.6422 583.946 35.3291 584.789H35.3578ZM41.1853 545.732C38.0128 549.259 34.984 552.623 32.0895 555.863C29.4566 552.593 26.999 549.186 24.7284 545.655C27.0863 541.821 29.5687 537.987 32.1086 534.048C35.0511 538.121 38.1086 542.003 41.1949 545.55L41.2524 545.617L41.1853 545.732ZM50.9233 574.121C49.6869 573.163 48.623 572.358 47.655 571.572C45.738 569.981 43.6677 568.15 41.4249 566.003L50.9329 556.093C54.393 559.514 58.0735 562.85 61.869 566.003C58.0447 568.898 54.3546 571.629 50.9233 574.121ZM73.4377 587.319C69.901 585.757 66.4217 584.003 63.0671 582.105C65.5687 580.409 68.1757 578.597 70.8115 576.719L70.9361 576.633L72.5847 575.444L73.4473 574.831C76.7827 577.16 80.1565 579.364 83.5591 581.387C83.8658 581.569 84.1725 581.751 84.5176 581.923L84.8051 582.096C80.9042 583.955 77.0895 585.719 73.4377 587.3V587.319ZM113.942 566.176L113.339 566.54C108.613 569.348 103.888 572.051 99.278 574.572C94.4856 571.927 89.8658 569.042 85.4281 566.003C90.0671 562.505 94.7348 558.911 99.3067 555.316C104.099 559.006 109.131 562.591 114.259 565.984L113.942 566.176ZM128.042 587.463H127.917C123.393 585.882 118.85 584.089 114.403 582.134C118.802 579.786 123.383 577.236 128.051 574.534C132.709 577.198 137.53 579.748 142.428 582.125C137.53 584.013 132.709 585.824 128.042 587.444V587.463ZM142.246 565.974C147.853 562.505 153.604 558.805 159.355 554.99C163.275 557.569 166.543 559.649 169.639 561.527C172.102 563.032 174.633 564.527 177.173 565.984C171.029 569.166 165.019 572.118 159.316 574.754C153.767 572.147 148.026 569.195 142.246 565.955V565.974ZM208.658 582.211L207.403 582.661C202.505 584.396 197.55 586.035 192.652 587.521C187.332 585.901 181.965 584.061 176.712 582.077C181.898 579.68 187.256 577.083 192.652 574.332C198.01 577.045 203.521 579.652 209.032 582.067L208.658 582.211ZM223.514 573.096C218.482 570.891 213.383 568.505 208.351 565.984C209.317 565.46 210.275 564.923 211.227 564.374C216.527 561.393 222.01 558.192 227.521 554.856C233.962 558.69 240.556 562.524 247.112 565.984C240.566 569.137 233.981 572.109 227.521 574.831C226.198 574.227 224.799 573.642 223.514 573.077V573.096ZM263.511 587.54C257.837 585.911 252.01 584.07 246.316 582.057C251.626 579.796 257.032 577.351 262.371 574.811L262.486 574.754H262.581L263.032 574.524L263.482 574.313C269.233 577.073 275.08 579.7 280.812 582.105C274.994 584.07 269.166 585.911 263.511 587.54ZM279.939 565.974C286.39 562.572 293.128 558.805 299.99 554.78C306.834 558.796 313.572 562.562 320.032 565.974C313.39 569.137 306.613 572.118 299.99 574.84C293.291 572.109 286.581 569.128 279.939 565.965V565.974ZM336.489 587.54C330.824 585.911 324.987 584.07 319.16 582.057C324.911 579.652 330.719 577.026 336.498 574.265L337.399 574.706H337.486L337.601 574.764C342.939 577.304 348.345 579.748 353.655 582.01C347.923 584.061 342.173 585.901 336.47 587.54H336.489ZM372.451 574.821C365.99 572.109 359.406 569.128 352.85 565.974C359.396 562.476 365.99 558.738 372.441 554.847C377.981 558.192 383.463 561.393 388.735 564.364L391.61 565.984C386.578 568.495 381.479 570.882 376.447 573.086C375.173 573.642 373.802 574.227 372.431 574.811L372.451 574.821ZM407.348 587.54C402.451 586.054 397.486 584.415 392.597 582.681L391.342 582.22L390.968 582.086C396.479 579.671 401.99 577.064 407.348 574.351C412.735 577.102 418.102 579.7 423.288 582.096C418.006 584.042 412.639 585.882 407.348 587.54ZM422.828 566.003C425.367 564.546 427.898 563.051 430.361 561.546C433.466 559.629 436.735 557.578 440.655 555.01C446.406 558.843 452.157 562.524 457.754 565.994C452.003 569.233 446.252 572.185 440.684 574.773C434.962 572.099 428.962 569.157 422.799 565.965L422.828 566.003ZM472.093 587.435H471.968C467.31 585.815 462.479 584.003 457.591 582.048C462.451 579.671 467.281 577.121 471.968 574.457C476.626 577.16 481.208 579.709 485.607 582.057C481.15 584.022 476.578 585.815 472.064 587.396L472.093 587.435ZM500.722 574.591C496.121 572.08 491.396 569.377 486.671 566.559L486.077 566.204L485.741 566.003C490.869 562.61 495.901 559.026 500.693 555.335C505.275 558.939 509.943 562.534 514.572 566.022C510.105 569.032 505.438 571.907 500.693 574.553L500.722 574.591ZM526.601 587.339C522.939 585.757 519.125 583.994 515.262 582.115L515.569 581.933L516.47 581.406C519.844 579.383 523.246 577.179 526.591 574.85L527.415 575.444L529.217 576.738C531.853 578.607 534.451 580.419 536.962 582.125C533.559 583.984 530.08 585.738 526.543 587.3L526.601 587.339ZM552.374 571.591C551.415 572.387 550.332 573.22 549.115 574.141C545.665 571.658 541.974 568.927 538.16 566.022C541.994 562.859 545.645 559.524 549.105 556.112C552.498 559.671 555.665 562.974 558.604 566.022C556.304 568.131 554.262 569.952 552.316 571.553L552.374 571.591ZM567.987 586.927C566.828 586.208 565.754 585.537 564.7 584.856C563.396 584.013 562.016 583.112 560.607 582.172C563.147 580.16 565.629 578.013 567.978 575.78L574.179 582.182C572.205 583.881 570.117 585.444 567.93 586.859L567.987 586.927ZM567.987 555.939C565.112 552.671 562.026 549.288 558.834 545.732L558.891 545.665C561.968 542.07 565.026 538.188 567.968 534.163C570.508 538.054 572.99 541.955 575.348 545.76C573.057 549.277 570.574 552.665 567.911 555.911L567.987 555.939ZM567.987 508.351C564.92 503.665 561.652 498.767 558.249 493.792C561.125 489.508 563.818 485.262 566.243 481.16C566.645 480.489 567.038 479.799 567.422 479.118L567.978 478.16C570.748 483.527 573.288 488.645 575.53 493.371L575.645 493.629L575.732 493.811C573.288 498.585 570.681 503.482 567.872 508.284L567.987 508.351ZM567.987 447.498C564.805 441.613 561.441 435.623 558 429.69C561.537 423.546 564.901 417.336 567.978 411.24L568.342 412.035C568.927 413.329 569.53 414.671 570.105 415.984V416.099C572.022 420.451 573.872 424.898 575.799 429.7C573.24 435.824 570.594 441.853 567.872 447.431L567.987 447.498ZM570.125 372.24C569.55 373.62 568.936 375.019 568.342 376.371L567.978 377.214C564.863 370.84 561.47 364.227 557.895 357.527C561.393 350.962 564.786 344.233 567.987 337.505C570.709 343.955 573.374 350.684 575.904 357.537C573.853 362.703 571.955 367.514 570.01 372.173L570.125 372.24ZM575.674 282.47C575.578 282.757 575.473 283.035 575.367 283.323C573.163 289.313 570.681 295.601 567.978 302.032C567.796 301.658 567.633 301.284 567.46 300.92C567.125 300.201 566.789 299.482 566.444 298.764C563.751 293.166 560.875 287.444 557.885 281.76C561.374 275.128 564.757 268.342 567.968 261.633C570.911 268.562 573.585 275.329 575.933 281.76C575.722 281.923 575.645 282.163 575.559 282.403L575.674 282.47ZM582.93 572.674L577.083 566.08C579.115 563.636 581.07 561.038 582.92 558.412C584.406 561.029 585.796 563.626 587.166 566.137C585.849 568.38 584.396 570.541 582.815 572.607L582.93 572.674ZM582.93 532.284C580.879 528.796 578.674 525.172 576.393 521.492C578.712 517.658 580.907 513.757 582.911 509.866C584.569 513.843 586.121 517.764 587.511 521.53C585.987 525.144 584.444 528.757 582.748 532.217L582.93 532.284ZM584.454 472.802V472.917C584.051 474.077 583.61 475.236 583.179 476.358L582.949 476.99C581.387 473.626 580.073 470.789 578.693 468.067C577.965 466.572 577.198 465.038 576.451 463.562L576.173 463.016C578.55 458.224 580.821 453.336 582.939 448.409C584.636 453.307 586.227 458.224 587.655 463.016C586.332 466.773 585.326 469.84 584.31 472.735L584.454 472.802ZM582.891 410.502C580.754 405.211 578.444 399.796 576.029 394.38C578.444 388.955 580.754 383.415 582.891 377.904C584.636 383.482 586.246 389.022 587.684 394.38C586.102 399.681 584.492 405.058 582.748 410.406L582.891 410.502ZM582.891 336.987C580.735 331.304 578.415 325.534 575.99 319.84C576.949 317.578 577.907 315.374 578.789 313.131C580.073 309.968 581.387 306.613 582.891 302.588L583.179 303.546C583.562 304.802 583.965 306.105 584.339 307.38C585.422 311.137 586.486 315.096 587.674 319.84C586.073 325.495 584.463 331.265 582.748 336.891L582.891 336.987ZM582.891 261.038C580.725 255.345 578.406 249.633 576 244.054C578.435 238.428 580.792 232.783 582.901 227.262C584.607 232.735 586.217 238.371 587.693 244.045C586.093 249.537 584.482 255.249 582.748 260.943L582.891 261.038Z" fill="white"/>
</svg>