<svg xmlns="http://www.w3.org/2000/svg" width="600" height="600" viewBox="0 0 600 600" fill="none">
<g clip-path="url(#clip0)">
<g clip-path="url(#clip1)">
<path fill-rule="evenodd" clip-rule="evenodd" d="M302.799 102.397L291.685 122.895L304.939 141.5L327.719 139.745L337.778 119.316L325.232 100.63L302.799 102.397Z" stroke="white" stroke-width="6" stroke-miterlimit="1.5" stroke-linecap="round" stroke-linejoin="round"/>
<path d="M303.473 103.144L314.866 120.956L336.978 119.755" stroke="white" stroke-width="6" stroke-miterlimit="1.5" stroke-linecap="round" stroke-linejoin="round"/>
<path d="M314.925 121.324L305.792 141.117" stroke="white" stroke-width="6" stroke-miterlimit="1.5" stroke-linecap="round" stroke-linejoin="round"/>
<path fill-rule="evenodd" clip-rule="evenodd" d="M38.609 230.176L46.9385 200.815C46.9385 200.815 55.31 196.337 63.6915 205.013C72.0718 213.689 67.9495 220.993 67.9495 220.993L38.609 230.176Z" stroke="white" stroke-width="6" stroke-miterlimit="1.5" stroke-linecap="round" stroke-linejoin="round"/>
<path d="M48.2704 200.192L76.4441 192.503L68.8489 218.463" stroke="white" stroke-width="6" stroke-miterlimit="1.5" stroke-linecap="round" stroke-linejoin="round"/>
<path fill-rule="evenodd" clip-rule="evenodd" d="M490.492 400.783L474.857 426.981C474.857 426.981 465.612 429.135 459.757 418.584C453.903 408.032 459.773 402.047 459.773 402.047L490.492 400.783Z" stroke="white" stroke-width="6" stroke-miterlimit="1.5" stroke-linecap="round" stroke-linejoin="round"/>
<path d="M473.392 427.279L444.187 427.401L458.233 404.299" stroke="white" stroke-width="6" stroke-miterlimit="1.5" stroke-linecap="round" stroke-linejoin="round"/>
<path d="M131.111 155.95L163.983 159.309L161.583 192.73" stroke="white" stroke-width="6" stroke-miterlimit="1.5" stroke-linecap="round" stroke-linejoin="round"/>
<path d="M613.226 365.654L583.07 379.193L568.45 349.058" stroke="white" stroke-width="6" stroke-miterlimit="1.5" stroke-linecap="round" stroke-linejoin="round"/>
<path d="M216.703 284.1C207.168 281.463 200.158 272.71 200.158 262.333C200.158 249.87 210.267 239.752 222.719 239.752C226.695 239.752 230.432 240.784 233.678 242.594" stroke="white" stroke-width="6" stroke-miterlimit="1.5" stroke-linecap="round" stroke-linejoin="round"/>
<path d="M294.46 228.68C303.214 228.68 310.31 221.577 310.31 212.816C310.31 204.054 303.214 196.952 294.46 196.952C285.706 196.952 278.61 204.054 278.61 212.816C278.61 221.577 285.706 228.68 294.46 228.68Z" stroke="white" stroke-width="6" stroke-miterlimit="1.5" stroke-linecap="round" stroke-linejoin="round"/>
<path d="M-3.11747 432.722C5.63618 432.722 12.7324 425.619 12.7324 416.858C12.7324 408.096 5.63618 400.993 -3.11747 400.993C-11.8711 400.993 -18.9673 408.096 -18.9673 416.858C-18.9673 425.619 -11.8711 432.722 -3.11747 432.722Z" stroke="white" stroke-width="6" stroke-miterlimit="1.5" stroke-linecap="round" stroke-linejoin="round"/>
<path d="M203.866 356.31L184.699 390.533" stroke="white" stroke-width="6" stroke-miterlimit="1.5" stroke-linecap="round" stroke-linejoin="round"/>
<path d="M176.584 364.046L211.877 383.296" stroke="white" stroke-width="6" stroke-miterlimit="1.5" stroke-linecap="round" stroke-linejoin="round"/>
<path d="M419.151 145.549L398.18 166.028" stroke="white" stroke-width="6" stroke-miterlimit="1.5" stroke-linecap="round" stroke-linejoin="round"/>
<path d="M398.022 145.182L419.363 166.431" stroke="white" stroke-width="6" stroke-miterlimit="1.5" stroke-linecap="round" stroke-linejoin="round"/>
<path d="M388.731 466.691L389.22 505.921" stroke="white" stroke-width="6" stroke-miterlimit="1.5" stroke-linecap="round" stroke-linejoin="round"/>
<path d="M368.978 486.924L409.159 485.925" stroke="white" stroke-width="6" stroke-miterlimit="1.5" stroke-linecap="round" stroke-linejoin="round"/>
<path fill-rule="evenodd" clip-rule="evenodd" d="M266.935 303.518L271.84 320.486L288.405 316.5L292.104 332.806L310.241 329.937L296.156 351.925L252.91 324.485L266.935 303.518Z" stroke="white" stroke-width="6" stroke-miterlimit="1.5" stroke-linecap="round" stroke-linejoin="round"/>
<path d="M555.675 75.1047C558.967 75.1047 561.636 70.6582 561.636 65.1732C561.636 59.6882 558.967 55.2417 555.675 55.2417C552.384 55.2417 549.715 59.6882 549.715 65.1732C549.715 70.6582 552.384 75.1047 555.675 75.1047Z" stroke="white" stroke-width="6" stroke-miterlimit="1.5" stroke-linecap="round" stroke-linejoin="round"/>
<path d="M554.796 75.3764C554.796 75.3764 511.622 80.0469 508.333 80.0469C505.044 80.0469 502.373 75.5973 502.373 70.1154C502.373 64.6336 505.088 60.7172 508.333 60.184C511.733 59.6266 554.796 55.2417 554.796 55.2417" stroke="white" stroke-width="6" stroke-miterlimit="1.5" stroke-linecap="round" stroke-linejoin="round"/>
<path d="M-3.78071 306.02C-6.63205 304.372 -11.1643 306.887 -13.9037 311.637C-16.6432 316.386 -16.5525 321.572 -13.7011 323.22C-10.8498 324.868 -6.31754 322.354 -3.5781 317.604C-0.838655 312.854 -0.929367 307.668 -3.78071 306.02Z" stroke="white" stroke-width="6" stroke-miterlimit="1.5" stroke-linecap="round" stroke-linejoin="round"/>
<path d="M-2.92383 306.319C-2.92383 306.319 36.8039 323.892 39.6528 325.539C42.5016 327.185 42.5942 332.374 39.8578 337.119C37.1213 341.864 32.8151 343.896 29.7375 342.732C26.5149 341.513 -12.9747 323.748 -12.9747 323.748" stroke="white" stroke-width="6" stroke-miterlimit="1.5" stroke-linecap="round" stroke-linejoin="round"/>
<path fill-rule="evenodd" clip-rule="evenodd" d="M248.718 517.361C251.563 509.012 260.258 507.27 265.357 510.139C270.455 513.007 271.958 520.485 269.113 528.835C267.197 535.052 260.498 542.228 254.727 547.274C247.455 544.84 238.503 540.799 234.334 535.8C228.484 529.192 226.982 521.715 230.578 517.104C234.174 512.494 242.868 510.753 248.718 517.361Z" stroke="white" stroke-width="6" stroke-miterlimit="1.5" stroke-linecap="round" stroke-linejoin="round"/>
<path fill-rule="evenodd" clip-rule="evenodd" d="M400.117 324.956C407.876 320.771 415.435 325.412 417.225 330.985C419.014 336.558 415.035 343.063 407.275 347.248C401.645 350.503 391.857 351.205 384.198 350.977C380.519 344.244 376.701 335.189 377.04 328.686C377.241 319.86 381.221 313.355 386.99 312.423C392.76 311.491 400.317 316.13 400.117 324.956Z" stroke="white" stroke-width="6" stroke-miterlimit="1.5" stroke-linecap="round" stroke-linejoin="round"/>
<path fill-rule="evenodd" clip-rule="evenodd" d="M525.266 151.364L498.502 180.489L515.075 182.476L506.962 204.298L535.371 173.532L519.456 171.502L525.266 151.364Z" stroke="white" stroke-width="6" stroke-miterlimit="1.5" stroke-linecap="round" stroke-linejoin="round"/>
<path fill-rule="evenodd" clip-rule="evenodd" d="M99.0697 378L86.9326 415.647L102.823 410.514L104.579 433.723L117.524 393.898L102.213 398.717L99.0697 378Z" stroke="white" stroke-width="6" stroke-miterlimit="1.5" stroke-linecap="round" stroke-linejoin="round"/>
<path d="M334.392 430.748C334.392 430.748 340.861 405.964 373.986 411.997" stroke="white" stroke-width="6" stroke-miterlimit="1.5" stroke-linecap="round" stroke-linejoin="round"/>
<path d="M78.4899 93.6432C78.4899 93.6432 52.9022 93.8266 50.1807 60.2303" stroke="white" stroke-width="6" stroke-miterlimit="1.5" stroke-linecap="round" stroke-linejoin="round"/>
<path d="M305.663 46.0694L344.855 8.9624" stroke="white" stroke-width="6" stroke-miterlimit="1.5" stroke-linecap="round" stroke-linejoin="round"/>
<path d="M300.769 580.504L339.962 543.397" stroke="white" stroke-width="6" stroke-miterlimit="1.5" stroke-linecap="round" stroke-linejoin="round"/>
<path d="M227.57 90.2282L206.914 69.5535L186.257 90.2282L206.914 110.903L227.57 90.2282Z" stroke="white" stroke-width="6" stroke-miterlimit="1.5" stroke-linecap="round" stroke-linejoin="round"/>
<path fill-rule="evenodd" clip-rule="evenodd" d="M22.5534 521.139L31.4662 494.657L2.89771 500.136L-4.74477 528.49L22.5534 521.139Z" stroke="white" stroke-width="6" stroke-miterlimit="1.5" stroke-linecap="round" stroke-linejoin="round"/>
<path d="M525.759 291.447L497.723 283.21L489.551 311.275L517.587 319.512L525.759 291.447Z" stroke="white" stroke-width="6" stroke-miterlimit="1.5" stroke-linecap="round" stroke-linejoin="round"/>
<path d="M425.402 56.5955L421.402 67.3597" stroke="white" stroke-width="6" stroke-miterlimit="1.5" stroke-linecap="round" stroke-linejoin="round"/>
<path d="M412.989 90.6348L409.228 101.711" stroke="white" stroke-width="6" stroke-miterlimit="1.5" stroke-linecap="round" stroke-linejoin="round"/>
<path d="M424.687 88.1206L432.825 97.2701" stroke="white" stroke-width="6" stroke-miterlimit="1.5" stroke-linecap="round" stroke-linejoin="round"/>
<path d="M428.937 76.5631L441.072 74.7756" stroke="white" stroke-width="6" stroke-miterlimit="1.5" stroke-linecap="round" stroke-linejoin="round"/>
<path d="M409.205 69.0774L401.692 60.4636" stroke="white" stroke-width="6" stroke-miterlimit="1.5" stroke-linecap="round" stroke-linejoin="round"/>
<path d="M404.848 80.5776L393.383 82.9427" stroke="white" stroke-width="6" stroke-miterlimit="1.5" stroke-linecap="round" stroke-linejoin="round"/>
<path d="M272.44 425.368L264.566 433.72" stroke="white" stroke-width="6" stroke-miterlimit="1.5" stroke-linecap="round" stroke-linejoin="round"/>
<path d="M247.679 451.827L239.905 460.561" stroke="white" stroke-width="6" stroke-miterlimit="1.5" stroke-linecap="round" stroke-linejoin="round"/>
<path d="M259.479 454.172L263.416 465.771" stroke="white" stroke-width="6" stroke-miterlimit="1.5" stroke-linecap="round" stroke-linejoin="round"/>
<path d="M267.674 445.05L279.546 448.136" stroke="white" stroke-width="6" stroke-miterlimit="1.5" stroke-linecap="round" stroke-linejoin="round"/>
<path d="M252.423 430.416L248.852 419.553" stroke="white" stroke-width="6" stroke-miterlimit="1.5" stroke-linecap="round" stroke-linejoin="round"/>
<path d="M244.085 439.365L232.605 437.072" stroke="white" stroke-width="6" stroke-miterlimit="1.5" stroke-linecap="round" stroke-linejoin="round"/>
<path d="M148.283 51.962C145.27 46.7351 136.912 45.9197 129.613 50.1407C122.315 54.3617 118.84 62.0207 121.853 67.2476C124.866 72.4746 133.224 73.2901 140.523 69.0691C147.821 64.8481 151.296 57.189 148.283 51.962Z" stroke="white" stroke-width="6" stroke-miterlimit="1.5" stroke-linecap="round" stroke-linejoin="round"/>
<path d="M120.474 64.5273L114.17 21.2874L145.086 48.2102" stroke="white" stroke-width="6" stroke-miterlimit="1.5" stroke-linecap="round" stroke-linejoin="round"/>
<path d="M144.612 575.25C141.599 570.023 133.24 569.208 125.942 573.429C118.643 577.65 115.169 585.309 118.182 590.536C121.194 595.763 129.553 596.578 136.852 592.357C144.15 588.136 147.624 580.477 144.612 575.25Z" stroke="white" stroke-width="6" stroke-miterlimit="1.5" stroke-linecap="round" stroke-linejoin="round"/>
<path d="M116.802 587.815L110.498 544.575L141.414 571.498" stroke="white" stroke-width="6" stroke-miterlimit="1.5" stroke-linecap="round" stroke-linejoin="round"/>
<path d="M88.5983 490.284C88.5983 490.284 97.3465 480.971 113.753 483.937C130.161 486.904 129.685 506.716 118.054 508.253C106.424 509.791 98.176 482.272 126.262 474.749C154.347 467.225 159.677 495.434 145.963 498.52C132.248 501.607 122.377 466.975 160.161 464.295" stroke="white" stroke-width="6" stroke-miterlimit="1.5" stroke-linecap="round" stroke-linejoin="round"/>
<path d="M50.9866 157.355C50.9866 157.355 38.2211 157.749 28.715 144.041C19.2088 130.33 33.5421 116.657 42.8527 123.802C52.1624 130.946 38.5539 156.242 13.379 141.684C-11.7958 127.128 4.36438 103.409 16.2419 110.933C28.1212 118.456 10.6336 149.931 -17.9772 125.085" stroke="white" stroke-width="6" stroke-miterlimit="1.5" stroke-linecap="round" stroke-linejoin="round"/>
<path d="M537.091 436.423L558.244 427.103L566.416 445.372L587.143 436.423L597.489 455.027L616.692 445.372L626.096 466.175" stroke="white" stroke-width="6" stroke-miterlimit="1.5" stroke-linecap="round" stroke-linejoin="round"/>
<path d="M144.877 248.568L147.555 271.537L127.694 273.987L130.142 296.439L109.322 300.87L112.893 322.072L90.2496 324.956" stroke="white" stroke-width="6" stroke-miterlimit="1.5" stroke-linecap="round" stroke-linejoin="round"/>
<path d="M652.102 202.737L638.618 220.854L620.361 209.926L608.55 227.892L590.011 214.589" stroke="white" stroke-width="6" stroke-miterlimit="1.5" stroke-linecap="round" stroke-linejoin="round"/>
<path d="M526.382 487.058V514.127L504.306 504.33V531.838" stroke="white" stroke-width="6" stroke-miterlimit="1.5" stroke-linecap="round" stroke-linejoin="round"/>
<path d="M585.388 104.439L611.517 111.434L596.339 130.236L622.892 137.345" stroke="white" stroke-width="6" stroke-miterlimit="1.5" stroke-linecap="round" stroke-linejoin="round"/>
<path d="M355.517 245.824L374.002 260.381L389.994 245.824L406.978 260.381L422.647 242.015" stroke="white" stroke-width="6" stroke-miterlimit="1.5" stroke-linecap="round" stroke-linejoin="round"/>
<path d="M220.266 176.088C222.3 176.088 223.95 174.438 223.95 172.401C223.95 170.365 222.3 168.715 220.266 168.715C218.232 168.715 216.583 170.365 216.583 172.401C216.583 174.438 218.232 176.088 220.266 176.088Z" fill="white"/>
<path d="M60.463 279.753C62.4972 279.753 64.1463 278.102 64.1463 276.066C64.1463 274.03 62.4972 272.379 60.463 272.379C58.4287 272.379 56.7795 274.03 56.7795 276.066C56.7795 278.102 58.4287 279.753 60.463 279.753Z" fill="white"/>
<path d="M450.019 216.703C452.053 216.703 453.702 215.052 453.702 213.016C453.702 210.98 452.053 209.33 450.019 209.33C447.985 209.33 446.336 210.98 446.336 213.016C446.336 215.052 447.985 216.703 450.019 216.703Z" fill="white"/>
<path d="M441.517 517.254C443.551 517.254 445.2 515.603 445.2 513.567C445.2 511.531 443.551 509.88 441.517 509.88C439.483 509.88 437.834 511.531 437.834 513.567C437.834 515.603 439.483 517.254 441.517 517.254Z" fill="white"/>
</g>
</g>
<defs>
<clipPath id="clip0">
<rect width="600" height="600" fill="white"/>
</clipPath>
<clipPath id="clip1">
<rect width="794" height="600" fill="white" transform="translate(-24)"/>
</clipPath>
</defs>
</svg>