<svg xmlns="http://www.w3.org/2000/svg" width="600" height="600" viewBox="0 0 600 600" fill="none">
<g clip-path="url(#clip0)">
<path d="M290.846 585.933C289.168 585.933 287.249 585.933 285.211 585.933L278.656 585.495L271.022 584.976L262.309 583.94L257.793 583.222C256.194 583.022 254.556 582.703 252.877 582.424C249.52 581.826 245.963 581.308 242.326 580.63L230.975 578.117C229.016 577.719 226.978 577.16 225.02 576.602L218.905 574.927C200.341 569.626 182.348 562.506 165.188 553.673C162.79 552.556 160.512 551.161 158.114 549.685L150.959 545.697L143.845 541.271C141.447 539.796 139.009 538.32 136.691 536.645L129.577 531.74L127.778 530.504L126.02 529.188L122.503 526.517C120.184 524.682 117.746 522.967 115.428 521.013L108.514 515.152C106.156 513.237 103.958 511.164 101.679 509.01C99.4012 506.857 97.0831 505.023 94.8848 502.63C90.5284 498.164 85.9721 493.738 81.8554 488.873L78.658 485.284L77.0593 483.489L75.5405 481.615L69.4255 474.038C68.3863 472.802 67.4271 471.446 66.4678 470.051L63.5502 466.063L60.6326 462.075C59.6733 460.719 58.794 459.324 57.8748 458.087L52.3593 449.713L47.2034 441.02C45.4049 438.149 43.8861 435.118 42.2874 432.128L39.8893 427.621C39.4897 426.864 39.09 426.106 38.6903 425.348L37.6112 423.036L33.2547 413.704C31.8958 410.554 30.6168 407.324 29.2579 404.134C28.6185 402.539 27.899 400.944 27.3395 399.309L25.6209 394.404L23.7024 389.419C23.1029 387.784 22.5434 386.109 22.0638 384.435L19.0662 374.346C18.107 370.956 17.3876 367.527 16.5083 364.097L15.2693 358.953L14.2701 353.769C13.6306 350.3 12.8712 346.83 12.3916 343.321L10.9927 332.794C10.9927 331.916 10.7529 331.039 10.633 330.162L10.3932 327.49L9.99353 322.226L9.51392 316.843C9.51392 315.088 9.51392 313.294 9.27412 311.499L8.95437 300.892V290.085C8.95437 288.291 8.95437 286.457 8.95437 284.702L9.31408 279.398L9.99353 274.214V271.582L10.5131 268.99L11.7921 258.423C12.2317 254.914 12.9511 251.445 13.5507 247.935L14.4699 242.711L15.629 237.527C16.4283 234.098 17.1078 230.629 18.027 227.199L20.8647 217.15C21.3044 215.436 21.8639 213.801 22.4235 212.126L24.1021 207.141L25.7808 202.156C26.3403 200.521 27.0198 198.887 27.6592 197.291C28.9382 194.061 30.1372 190.791 31.656 187.601L35.8926 178.15L36.9317 175.798C37.2914 175 37.6911 174.243 38.0908 173.485L40.4089 168.899C41.9677 165.868 43.4465 162.758 45.205 159.847L49.9612 150.795L55.3968 142.261C56.3161 140.865 57.1554 139.43 58.1146 138.034L60.9923 134.046L63.8699 130.059C64.8292 128.703 65.7484 127.347 66.7876 126.071L72.8627 118.335L74.3814 116.421L75.9801 114.586L79.1376 110.918C83.1344 105.933 87.7706 101.387 92.1271 96.8012C94.3253 94.5283 96.6434 92.4148 98.8816 90.2215C101.12 88.0283 103.478 85.5559 105.916 83.7216L112.79 77.5805C115.069 75.5866 117.507 73.7922 119.865 71.918L123.382 69.1266L125.14 67.7707L126.939 66.4947L133.893 61.6297C136.211 59.8751 138.689 58.3996 141.087 56.8444L148.242 52.2586L155.436 48.2709C157.834 46.915 160.152 45.4396 162.55 44.2831C179.881 35.0168 198.089 27.4833 216.906 21.7925L223.141 19.998C225.179 19.3999 227.138 18.8017 229.176 18.3631L240.727 15.6514C244.444 14.8937 248.041 14.2956 251.478 13.6177C253.197 13.2987 254.875 12.9796 256.514 12.7404L261.31 12.1024L270.183 10.906L278.177 10.2281L284.971 9.66985C287.049 9.66985 288.968 9.66985 290.607 9.43059L300.998 9.11157H290.607C288.928 9.11157 287.009 9.11157 284.931 9.11157L278.137 9.5901L270.143 10.1484L261.23 11.1852L256.394 11.7435C254.756 11.9827 253.077 12.3017 251.358 12.5809C247.921 13.179 244.284 13.7373 240.567 14.4551L228.936 17.0072C226.898 17.406 224.94 18.0042 222.861 18.5624L216.586 20.2772C197.678 25.715 179.351 32.9943 161.871 42.0102C159.393 43.1666 157.075 44.6022 154.637 45.9979L147.282 49.9856L139.888 54.5316C137.45 56.0469 134.932 57.5622 132.574 59.2769L125.3 64.3014L123.462 65.5775L121.663 66.9333L117.906 69.6051C115.508 71.4793 113.03 73.2339 110.672 75.2278L103.558 81.2093C101.12 83.1633 98.8816 85.197 96.5635 87.5099C94.2454 89.8228 92.0471 91.8565 89.9289 94.1295C85.4525 98.7153 80.8162 103.261 76.5797 108.246L73.3023 111.915L71.6636 113.749L70.1049 115.663L63.6701 123.439C62.591 124.715 61.6318 126.111 60.6326 127.427L57.635 131.415L54.6374 135.402C53.6382 136.758 52.7589 138.234 51.7997 139.629L46.1643 148.203L40.9285 157.335C39.09 160.286 37.5312 163.396 35.8926 166.466L33.4545 171.092C33.0549 171.85 32.6152 172.647 32.2555 173.405L31.1364 175.798L26.7 185.249C25.3011 188.479 24.0222 191.788 22.7032 195.058C22.0638 196.693 21.3443 198.328 20.7049 200.003L18.9063 205.187L17.1477 210.251C16.5482 211.926 15.9487 213.641 15.4691 215.356L12.3916 225.644C11.3924 229.113 10.673 232.623 9.79369 236.132L8.51473 241.395L7.51554 246.739C6.87605 250.288 5.99677 253.837 5.55712 257.426C3.39399 271.819 2.20558 286.34 2 300.892L2 311.898C2 313.733 2 315.527 2 317.361L2.35971 322.824L2.71942 328.288V330.999L3.03916 333.711L4.35809 344.557C4.8377 348.146 5.55712 351.735 6.15664 355.324L7.63544 360.708L8.83447 366.011C9.67379 369.521 10.3532 373.109 11.3125 376.579L14.2301 386.987C14.6697 388.741 15.2693 390.416 15.8288 392.131L17.5474 397.235L19.266 402.339C19.8655 404.014 20.545 405.689 21.1845 407.324C22.5034 410.634 23.7424 413.983 25.1812 417.253L29.5377 426.943L30.6168 429.336C30.9766 430.134 31.4162 430.931 31.8159 431.689L33.9741 436.474C35.5728 439.585 37.0916 442.735 38.8902 445.726L44.046 454.778L49.6015 463.511C50.5607 464.946 51.4 466.422 52.3992 467.818L55.3568 471.805L58.3144 475.793C59.3136 477.189 60.2329 478.584 61.312 479.781L67.507 487.756L69.0657 489.71L70.7044 491.584L73.9418 495.333C78.1784 500.437 82.7747 505.063 87.251 509.768C89.4892 512.121 91.8873 514.274 94.1654 516.507C96.4436 518.741 98.7217 520.934 101.16 522.967L108.274 529.148C110.632 531.182 113.11 533.136 115.508 534.97L119.105 537.802L120.904 539.197L122.742 540.513L130.056 545.737C132.454 547.532 134.972 549.047 137.41 550.642L144.725 555.348L152.198 560.093C154.637 561.489 156.995 562.964 159.513 564.081C177.252 573.561 195.888 581.268 215.148 587.09L221.502 588.924C223.581 589.522 225.499 590.16 227.697 590.599L239.688 593.39C243.684 594.148 247.162 594.786 250.679 595.464C252.437 595.783 254.156 596.142 255.835 596.381L260.751 597.019L269.823 598.216C272.701 598.495 275.419 598.694 277.817 598.893L284.851 599.452C286.969 599.452 288.848 599.452 290.527 599.691L300.918 600.01V593.071V586.133L290.846 585.933Z" fill="white"/>
<path d="M597.199 257.307C596.719 253.718 596 250.129 595.4 246.54L594.481 241.077L593.282 235.773C592.443 232.264 591.763 228.675 590.804 225.206L587.886 214.798C587.447 213.044 586.847 211.369 586.288 209.654L584.569 204.55L582.85 199.445C582.251 197.771 581.572 196.096 580.932 194.461C579.613 191.151 578.374 187.801 576.935 184.531L572.579 174.841L571.5 172.409C571.14 171.611 570.7 170.814 570.301 170.056L567.903 165.351C566.304 162.24 564.785 159.09 562.987 156.099L557.831 147.047L552.275 138.314C551.316 136.878 550.477 135.403 549.477 134.007L546.52 130.019L543.562 126.032C542.563 124.636 541.644 123.24 540.565 122.044L534.37 114.069L532.811 112.115L531.172 110.24L527.935 106.492C523.698 101.388 519.102 96.762 514.626 92.0565C512.387 89.7038 509.989 87.5504 507.711 85.3173C505.433 83.0842 503.155 80.8909 500.717 78.8572L493.603 72.3572C491.245 70.3235 488.767 68.3695 486.369 66.5352L482.771 63.7039L480.973 62.3082L479.134 60.9923L471.82 55.7684C469.422 53.9739 466.904 52.4586 464.466 50.8635L457.152 46.158L449.918 41.6918C447.48 40.2961 445.122 38.8206 442.604 37.7041C424.861 28.2512 406.226 20.5707 386.969 14.7747L380.614 12.9404C378.536 12.3422 376.617 11.7042 374.419 11.2656L362.429 8.47417C358.432 7.7165 354.955 7.07847 351.438 6.40056C349.719 6.12142 348.16 5.8024 346.482 5.52326L341.726 4.84535L332.453 3.64904C329.575 3.3699 326.858 3.17052 324.46 2.97113L317.305 2.37298C315.187 2.37298 313.309 2.37298 311.63 2.13371L301.238 1.8147V8.75331V15.6919H311.63C313.309 15.6919 315.227 15.6919 317.265 15.6919L323.82 16.1306L331.454 16.649L340.167 17.6858L344.883 18.244C346.482 18.4434 348.12 18.7625 349.799 19.0416C353.156 19.6397 356.714 20.1581 360.351 20.8361L371.701 23.3483C373.66 23.7471 375.698 24.3452 377.657 24.8636L383.772 26.5385C402.335 31.8403 420.328 38.9597 437.488 47.793C439.886 48.9095 442.164 50.3451 444.562 51.7807L451.717 55.7684L458.831 60.1947C461.229 61.7101 463.667 63.1456 465.985 64.8205L473.099 69.7253L474.898 70.9615L476.656 72.2775L480.174 74.9492C482.492 76.7836 484.93 78.4983 487.208 80.4523L494.122 86.3142C496.48 88.2283 498.679 90.3019 500.957 92.4553C503.235 94.6086 505.553 96.443 507.751 98.8356C512.108 103.302 516.624 107.728 520.781 112.593L523.978 116.182L525.577 117.977L527.096 119.851L533.211 127.427C534.25 128.664 535.209 130.019 536.168 131.415L539.086 135.403L542.004 139.391C542.963 140.746 543.842 142.142 544.761 143.378L550.277 151.752L555.433 160.446C557.231 163.317 558.75 166.347 560.349 169.338L562.747 173.844C563.146 174.602 563.546 175.36 563.946 176.117L565.025 178.43L569.381 187.761C570.74 190.912 572.019 194.142 573.378 197.332C574.018 198.927 574.737 200.522 575.297 202.157L577.015 207.062L578.734 212.007C579.333 213.642 579.893 215.277 580.372 216.991L583.37 227.08C584.329 230.47 585.049 233.899 585.928 237.329L587.167 242.473L588.166 247.657C588.806 251.126 589.565 254.595 590.045 258.105C592.066 272.28 593.121 286.575 593.202 300.893V311.62C593.202 313.414 593.202 315.248 593.202 317.003L592.842 322.307L592.483 327.61V330.242C592.483 331.12 592.283 331.997 592.163 332.874L590.884 343.442C590.444 346.951 589.725 350.42 589.165 353.929L588.246 359.153L587.087 364.337C586.288 367.767 585.608 371.236 584.689 374.665L581.292 384.635C580.852 386.349 580.293 387.984 579.733 389.659L578.054 394.644L576.376 399.628C575.816 401.263 575.137 402.898 574.497 404.493C573.218 407.723 572.019 410.993 570.5 414.183L566.264 423.634L565.225 425.987C564.865 426.785 564.465 427.542 564.066 428.3L561.748 432.886C560.189 435.916 558.71 439.027 556.951 441.938L551.915 450.791L546.48 459.324C545.561 460.72 544.721 462.156 543.762 463.551L540.884 467.539L538.007 471.527C537.048 472.883 536.128 474.238 535.089 475.514L529.014 483.251L527.495 485.165L525.897 486.999L522.739 490.668C518.742 495.652 514.106 500.198 509.75 504.784C507.551 507.057 505.233 509.171 502.995 511.364C500.757 513.557 498.519 515.71 496.161 517.704L489.326 524.204C487.048 526.198 484.61 527.993 482.252 529.867L478.735 532.658L476.976 534.054L475.178 535.33L468.063 540.155C465.745 541.91 463.267 543.385 460.869 544.94L453.635 549.726L446.441 553.713C444.043 555.069 441.725 556.545 439.327 557.701C421.995 566.967 403.788 574.5 384.971 580.192L378.736 581.986C376.697 582.584 374.739 583.182 372.701 583.621L361.15 586.333C357.433 587.09 353.836 587.689 350.399 588.367C348.68 588.685 347.001 589.005 345.363 589.244L340.527 589.882L331.654 591.078L323.66 591.756L316.866 592.314C314.787 592.314 312.869 592.314 311.19 592.554L300.799 592.873H311.19C312.869 592.873 314.787 592.873 316.866 592.873L323.66 592.394L331.654 591.836L340.567 590.799L345.403 590.241C347.041 590.041 348.72 589.682 350.439 589.403C353.876 588.805 357.513 588.247 361.23 587.529L372.86 584.977C374.899 584.578 376.857 583.98 378.936 583.422L385.21 581.707C404.232 576.264 422.666 568.958 440.246 559.894C442.724 558.738 445.042 557.302 447.48 555.907L454.834 551.919L462.108 547.373C464.546 545.858 467.064 544.342 469.422 542.628L476.696 537.603L478.535 536.327L480.333 534.971L483.931 532.22C486.329 530.345 488.807 528.591 491.165 526.597L498.279 520.615C500.717 518.661 502.955 516.628 505.273 514.315C507.591 512.002 509.949 510.048 512.228 507.775C516.664 503.189 521.34 498.643 525.577 493.658L528.854 489.99L530.493 488.155L532.052 486.241L538.327 478.465C539.406 477.189 540.365 475.833 541.364 474.478L544.362 470.49L547.359 466.502C548.358 465.146 549.238 463.671 550.197 462.275L555.832 453.702L561.108 444.809C562.947 441.858 564.505 438.748 566.144 435.677L568.582 431.051C568.982 430.294 569.421 429.496 569.781 428.739L570.9 426.346L575.377 416.775C576.775 413.545 578.054 410.236 579.373 406.966C580.013 405.331 580.732 403.696 581.372 402.021L583.13 396.996L584.889 391.932C585.488 390.257 586.088 388.543 586.567 386.828L589.605 376.5C590.604 373.03 591.324 369.521 592.203 366.012L593.482 360.748L594.481 355.405C595.121 351.856 595.88 348.307 596.4 344.718L597.878 333.911C597.878 332.994 598.118 332.116 598.238 331.199L598.478 328.448L598.957 322.985L599.397 317.521C599.397 315.687 599.397 313.932 599.637 312.098L599.997 301.212C600.063 286.53 599.129 271.862 597.199 257.307Z" fill="white"/>
<path d="M324.259 578.279C326.297 578.279 328.255 578.08 330.214 577.801L341.485 576.524C345.082 576.006 348.519 575.408 351.796 574.89C353.435 574.61 355.034 574.371 356.592 574.092L361.109 573.135L369.462 571.34C372.1 570.702 374.538 569.985 376.816 569.386L383.171 567.672C385.089 567.153 386.728 566.555 388.247 566.077L397.439 563.126L395.241 556.546L393.043 549.966L383.89 553.077C382.412 553.555 380.733 554.193 378.934 554.712L373.059 556.387L366.225 558.301L358.231 560.135L353.915 561.132C352.436 561.451 350.917 561.69 349.358 561.969C346.241 562.528 342.963 563.166 339.566 563.724L328.855 565.12C327.016 565.399 325.098 565.518 323.179 565.678L317.304 566.156C278.012 568.834 238.607 562.928 201.838 548.85C199.16 547.933 196.522 546.776 193.844 545.66C191.166 544.543 188.528 543.466 185.851 542.23C180.615 539.678 175.219 537.285 169.863 534.255C159.13 528.543 148.807 522.094 138.968 514.954L131.455 509.411L124.18 503.47C122.981 502.473 121.702 501.516 120.543 500.439L117.026 497.249L113.509 494.059C112.31 492.982 111.151 491.945 110.032 490.789L103.237 484.01C100.959 481.737 98.8809 479.304 96.6827 476.912L93.4053 473.323L90.3278 469.574C88.2895 467.062 86.3311 464.59 84.1728 461.998C76.1879 451.59 68.9236 440.652 62.4304 429.258C56.023 417.684 50.4016 405.694 45.604 393.369L45.3642 392.811V392.611V392.332L44.9645 391.136L44.1252 388.743L42.4865 383.998L40.8479 379.253L39.5289 374.667C38.6496 371.477 37.6105 368.366 36.8111 365.176L34.533 355.526C34.533 354.728 34.1333 353.931 33.9734 353.093L33.5338 350.661L32.6545 345.796L31.6953 340.771C31.3755 339.136 31.2556 337.501 31.0158 335.866C30.6161 332.796 29.9766 329.526 29.7368 326.296L28.9375 316.526C27.2195 290.916 29.239 265.192 34.9326 240.161L35.9318 235.615L37.1309 231.109C37.9702 228.119 38.6896 225.128 39.6089 222.217C41.5273 216.395 43.2459 210.573 45.4841 204.99L47.0828 200.763L47.8822 198.649L48.7614 196.616L52.2786 188.64C52.8382 187.284 53.4776 185.969 54.1171 184.653L56.0356 180.665C57.3545 178.073 58.5136 175.441 60.0323 172.969C78.8204 137.629 105.234 106.889 137.37 82.9661L142.246 79.417C143.845 78.2606 145.403 77.0643 147.002 76.0673L156.274 70.006C159.312 68.1717 162.27 66.4968 165.027 64.8619C166.426 64.0643 167.785 63.2269 169.024 62.4692L173.021 60.3956L180.415 56.4079C182.773 55.2914 185.011 54.2944 187.09 53.3374L192.845 50.7055C194.603 49.908 196.282 49.3098 197.721 48.7117L206.714 45.1626L197.841 48.7117C196.362 49.2699 194.723 49.8681 192.925 50.6258L187.13 53.1779C185.051 54.0951 182.773 55.0521 180.375 56.1687L172.901 59.8772L168.904 61.911C167.545 62.6287 166.146 63.4263 164.907 64.2238C162.07 65.8189 159.072 67.4539 156.035 69.2483L146.642 75.1501C145.004 76.1471 143.445 77.3035 141.806 78.4201L136.85 81.8894C103.991 105.439 76.7846 135.976 57.1946 171.294C55.6759 173.766 54.4768 176.438 53.1979 179.03L51.1995 183.018C50.52 184.334 49.8406 185.649 49.2411 187.005L45.5241 195.18L44.6048 197.254L43.7655 199.367L41.9669 203.594C39.6089 209.177 37.7304 215.079 35.692 221.14C34.7328 224.091 33.9334 227.122 33.0542 230.152L31.7352 234.698L30.6561 239.324C24.4646 264.674 21.9875 290.786 23.302 316.845L23.9415 326.854C24.2613 330.204 24.7009 333.514 25.0606 336.863C25.2605 338.538 25.4203 340.213 25.7001 341.888L26.5394 346.872L27.3787 351.857L27.8184 354.369C27.8184 355.207 28.1781 356.004 28.338 356.842L30.5362 366.771C31.2956 370.081 32.2948 373.351 33.1741 376.661L34.533 381.605L36.0917 386.391L37.6904 391.176L38.4898 393.568L38.8894 394.765V395.084V395.483L39.1292 396.081C43.8411 408.829 49.4092 421.246 55.7958 433.246C62.3922 445.049 69.7901 456.387 77.9378 467.182C79.9362 469.893 81.9346 472.445 84.1328 475.157L87.2503 479.145L90.5676 482.893C92.8058 485.365 94.9241 487.918 97.2023 490.31L104.117 497.408C105.236 498.605 106.435 499.721 107.674 500.838L111.271 504.187L114.868 507.537C116.067 508.654 117.346 509.651 118.585 510.727L125.899 516.828L133.573 522.69C143.65 530.246 154.24 537.095 165.267 543.187C170.583 546.337 176.138 548.89 181.534 551.641C184.252 552.957 187.01 554.114 189.767 555.31C192.525 556.506 195.203 557.742 197.961 558.739C218.485 566.98 239.908 572.788 261.789 576.046C280.309 578.748 299.051 579.63 317.744 578.678L324.259 578.279Z" fill="white"/>
<path d="M218.226 48.7499C219.705 48.2714 221.384 47.6333 223.182 47.1149L229.057 45.4401L235.892 43.526L243.885 41.6917L248.202 40.6947C249.681 40.3757 251.2 40.1364 252.758 39.8573C255.876 39.299 259.153 38.661 262.55 38.1027L273.262 36.707C275.1 36.4279 277.019 36.3082 278.937 36.1487L284.812 35.6702C324.102 32.9785 363.507 38.871 400.279 52.937C402.957 53.8542 405.595 55.0106 408.272 56.1271C410.95 57.2437 413.588 58.3204 416.266 59.5566C421.502 62.1087 426.897 64.5013 432.253 67.532C442.987 73.2438 453.31 79.6928 463.148 86.8325L470.662 92.3754L477.616 98.1974C478.815 99.1944 480.094 100.151 481.253 101.228L484.77 104.418L488.288 107.608C489.487 108.645 490.646 109.722 491.765 110.878L498.559 117.657C500.837 119.93 502.916 122.363 505.114 124.756L508.391 128.345L511.469 132.093C513.507 134.605 515.466 137.078 517.624 139.67C525.608 150.077 532.873 161.016 539.366 172.409C545.774 183.983 551.395 195.973 556.193 208.298L556.432 208.856V209.056V209.335L556.832 210.531L557.671 212.924L559.31 217.669L560.949 222.415L562.348 227.16C563.227 230.35 564.266 233.46 565.065 236.651L567.344 246.301C567.344 247.098 567.743 247.896 567.903 248.733L568.343 251.166L569.222 256.031L570.101 260.896C570.421 262.531 570.541 264.166 570.781 265.801C571.22 269.071 571.66 272.301 572.06 275.571L572.859 285.341C574.577 310.951 572.557 336.674 566.864 361.705L565.865 366.251L564.666 370.757C563.826 373.748 563.107 376.739 562.228 379.65C560.309 385.472 558.591 391.294 556.353 396.877L554.754 401.104L553.954 403.217L553.075 405.251L549.558 413.226C548.998 414.582 548.359 415.898 547.719 417.214L545.801 421.202C544.482 423.794 543.323 426.426 541.804 428.898C522.989 464.198 496.562 494.896 464.427 518.781L459.551 522.33C457.952 523.486 456.393 524.683 454.795 525.68L445.562 531.701C442.525 533.535 439.567 535.21 436.809 536.845C435.41 537.643 434.052 538.48 432.813 539.238L428.816 541.311L421.422 545.299C419.064 546.416 416.825 547.413 414.747 548.37L408.992 551.002C407.233 551.799 405.555 552.397 404.116 552.995L395.123 556.544L404.156 553.115C405.635 552.557 407.273 551.959 409.072 551.201L414.867 548.649C416.945 547.732 419.223 546.775 421.622 545.658L429.096 541.949L433.092 539.916C434.451 539.198 435.85 538.4 437.089 537.603C439.927 536.008 442.924 534.373 445.962 532.578L455.354 526.677C456.993 525.68 458.552 524.523 460.19 523.407L465.146 519.937C497.927 496.376 525.064 465.855 544.602 430.573C546.121 428.1 547.32 425.429 548.599 422.837L550.597 418.849C551.277 417.533 551.956 416.217 552.556 414.861L556.273 406.686L557.552 404.573L558.391 402.46L560.07 398.233C562.428 392.61 564.306 386.708 566.304 380.846C567.264 377.895 568.063 374.865 568.942 371.834L570.261 367.288L571.34 362.662C577.591 337.253 580.109 311.073 578.814 284.942L578.175 274.933C577.855 271.583 577.415 268.273 577.056 264.923C576.856 263.249 576.696 261.574 576.416 259.899L575.577 254.914L574.738 249.93L574.298 247.417C574.298 246.58 573.938 245.782 573.778 244.945L571.58 235.016C570.821 231.706 569.822 228.436 568.942 225.126L567.583 220.181L566.025 215.396L564.426 210.611L563.627 208.218L563.227 207.022V206.743V206.344L562.987 205.746C558.274 192.998 552.706 180.582 546.321 168.58C539.818 156.746 532.514 145.368 524.458 134.525C522.46 131.814 520.462 129.262 518.263 126.55L515.146 122.562L511.829 118.814C509.59 116.342 507.472 113.789 505.194 111.397L498.28 104.299C497.16 103.102 495.961 101.986 494.762 100.869L491.165 97.5195L487.568 94.1699C486.369 93.0533 485.09 92.0564 483.851 90.9797L476.417 84.719L468.743 78.8571C458.667 71.3013 448.076 64.4526 437.049 58.3603C431.733 55.21 426.178 52.6578 420.782 49.9063C418.064 48.5904 415.307 47.434 412.549 46.2376C409.791 45.0413 407.113 43.8051 404.356 42.8082C383.706 34.6227 362.161 28.894 340.168 25.7408C321.647 23.0394 302.906 22.1579 284.213 23.1089L277.778 23.5077C275.74 23.5077 273.781 23.7071 271.823 23.9862L260.592 25.2623C256.995 25.7807 253.558 26.3789 250.28 26.8973C248.642 27.1764 247.043 27.4157 245.484 27.6948L240.968 28.6519L232.615 30.4463C229.977 31.0844 227.539 31.8021 225.261 32.4003L218.906 34.115C216.987 34.6334 215.349 35.2316 213.83 35.7101L204.637 38.661L206.835 45.2407L209.034 51.8204L218.226 48.7499Z" fill="white"/>
<path d="M453.835 494.016C452.715 494.893 451.436 496.01 449.838 497.006L445.641 500.276C444.002 501.473 442.244 502.749 440.325 504.264L433.651 508.252L430.214 510.485L426.497 512.638C423.939 514.074 421.301 515.669 418.503 517.224L409.67 521.77C406.593 523.325 403.275 524.721 399.918 526.276C366.568 540.895 330.423 548.081 294.004 547.331C291.366 547.331 288.728 547.331 286.01 547.052C283.292 546.773 280.695 546.813 278.017 546.574C272.661 546.015 267.225 545.617 261.79 544.66C250.649 543.051 239.632 540.679 228.817 537.561L220.543 535.089L212.51 532.178C211.151 531.7 209.752 531.261 208.513 530.703L204.516 529.068L200.519 527.393C199.161 526.835 197.802 526.316 196.523 525.638L188.529 521.89C185.851 520.654 183.253 519.178 180.536 517.902L176.539 515.828L172.542 513.555C169.984 512 167.346 510.565 164.788 508.93C154.529 502.408 144.716 495.215 135.412 487.396C126.147 479.371 117.428 470.738 109.313 461.556L108.554 460.718V460.479L108.194 460.04L106.715 458.246L103.758 454.657L100.8 451.068C99.8409 449.872 98.9616 448.636 98.0823 447.399C96.2838 444.927 94.4453 442.534 92.6867 440.022L87.6108 432.366C85.8522 429.853 84.4134 427.142 82.8147 424.39C81.216 421.639 79.6572 419.166 78.2983 416.415L74.0218 408.439L70.025 400.185C60.0606 378.531 53.3021 355.548 49.9612 331.955L49.3617 327.688C49.3617 326.253 49.082 324.817 48.9621 323.422L48.2027 314.888C48.2027 309.225 47.6032 303.603 47.763 298.02C47.7742 287.124 48.5086 276.24 49.9612 265.44C54.9098 228.741 68.034 193.614 88.3702 162.637C90.5284 159.527 92.3669 156.416 94.5652 153.585L100.8 145.37C102.838 142.818 104.797 140.426 106.795 138.113C107.754 136.956 108.674 135.8 109.633 134.723L112.471 131.653L117.706 125.99C119.385 124.275 121.064 122.68 122.543 121.205L126.539 117.217C127.818 115.981 129.097 114.944 130.176 113.947L136.851 108.006L130.056 113.828C128.977 114.785 127.698 115.822 126.379 117.018L122.103 121.006C120.584 122.481 118.905 123.996 117.187 125.711L111.871 131.294L108.993 134.324C108.034 135.401 107.075 136.518 106.116 137.674C104.157 139.987 102.119 142.3 99.9608 144.852L93.9257 152.947C91.7674 155.778 89.9289 158.849 87.5308 161.919C66.4322 192.818 52.5428 228.042 46.8837 265.002C45.2094 275.92 44.2614 286.937 44.046 297.98C43.7663 303.643 44.046 309.345 44.046 315.127L44.6455 323.82C44.6455 325.256 44.6455 326.731 45.0053 328.167L45.5248 332.553C46.8737 344.426 49.1047 356.182 52.1994 367.725C55.3168 379.586 59.3249 391.197 64.1897 402.458L67.9867 410.952L72.1833 419.286C73.5422 422.117 75.1409 424.789 76.6996 427.501C78.2584 430.212 79.7372 433.004 81.4957 435.476L86.5716 443.452C88.3302 446.044 90.2487 448.596 92.0472 451.188C92.9665 452.464 93.8857 453.78 94.805 455.175L97.7226 458.844L100.64 462.513L102.079 464.347L102.439 464.786V465.025L102.679 465.304L103.478 466.181C111.658 475.77 120.47 484.802 129.857 493.218C139.306 501.448 149.293 509.041 159.752 515.948C162.35 517.663 165.028 519.218 167.746 520.853L171.743 523.246L175.74 525.479C178.457 526.914 181.135 528.509 183.733 529.825L192.006 533.813C193.365 534.491 194.764 535.089 196.003 535.687L200.2 537.482L204.196 539.276C205.595 539.874 207.034 540.353 208.433 540.871L217.825 544.141L226.379 546.853C237.559 550.288 248.964 552.953 260.511 554.828C266.146 555.905 271.782 556.383 277.377 557.101C280.175 557.42 282.933 557.54 285.691 557.739C288.448 557.939 291.206 558.178 293.924 558.178C332.014 559.612 369.959 552.739 405.114 538.04C408.671 536.445 412.188 535.089 415.426 533.494L424.858 528.868C427.856 527.313 430.653 525.678 433.331 524.203L437.328 521.97L440.965 519.697L447.679 515.509C449.758 514.114 451.676 512.758 453.515 511.522L458.511 508.052C460.029 506.976 461.229 505.979 462.507 505.062L469.582 499.598L465.305 494.175L460.829 488.313L453.835 494.016Z" fill="white"/>
<path d="M186.772 68.5268L177.34 73.1526C174.342 74.7078 171.544 76.3427 168.866 77.8182L164.87 80.0513L161.233 82.3243L154.518 86.5114C152.44 87.9071 150.521 89.3028 148.683 90.4991L143.687 93.9684C142.168 95.0451 140.969 96.042 139.69 96.9592L132.616 102.422L136.892 107.846L141.329 113.468L148.323 107.885C149.442 107.008 150.721 105.892 152.32 104.895L156.676 101.505C158.315 100.309 160.074 99.0328 161.992 97.5175L168.307 93.5298L171.744 91.2966L175.461 89.1433C178.019 87.7077 180.657 86.1126 183.455 84.5574L192.327 79.9715C195.405 78.4163 198.722 77.0206 202.08 75.4654C235.43 60.8465 271.575 53.6611 307.994 54.4103C310.632 54.4103 313.27 54.4104 315.987 54.6895C318.705 54.9686 321.303 54.9288 323.981 55.168C329.337 55.7263 334.772 56.1251 340.208 57.0821C351.349 58.6905 362.366 61.0622 373.181 64.1802L381.454 66.6526L389.688 69.6035C391.047 70.082 392.446 70.5207 393.685 71.079L397.681 72.7139L401.678 74.3888C403.037 74.947 404.396 75.4654 405.675 76.1433L413.668 79.8918C416.386 81.128 418.944 82.6034 421.662 83.8795L425.659 85.9531L429.655 88.2261C432.213 89.7813 434.851 91.2169 437.409 92.8518C447.668 99.3728 457.482 106.566 466.785 114.385C476.051 122.411 484.77 131.043 492.884 140.226L493.644 141.063V141.302L494.003 141.741L495.482 143.536L498.44 147.125L501.397 150.713C502.357 151.91 503.236 153.146 504.115 154.382C505.914 156.855 507.752 159.247 509.511 161.759L514.587 169.416C516.345 171.928 517.784 174.6 519.383 177.391C520.982 180.183 522.54 182.615 523.899 185.367L528.176 193.342L532.172 201.597C537.133 212.53 541.262 223.82 544.523 235.372C547.759 246.651 550.151 258.154 551.677 269.786L552.276 274.053C552.276 275.489 552.556 276.924 552.676 278.32L553.435 286.854C553.435 292.516 554.035 298.139 553.875 303.722C553.849 314.606 553.101 325.476 551.637 336.261C546.809 372.959 533.808 408.113 513.588 439.144C511.429 442.255 509.591 445.365 507.393 448.196L501.357 456.411C499.319 458.963 497.361 461.356 495.362 463.669C494.403 464.825 493.484 465.982 492.525 467.058L489.687 470.129L484.451 475.791C482.772 477.506 481.094 479.101 479.615 480.577L475.618 484.564C474.339 485.8 473.06 486.837 471.981 487.834L465.307 493.776L472.101 487.954C473.18 486.997 474.459 485.96 475.778 484.764L480.055 480.776C481.573 479.301 483.252 477.785 484.971 476.07L490.326 470.488L493.204 467.457C494.163 466.38 495.122 465.264 496.082 464.107C498.04 461.794 500.078 459.482 502.237 456.929L508.552 448.954C510.71 446.123 512.548 443.052 514.946 439.982C535.95 409.02 549.73 373.755 555.274 336.78C556.948 325.862 557.896 314.845 558.112 303.802C558.391 298.139 558.112 292.437 558.112 286.654L557.512 277.961C557.512 276.526 557.512 275.05 557.152 273.615L556.633 269.228C555.149 257.372 552.785 245.643 549.558 234.136C546.441 222.275 542.433 210.664 537.568 199.403L533.771 190.91L529.575 182.575C528.216 179.744 526.617 177.072 525.058 174.361C523.499 171.649 522.021 168.858 520.262 166.385L515.186 158.41C513.428 155.818 511.509 153.266 509.711 150.674C508.791 149.398 507.872 148.082 506.953 146.686L504.035 143.017L501.118 139.349L499.679 137.514L499.319 137.076V136.836L499.079 136.557L498.28 135.68C490.101 126.091 481.288 117.059 471.901 108.643C462.452 100.413 452.465 92.8198 442.005 85.9132C439.408 84.1985 436.73 82.6433 434.012 81.0084L430.015 78.6157L426.018 76.3826C423.301 74.947 420.623 73.352 418.025 72.036L409.752 68.0483C408.393 67.3704 406.994 66.7722 405.755 66.1741L401.558 64.3796L397.561 62.5851C396.163 61.987 394.724 61.5085 393.325 60.9901L384.372 57.6404L375.819 54.9288C364.638 51.4932 353.234 48.8284 341.687 46.9533C336.051 45.8767 330.416 45.3981 324.82 44.6803C322.022 44.3613 319.265 44.2417 316.507 44.0423C313.749 43.8429 310.991 43.6037 308.274 43.6037C270.184 42.1698 232.238 49.0422 197.084 63.7416C193.566 65.6158 190.049 66.9317 186.772 68.5268Z" fill="white"/>
<path d="M480.971 459.761C483.089 457.488 484.968 455.175 486.886 453.061L489.604 449.911L492.042 446.801L496.558 441.058C497.957 439.224 499.156 437.39 500.355 435.755L503.593 431.169C504.592 429.773 505.311 428.497 506.031 427.181L510.427 420.243L504.512 416.614L498.597 412.985L494.32 420.003C493.601 421.12 492.841 422.476 491.962 423.991L489.045 428.258C488.005 429.773 486.886 431.448 485.647 433.203L481.651 438.706L479.412 441.696L476.894 444.727C475.136 446.761 473.377 448.954 471.459 451.187L465.224 457.887C463.066 460.199 460.628 462.433 458.229 464.825C434.006 487.839 405.013 505.263 373.298 515.868C371.06 516.705 368.702 517.343 366.344 518.061C363.986 518.779 361.668 519.537 359.27 520.095C354.473 521.291 349.637 522.607 344.641 523.484C339.645 524.362 334.609 525.279 329.494 526.037C326.936 526.435 324.338 526.595 321.74 526.914L317.743 527.313C316.424 527.313 315.105 527.313 313.746 527.552L305.753 527.99H297.759C295.081 527.99 292.404 527.99 289.766 527.99H285.769H283.731H281.692L273.699 527.273C270.981 526.994 268.263 526.555 265.705 526.196L261.708 525.638L257.712 524.88C254.994 524.362 252.276 523.923 249.718 523.285C238.862 520.843 228.181 517.686 217.744 513.834C207.21 509.796 196.956 505.067 187.049 499.678L186.13 499.199L185.29 498.721L183.452 497.644L179.735 495.451L176.018 493.258L172.501 490.945C170.182 489.389 167.824 487.874 165.506 486.279L157.872 480.656C155.554 479.061 153.436 477.187 151.238 475.432C149.04 473.678 146.841 471.923 144.803 470.009L138.688 464.387L132.733 458.485C124.97 450.63 117.809 442.206 111.31 433.282L108.872 430.012L106.594 426.623C105.115 424.35 103.516 422.157 102.118 419.844L98.1207 412.945C97.4013 411.789 96.7618 410.632 96.1623 409.476L94.2838 405.967C91.646 401.341 89.5677 396.476 87.2895 391.81L84.1321 384.632C83.6524 383.436 83.1329 382.24 82.6533 381.043L81.3343 377.415C77.8625 368.053 75.0055 358.475 72.7812 348.743C68.789 330.8 66.9377 312.449 67.2657 294.072C67.6171 278.511 69.5454 263.027 73.021 247.854C73.8604 244.504 74.5798 241.195 75.499 238.084L78.2168 229.072C79.1361 226.201 80.1753 223.489 81.0945 220.897L82.4534 216.909L83.9322 213.36L86.65 206.82C87.5693 204.787 88.4885 202.833 89.3279 201.158L91.646 196.293C92.3654 194.817 93.1248 193.502 93.7243 192.305L97.7211 185.048L93.7243 192.225C93.0848 193.422 92.2855 194.698 91.566 196.213L89.168 201.038C88.3287 202.793 87.3295 204.627 86.4102 206.661L83.3327 213.161L81.774 216.71L80.3351 220.698C79.3759 223.29 78.2968 226.001 77.2976 228.673L74.4199 237.645C73.4607 240.756 72.7013 244.066 71.7421 247.415C67.9515 262.637 65.7152 278.201 65.0675 293.872C64.3894 312.463 65.9188 331.069 69.6238 349.301C71.646 359.247 74.3162 369.051 77.6173 378.651L78.8963 382.359C79.3359 383.596 79.8555 384.792 80.3351 386.028L83.2528 393.405C85.491 398.23 87.5293 403.215 90.1272 407.96L91.9657 411.589C92.5652 412.825 93.2047 414.022 93.9241 415.178L97.9209 422.316C99.3198 424.709 100.879 426.982 102.357 429.335L104.596 432.844L107.034 436.233C113.508 445.489 120.669 454.246 128.456 462.433L134.651 468.374L140.926 474.276C142.964 476.27 145.243 478.264 147.441 479.979C149.639 481.693 151.797 483.966 154.155 485.482L161.07 490.745C163.428 492.46 165.866 494.055 168.264 495.73L171.901 498.202L175.578 500.475L179.255 502.708L181.094 503.825L182.093 504.423L183.052 504.942C193.163 510.679 203.644 515.741 214.427 520.095C225.187 524.292 236.216 527.769 247.44 530.503C250.238 531.181 253.035 531.699 255.833 532.297L260.03 533.175L264.266 533.852C267.064 534.251 269.862 534.77 272.7 535.129L281.133 536.046L283.251 536.285H285.369L289.566 536.524C292.364 536.524 295.161 536.883 297.919 536.883H306.232L314.466 536.604C315.825 536.604 317.224 536.604 318.463 536.604L322.459 536.245C325.177 536.006 327.855 535.846 330.453 535.487C335.809 534.77 341.084 534.171 346.44 533.135C351.796 532.098 356.752 531.021 361.787 529.905C364.305 529.346 366.743 528.549 369.221 527.911C371.699 527.273 374.137 526.595 376.496 525.757C410.017 515.273 440.824 497.577 466.743 473.917C469.34 471.445 471.938 469.132 474.296 466.739L480.971 459.761Z" fill="white"/>
<path d="M107.756 181.659C108.475 180.543 109.234 179.187 110.114 177.871L113.031 173.604C114.071 172.089 115.19 170.414 116.429 168.659L120.425 163.156L122.664 160.165L125.182 157.135C126.94 155.101 128.699 152.868 130.617 150.675L136.852 143.975C139.01 141.663 141.448 139.429 143.846 137.037C168.069 114.022 197.063 96.5975 228.778 85.9941C231.016 85.1567 233.374 84.5187 235.732 83.8009C238.09 83.0831 240.408 82.3255 242.806 81.7273C247.603 80.531 252.439 79.2549 257.435 78.3377C262.431 77.4206 267.466 76.5433 272.582 75.7856C275.14 75.3868 277.738 75.2273 280.336 74.9083L284.333 74.5095C285.652 74.5095 286.971 74.5095 288.33 74.2703L296.323 73.8316H304.317C306.994 73.8316 309.672 73.8316 312.31 73.8316H316.307H318.345H320.384L328.377 74.5494C331.095 74.8286 333.813 75.2672 336.371 75.6261L340.367 76.1844L344.364 76.942C347.082 77.4605 349.8 77.8991 352.358 78.5371C363.213 80.9799 373.895 84.1371 384.332 87.988C394.865 92.0261 405.12 96.7552 415.027 102.144L415.946 102.623L416.786 103.101L418.624 104.178L422.341 106.371L426.058 108.565L429.575 110.877C431.893 112.433 434.252 113.948 436.57 115.543L443.364 120.528C445.682 122.163 447.801 123.997 449.999 125.752C452.197 127.506 454.395 129.261 456.434 131.175L463.468 137.396L469.423 143.298C477.187 151.165 484.348 159.603 490.846 168.54L493.284 171.81L495.562 175.199C497.041 177.472 498.639 179.665 500.038 181.978L504.035 188.877C504.755 190.033 505.394 191.19 505.993 192.386L507.872 195.895C510.51 200.521 512.588 205.386 514.866 210.052L517.864 217.23C518.344 218.426 518.863 219.622 519.343 220.819L520.662 224.447C524.171 233.78 527.068 243.331 529.335 253.039C536.848 286.26 536.766 320.743 529.095 353.928C528.255 357.278 527.536 360.588 526.617 363.698L523.939 372.71C523.02 375.581 521.981 378.293 521.061 380.885L519.702 384.873L518.224 388.422L515.506 394.962C514.587 396.995 513.667 398.949 512.828 400.624L510.51 405.489C509.79 406.965 509.031 408.281 508.432 409.477L504.435 416.735L508.432 409.557C509.071 408.36 509.87 407.084 510.59 405.569L512.988 400.744C513.827 398.989 514.826 397.155 515.746 395.121L518.783 388.621L520.342 385.072L521.781 381.085C522.74 378.492 523.819 375.781 524.818 373.109L527.696 364.137C528.655 361.026 529.454 357.717 530.374 354.367C534.163 339.146 536.4 323.581 537.048 307.91C537.726 289.319 536.197 270.713 532.492 252.481C530.471 242.535 527.8 232.731 524.499 223.131L523.22 219.423C522.78 218.187 522.26 216.99 521.781 215.754L518.863 208.377C516.625 203.552 514.587 198.567 511.989 193.822L510.15 190.193C509.551 188.957 508.911 187.76 508.192 186.604L504.195 179.466C502.796 177.073 501.237 174.8 499.759 172.448L497.52 168.938L495.082 165.549C488.592 156.307 481.418 147.563 473.62 139.39L467.505 133.408L461.23 127.506C459.191 125.512 456.913 123.518 454.715 121.804C452.517 120.089 450.358 117.816 448 116.301L441.086 111.037C438.728 109.322 436.29 107.727 433.892 106.052L430.255 103.58L426.578 101.307L422.901 99.0339L421.062 97.9174L420.063 97.3192L419.104 96.8008C409.034 91.0413 398.592 85.9525 387.849 81.5678C377.089 77.3699 366.06 73.8929 354.836 71.1599C352.038 70.482 349.24 69.9636 346.443 69.3654L342.246 68.4881L338.009 67.8102C335.212 67.4114 332.414 66.893 329.576 66.5341L321.143 65.617L319.025 65.3777H316.906L312.71 65.1384C309.912 65.1384 307.114 64.7795 304.357 64.7795H296.043L287.81 65.0587C286.451 65.0587 285.052 65.0587 283.813 65.0587L279.816 65.4176C277.099 65.6568 274.421 65.8163 271.823 66.1752C266.467 66.893 261.192 67.4912 255.836 68.528C250.48 69.5648 245.524 70.6415 240.488 71.758C237.97 72.3163 235.532 73.1139 233.054 73.7519C230.576 74.3899 228.138 75.0678 225.78 75.9052C192.258 86.3884 161.451 104.085 135.533 127.745C132.935 130.218 130.337 132.531 127.979 134.923L121.265 141.902C119.146 144.175 117.268 146.488 115.35 148.601L112.632 151.751L110.194 154.862L105.677 160.604C104.278 162.438 103.079 164.273 101.88 165.908L98.643 170.494C97.6438 171.889 96.9244 173.165 96.205 174.481L91.6887 181.26L97.6039 184.889L103.519 188.518L107.756 181.659Z" fill="white"/>
<path d="M503.992 343.92C503.752 345.116 503.512 346.512 503.193 347.908L502.073 352.494C501.674 354.129 501.274 355.923 500.754 357.797L498.956 363.819L497.957 367.089L496.758 370.478C495.918 372.791 495.119 375.223 494.12 377.736L490.922 385.472C489.803 388.144 488.404 390.815 486.926 393.447C473.48 420.855 454.11 444.948 430.212 463.99C423.152 469.64 415.729 474.822 407.99 479.502C403.993 482.014 399.996 484.128 395.799 486.401C393.721 487.477 391.563 488.474 389.405 489.551L386.167 491.106L382.85 492.542C364.666 500.532 345.435 505.903 325.736 508.493L318.142 509.33C315.624 509.569 313.066 509.689 310.508 509.848L306.512 510.088H302.515C299.957 510.088 297.399 510.088 294.801 510.088C284.48 509.853 274.185 508.934 263.986 507.336L256.352 505.901C255.073 505.622 253.754 505.422 252.355 505.143L248.639 504.226C246.161 503.588 243.643 503.109 241.165 502.312L234.45 500.278C231.972 499.56 229.574 498.603 227.136 497.766L223.499 496.49L219.942 495.054C217.584 494.057 215.186 493.14 212.827 492.103L205.833 488.793C187.823 480.007 171.161 468.701 156.353 455.217L153.875 452.824L151.277 450.272C149.559 448.557 147.84 446.922 146.161 445.168C142.964 441.619 139.647 438.229 136.689 434.561C130.724 427.59 125.223 420.237 120.222 412.548C103.383 386.261 92.612 356.567 88.6879 325.616C88.3682 322.466 87.9285 319.396 87.6887 316.445L87.1292 307.871C87.1292 305.12 87.1292 302.448 87.1292 299.896C87.1292 298.62 87.1292 297.383 87.1292 296.187V292.678L87.369 286.178C87.369 284.144 87.6887 282.19 87.8486 280.476L88.2882 275.571C88.2882 274.055 88.6879 272.7 88.8078 271.583L89.9269 263.887L88.7279 271.344C88.7279 272.54 88.2883 273.896 88.0884 275.331L87.5289 280.236C87.5289 281.991 87.0892 283.905 86.9293 285.939L86.5297 292.439L86.3298 295.988C86.3298 297.211 86.3298 298.447 86.3298 299.696C86.3298 302.248 86.3298 304.88 86.3298 307.672L86.6895 316.325C86.6895 319.316 87.2091 322.386 87.4889 325.577C90.812 356.93 101.078 387.154 117.545 414.064C122.368 422.02 127.708 429.653 133.532 436.913C136.449 440.901 139.727 444.251 142.924 447.919C144.563 449.714 146.321 451.429 148.04 453.223L150.638 455.895L153.356 458.447C168.226 472.544 185.035 484.454 203.275 493.818L210.349 497.287C212.748 498.404 215.186 499.401 217.584 500.477L221.221 502.033L224.938 503.428C227.416 504.345 229.894 505.342 232.412 506.14L240.005 508.572C242.523 509.41 245.161 509.968 247.759 510.686L251.756 511.723C253.075 512.082 254.314 512.281 255.753 512.56L263.746 514.195C274.314 516.076 284.996 517.248 295.72 517.704C298.398 517.704 301.036 517.704 303.714 517.704H307.711H311.707C314.345 517.704 317.023 517.704 319.701 517.305L327.695 516.588C348.303 514.36 368.49 509.218 387.646 501.315L391.123 499.919L394.52 498.364C396.799 497.327 399.077 496.33 401.275 495.214C405.671 492.901 410.068 490.747 414.185 488.235C422.4 483.44 430.291 478.112 437.805 472.284C463.444 452.693 484.41 427.675 499.196 399.03C500.635 396.079 502.153 393.248 503.392 390.457L506.949 382.481C508.029 379.849 508.948 377.257 509.907 374.825L511.266 371.236L512.385 367.766L514.463 361.386C515.063 359.352 515.543 357.398 516.062 355.604L517.381 350.619C517.781 349.104 518.02 347.788 518.3 346.632L519.899 339.254L513.104 337.859L506.31 336.463L503.992 343.92Z" fill="white"/>
<path d="M91.6879 230.431L90.5688 233.901L88.4905 240.281C87.891 242.315 87.4113 244.269 86.8918 246.063L85.5728 251.048C85.1732 252.563 84.9333 253.879 84.6536 255.036L83.0549 262.413L89.8494 263.809L96.6439 265.204L98.0827 257.787C98.3225 256.591 98.5623 255.195 98.8821 253.799L100.001 249.214C100.401 247.579 100.801 245.784 101.32 243.91L103.119 237.889L104.118 234.619L105.317 231.229C106.156 228.916 106.956 226.484 107.955 223.971L111.152 216.235C112.271 213.563 113.67 210.892 115.149 208.26C128.533 180.824 147.848 156.69 171.703 137.598C178.738 131.964 186.134 126.795 193.845 122.125C197.842 119.613 201.839 117.5 206.035 115.187C208.114 114.11 210.272 113.113 212.43 112.036L215.668 110.481L218.985 109.046C237.169 101.054 256.399 95.6838 276.099 93.0948L283.693 92.2574C286.211 92.0181 288.768 91.8985 291.326 91.739L295.323 91.4997H299.32C301.878 91.4997 304.436 91.4997 307.034 91.4997C317.317 91.7676 327.571 92.7134 337.729 94.331L345.363 95.7666C346.642 96.0457 347.961 96.2451 349.359 96.5242L353.076 97.4414C355.554 98.0795 358.072 98.558 360.55 99.3555L367.705 101.509C370.183 102.227 372.581 103.184 375.019 104.021L378.656 105.297L382.213 106.733C384.571 107.73 386.969 108.647 389.327 109.684L396.281 112.954C414.25 121.749 430.871 133.055 445.642 146.53L448.359 148.963L450.957 151.515C452.676 153.229 454.394 154.864 456.073 156.619C459.271 160.168 462.588 163.558 465.545 167.226C471.47 174.2 476.93 181.553 481.892 189.238C498.81 215.56 509.637 245.311 513.587 276.33C513.906 279.48 514.346 282.551 514.586 285.542L515.145 294.115C515.145 296.867 515.145 299.538 515.145 302.091V305.799V309.308L514.906 315.808C514.906 317.842 514.586 319.796 514.426 321.511L513.986 326.416C513.986 327.931 513.587 329.287 513.467 330.403L512.427 337.86L513.627 330.403C513.627 329.207 514.066 327.851 514.266 326.416L514.826 321.511C514.826 319.756 515.265 317.842 515.425 315.808L515.825 309.308L516.025 305.759V302.051C516.025 299.499 516.025 296.867 516.025 294.075L515.665 285.422C515.665 282.431 515.145 279.361 514.866 276.171C511.544 244.817 501.278 214.592 484.81 187.683C479.986 179.727 474.645 172.094 468.823 164.834C465.905 160.846 462.628 157.496 459.43 153.828C457.792 152.033 456.033 150.318 454.315 148.524L451.717 145.852L448.999 143.3C434.128 129.203 417.319 117.293 399.079 107.929L392.005 104.46C389.607 103.343 387.169 102.346 384.771 101.27L381.134 99.7144L377.417 98.3187C374.939 97.4015 372.461 96.4046 369.943 95.6071L362.349 93.1746C359.831 92.3372 357.193 91.7789 354.595 91.0611L350.598 90.0243C349.28 89.6654 348.04 89.466 346.602 89.1869L338.608 87.5519C328.041 85.6695 317.359 84.4971 306.634 84.0427C303.956 84.0427 301.318 84.0427 298.64 84.0427H294.644H290.647C288.009 84.0427 285.331 84.0427 282.653 84.4415L274.66 85.1593C254.051 87.3861 233.865 92.5286 214.708 100.432L211.231 101.828L207.834 103.383C205.556 104.42 203.278 105.417 201.079 106.533C196.683 108.846 192.287 111 188.17 113.512C179.955 118.307 172.064 123.635 164.549 129.463C139.156 149.051 118.401 173.98 103.758 202.478C102.319 205.429 100.801 208.26 99.5615 211.051L96.0044 219.027C94.9253 221.659 94.006 224.251 93.0468 226.683L91.6879 230.431Z" fill="white"/>
<path d="M503.514 292.599L503.274 286.418L502.795 280.955L502.355 276.169C502.355 274.734 501.995 273.538 501.875 272.381L500.916 265.482L494.042 266.479L487.167 267.476L488.246 274.335C488.246 275.452 488.646 276.728 488.806 278.044L489.286 282.35L489.805 287.375L490.165 293.157V296.307C490.165 297.384 490.165 298.501 490.165 299.617C490.165 301.877 490.165 304.243 490.165 306.715L489.845 314.412C489.845 317.083 489.406 319.835 489.166 322.666C487.872 335.405 485.328 347.987 481.572 360.23C477.102 374.754 470.931 388.701 463.187 401.782C462.228 403.537 461.108 405.252 459.989 407.006C458.87 408.761 457.791 410.475 456.632 412.19C454.194 415.54 451.876 419.089 449.158 422.359C443.834 429.226 438.038 435.715 431.812 441.779L426.976 446.365L421.9 450.791C421.061 451.509 420.221 452.267 419.342 452.984L416.664 455.058C414.866 456.414 413.147 457.929 411.269 459.046C403.8 464.488 395.961 469.405 387.808 473.76C379.472 478.123 370.846 481.907 361.989 485.085C353.014 488.171 343.84 490.649 334.531 492.503H334.091H334.131H333.252L331.453 492.782L327.856 493.38L324.259 493.938L320.742 494.337C318.384 494.576 316.066 494.935 313.708 495.055L306.593 495.493C304.235 495.493 301.837 495.493 299.479 495.493H295.922H292.365C290.007 495.493 287.649 495.493 285.291 495.174L278.256 494.536C259.908 492.539 241.948 487.891 224.94 480.739L221.822 479.941L218.785 478.506C216.786 477.549 214.788 476.671 212.789 475.635C208.793 473.561 204.796 471.647 201.319 469.334C197.841 467.021 194.005 464.788 190.487 462.475C188.729 461.319 187.05 460.003 185.372 458.806C183.693 457.61 181.974 456.374 180.416 455.058C168.175 445.487 157.12 434.497 147.482 422.319C139.341 411.984 132.246 400.871 126.299 389.141C125.02 386.509 123.661 383.997 122.582 381.445L119.425 374.147C118.506 371.795 117.666 369.482 116.827 367.289C116.427 366.212 115.988 365.135 115.668 364.098L114.669 360.988L112.83 355.286L111.471 350.181L110.312 345.795C109.953 344.439 109.753 343.203 109.513 342.086L108.074 335.307L109.353 342.126C109.593 343.243 109.753 344.479 110.072 345.835L111.152 350.261L112.391 355.405L113.909 361.227L114.829 364.338C115.148 365.414 115.548 366.491 115.948 367.568C116.747 369.761 117.506 372.114 118.386 374.506L121.383 381.884C122.422 384.436 123.701 386.988 124.94 389.859C130.787 401.78 137.802 413.094 145.883 423.635C155.38 436.199 166.342 447.591 178.537 457.57C180.096 458.966 181.814 460.202 183.493 461.558C185.172 462.914 186.85 464.19 188.609 465.546C192.166 467.978 195.683 470.53 199.48 472.803C203.277 475.076 207.114 477.309 211.071 479.503C213.029 480.579 215.068 481.536 217.146 482.573L220.223 484.088L223.381 485.484C240.683 493.134 259.006 498.238 277.777 500.637L285.011 501.475C287.449 501.714 289.847 501.794 292.285 501.993L295.922 502.193H299.599C302.037 502.193 304.515 502.193 306.953 502.193L314.307 501.914C316.745 501.914 319.223 501.515 321.701 501.315L325.418 500.996L329.015 500.518L332.612 499.999L334.411 499.76H335.33H335.85H336.289C345.973 497.922 355.52 495.43 364.866 492.303C374.16 489.197 383.228 485.453 392.004 481.098C400.613 476.734 408.906 471.777 416.824 466.263C418.823 464.947 420.821 463.432 422.58 462.036L425.417 459.923C426.377 459.205 427.256 458.448 428.175 457.69L433.611 453.184L438.766 448.478C445.442 442.27 451.679 435.608 457.431 428.54C460.349 425.15 462.867 421.481 465.425 418.012C466.704 416.218 467.863 414.383 469.102 412.629C470.341 410.874 471.54 409.08 472.579 407.206C481.075 393.568 487.93 378.979 493.003 363.74C497.293 350.773 500.291 337.416 501.955 323.862C502.275 320.832 502.715 317.921 502.875 315.089L503.394 306.915C503.394 304.283 503.394 301.771 503.394 299.338C503.394 298.142 503.394 296.945 503.394 295.789L503.514 292.599Z" fill="white"/>
<path d="M113.911 327.452C113.911 326.335 113.511 325.059 113.351 323.743L112.872 319.436L112.352 314.452L111.992 308.67V305.519C111.992 304.443 111.992 303.326 111.992 302.209V295.071L112.312 287.375C112.312 284.703 112.752 281.952 112.991 279.121C114.283 266.381 116.827 253.799 120.585 241.556C125.054 227.032 131.225 213.085 138.97 200.005C139.93 198.25 141.049 196.535 142.168 194.781C143.287 193.026 144.366 191.311 145.525 189.597C147.963 186.247 150.281 182.698 152.999 179.428C158.17 172.59 163.805 166.115 169.865 160.048L174.701 155.462L179.777 151.035C180.617 150.318 181.456 149.56 182.335 148.842L185.013 146.769C186.812 145.413 188.53 143.897 190.409 142.781C197.859 137.272 205.685 132.289 213.83 127.867C222.165 123.504 230.792 119.72 239.649 116.542C248.624 113.455 257.797 110.977 267.107 109.125H267.546H267.906H268.785L270.584 108.846L274.181 108.247L277.778 107.689L281.295 107.29C283.653 107.051 285.971 106.692 288.33 106.573L295.444 106.134C297.802 106.134 300.2 106.134 302.558 106.134H306.115H309.672C312.03 106.134 314.388 106.134 316.747 106.453L323.781 107.091C342.129 109.089 360.089 113.737 377.098 120.888L380.215 122.165L383.253 123.6C385.251 124.557 387.25 125.434 389.248 126.471C393.245 128.545 397.241 130.459 400.719 132.772C404.196 135.085 408.033 137.318 411.55 139.631C413.308 140.787 414.987 142.103 416.666 143.299C418.344 144.496 420.063 145.732 421.622 147.048C433.863 156.617 444.919 167.608 454.555 179.787C462.696 190.121 469.792 201.235 475.738 212.965C477.017 215.596 478.376 218.109 479.455 220.661L482.612 227.958C483.532 230.311 484.371 232.624 485.21 234.817C485.61 235.894 486.05 236.971 486.409 238.007L487.408 241.118L489.247 246.82L490.606 251.924L491.765 256.311C492.125 257.667 492.324 258.903 492.564 260.02L494.003 266.799L492.724 259.98C492.484 258.863 492.324 257.627 492.005 256.271L490.926 251.845L489.607 246.342L487.928 240.559L487.009 237.449C486.689 236.372 486.289 235.296 485.89 234.219C485.09 232.026 484.331 229.673 483.452 227.28L480.454 219.903C479.415 217.351 478.136 214.799 476.897 211.928C471.162 199.965 464.254 188.597 456.274 177.992C446.777 165.428 435.816 154.036 423.62 144.057C422.061 142.661 420.343 141.425 418.664 140.069C416.985 138.713 415.307 137.437 413.548 136.082C409.991 133.649 406.474 131.097 402.677 128.824C398.88 126.551 395.043 124.318 391.086 122.125C389.128 121.048 387.09 120.091 385.011 119.054L381.934 117.539L378.776 116.143C361.487 108.41 343.164 103.225 324.38 100.751L317.146 99.9131C314.708 99.6738 312.31 99.5941 309.872 99.3947L306.235 99.1953H302.558C300.12 99.1953 297.642 99.1953 295.204 99.1953L287.85 99.4745C285.412 99.4745 282.934 99.8732 280.456 100.073L276.739 100.392L273.142 100.87L269.545 101.389L267.746 101.628H266.827H266.307H265.868C256.175 103.597 246.627 106.222 237.291 109.484C227.997 112.59 218.929 116.334 210.153 120.689C201.544 125.053 193.251 130.009 185.333 135.523C183.334 136.839 181.336 138.355 179.578 139.75L176.74 141.864C175.781 142.582 174.901 143.379 173.982 144.097L168.546 148.603L163.351 153.348C156.675 159.557 150.439 166.219 144.686 173.287C141.768 176.676 139.25 180.345 136.692 183.814C135.413 185.609 134.254 187.443 133.015 189.198C131.776 190.952 130.577 192.747 129.538 194.621C121.042 208.259 114.187 222.848 109.115 238.087C104.824 251.054 101.825 264.411 100.162 277.964C99.8421 280.995 99.4024 283.906 99.2425 286.737L98.723 294.912C98.723 297.544 98.723 300.056 98.723 302.489C98.723 303.685 98.723 304.881 98.723 306.038V309.387L98.9628 315.568L99.3225 320.832L99.7621 325.617C99.7621 327.053 100.122 328.249 100.242 329.406L101.201 336.304L108.075 335.307L114.95 334.31L113.911 327.452Z" fill="white"/>
<path d="M450.197 220.542C450.677 221.419 451.276 222.456 451.796 223.493L453.474 226.962L455.433 230.95L457.471 235.735L458.59 238.327C458.95 239.204 459.27 240.161 459.629 241.079C460.309 242.993 461.068 245.066 461.828 247.02L463.906 253.6C464.625 255.873 465.185 258.266 465.864 260.738C471.968 285.107 472.717 310.504 468.063 335.188C467.783 336.983 467.383 338.737 466.984 340.532L465.625 346.035C464.585 349.624 463.746 353.293 462.467 356.882C460.098 364.285 457.227 371.52 453.874 378.535C450.353 385.8 446.347 392.821 441.884 399.55C437.287 406.428 432.241 412.995 426.776 419.209C421.136 425.45 415.087 431.312 408.671 436.755C402.115 442.163 395.198 447.12 387.967 451.59L387.288 452.028L386.928 452.228L385.529 453.025L382.692 454.62L379.854 456.215C378.895 456.734 377.976 457.172 377.016 457.651L371.341 460.482L365.506 463.034C357.726 466.294 349.709 468.96 341.525 471.01C325.508 475.13 308.973 476.89 292.445 476.234H289.447L286.45 475.994L280.494 475.476C276.498 474.918 272.501 474.519 268.864 473.761C261.383 472.433 253.999 470.608 246.762 468.298C222.131 460.453 199.571 447.209 180.735 429.538C178.857 427.703 176.938 425.988 175.259 424.194L170.383 419.01C168.865 417.295 167.466 415.62 166.107 414.025C165.427 413.228 164.748 412.47 164.109 411.673L162.31 409.36L159.033 405.093C158.033 403.737 157.154 402.421 156.315 401.105L153.877 398.154C153.157 397.117 152.598 396.121 152.078 395.283L148.801 389.979L151.958 395.363C152.478 396.24 153.037 397.237 153.717 398.274L155.955 401.703C156.754 402.94 157.634 404.255 158.593 405.691L161.79 410.038L163.509 412.39C164.109 413.188 164.788 413.985 165.427 414.783C166.746 416.418 168.105 418.133 169.424 419.887L174.22 425.231C175.899 427.065 177.737 428.86 179.616 430.734C198.331 449.142 220.949 463.124 245.802 471.648C253.119 474.175 260.596 476.214 268.184 477.749C272.181 478.626 276.178 479.145 280.175 479.822L286.25 480.5L289.327 480.819H292.405C309.402 481.962 326.476 480.619 343.084 476.832C351.642 474.816 360.033 472.15 368.183 468.856L374.298 466.344L380.374 463.513C381.373 463.034 382.412 462.556 383.371 462.077L386.249 460.522L389.126 458.967L390.565 458.209H390.925L391.365 457.97L392.084 457.531C399.744 453.067 407.089 448.084 414.066 442.617C420.931 437.099 427.42 431.131 433.491 424.752C439.311 418.387 444.705 411.647 449.638 404.574C454.464 397.602 458.817 390.315 462.667 382.762C466.387 375.438 469.605 367.87 472.299 360.112C473.738 356.363 474.737 352.495 475.936 348.747C476.456 346.833 476.896 344.759 477.375 343.044C477.855 341.329 478.334 339.296 478.694 337.382C481.7 323.243 483.041 308.803 482.691 294.354C482.405 282.103 480.919 269.909 478.254 257.947C477.615 255.275 477.095 252.683 476.376 250.21L474.338 243.112C473.618 240.839 472.859 238.726 472.139 236.652C471.78 235.615 471.46 234.618 471.1 233.661L469.981 230.83L467.903 225.646C467.183 224.011 466.464 222.496 465.824 221.1L464.026 217.112C463.466 215.916 462.947 214.959 462.467 214.042L459.589 208.499L453.474 211.769L447.359 215.039L450.197 220.542Z" fill="white"/>
<path d="M123.982 343.881C124.621 346.552 125.141 349.144 125.86 351.617L127.899 358.715C128.618 360.988 129.378 363.101 130.097 365.175C130.457 366.212 130.776 367.209 131.136 368.166L132.255 370.997L134.334 376.181C135.053 377.816 135.772 379.331 136.412 380.727L138.21 384.715C138.77 385.911 139.29 386.868 139.769 387.785L142.647 393.328L148.762 390.058L154.877 386.788L151.839 381.325C151.36 380.448 150.76 379.411 150.241 378.374L148.562 374.905L146.604 370.917L144.565 366.132L143.446 363.54C143.087 362.663 142.767 361.706 142.407 360.788C141.728 358.874 140.968 356.801 140.209 354.847L138.131 348.267C137.411 345.994 136.852 343.601 136.212 341.129C130.046 316.718 129.255 291.264 133.894 266.519C134.174 264.725 134.573 262.93 134.973 261.176L136.212 255.792C137.251 252.203 138.091 248.535 139.37 244.946C141.74 237.542 144.611 230.308 147.963 223.292C151.483 216.027 155.489 209.006 159.953 202.277C164.549 195.399 169.596 188.832 175.061 182.618C180.701 176.377 186.749 170.515 193.166 165.072C199.707 159.651 206.61 154.681 213.829 150.198L214.509 149.759L214.868 149.56L216.267 148.762L219.105 147.167L221.943 145.572C222.902 145.054 223.821 144.615 224.78 144.136L230.456 141.305L236.291 138.713C244.071 135.453 252.087 132.787 260.272 130.738C276.4 126.461 293.073 124.579 309.752 125.155H312.749L315.747 125.394L321.702 125.913C325.699 126.471 329.696 126.83 333.333 127.627C340.814 128.955 348.198 130.78 355.435 133.09C380.066 140.935 402.626 154.178 421.461 171.851C423.34 173.685 425.258 175.4 426.937 177.194L431.813 182.379C433.332 184.093 434.731 185.768 436.089 187.363C436.769 188.161 437.448 188.918 438.088 189.716L439.886 192.029L443.164 196.296C444.163 197.651 445.042 198.967 445.882 200.283L448.2 203.633C448.919 204.67 449.479 205.667 449.998 206.504L453.276 211.808L450.118 206.424C449.599 205.547 449.039 204.55 448.36 203.513L446.121 200.084C445.322 198.848 444.443 197.532 443.483 196.096L440.286 191.75L438.567 189.397C437.968 188.599 437.288 187.802 436.649 187.004C435.33 185.369 433.971 183.655 432.652 181.9L427.856 176.556C426.177 174.722 424.339 172.928 422.46 171.053C403.793 152.663 381.231 138.682 356.434 130.14C349.118 127.61 341.641 125.572 334.052 124.038C330.055 123.161 326.058 122.643 322.062 121.965L316.146 121.446L313.069 121.127H309.991C292.994 119.985 275.92 121.328 259.312 125.115C250.755 127.132 242.364 129.798 234.213 133.09L228.098 135.603L222.023 138.434C221.023 138.913 219.984 139.391 219.025 139.87L216.147 141.425L213.27 142.98L211.831 143.738H211.471L211.032 143.977L210.312 144.416C202.652 148.88 195.308 153.863 188.33 159.33C181.465 164.847 174.975 170.816 168.906 177.194C163.049 183.504 157.615 190.191 152.639 197.213C147.811 204.185 143.458 211.472 139.609 219.026C135.86 226.36 132.615 233.941 129.897 241.716C128.458 245.504 127.459 249.332 126.26 253.081C125.741 254.995 125.301 257.068 124.821 258.783C124.342 260.498 123.862 262.531 123.502 264.445C120.496 278.584 119.154 293.024 119.506 307.473C119.804 319.725 121.303 331.919 123.982 343.881Z" fill="white"/>
<path d="M432.371 204.549L428.374 199.205C427.095 197.53 425.816 195.975 424.617 194.46L422.819 192.267L421.02 190.233L417.703 186.524C416.624 185.368 415.545 184.331 414.585 183.334L411.868 180.583C411.028 179.745 410.309 179.147 409.629 178.509L405.633 174.76L400.996 179.905L396.36 185.049L400.357 188.678C401.036 189.276 401.836 189.954 402.595 190.671L405.033 193.024L407.871 195.776L410.988 199.125L412.707 200.92L414.386 202.914C415.545 204.27 416.784 205.665 417.983 207.181L421.66 212.006C422.939 213.681 424.098 215.515 425.417 217.349C437.752 235.768 445.934 256.639 449.397 278.521C449.717 280.076 449.877 281.711 450.077 283.306C450.277 284.901 450.516 286.536 450.676 288.171C450.916 291.441 451.276 294.751 451.276 298.1C451.515 304.967 451.288 311.841 450.596 318.677C449.895 325.752 448.72 332.773 447.079 339.692C445.435 346.827 443.325 353.847 440.764 360.707C437.964 367.556 434.719 374.217 431.052 380.646C427.272 387.133 423.052 393.355 418.422 399.268L417.623 400.345L416.704 401.462L414.825 403.655C413.586 405.13 412.347 406.646 411.068 407.922L407.072 411.909L403.075 415.897C397.65 421.052 391.838 425.784 385.689 430.053C379.647 434.309 373.287 438.095 366.664 441.379L364.226 442.615L361.748 443.731C360.07 444.449 358.431 445.247 356.792 445.925C353.435 447.24 350.118 448.596 346.68 449.633C343.243 450.67 339.886 451.707 336.529 452.664L331.453 453.86L328.935 454.418L326.377 454.857C319.774 456.076 313.099 456.861 306.393 457.21C283.524 458.313 260.702 454.223 239.647 445.247C232.185 442.119 224.993 438.385 218.144 434.081L214.148 431.529L210.71 429.096L207.753 426.983C206.834 426.345 206.074 425.707 205.355 425.149L200.998 421.719L205.235 425.268C205.954 425.827 206.674 426.504 207.553 427.182L210.471 429.376L213.868 431.888L217.865 434.56C224.623 439.125 231.749 443.127 239.167 446.523C248.804 450.892 258.861 454.273 269.183 456.612C288.195 460.884 307.847 461.52 327.096 458.486L329.734 458.087L332.332 457.569L337.728 456.412C341.205 455.535 344.762 454.737 348.239 453.621C351.716 452.504 355.233 451.308 358.751 450.072C360.509 449.394 362.188 448.676 363.946 447.958L366.544 446.882L369.102 445.685C376.04 442.478 382.72 438.745 389.086 434.52C395.594 430.263 401.767 425.517 407.551 420.323L411.868 416.336L415.864 412.109C417.303 410.713 418.542 409.278 419.861 407.842L421.78 405.689L422.739 404.612L423.738 403.416C428.795 397.476 433.442 391.201 437.647 384.633C445.793 371.392 451.985 357.048 456.032 342.045C457.977 334.773 459.433 327.379 460.388 319.913C461.32 312.68 461.76 305.393 461.707 298.1C461.707 294.511 461.508 291.002 461.348 287.493C461.348 285.738 461.028 284.024 460.868 282.309C460.708 280.594 460.548 278.88 460.269 277.205C457.194 253.563 449.012 230.868 436.288 210.69C434.889 208.417 433.65 206.423 432.371 204.549Z" fill="white"/>
<path d="M201.518 413.147C200.838 412.549 200.039 411.871 199.28 411.153L196.842 408.8L194.004 406.049L190.886 402.699L189.168 400.905L187.489 398.911C186.33 397.555 185.091 396.159 183.892 394.644L180.215 389.819C178.936 388.144 177.777 386.31 176.458 384.475C164.122 366.057 155.94 345.186 152.477 323.304C152.158 321.749 151.998 320.153 151.798 318.519C151.598 316.884 151.358 315.288 151.238 313.654C150.999 310.384 150.639 307.074 150.639 303.724C150.399 296.858 150.626 289.983 151.318 283.148C152.02 276.072 153.195 269.051 154.836 262.132C156.556 254.978 158.746 247.945 161.39 241.077C164.191 234.228 167.435 227.568 171.102 221.139C174.883 214.652 179.103 208.43 183.732 202.516L184.532 201.479L185.451 200.363L187.329 198.17C188.568 196.694 189.807 195.179 191.086 193.863L195.083 189.875L199.08 185.887C204.506 180.734 210.318 176.002 216.466 171.731C222.507 167.475 228.867 163.689 235.49 160.406L237.928 159.17L240.406 158.053C242.085 157.335 243.724 156.538 245.362 155.86C248.72 154.544 252.037 153.188 255.474 152.151C258.911 151.115 262.269 150.078 265.626 149.121L270.702 147.924L273.22 147.366L275.778 146.927C282.38 145.707 289.056 144.922 295.762 144.575C318.631 143.471 341.453 147.562 362.508 156.538C369.969 159.666 377.161 163.401 384.01 167.703L388.007 170.256L391.444 172.688L394.402 174.802C395.321 175.44 396.08 176.078 396.8 176.636L401.156 180.065L396.92 176.516C396.2 175.958 395.481 175.28 394.602 174.602L391.684 172.409L388.287 169.897L384.29 167.225C377.531 162.66 370.405 158.659 362.987 155.262C353.35 150.893 343.293 147.512 332.971 145.173C320.684 142.429 308.112 141.157 295.522 141.385C288.654 141.547 281.805 142.16 275.018 143.219L272.38 143.618L269.783 144.136L264.547 145.372C261.07 146.25 257.512 147.047 254.035 148.164C250.558 149.28 247.041 150.477 243.524 151.713C241.805 152.391 240.087 153.108 238.328 153.826L235.73 154.903L233.172 156.099C226.235 159.307 219.554 163.04 213.188 167.265C206.674 171.457 200.488 176.136 194.683 181.262L190.367 185.249L186.37 189.476C184.931 190.872 183.692 192.308 182.373 193.743L180.455 195.897L179.496 196.973L178.496 198.17C173.418 204.172 168.758 210.514 164.548 217.151C156.4 230.392 150.208 244.736 146.163 259.74C144.236 267.079 142.808 274.54 141.886 282.071C140.954 289.304 140.514 296.591 140.567 303.884C140.567 307.473 140.767 310.982 140.927 314.491C140.927 316.246 141.247 317.96 141.406 319.675C141.566 321.39 141.726 323.104 142.006 324.779C145.079 348.422 153.261 371.116 165.987 391.294C167.345 393.328 168.544 395.282 169.983 397.196L173.98 402.54C175.259 404.214 176.538 405.77 177.737 407.285L179.536 409.478L181.334 411.512L184.651 415.22C185.731 416.377 186.81 417.414 187.769 418.411L190.487 421.162C191.326 422 192.045 422.638 192.725 423.236L196.722 426.984L201.358 421.84L205.834 416.816L201.518 413.147Z" fill="white"/>
<path d="M349.28 179.507C350 179.786 350.879 180.105 351.679 180.464L354.356 181.66L357.474 183.056L360.991 184.85C366.986 187.899 372.721 191.434 378.137 195.418C385.218 200.577 391.765 206.428 397.681 212.884C404.652 220.615 410.7 229.125 415.707 238.246C418.435 243.244 420.838 248.412 422.901 253.718C424.02 256.39 424.899 259.221 425.898 262.052C426.378 263.448 426.738 264.923 427.177 266.359C427.617 267.794 428.017 269.27 428.337 270.745C431.376 282.891 432.721 295.398 432.333 307.911C431.896 320.895 429.58 333.749 425.459 346.073V346.671V346.871V347.15L425.019 348.346L424.14 350.699C423.58 352.294 422.981 353.849 422.341 355.325L420.463 359.791L418.345 364.177C415.449 369.999 412.122 375.597 408.393 380.926C404.777 386.203 400.769 391.202 396.402 395.88C395.323 397.036 394.244 398.192 393.085 399.309L389.688 402.619C387.33 404.692 385.052 406.806 382.574 408.72C373.278 416.202 363.022 422.411 352.078 427.183C342.215 431.423 331.885 434.488 321.303 436.315C312.312 437.798 303.191 438.36 294.085 437.99C287.044 437.704 280.039 436.838 273.142 435.398L269.145 434.52L265.588 433.603C263.39 433.045 261.591 432.527 260.033 432.008L255.436 430.533L259.993 432.168C261.472 432.726 263.31 433.324 265.508 433.962L269.025 434.999L273.022 435.996C279.914 437.663 286.932 438.756 294.005 439.266C303.214 439.942 312.468 439.675 321.623 438.468C332.478 436.956 343.116 434.172 353.317 430.174C364.73 425.627 375.484 419.578 385.291 412.189C387.889 410.315 390.327 408.202 392.845 406.128L396.442 402.818C397.681 401.742 398.84 400.585 399.999 399.389C404.73 394.685 409.098 389.633 413.069 384.275C417.14 378.839 420.801 373.107 424.02 367.128L426.418 362.582L428.616 357.877C429.376 356.282 430.015 354.726 430.615 353.211L431.574 350.898L432.053 349.742V349.463V349.064L432.253 348.466C437.006 335.651 439.887 322.221 440.806 308.589C441.697 295.228 440.729 281.808 437.929 268.712C437.609 267.117 437.249 265.561 436.85 264.006C436.45 262.451 436.09 260.896 435.651 259.341C434.731 256.31 433.852 253.239 432.733 250.328C430.686 244.557 428.27 238.923 425.499 233.46C420.388 223.472 414.138 214.105 406.874 205.546C400.525 198.077 393.427 191.276 385.691 185.249C379.896 180.773 373.748 176.772 367.306 173.286L363.309 171.212L359.912 169.298L356.834 167.823L354.396 166.786L349.96 164.912L347.362 171.332L344.764 177.752L349.28 179.507Z" fill="white"/>
<path d="M234.811 428.5L238.807 430.574L242.364 432.289L245.442 433.764C246.361 434.203 247.161 434.482 247.88 434.801L252.316 436.675L254.914 430.255L257.512 423.835L252.996 422.12C252.276 421.841 251.397 421.522 250.598 421.163L247.92 419.967L244.802 418.571L241.285 416.777C235.29 413.728 229.555 410.194 224.139 406.209C217.085 401.033 210.564 395.169 204.675 388.703C197.705 380.972 191.656 372.462 186.649 363.341C183.922 358.343 181.519 353.175 179.455 347.869C178.336 345.157 177.457 342.366 176.458 339.535C175.978 338.139 175.618 336.664 175.179 335.228C174.739 333.792 174.339 332.317 174.02 330.841C170.981 318.695 169.636 306.189 170.023 293.676C170.462 280.692 172.778 267.838 176.897 255.514V254.916V254.716V254.437L177.337 253.241L178.216 250.888C178.776 249.293 179.375 247.738 180.015 246.262L181.893 241.796L184.012 237.409C186.907 231.587 190.233 225.989 193.964 220.661C197.579 215.384 201.587 210.385 205.954 205.707C207.033 204.551 208.112 203.394 209.271 202.278L212.668 198.968C215.426 197.213 217.824 195.06 220.182 193.226C229.478 185.744 239.734 179.535 250.678 174.763C260.541 170.523 270.87 167.458 281.453 165.631C290.444 164.148 299.565 163.586 308.671 163.956C315.712 164.241 322.716 165.108 329.614 166.548L333.611 167.425L337.168 168.342C339.366 168.901 341.164 169.419 342.723 169.937L347.319 171.413L342.763 169.778C341.284 169.22 339.446 168.661 337.248 167.984L333.73 166.907L329.734 165.91C322.842 164.244 315.824 163.15 308.751 162.64C299.542 161.964 290.287 162.231 281.133 163.438C270.278 164.949 259.64 167.733 249.439 171.732C238.025 176.279 227.272 182.328 217.465 189.717C214.867 191.591 212.429 193.704 209.911 195.778L206.314 199.088C205.075 200.164 203.916 201.321 202.756 202.517C198.083 207.214 193.768 212.252 189.847 217.591C185.775 223.027 182.115 228.759 178.896 234.738L176.498 239.284L174.299 243.989C173.54 245.584 172.901 247.139 172.301 248.655L171.342 250.968L170.862 252.124V252.403V252.802L170.662 253.4C165.91 266.215 163.03 279.645 162.109 293.277C161.219 306.638 162.187 320.058 164.987 333.154C165.267 334.749 165.666 336.305 166.066 337.86C166.466 339.415 166.826 340.97 167.265 342.525C168.224 345.556 169.064 348.627 170.183 351.538C172.102 357.395 174.399 363.122 177.057 368.685C182.17 378.673 188.42 388.039 195.682 396.599C201.886 403.916 208.808 410.596 216.345 416.537C222.166 421.017 228.341 425.018 234.811 428.5Z" fill="white"/>
<path d="M325.739 184.689C322.701 184.131 319.903 183.493 317.345 183.174L313.748 182.656L310.431 182.337L307.593 182.097H305.395H301.398V189.036V195.975H307.593H309.991H312.789L316.026 196.294C318.345 196.294 320.823 196.932 323.58 197.33C326.338 197.729 329.256 198.447 332.373 199.324C339.358 201.172 346.144 203.697 352.637 206.861C360.178 210.68 367.247 215.364 373.7 220.818C374.619 221.536 375.458 222.294 376.338 223.051L378.936 225.404C380.574 227.079 382.373 228.674 383.972 230.468C387.339 234.048 390.451 237.859 393.284 241.873C396.253 246.027 398.924 250.384 401.278 254.913C403.642 259.575 405.672 264.399 407.353 269.348C409.051 274.405 410.387 279.575 411.349 284.821C412.23 290.096 412.751 295.426 412.908 300.772C412.908 303.364 412.908 306.354 412.908 308.747C412.908 311.14 412.468 314.091 412.189 316.722C410.78 327.333 407.775 337.671 403.276 347.388C401.095 352.104 398.584 356.661 395.762 361.026C393.019 365.218 389.987 369.215 386.689 372.989C385.131 374.903 383.372 376.618 381.733 378.412L379.135 380.925C378.296 381.762 377.417 382.599 376.498 383.357C369.855 389.303 362.529 394.443 354.675 398.67C348.009 402.252 341.008 405.177 333.772 407.403C330.535 408.44 327.457 409.157 324.619 409.835C321.782 410.513 319.104 410.992 316.626 411.271L313.189 411.75L309.751 412.547C307.873 412.547 306.274 412.866 304.955 412.906H300.959H304.955C306.274 412.906 307.873 412.906 309.791 412.906H312.869L316.306 412.547C318.744 412.547 321.422 411.869 324.3 411.43C327.177 410.992 330.335 410.234 333.652 409.317C341.076 407.363 348.291 404.692 355.195 401.342C363.403 397.319 371.104 392.34 378.136 386.507C379.095 385.75 380.015 384.952 380.934 384.115L383.692 381.642C385.45 379.888 387.329 378.173 389.047 376.259C392.625 372.505 395.937 368.507 398.959 364.296C402.081 359.859 404.886 355.209 407.353 350.379C409.874 345.407 412.037 340.264 413.827 334.986C415.551 329.585 416.887 324.068 417.824 318.477C418.264 315.646 418.703 312.854 418.943 309.903C419.183 306.953 419.303 304.321 419.463 301.37C419.525 295.625 419.192 289.882 418.464 284.183C417.68 278.509 416.491 272.899 414.906 267.394C413.305 261.943 411.315 256.612 408.951 251.444C406.631 246.437 403.96 241.6 400.958 236.968C398.037 232.469 394.805 228.178 391.286 224.128C389.607 222.094 387.768 220.14 386.01 218.386L383.252 215.714C382.333 214.836 381.414 213.959 380.454 213.162C373.556 206.746 365.922 201.164 357.713 196.533C350.638 192.736 343.209 189.637 335.531 187.281C331.934 186.205 328.696 185.248 325.739 184.689Z" fill="white"/>
<path d="M297.24 406.09H295.082H292.684H289.886L286.648 405.771C284.33 405.771 281.852 405.133 279.095 404.694C276.337 404.256 273.419 403.578 270.302 402.74C263.224 400.803 256.356 398.172 249.798 394.884C242.078 391.114 234.833 386.442 228.216 380.967C227.296 380.25 226.457 379.492 225.578 378.734L222.98 376.382C221.341 374.707 219.543 373.112 217.944 371.317C214.578 367.736 211.466 363.925 208.632 359.912C205.663 355.759 202.992 351.401 200.638 346.872C198.274 342.21 196.244 337.386 194.563 332.437C192.864 327.381 191.529 322.21 190.566 316.965C189.685 311.689 189.165 306.36 189.008 301.014C189.008 298.422 189.008 295.431 189.008 293.038C189.008 290.646 189.447 287.695 189.727 285.063C191.138 274.453 194.143 264.115 198.64 254.398C200.82 249.681 203.331 245.124 206.154 240.76C208.897 236.567 211.928 232.57 215.226 228.796C216.785 226.882 218.544 225.168 220.182 223.373L222.78 220.861C223.619 220.024 224.499 219.186 225.418 218.428C232.06 212.482 239.385 207.342 247.24 203.116C253.907 199.533 260.907 196.608 268.143 194.383C271.381 193.346 274.458 192.628 277.296 191.95C280.134 191.272 282.812 190.794 285.29 190.515L288.727 190.036L291.764 189.757C293.643 189.757 295.241 189.438 296.56 189.398H300.557H296.56C295.241 189.398 293.643 189.398 291.724 189.398H288.647L285.21 189.757C282.772 189.757 280.094 190.475 277.216 190.873C274.338 191.272 271.181 192.07 267.864 192.987C260.44 194.941 253.225 197.612 246.321 200.962C238.113 204.985 230.412 209.964 223.38 215.797C222.42 216.554 221.501 217.352 220.582 218.189L217.824 220.662C216.066 222.416 214.187 224.131 212.469 226.045C208.892 229.8 205.58 233.797 202.557 238.008C199.434 242.444 196.629 247.095 194.163 251.925C191.643 256.897 189.479 262.04 187.689 267.318C185.965 272.719 184.629 278.236 183.692 283.827C183.252 286.658 182.813 289.45 182.573 292.4C182.333 295.351 182.213 297.983 182.053 300.934C181.989 306.692 182.323 312.448 183.052 318.161C184.565 329.449 187.771 340.445 192.565 350.78C194.885 355.787 197.556 360.624 200.558 365.256C203.479 369.755 206.711 374.046 210.23 378.096C211.909 380.13 213.747 382.084 215.506 383.839L218.264 386.51C219.183 387.388 220.102 388.265 221.062 389.062C228.119 395.367 235.9 400.815 244.243 405.292C251.317 409.09 258.746 412.188 266.425 414.544C269.862 415.621 273.139 416.378 276.137 417.136C279.135 417.894 281.972 418.332 284.53 418.651L288.167 419.17L291.485 419.489L294.322 419.728H296.52H300.517V412.789V405.851L297.24 406.09Z" fill="white"/>
<path d="M273.781 219.94L275.46 219.342L277.298 218.783L279.456 218.145L282.054 217.507C283.853 217.029 286.051 216.67 288.129 216.231C290.208 215.793 292.766 215.514 295.404 215.314C301.252 214.753 307.141 214.753 312.989 215.314C319.952 216.047 326.806 217.586 333.413 219.9C340.829 222.483 347.882 226.008 354.396 230.388C357.831 232.731 361.115 235.288 364.228 238.044C367.384 240.918 370.348 243.995 373.101 247.256C375.862 250.613 378.386 254.157 380.655 257.863C382.93 261.7 384.921 265.698 386.61 269.826L386.929 270.584L387.209 271.302L387.809 272.897C388.208 273.973 388.648 275.05 388.928 276.087L389.887 279.197L390.726 282.387C391.785 286.644 392.507 290.978 392.885 295.347C393.679 303.865 393.194 312.454 391.446 320.829C390.601 324.897 389.452 328.895 388.009 332.792C386.661 336.526 385.058 340.163 383.212 343.678C379.81 350.151 375.636 356.189 370.783 361.663C366.657 366.305 362.078 370.527 357.114 374.264C354.915 375.939 352.717 377.374 350.719 378.69C348.72 380.006 346.722 381.123 344.963 382L342.445 383.316L340.167 384.393C338.768 385.071 337.569 385.629 336.53 385.988L333.493 387.224L336.61 386.108C337.649 385.789 338.888 385.27 340.327 384.672L342.645 383.715L345.243 382.519C347.082 381.721 349.04 380.604 351.198 379.448C353.357 378.292 355.555 376.896 357.873 375.46C363.101 371.896 367.962 367.822 372.381 363.298C377.631 357.899 382.207 351.887 386.01 345.393C388.098 341.84 389.941 338.15 391.526 334.347C393.158 330.37 394.494 326.278 395.523 322.105C397.843 313.302 398.827 304.202 398.44 295.108C398.248 290.419 397.686 285.752 396.762 281.151L396.042 277.682L395.123 274.173C394.843 272.976 394.443 271.9 394.124 270.823L393.684 268.989V268.191L393.364 267.354C391.739 262.872 389.788 258.514 387.529 254.314C385.254 250.152 382.69 246.155 379.855 242.351C377.015 238.629 373.931 235.099 370.623 231.783C367.339 228.588 363.855 225.604 360.191 222.851C346.831 212.964 331.263 206.464 314.828 203.909C308.219 202.885 301.527 202.498 294.844 202.753C291.846 202.753 289.089 203.152 286.491 203.391C283.893 203.63 281.575 204.029 279.456 204.507L276.459 205.106L273.781 205.784L271.463 206.382L269.704 206.9L266.547 207.857L268.705 214.437L270.743 221.136L273.781 219.94Z" fill="white"/>
<path d="M315.748 398.311C318.305 397.913 320.664 397.673 322.782 397.195L325.739 396.597L328.417 395.919L330.735 395.321L332.494 394.802L335.651 393.845L333.733 387.345L331.415 380.646L328.297 381.723L326.619 382.321L324.78 382.879L322.622 383.517L320.024 384.155C318.226 384.634 316.027 384.993 313.949 385.431C311.871 385.87 309.273 386.149 306.675 386.348C300.826 386.909 294.938 386.909 289.089 386.348C282.126 385.616 275.272 384.077 268.666 381.762C261.249 379.181 254.196 375.656 247.683 371.275C240.671 366.574 234.371 360.894 228.978 354.407C226.217 351.05 223.693 347.505 221.424 343.799C219.148 339.963 217.158 335.964 215.469 331.836L215.149 331.079L214.869 330.361L214.27 328.766C213.87 327.689 213.43 326.612 213.151 325.576L212.151 322.465L211.312 319.275C210.251 315.005 209.53 310.658 209.154 306.275C208.401 297.806 208.913 289.272 210.673 280.953C211.518 276.886 212.666 272.887 214.11 268.99C215.458 265.256 217.06 261.619 218.906 258.104C222.308 251.631 226.482 245.592 231.336 240.119C235.462 235.477 240.041 231.256 245.005 227.518C247.203 225.843 249.401 224.408 251.4 223.092C253.398 221.776 255.396 220.659 257.155 219.782L259.673 218.466L261.791 217.15C263.19 216.472 264.389 215.914 265.428 215.555L268.466 214.319L265.348 215.435C264.309 215.754 263.07 216.273 261.631 216.871L259.313 217.828L256.715 219.024C254.877 219.822 252.918 220.938 250.76 222.095C248.602 223.251 246.404 224.687 244.085 226.082C238.925 229.759 234.145 233.94 229.817 238.564C224.568 243.963 219.992 249.975 216.188 256.469C214.1 260.021 212.257 263.712 210.673 267.515C209.042 271.492 207.706 275.584 206.676 279.757C204.355 288.559 203.371 297.66 203.758 306.754C203.938 311.442 204.486 316.108 205.397 320.711L206.116 324.18L207.035 327.689C207.315 328.885 207.715 329.962 208.035 331.039L208.554 332.674L208.834 333.591L209.154 334.428C210.78 338.91 212.73 343.268 214.989 347.468C217.265 351.629 219.829 355.627 222.663 359.431C225.503 363.153 228.588 366.683 231.895 369.999C235.178 373.195 238.662 376.179 242.327 378.931C255.686 388.819 271.254 395.32 287.69 397.873C294.299 398.899 300.991 399.286 307.674 399.029C310.432 398.87 313.19 398.591 315.748 398.311Z" fill="white"/>
<path d="M257.433 234.698L255.234 235.934L253.596 237.051L251.038 238.805L248.88 240.281L252.876 245.863L256.873 251.446L258.912 249.851L261.39 247.937L262.948 246.741L264.587 245.744L268.584 243.311L273.779 240.839C274.711 240.377 275.672 239.977 276.657 239.643L279.735 238.446C280.815 238.024 281.923 237.678 283.052 237.409L286.569 236.413C287.768 236.054 289.047 235.934 290.326 235.655C291.605 235.376 292.924 235.136 294.323 234.977L298.32 234.618H300.438H306.993L311.469 235.057L313.747 235.296L316.025 235.735L320.662 236.612C326.999 238.24 333.108 240.651 338.847 243.79C340.326 244.587 341.685 245.584 343.123 246.462L345.282 247.817L347.28 249.412C348.599 250.489 349.998 251.486 351.277 252.642L354.954 256.231L355.873 257.149L356.632 258.026L358.351 260.099C359.522 261.351 360.604 262.684 361.588 264.087L364.426 268.075L366.864 272.581C367.679 274.071 368.387 275.617 368.982 277.207C369.672 278.735 370.259 280.307 370.741 281.912L372.18 286.697C372.54 288.293 372.819 289.927 373.139 291.523C373.139 292.32 373.499 293.118 373.539 293.915L373.739 296.308L373.938 298.7C373.998 299.497 373.998 300.297 373.938 301.093V305.799C373.938 306.197 373.938 306.556 373.938 306.955V308.111L373.699 310.384C373.396 313.314 372.888 316.219 372.18 319.078C371.875 320.429 371.488 321.761 371.021 323.065C370.581 324.381 370.221 325.697 369.782 327.053L368.223 330.642L367.464 332.397L367.104 333.234L366.664 334.031C365.465 336.145 364.426 338.019 363.227 340.013L359.75 344.998C358.551 346.473 357.392 347.749 356.393 348.985L354.954 350.66L353.555 352.016L351.317 354.169L349.438 355.964L351.437 354.289L353.835 352.295L355.354 351.019L356.912 349.424C357.991 348.268 359.27 347.031 360.549 345.636L364.546 340.771C365.865 339.016 367.064 336.783 368.543 334.869L369.062 334.071L369.502 333.234L370.381 331.519L372.18 327.93C372.699 326.654 373.179 325.338 373.699 323.943C374.257 322.643 374.737 321.311 375.137 319.955C376.049 317.03 376.757 314.045 377.256 311.022L377.655 308.67L377.855 307.473C377.855 307.075 377.855 306.676 377.855 306.277L377.695 301.253C377.756 300.416 377.756 299.577 377.695 298.74V296.188V293.636C377.695 292.759 377.695 291.921 377.416 291.044C377.176 289.329 376.976 287.575 376.696 285.82L375.497 280.596C375.076 278.836 374.542 277.104 373.899 275.412C373.363 273.655 372.709 271.937 371.94 270.268L369.702 265.283L366.784 260.379C365.848 258.795 364.807 257.276 363.667 255.833L362.068 253.679L361.668 253.121L361.469 252.842V252.642L360.509 251.606L356.513 247.618C355.194 246.262 353.755 245.066 352.516 243.63L349.718 241.477L347.44 239.802C345.921 238.725 344.442 237.529 342.844 236.532C336.6 232.619 329.886 229.511 322.86 227.281L317.704 225.925L315.386 225.127L312.828 224.729C311.109 224.449 309.431 224.17 307.752 223.971L302.756 223.652H300.278H297.76H293.004C291.445 223.652 289.926 223.971 288.408 224.17C286.889 224.37 285.41 224.449 284.011 224.768L280.014 225.646C278.662 225.894 277.328 226.227 276.018 226.643L272.301 227.799C271.118 228.141 269.957 228.554 268.824 229.035L262.668 231.667L257.433 234.698Z" fill="white"/>
<path d="M343.045 351.936L340.567 353.85L339.008 355.046L337.369 356.043L333.373 358.475L328.337 360.988C327.405 361.448 326.443 361.848 325.459 362.184L322.382 363.38C321.301 363.802 320.193 364.149 319.064 364.417L315.547 365.414C314.348 365.773 313.069 365.893 311.79 366.172C310.511 366.451 309.192 366.69 307.793 366.85L303.797 367.208H301.678H295.244L290.767 366.77L288.489 366.57L286.211 366.132L281.575 365.254C275.237 363.626 269.128 361.215 263.389 358.077C261.91 357.279 260.552 356.282 259.113 355.405L256.954 354.049L254.956 352.454C253.637 351.377 252.238 350.38 250.959 349.224L247.282 345.635L246.363 344.758L245.604 343.88L243.885 341.807C242.713 340.555 241.632 339.223 240.648 337.819L237.81 333.831L235.372 329.325C234.557 327.835 233.849 326.29 233.254 324.7C232.564 323.171 231.977 321.599 231.495 319.994L230.056 315.209C229.697 313.574 229.417 311.979 229.097 310.384C229.097 309.586 228.737 308.789 228.697 307.991L228.497 305.598L228.298 303.206C228.239 302.409 228.239 301.61 228.298 300.813V295.868C228.298 295.47 228.298 295.111 228.298 294.712V293.556L228.537 291.283C228.842 288.353 229.35 285.449 230.056 282.589C230.36 281.238 230.747 279.906 231.215 278.602C231.655 277.286 232.015 275.97 232.454 274.614L234.013 271.025L234.772 269.27L235.132 268.433L235.572 267.636C236.771 265.522 237.81 263.648 239.009 261.654L242.486 256.669C243.685 255.194 244.844 253.918 245.843 252.682L247.282 251.007L248.681 249.651L250.919 247.498L252.798 245.703L250.799 247.378L248.401 249.372L246.883 250.648L245.324 252.243C244.245 253.399 242.966 254.636 241.687 256.031L237.69 260.896C236.371 262.651 235.172 264.884 233.693 266.798L233.174 267.596L232.734 268.433L231.855 270.148L230.056 273.737C229.537 275.013 229.057 276.329 228.537 277.724C227.98 279.024 227.499 280.356 227.099 281.712C226.188 284.638 225.48 287.622 224.98 290.645L224.581 292.997L224.381 294.194C224.381 294.592 224.381 294.991 224.381 295.39L224.021 300.335C223.961 301.171 223.961 302.011 224.021 302.847V305.399V307.951C224.021 308.828 224.021 309.666 224.301 310.543C224.541 312.258 224.741 314.013 225.02 315.767L226.219 320.991C226.64 322.751 227.174 324.483 227.818 326.175C228.353 327.932 229.007 329.651 229.776 331.319L232.095 336.344L235.012 341.249C235.948 342.832 236.99 344.35 238.13 345.795L239.728 347.948L240.128 348.506L240.328 348.785V348.985L241.287 350.021L245.284 354.009C246.603 355.365 248.042 356.561 249.281 357.997L251.399 359.871L253.677 361.546C255.196 362.623 256.675 363.819 258.273 364.816C264.517 368.729 271.231 371.838 278.257 374.067L283.413 375.423L285.971 376.061L288.529 376.46C290.248 376.739 291.926 377.018 293.605 377.218L298.601 377.537H301.079H303.517H308.273C309.832 377.537 311.35 377.178 312.869 377.018C314.388 376.859 315.867 376.739 317.266 376.42L321.262 375.543C322.614 375.295 323.949 374.962 325.259 374.546L328.976 373.389C330.159 373.048 331.32 372.635 332.453 372.153L338.608 369.521L343.804 366.69L346.002 365.454L347.641 364.337L350.199 362.583L352.357 361.107L348.361 355.524L344.364 349.942L343.045 351.936Z" fill="white"/>
<path d="M260.511 277.367L261.71 275.452C261.95 275.094 262.19 274.655 262.469 274.296L263.269 273.259C263.868 272.541 264.428 271.704 265.147 270.827L267.825 267.995C268.824 266.999 269.983 266.081 271.182 265.005C272.381 263.928 273.82 263.091 275.179 262.054C275.898 261.575 276.698 261.176 277.497 260.698C278.296 260.219 279.056 259.701 279.935 259.342C281.714 258.466 283.542 257.694 285.411 257.029L288.328 255.992L291.406 255.195L292.965 254.796L294.603 254.557C295.682 254.557 296.801 254.158 297.921 254.078C302.554 253.636 307.225 253.756 311.829 254.437C312.988 254.437 314.147 254.916 315.346 255.155L317.105 255.554L318.824 256.112C319.983 256.511 321.142 256.83 322.301 257.269L325.658 258.744L326.497 259.103H326.697L327.137 259.342L328.856 260.299C329.987 260.884 331.081 261.536 332.133 262.253L335.051 264.287C336.01 265.005 336.929 265.842 337.848 266.64C341.478 269.775 344.605 273.446 347.121 277.526L348.08 279.002C348.36 279.52 348.6 280.038 348.879 280.557C349.159 281.075 349.918 282.59 350.398 283.627C351.262 285.666 351.996 287.757 352.596 289.888C353.715 293.783 354.346 297.801 354.475 301.851C354.475 303.765 354.475 305.6 354.275 307.354C354.075 309.109 353.835 310.744 353.556 312.299L352.556 316.845C352.157 318.161 351.677 319.317 351.317 320.394L350.758 321.909C350.758 322.388 350.318 322.787 350.158 323.185L349.159 325.219L348.32 326.894L349.279 325.299L350.438 323.345C350.678 322.946 350.918 322.547 351.157 322.109L351.837 320.633C352.317 319.596 352.876 318.44 353.396 317.164L354.874 312.857C355.314 311.302 355.634 309.627 356.034 307.873C356.433 306.118 356.513 304.164 356.713 302.21C356.948 297.895 356.639 293.568 355.794 289.33C355.342 286.994 354.741 284.69 353.995 282.431C353.556 281.275 353.076 280.158 352.636 279.002C352.197 277.845 352.197 277.845 351.917 277.247L351.038 275.572C348.622 270.799 345.481 266.427 341.725 262.612C340.766 261.655 339.847 260.658 338.807 259.741L335.65 257.029C334.603 256.197 333.508 255.424 332.373 254.716L330.734 253.64L330.334 253.361H330.135L329.735 253.042L328.816 252.563L325.139 250.609C323.9 250.011 322.581 249.532 321.142 248.974L319.223 248.177L317.225 247.578C315.906 247.18 314.587 246.741 313.228 246.422C307.99 245.192 302.622 244.603 297.241 244.667C295.922 244.667 294.603 244.667 293.244 244.907H291.286L289.368 245.186L285.611 245.824L282.013 246.741C279.706 247.366 277.438 248.125 275.219 249.014C273.061 249.891 271.222 250.888 269.104 251.845C266.986 252.802 265.427 253.959 263.788 255.075C262.15 256.192 260.631 257.308 259.272 258.465L255.555 261.814C254.436 262.931 253.437 264.127 252.517 265.124L251.238 266.56C250.879 266.999 250.639 267.357 250.359 267.716L249 269.511L247.881 271.026L253.596 275.014L259.312 279.002L260.511 277.367Z" fill="white"/>
<path d="M352.955 332.156L354.074 330.641L348.359 326.653L342.643 322.665L341.644 324.26L340.445 326.174C340.205 326.533 339.965 327.012 339.686 327.331L338.886 328.368C338.327 329.086 337.727 329.923 337.008 330.8L334.33 333.632C333.331 334.628 332.172 335.546 330.973 336.622C329.774 337.699 328.335 338.536 326.976 339.573C326.256 340.052 325.457 340.451 324.658 340.929C323.858 341.408 323.099 341.926 322.22 342.285C320.454 343.159 318.639 343.932 316.784 344.598L313.866 345.635L310.789 346.432L309.23 346.831L307.591 347.07C306.512 347.07 305.393 347.469 304.274 347.549C299.641 347.993 294.97 347.872 290.365 347.19C289.206 347.19 288.047 346.711 286.848 346.472L285.09 346.073L283.371 345.515C282.212 345.116 281.053 344.797 279.894 344.358L276.537 342.923L275.697 342.564H275.497L275.058 342.325L273.339 341.368C272.208 340.783 271.114 340.131 270.062 339.414L267.144 337.38C266.185 336.662 265.266 335.825 264.347 335.027C260.717 331.892 257.59 328.22 255.074 324.141L253.795 322.745C253.515 322.267 253.275 321.708 252.996 321.19C252.716 320.671 251.957 319.156 251.477 318.119C250.613 316.08 249.879 313.989 249.279 311.859C248.159 307.964 247.528 303.945 247.4 299.896C247.4 297.981 247.4 296.147 247.6 294.392C247.8 292.638 248.04 291.003 248.319 289.448L249.598 284.942C249.998 283.626 250.478 282.469 250.837 281.393L251.397 279.877C251.397 279.399 251.797 279 251.997 278.601L252.996 276.567L253.835 274.893L252.876 276.488L251.717 278.442C251.517 278.84 251.237 279.239 250.997 279.678L250.318 281.153C249.838 282.19 249.279 283.347 248.759 284.623L247.28 288.929C246.841 290.485 246.521 292.159 246.121 293.914C245.722 295.669 245.642 297.583 245.442 299.576C245.206 303.905 245.514 308.245 246.361 312.497C246.814 314.832 247.414 317.136 248.16 319.395C248.599 320.552 249.079 321.668 249.519 322.825C249.958 323.981 249.958 323.981 250.238 324.579L251.117 326.254C253.51 330.963 256.61 335.28 260.31 339.055C261.269 340.012 262.188 341.009 263.227 341.926L266.505 344.598C267.553 345.43 268.647 346.202 269.782 346.911L271.421 347.987L271.82 348.266H272.02L272.38 348.466L273.299 348.944L276.976 350.898C278.215 351.496 279.534 351.975 280.973 352.533L282.891 353.331L284.89 353.929C286.209 354.328 287.528 354.766 288.887 355.085C294.125 356.315 299.493 356.905 304.874 356.84C306.193 356.84 307.512 356.84 308.87 356.601H310.829L312.747 356.322L316.504 355.684L320.101 354.766C322.408 354.139 324.677 353.381 326.896 352.493C329.054 351.616 330.893 350.619 333.011 349.662C335.129 348.705 336.688 347.549 338.327 346.432C339.965 345.316 341.484 344.199 342.843 343.043L346.56 339.693C347.679 338.576 348.678 337.38 349.597 336.383L350.876 334.947C351.236 334.509 351.476 334.15 351.756 333.791L352.955 332.156Z" fill="white"/>
</g>
<defs>
<clipPath id="clip0">
<rect width="600" height="600" fill="white"/>
</clipPath>
</defs>
</svg>