<svg xmlns="http://www.w3.org/2000/svg" width="600" height="600" viewBox="0 0 600 600" fill="none">
<g clip-path="url(#clip0)">
<g clip-path="url(#clip1)">
<path fill-rule="evenodd" clip-rule="evenodd" d="M-108.526 719.201V-120.201H730.875V719.201H-108.526ZM694.291 -77.5192L460.559 -108.526L438.203 -14.5133L478.851 11.9085L430.073 113.531L484.949 18.0059L535.76 54.59L503.241 103.369L539.825 60.6873L566.247 89.1416L474.786 186.699L574.377 95.2389L608.928 154.18L517.468 217.186L617.058 164.342L619.09 174.504L352.84 320.841L623.155 186.699L625.188 190.764L539.825 235.478L629.253 200.926V209.056L421.943 298.484L635.35 225.316L647.545 278.159L326.418 335.068L645.512 302.549L643.48 310.678L486.981 324.906L645.512 326.938L637.382 394.009L426.008 355.392L631.285 408.236L615.025 450.917L531.695 420.431L610.961 459.047L598.766 477.339L407.716 381.814L592.669 495.631L558.117 534.248L454.462 450.917L549.987 544.41L430.073 436.69L541.857 552.54L499.176 591.156L354.872 383.847L480.884 605.383L472.754 609.448L371.132 424.495L460.559 613.513L456.495 615.546L336.58 363.522L442.267 625.708H436.17L358.937 436.69L423.975 633.838L399.586 639.935L391.456 619.611L393.489 644H389.424L375.197 597.254L383.326 646.032L348.775 652.13L330.483 424.495V654.162H297.964L302.029 572.864L289.834 656.195H281.704L322.353 353.36L261.38 654.162L234.958 646.032L312.191 373.684L210.568 644L182.114 633.838L226.828 532.215L171.952 631.805L157.725 627.74L173.984 595.221L157.725 615.546L247.152 457.015L137.4 613.513L119.108 601.319L218.698 469.209L110.978 597.254L96.7512 583.027L271.542 387.911L80.4916 576.929L76.4267 570.832L214.633 434.658L66.2645 560.67L60.1671 556.605L147.562 473.274L47.9724 544.41L29.6804 524.086L145.53 442.788L19.5181 515.956L15.4532 501.729L304.061 343.198L-0.806358 489.534L-6.90369 475.307L106.913 422.463L-17.0659 465.145L-21.1308 457.015L31.7128 434.658L-23.1633 450.917L-35.358 408.236L190.244 359.457L-39.4229 394.009L-41.4553 387.911L-4.87125 379.782H-43.4878V353.36L271.542 335.068L-47.5527 326.938L-49.5851 276.127L293.899 328.97L-47.5527 237.51L-33.3255 190.764L72.3618 229.38L-29.2606 180.602L-10.9686 144.018L277.639 302.549L-0.806358 129.791L7.32345 95.2389L245.12 272.062L19.5181 81.0118L52.0373 48.4926L275.607 280.192L66.2645 40.3628L76.4267 32.233L232.925 215.153L90.6538 24.1032L137.4 -0.286179L245.12 182.634L151.627 -6.38353L178.049 -24.6756L265.444 170.439L194.309 -36.8703H234.958L312.191 270.029L267.477 -42.9676L273.574 -40.9352L314.223 231.413L285.769 -40.9352L308.126 -36.8703L324.385 241.575V-40.9352L390.005 -35.228L360.969 160.277L411.655 -11.6882L336.58 290.354L446.332 -51.0974L423.975 -61.2596L416.923 -32.8887L454.462 -77.5192H245.12C245.12 -77.5192 -74.428 -97.7733 -74.6699 -89.8468C-74.9117 -81.9202 -102.429 196.861 -102.429 196.861L-57.7149 550.507C-57.7149 550.507 -51.2436 684.055 -47.5527 683.593C-43.8618 683.132 330.483 670.422 330.483 670.422L631.285 683.593L694.291 644L706.486 361.49L694.291 -77.5192Z" fill="white"/>
</g>
</g>
<defs>
<clipPath id="clip0">
<rect width="600" height="600" fill="white"/>
</clipPath>
<clipPath id="clip1">
<rect width="739" height="739" fill="white" transform="translate(-70 -70)"/>
</clipPath>
</defs>
</svg>