<svg xmlns="http://www.w3.org/2000/svg" width="600" height="600" viewBox="0 0 600 600" fill="none">
<g clip-path="url(#clip0)">
<path d="M197.839 400.835C202.704 402.051 207.445 403.72 211.999 405.819C203.55 393.827 192.041 384.318 178.671 378.281C165.3 372.245 150.556 369.902 135.973 371.497C121.391 373.091 107.501 378.564 95.7509 387.347C84.0005 396.129 74.8183 407.901 69.1597 421.435C64.9757 431.418 62.8128 442.131 62.7964 452.954C62.7799 463.778 64.9101 474.498 69.0637 484.493C69.3197 485.117 69.5837 485.725 69.8637 486.341C77.9471 504.644 92.4641 519.347 110.663 527.662C110.271 527.11 109.863 526.566 109.511 525.998C100.291 512.206 95.4669 495.943 95.6761 479.354C95.8853 462.766 101.118 446.63 110.683 433.075C120.249 419.521 133.698 409.184 149.258 403.428C164.817 397.672 181.755 396.768 197.839 400.835Z" fill="white"/>
<path d="M187.836 467.861C195.626 456.19 206.28 446.712 218.78 440.336C231.28 433.96 245.207 430.899 259.228 431.444C242.162 420.602 221.695 416.44 201.751 419.758C181.807 423.075 163.789 433.638 151.152 449.421C138.515 465.204 132.148 485.096 133.273 505.283C134.397 525.471 142.933 544.533 157.244 558.815C157.724 559.295 158.212 559.775 158.708 560.231C173.166 574.042 192.184 582.074 212.164 582.808H212.228C211.644 582.44 211.06 582.088 210.476 581.704C201.515 575.715 193.82 568.02 187.833 559.058C181.845 550.096 177.681 540.043 175.579 529.471C173.476 518.9 173.477 508.018 175.58 497.447C177.683 486.876 181.848 476.823 187.836 467.861Z" fill="white"/>
<path d="M260.617 498.006C263.347 484.253 269.556 471.43 278.653 460.76C287.749 450.091 299.429 441.931 312.576 437.061C292.68 433.629 272.217 437.652 255.1 448.36C237.984 459.068 225.415 475.71 219.797 495.103C214.179 514.496 215.906 535.279 224.649 553.479C233.391 571.678 248.535 586.017 267.185 593.752C267.817 594.016 268.449 594.24 269.089 594.48C287.736 601.706 308.386 601.842 327.128 594.864C326.464 594.744 325.792 594.648 325.128 594.512C314.555 592.413 304.498 588.252 295.533 582.266C286.568 576.28 278.871 568.586 272.88 559.624C266.889 550.662 262.722 540.608 260.618 530.035C258.514 519.462 258.514 508.579 260.617 498.006Z" fill="white"/>
<path d="M339.388 498.006C336.648 484.255 337.477 470.031 341.798 456.692C346.119 443.353 353.786 431.345 364.068 421.812C344.322 426.207 326.895 437.739 315.131 454.195C303.367 470.652 298.094 490.874 300.326 510.979C302.557 531.085 312.135 549.659 327.221 563.135C342.308 576.612 361.839 584.042 382.068 584C382.756 584 383.428 584 384.108 583.944C404.103 583.484 423.234 575.704 437.876 562.079C437.212 562.231 436.564 562.399 435.892 562.527C425.319 564.63 414.435 564.629 403.862 562.524C393.289 560.42 383.235 556.252 374.273 550.261C365.311 544.269 357.617 536.57 351.632 527.604C345.646 518.638 341.486 508.58 339.388 498.006Z" fill="white"/>
<path d="M412.164 467.861C404.369 456.205 399.692 442.746 398.58 428.768C397.468 414.79 399.958 400.76 405.812 388.019C389.304 399.655 377.666 416.97 373.125 436.65C368.584 456.33 371.459 476.993 381.2 494.686C390.94 512.379 406.863 525.86 425.92 532.547C444.977 539.235 465.832 538.66 484.492 530.934C485.124 530.67 485.732 530.382 486.348 530.134C504.648 522.049 519.347 507.532 527.66 489.333C527.108 489.725 526.564 490.133 525.996 490.501C517.035 496.49 506.983 500.654 496.413 502.757C485.842 504.86 474.961 504.861 464.391 502.758C453.821 500.656 443.768 496.492 434.807 490.504C425.846 484.516 418.152 476.822 412.164 467.861Z" fill="white"/>
<path d="M467.863 412.156C456.197 404.368 446.724 393.718 440.349 381.224C433.973 368.731 430.909 354.811 431.447 340.794C420.636 357.861 416.501 378.316 419.832 398.242C423.163 418.169 433.727 436.166 449.501 448.788C465.275 461.41 485.151 467.77 505.322 466.65C525.493 465.53 544.543 457.008 558.822 442.717C559.31 442.237 559.758 441.733 560.23 441.245C574.039 426.778 582.065 407.75 582.79 387.764C582.422 388.332 582.078 388.916 581.702 389.484C575.716 398.448 568.024 406.145 559.063 412.136C550.102 418.127 540.049 422.294 529.478 424.4C518.907 426.505 508.025 426.508 497.453 424.407C486.881 422.306 476.826 418.143 467.863 412.156Z" fill="white"/>
<path d="M594.86 272.889C594.74 273.561 594.644 274.225 594.516 274.897C591.026 292.424 581.912 308.334 568.557 320.209C555.202 332.084 538.337 339.277 520.522 340.693C502.707 342.11 484.917 337.673 469.853 328.058C454.79 318.442 443.276 304.173 437.06 287.417C433.618 307.317 437.633 327.788 448.338 344.913C459.043 362.038 475.686 374.615 495.083 380.237C514.48 385.86 535.268 384.133 553.472 375.387C571.675 366.641 586.015 351.491 593.748 332.834C594.012 332.202 594.236 331.57 594.484 330.938C601.706 312.286 601.84 291.633 594.86 272.889Z" fill="white"/>
<path d="M498.009 260.608C484.259 263.348 470.037 262.517 456.699 258.195C443.362 253.873 431.355 246.204 421.825 235.92C426.227 255.656 437.76 273.072 454.212 284.828C470.665 296.584 490.878 301.852 510.975 299.621C531.072 297.39 549.638 287.818 563.112 272.74C576.585 257.662 584.018 238.141 583.985 217.92C583.985 217.24 583.985 216.56 583.937 215.888C583.473 195.89 575.695 176.757 562.073 162.11C562.217 162.774 562.385 163.43 562.521 164.094C566.764 185.448 562.351 207.612 550.253 225.712C538.154 243.812 519.362 256.365 498.009 260.608Z" fill="white"/>
<path d="M388.028 194.176C398.758 209.416 414.358 220.549 432.26 225.74C450.161 230.931 469.296 229.872 486.515 222.736C506.617 214.406 522.588 198.433 530.917 178.331C539.246 158.228 539.251 135.64 530.931 115.534C530.675 114.91 530.379 114.302 530.131 113.678C522.044 95.3783 507.528 80.6795 489.331 72.3649C489.723 72.9169 490.131 73.4609 490.507 74.0289C500.435 88.889 505.242 106.584 504.197 124.425C503.152 142.266 496.312 159.278 484.716 172.877C473.121 186.476 457.404 195.919 439.952 199.77C422.501 203.621 404.27 201.671 388.028 194.216V194.176Z" fill="white"/>
<path d="M412.165 132.126C404.379 143.788 393.734 153.259 381.245 159.634C368.756 166.01 354.841 169.077 340.83 168.543C357.896 179.341 378.345 183.466 398.264 180.131C418.182 176.795 436.171 166.233 448.79 150.464C461.408 134.695 467.769 114.827 466.656 94.6612C465.543 74.4956 457.034 55.4484 442.757 41.1639C442.269 40.6839 441.773 40.2279 441.277 39.7639C426.811 25.953 407.784 17.9237 387.797 17.1954C388.373 17.5634 388.949 17.9075 389.517 18.2835C407.616 30.3775 420.169 49.1653 424.416 70.5145C428.663 91.8636 424.256 114.026 412.165 132.126Z" fill="white"/>
<path d="M339.39 101.981C336.657 115.738 330.442 128.565 321.338 139.235C312.234 149.905 300.546 158.062 287.39 162.926C307.295 166.384 327.775 162.378 344.91 151.677C362.045 140.975 374.631 124.33 380.259 104.927C385.887 85.5239 384.161 64.7269 375.411 46.5173C366.662 28.3077 351.503 13.965 332.838 6.23501C332.214 5.971 331.574 5.747 330.942 5.50699C312.292 -1.71854 291.639 -1.85517 272.895 5.12298C273.567 5.24299 274.231 5.33899 274.903 5.47499C285.473 7.5772 295.527 11.741 304.488 17.7286C313.45 23.7162 321.145 31.4103 327.133 40.3718C333.121 49.3332 337.286 59.3864 339.389 69.9573C341.492 80.5283 341.493 91.4099 339.39 101.981Z" fill="white"/>
<path d="M260.616 101.981C263.358 115.732 262.529 129.957 258.206 143.297C253.884 156.636 246.214 168.644 235.928 178.175C255.634 173.743 273.013 162.2 284.74 145.756C296.468 129.311 301.72 109.12 299.491 89.0453C297.263 68.9707 287.71 50.4227 272.662 36.9508C257.613 23.4789 238.126 16.0292 217.928 16.0272C217.248 16.0272 216.577 16.0272 215.897 16.0832C195.9 16.5443 176.766 24.3237 162.121 37.9477C162.785 37.7957 163.441 37.6277 164.113 37.4997C174.683 35.3962 185.564 35.3955 196.135 37.4977C206.706 39.5999 216.759 43.7638 225.72 49.7515C234.681 55.7393 242.375 63.4336 248.363 72.3952C254.351 81.3568 258.514 91.4101 260.616 101.981Z" fill="white"/>
<path d="M187.839 132.126C195.634 143.781 200.311 157.241 201.423 171.218C202.535 185.196 200.045 199.226 194.191 211.967C210.699 200.331 222.337 183.017 226.878 163.337C231.419 143.657 228.544 122.993 218.804 105.3C209.063 87.607 193.141 74.1269 174.083 67.4393C155.026 60.7516 134.172 61.326 115.511 69.0525C114.879 69.3165 114.271 69.6045 113.647 69.8525C95.35 77.9421 80.6524 92.4579 72.3355 110.653C72.8955 110.269 73.4315 109.853 73.9995 109.485C82.9608 103.497 93.0139 99.3319 103.585 97.2287C114.156 95.1255 125.037 95.125 135.608 97.2274C146.179 99.3298 156.233 103.494 165.194 109.482C174.156 115.47 181.851 123.164 187.839 132.126Z" fill="white"/>
<path d="M132.143 187.831C143.808 195.619 153.281 206.269 159.656 218.763C166.032 231.256 169.097 245.176 168.558 259.193C179.387 242.125 183.536 221.661 180.211 201.724C176.886 181.786 166.321 163.777 150.541 151.147C134.76 138.516 114.874 132.154 94.693 133.278C74.5119 134.402 55.4554 142.934 41.1751 157.238C40.6951 157.718 40.2391 158.222 39.7751 158.71C25.963 173.175 17.9362 192.204 17.2152 212.191C17.5752 211.623 17.9192 211.039 18.3032 210.471C24.2913 201.51 31.9859 193.815 40.9477 187.827C49.9095 181.839 59.9629 177.675 70.5339 175.573C81.1049 173.471 91.9865 173.471 102.557 175.574C113.128 177.678 123.181 181.842 132.143 187.831Z" fill="white"/>
<path d="M40.6075 272.72C50.9233 265.89 62.6487 261.478 74.9082 259.815C87.1676 258.151 99.6446 259.278 111.408 263.112C123.171 266.945 133.916 273.386 142.841 281.954C151.766 290.522 158.64 300.996 162.951 312.593C164.51 303.675 164.566 294.56 163.119 285.624C162.335 280.676 161.09 275.812 159.399 271.096C153.853 255.455 143.695 241.863 130.265 232.115C116.835 222.367 100.764 216.921 84.1746 216.497C67.5852 216.072 51.2571 220.688 37.3457 229.736C23.4344 238.785 12.594 251.839 6.25571 267.176C6.00771 267.8 5.75171 268.408 5.51971 269.024C-1.70521 287.681 -1.84183 308.338 5.13572 327.089C5.25572 326.433 5.37572 325.769 5.51171 325.113C7.60893 314.495 11.7923 304.399 17.8194 295.41C23.8465 286.42 31.5976 278.716 40.6235 272.744L40.6075 272.72Z" fill="white"/>
<path d="M150.176 344.37C160.789 348.908 170.328 355.627 178.176 364.09C176.201 355.245 172.764 346.79 168.008 339.074C161.953 329.242 153.899 320.793 144.368 314.273C132.037 305.858 117.643 300.967 102.738 300.125C87.832 299.284 72.9793 302.525 59.779 309.499C46.5786 316.473 35.5308 326.915 27.8251 339.703C20.1195 352.49 16.048 367.137 16.0492 382.067C16.0492 382.731 16.0492 383.419 16.0492 384.091C16.5127 404.081 24.2886 423.209 37.9051 437.852C37.7451 437.204 37.6171 436.54 37.4811 435.884C34.5682 421.235 35.7073 406.069 40.7757 392.02C45.8441 377.971 54.6497 365.571 66.2438 356.156C77.8379 346.741 91.7811 340.668 106.571 338.591C121.361 336.514 136.438 338.512 150.176 344.37Z" fill="white"/>
</g>
<defs>
<clipPath id="clip0">
<rect width="600" height="600" fill="white"/>
</clipPath>
</defs>
</svg>