<svg xmlns="http://www.w3.org/2000/svg" width="600" height="600" viewBox="0 0 600 600" fill="none">
<g clip-path="url(#clip0)">
<path fill-rule="evenodd" clip-rule="evenodd" d="M306 -131C544.035 -131 737 61.9646 737 300C737 538.035 544.035 731 306 731C67.9646 731 -125 538.035 -125 300C-125 61.9646 67.9646 -131 306 -131ZM535.349 178.15C536.633 180.55 537.344 183.214 537.426 185.935C537.509 188.655 536.96 191.358 535.823 193.83L515.796 237.437L556.685 262.601C559.002 264.03 560.958 265.974 562.401 268.284C563.843 270.593 564.732 273.204 564.999 275.913C565.266 278.622 564.904 281.357 563.941 283.903C562.977 286.449 561.439 288.739 559.445 290.592L524.242 323.213L552.382 362.088C553.979 364.292 555.045 366.836 555.496 369.521C555.947 372.205 555.77 374.958 554.98 377.563C554.19 380.168 552.808 382.555 550.942 384.537C549.076 386.519 546.777 388.043 544.225 388.989L499.235 405.691L509.846 450.237C510.856 452.908 511.203 455.784 510.856 458.619C510.51 461.454 509.481 464.162 507.858 466.512C506.234 468.861 504.065 470.782 501.536 472.109C499.007 473.435 496.194 474.129 493.338 474.129H493.196C492.978 474.129 492.748 474.129 492.533 474.119L444.556 472.312L436.97 519.682C436.541 522.371 435.496 524.924 433.917 527.143C432.337 529.361 430.266 531.183 427.864 532.467C425.463 533.752 422.797 534.463 420.075 534.545C417.353 534.628 414.649 534.079 412.175 532.943L368.551 512.926L343.402 553.815C341.976 556.135 340.032 558.094 337.723 559.538C335.413 560.981 332.801 561.871 330.09 562.136C329.511 562.182 328.936 562.232 328.36 562.232C325.929 562.23 323.525 561.725 321.297 560.751C319.07 559.777 317.068 558.354 315.416 556.57L282.775 521.373L243.901 549.507C241.697 551.104 239.153 552.17 236.469 552.621C233.785 553.072 231.032 552.895 228.427 552.105C225.823 551.315 223.436 549.933 221.454 548.067C219.473 546.202 217.95 543.902 217.004 541.35L200.307 496.367L153.622 507.477C150.974 508.112 148.214 508.125 145.56 507.515C142.905 506.905 140.428 505.688 138.323 503.96C136.218 502.232 134.542 500.04 133.426 497.555C132.31 495.071 131.785 492.362 131.891 489.64L133.683 441.692L86.3066 434.097C83.6199 433.664 81.0693 432.617 78.8542 431.036C76.639 429.455 74.8191 427.384 73.5365 424.984C72.2539 422.584 71.5433 419.92 71.4601 417.2C71.377 414.48 71.9235 411.777 73.0572 409.303L93.0742 365.684L52.19 340.529C49.8699 339.104 47.9111 337.161 46.4668 334.852C45.0225 332.544 44.1319 329.933 43.8646 327.223C43.5973 324.513 43.9606 321.778 44.9261 319.232C45.8916 316.686 47.433 314.398 49.4299 312.546L84.6266 279.926L56.4865 241.051C54.891 238.845 53.827 236.299 53.3776 233.614C52.9282 230.928 53.1056 228.175 53.8959 225.569C54.6862 222.963 56.0681 220.576 57.9336 218.592C59.7991 216.609 62.0977 215.083 64.6501 214.135L109.633 197.452L98.5014 150.756C97.8718 148.108 97.8627 145.351 98.4749 142.699C99.0871 140.047 100.304 137.573 102.031 135.47C103.75 133.355 105.941 131.671 108.427 130.553C110.913 129.436 113.627 128.915 116.35 129.033L164.313 130.82L171.895 83.4335C172.324 80.7442 173.369 78.1907 174.949 75.9728C176.529 73.755 178.602 71.933 181.003 70.6496C183.405 69.3662 186.072 68.6562 188.794 68.5751C191.516 68.494 194.219 69.0441 196.693 70.1823L240.317 90.2044L265.457 49.3203C266.88 46.996 268.823 45.0332 271.132 43.586C273.441 42.1387 276.055 41.2464 278.767 40.9792C281.479 40.7119 284.216 41.0769 286.764 42.0455C289.311 43.0142 291.599 44.56 293.449 46.5618L326.083 81.7365L364.957 53.6117C367.163 52.0135 369.709 50.9477 372.395 50.4974C375.081 50.0472 377.835 50.2249 380.441 51.0165C383.047 51.8082 385.435 53.1924 387.417 55.0606C389.399 56.9289 390.921 59.2306 391.865 61.7855L408.548 106.773L455.241 95.6434C457.89 95.0081 460.65 94.9952 463.305 95.6057C465.96 96.2163 468.438 97.4337 470.543 99.1624C472.649 100.891 474.325 103.084 475.441 105.569C476.556 108.055 477.081 110.765 476.973 113.487L475.167 161.438L522.558 169.025C525.249 169.459 527.803 170.508 530.022 172.09C532.241 173.673 534.064 175.747 535.349 178.15ZM512.724 268.486L478.834 247.628L495.432 211.488C496.373 209.437 496.827 207.196 496.758 204.94C496.689 202.684 496.1 200.475 495.036 198.485C493.973 196.494 492.464 194.777 490.626 193.466C488.789 192.156 486.674 191.288 484.446 190.93L445.166 184.641L446.663 144.897C446.752 142.641 446.318 140.395 445.393 138.335C444.468 136.275 443.079 134.458 441.334 133.025C439.589 131.592 437.535 130.583 435.335 130.077C433.134 129.571 430.846 129.582 428.651 130.108L389.945 139.333L376.12 102.046C375.337 99.9285 374.075 98.0209 372.433 96.4724C370.79 94.924 368.811 93.7768 366.652 93.1207C364.492 92.4646 362.209 92.3173 359.983 92.6905C357.757 93.0637 355.647 93.9471 353.819 95.2716L321.595 118.583L294.552 89.4269C293.019 87.7681 291.122 86.4872 289.011 85.6846C286.9 84.882 284.631 84.5797 282.383 84.8012C280.135 85.0228 277.969 85.7623 276.055 86.9616C274.141 88.161 272.531 89.7876 271.351 91.7138L250.514 125.6L214.353 109.008C212.302 108.064 210.061 107.608 207.804 107.675C205.548 107.743 203.338 108.331 201.347 109.396C199.356 110.46 197.639 111.97 196.33 113.809C195.02 115.648 194.154 117.765 193.8 119.994L187.517 159.264L147.766 157.782C145.511 157.695 143.266 158.131 141.208 159.056C139.15 159.981 137.333 161.37 135.901 163.113C134.468 164.857 133.458 166.909 132.951 169.107C132.443 171.306 132.45 173.592 132.973 175.788L142.198 214.493L104.916 228.319C102.8 229.106 100.896 230.37 99.35 232.015C97.8044 233.659 96.6596 235.639 96.0051 237.798C95.3506 239.958 95.2041 242.24 95.5771 244.466C95.95 246.691 96.8322 248.801 98.1549 250.629L121.48 282.853L92.3085 309.896C90.653 311.43 89.3749 313.327 88.5743 315.437C87.7738 317.547 87.4724 319.814 87.6939 322.06C87.9154 324.306 88.6536 326.471 89.8509 328.384C91.0482 330.298 92.6721 331.908 94.5954 333.089L128.482 353.939L111.891 390.091C110.952 392.142 110.499 394.382 110.568 396.637C110.638 398.891 111.227 401.099 112.291 403.089C113.354 405.078 114.863 406.795 116.699 408.105C118.536 409.414 120.65 410.282 122.877 410.64L162.144 416.936L160.643 456.664C160.555 458.921 160.99 461.167 161.915 463.226C162.841 465.286 164.23 467.103 165.976 468.536C167.722 469.968 169.776 470.976 171.976 471.481C174.177 471.986 176.465 471.974 178.661 471.447L217.353 462.24L231.192 499.523C231.975 501.639 233.237 503.544 234.88 505.091C236.523 506.638 238.501 507.784 240.66 508.438C242.819 509.093 245.101 509.239 247.326 508.866C249.551 508.492 251.659 507.608 253.486 506.283L285.699 482.959L312.761 512.138C314.13 513.616 315.79 514.795 317.636 515.603C319.482 516.41 321.475 516.828 323.49 516.83C323.967 516.83 324.445 516.788 324.925 516.751C327.172 516.531 329.337 515.794 331.251 514.598C333.165 513.402 334.776 511.778 335.957 509.855L356.802 475.963L392.959 492.554C395.009 493.496 397.25 493.951 399.506 493.882C401.761 493.814 403.97 493.225 405.961 492.161C407.951 491.097 409.667 489.587 410.977 487.75C412.286 485.912 413.153 483.796 413.508 481.568L419.798 442.304L459.563 443.804C459.74 443.804 459.93 443.804 460.112 443.804H460.229C462.596 443.804 464.929 443.231 467.026 442.131C469.123 441.032 470.922 439.441 472.268 437.493C473.614 435.546 474.468 433.301 474.756 430.951C475.043 428.601 474.756 426.216 473.919 424.001L465.13 387.081L502.418 373.238C504.534 372.454 506.439 371.191 507.986 369.548C509.532 367.905 510.678 365.926 511.333 363.766C511.987 361.607 512.133 359.326 511.76 357.1C511.386 354.875 510.503 352.766 509.179 350.939L485.854 318.721L515.03 291.677C516.68 290.14 517.953 288.242 518.749 286.132C519.546 284.021 519.844 281.755 519.621 279.511C519.398 277.266 518.659 275.104 517.463 273.191C516.267 271.279 514.645 269.669 512.724 268.486ZM456.465 220.054C457.307 221.628 457.774 223.376 457.828 225.16C457.881 226.945 457.521 228.718 456.776 230.34L443.636 258.947L470.461 275.457C471.982 276.393 473.266 277.669 474.212 279.184C475.159 280.698 475.742 282.411 475.918 284.189C476.093 285.966 475.855 287.76 475.223 289.431C474.591 291.101 473.581 292.603 472.273 293.819L449.178 315.224L467.638 340.734C468.687 342.18 469.386 343.849 469.682 345.61C469.978 347.371 469.862 349.177 469.344 350.887C468.826 352.596 467.919 354.162 466.695 355.462C465.471 356.763 463.962 357.762 462.287 358.383L432.773 369.34L439.733 398.564C440.396 400.316 440.624 402.204 440.396 404.063C440.169 405.923 439.494 407.7 438.429 409.242C437.364 410.783 435.94 412.043 434.281 412.914C432.622 413.784 430.776 414.239 428.903 414.239H428.81C428.666 414.239 428.516 414.239 428.375 414.239L396.9 413.055L391.923 444.133C391.642 445.897 390.956 447.572 389.919 449.027C388.883 450.482 387.524 451.678 385.949 452.52C384.373 453.362 382.625 453.829 380.839 453.883C379.053 453.937 377.28 453.577 375.656 452.831L347.036 439.7L330.538 466.527C329.603 468.049 328.328 469.334 326.812 470.281C325.297 471.228 323.583 471.811 321.805 471.984C321.425 472.015 321.046 472.047 320.669 472.047C319.074 472.044 317.496 471.713 316.035 471.073C314.573 470.433 313.26 469.499 312.176 468.328L290.763 445.237L265.266 463.689C263.82 464.737 262.152 465.436 260.391 465.732C258.63 466.028 256.824 465.912 255.115 465.394C253.406 464.876 251.84 463.969 250.54 462.745C249.24 461.521 248.241 460.012 247.621 458.338L236.666 428.827L206.038 436.115C204.301 436.532 202.49 436.541 200.748 436.141C199.006 435.741 197.381 434.943 195.999 433.81C194.618 432.676 193.518 431.238 192.785 429.607C192.053 427.977 191.708 426.199 191.778 424.414L192.951 392.961L161.87 387.976C160.108 387.693 158.434 387.006 156.981 385.969C155.528 384.932 154.334 383.573 153.493 381.999C152.651 380.424 152.185 378.676 152.13 376.892C152.076 375.108 152.434 373.335 153.178 371.712L166.31 343.093L139.487 326.592C137.965 325.657 136.68 324.382 135.733 322.868C134.785 321.353 134.201 319.64 134.026 317.862C133.85 316.085 134.089 314.291 134.722 312.62C135.356 310.95 136.367 309.449 137.677 308.235L160.767 286.835L142.306 261.328C141.26 259.881 140.562 258.211 140.268 256.449C139.973 254.687 140.09 252.881 140.608 251.171C141.127 249.462 142.033 247.895 143.257 246.594C144.48 245.293 145.988 244.292 147.662 243.669L177.173 232.725L169.872 202.092C169.458 200.354 169.452 198.545 169.854 196.804C170.255 195.064 171.055 193.44 172.188 192.06C173.322 190.68 174.76 189.581 176.389 188.849C178.018 188.117 179.795 187.772 181.58 187.84L213.039 189.008L218.013 157.92C218.295 156.156 218.98 154.481 220.017 153.026C221.054 151.571 222.413 150.376 223.989 149.534C225.564 148.692 227.314 148.226 229.099 148.173C230.885 148.12 232.659 148.481 234.282 149.228L262.902 162.364L279.395 135.541C280.329 134.016 281.603 132.729 283.118 131.779C284.633 130.83 286.347 130.245 288.127 130.069C289.906 129.894 291.701 130.133 293.373 130.769C295.044 131.404 296.545 132.418 297.759 133.73L319.184 156.808L344.69 138.358C346.137 137.31 347.807 136.611 349.569 136.315C351.331 136.02 353.138 136.136 354.848 136.656C356.557 137.175 358.124 138.083 359.424 139.308C360.724 140.534 361.723 142.043 362.343 143.719L373.27 173.235L403.905 165.932C405.643 165.515 407.454 165.506 409.196 165.906C410.938 166.307 412.563 167.105 413.944 168.24C415.326 169.374 416.425 170.813 417.157 172.444C417.889 174.074 418.232 175.852 418.161 177.638L416.978 209.096L448.078 214.074C449.842 214.358 451.516 215.045 452.971 216.082C454.426 217.12 455.621 218.479 456.465 220.054ZM441.621 279.319L419.387 265.628L430.277 241.918C430.894 240.572 431.192 239.102 431.147 237.622C431.101 236.142 430.715 234.693 430.017 233.387C429.319 232.081 428.329 230.954 427.123 230.094C425.918 229.235 424.53 228.665 423.068 228.43L397.298 224.306L398.285 198.25C398.343 196.77 398.058 195.297 397.452 193.945C396.845 192.594 395.934 191.401 394.789 190.461C393.644 189.521 392.297 188.859 390.854 188.527C389.41 188.195 387.909 188.201 386.469 188.547L361.078 194.599L352.007 170.137C351.494 168.748 350.666 167.497 349.588 166.481C348.51 165.465 347.212 164.713 345.795 164.282C344.378 163.852 342.881 163.755 341.421 164C339.96 164.245 338.576 164.825 337.377 165.694L316.236 180.987L298.489 161.859C297.483 160.772 296.239 159.933 294.855 159.407C293.471 158.882 291.984 158.684 290.51 158.829C289.036 158.975 287.617 159.459 286.362 160.245C285.107 161.031 284.051 162.097 283.277 163.359L269.607 185.591L245.887 174.704C244.541 174.085 243.071 173.785 241.591 173.829C240.111 173.873 238.661 174.259 237.355 174.956C236.049 175.654 234.922 176.645 234.063 177.851C233.203 179.057 232.635 180.445 232.402 181.908L228.28 207.675L202.2 206.703C200.719 206.639 199.244 206.922 197.892 207.53C196.54 208.138 195.348 209.053 194.413 210.203C193.475 211.347 192.813 212.693 192.48 214.135C192.148 215.577 192.153 217.076 192.495 218.516L198.547 243.906L174.087 252.975C172.699 253.492 171.45 254.321 170.436 255.4C169.421 256.479 168.67 257.777 168.241 259.194C167.811 260.611 167.714 262.108 167.959 263.568C168.203 265.028 168.781 266.413 169.649 267.613L184.95 288.752L165.812 306.489C164.726 307.495 163.888 308.739 163.364 310.123C162.839 311.507 162.641 312.994 162.787 314.467C162.932 315.94 163.416 317.36 164.201 318.615C164.987 319.869 166.051 320.926 167.313 321.7L189.544 335.379L178.659 359.098C178.042 360.443 177.745 361.913 177.79 363.392C177.836 364.871 178.222 366.319 178.919 367.625C179.617 368.93 180.607 370.056 181.812 370.915C183.016 371.775 184.403 372.344 185.864 372.579L211.625 376.71L210.651 402.781C210.592 404.261 210.878 405.735 211.485 407.086C212.091 408.438 213.003 409.63 214.149 410.57C215.294 411.51 216.641 412.172 218.085 412.503C219.529 412.835 221.03 412.827 222.47 412.481L247.856 406.438L256.934 430.899C257.448 432.287 258.276 433.537 259.353 434.552C260.431 435.566 261.729 436.318 263.145 436.748C264.562 437.177 266.058 437.273 267.518 437.028C268.977 436.782 270.361 436.203 271.559 435.334L292.686 420.038L310.433 439.174C311.332 440.144 312.42 440.918 313.631 441.448C314.842 441.978 316.15 442.252 317.471 442.254C317.786 442.254 318.098 442.227 318.413 442.201C319.887 442.058 321.308 441.574 322.564 440.789C323.82 440.004 324.877 438.939 325.652 437.677L339.327 415.444L363.048 426.327C364.393 426.945 365.863 427.243 367.343 427.198C368.823 427.154 370.272 426.767 371.578 426.069C372.884 425.37 374.01 424.379 374.869 423.173C375.728 421.967 376.296 420.579 376.529 419.117L380.654 393.36L406.742 394.342C406.859 394.342 406.984 394.342 407.103 394.342H407.18C408.733 394.342 410.263 393.965 411.638 393.244C413.013 392.522 414.193 391.478 415.075 390.2C415.958 388.923 416.518 387.45 416.706 385.909C416.894 384.367 416.706 382.803 416.157 381.351L410.383 357.129L434.845 348.047C436.233 347.533 437.484 346.704 438.498 345.626C439.513 344.548 440.264 343.25 440.694 341.834C441.124 340.417 441.22 338.921 440.975 337.461C440.73 336.001 440.151 334.617 439.282 333.419L423.981 312.291L443.122 294.544C444.206 293.536 445.043 292.291 445.566 290.907C446.09 289.523 446.287 288.036 446.142 286.563C445.997 285.09 445.513 283.67 444.729 282.415C443.945 281.16 442.881 280.102 441.621 279.326V279.319Z" fill="white"/>
</g>
<defs>
<clipPath id="clip0">
<rect width="600" height="600" fill="white"/>
</clipPath>
</defs>
</svg>