<svg xmlns="http://www.w3.org/2000/svg" width="600" height="600" viewBox="0 0 600 600" fill="none">
<g clip-path="url(#clip0)">
<path d="M179.548 44.4836C179.629 44.4838 179.711 44.4671 179.786 44.4344C179.861 44.4018 179.928 44.3539 179.984 44.2939C180.04 44.2338 180.083 44.1629 180.11 44.0855C180.137 44.0081 180.147 43.926 180.141 43.8443C180.141 43.6869 180.079 43.5359 179.967 43.4246C179.856 43.3133 179.705 43.2507 179.548 43.2507C179.39 43.2507 179.239 43.3133 179.128 43.4246C179.016 43.5359 178.954 43.6869 178.954 43.8443C178.948 43.926 178.958 44.0081 178.985 44.0855C179.012 44.1629 179.055 44.2338 179.111 44.2939C179.167 44.3539 179.234 44.4018 179.309 44.4344C179.384 44.4671 179.466 44.4838 179.548 44.4836V44.4836Z" fill="white"/>
<path d="M206.579 46.5846C207.123 46.5937 207.657 46.4407 208.113 46.1452C208.57 45.8498 208.928 45.4251 209.143 44.9254C209.357 44.4257 209.418 43.8734 209.317 43.339C209.217 42.8046 208.959 42.3122 208.578 41.9245C208.197 41.5368 207.709 41.2713 207.176 41.1618C206.644 41.0523 206.09 41.1039 205.587 41.3098C205.084 41.5157 204.653 41.8668 204.35 42.3183C204.047 42.7697 203.885 43.3012 203.885 43.845C203.879 44.2026 203.944 44.5578 204.077 44.8899C204.21 45.2221 204.407 45.5245 204.658 45.7795C204.909 46.0345 205.208 46.237 205.538 46.3753C205.867 46.5135 206.221 46.5846 206.579 46.5846V46.5846Z" fill="white"/>
<path d="M233.702 48.3194C234.605 48.3194 235.488 48.0516 236.239 47.5498C236.99 47.0481 237.575 46.335 237.921 45.5007C238.266 44.6663 238.357 43.7482 238.181 42.8625C238.004 41.9768 237.57 41.1632 236.931 40.5246C236.292 39.886 235.479 39.4512 234.593 39.275C233.707 39.0988 232.789 39.1892 231.955 39.5348C231.121 39.8804 230.407 40.4657 229.906 41.2165C229.404 41.9674 229.136 42.8502 229.136 43.7533C229.136 44.9643 229.617 46.1257 230.474 46.982C231.33 47.8383 232.491 48.3194 233.702 48.3194Z" fill="white"/>
<path d="M260.823 49.3695C261.918 49.3785 262.991 49.0622 263.905 48.4606C264.82 47.8591 265.535 46.9994 265.96 45.9907C266.385 44.982 266.501 43.8697 266.293 42.795C266.085 41.7202 265.563 40.7315 264.792 39.9543C264.021 39.177 263.037 38.6463 261.964 38.4294C260.891 38.2125 259.778 38.3192 258.766 38.736C257.753 39.1528 256.888 39.8609 256.279 40.7704C255.67 41.6799 255.344 42.7499 255.344 43.8446C255.344 45.302 255.92 46.7004 256.946 47.7352C257.973 48.77 259.366 49.3574 260.823 49.3695V49.3695Z" fill="white"/>
<path d="M287.946 49.7348C289.111 49.7348 290.25 49.3893 291.219 48.7421C292.187 48.0949 292.942 47.1749 293.388 46.0986C293.834 45.0223 293.951 43.838 293.723 42.6954C293.496 41.5528 292.935 40.5033 292.111 39.6795C291.288 38.8558 290.238 38.2948 289.095 38.0675C287.953 37.8403 286.769 37.9569 285.692 38.4027C284.616 38.8485 283.696 39.6035 283.049 40.5721C282.402 41.5408 282.056 42.6796 282.056 43.8446C282.05 44.6198 282.198 45.3884 282.492 46.1058C282.786 46.8232 283.22 47.4749 283.768 48.0231C284.316 48.5713 284.968 49.0049 285.685 49.2988C286.402 49.5926 287.171 49.7408 287.946 49.7348Z" fill="white"/>
<path d="M315.069 49.5978C316.208 49.6069 317.325 49.2771 318.277 48.6505C319.229 48.0239 319.974 47.1285 320.416 46.0781C320.859 45.0276 320.979 43.8695 320.762 42.7505C320.546 41.6314 320.001 40.6021 319.199 39.7929C318.396 38.9837 317.371 38.4312 316.254 38.2055C315.136 37.9798 313.977 38.091 312.923 38.5251C311.869 38.9592 310.968 39.6965 310.334 40.6436C309.7 41.5907 309.361 42.7048 309.361 43.8446C309.355 44.598 309.498 45.3451 309.782 46.0428C310.066 46.7406 310.486 47.3752 311.016 47.91C311.547 48.4448 312.178 48.8693 312.874 49.159C313.569 49.4487 314.315 49.5978 315.069 49.5978V49.5978Z" fill="white"/>
<path d="M342.19 48.9582C343.202 48.9582 344.19 48.6583 345.031 48.0963C345.872 47.5344 346.528 46.7357 346.915 45.8012C347.302 44.8668 347.403 43.8385 347.206 42.8465C347.009 41.8545 346.521 40.9433 345.806 40.2281C345.091 39.5129 344.18 39.0258 343.188 38.8285C342.196 38.6312 341.168 38.7324 340.233 39.1195C339.299 39.5066 338.5 40.162 337.938 41.003C337.376 41.844 337.076 42.8328 337.076 43.8442C337.076 45.2005 337.615 46.5013 338.574 47.4603C339.533 48.4194 340.834 48.9582 342.19 48.9582V48.9582Z" fill="white"/>
<path d="M369.313 47.543C370.044 47.543 370.759 47.3261 371.367 46.9197C371.976 46.5133 372.45 45.9357 372.73 45.2599C373.009 44.584 373.083 43.8404 372.94 43.123C372.797 42.4055 372.445 41.7465 371.928 41.2293C371.411 40.712 370.752 40.3598 370.034 40.2171C369.317 40.0744 368.573 40.1476 367.897 40.4275C367.221 40.7075 366.644 41.1815 366.237 41.7897C365.831 42.3979 365.614 43.113 365.614 43.8445C365.608 44.3319 365.699 44.8156 365.883 45.2671C366.067 45.7186 366.339 46.1287 366.684 46.4734C367.028 46.8181 367.438 47.0903 367.89 47.274C368.341 47.4577 368.825 47.5491 369.313 47.543V47.543Z" fill="white"/>
<path d="M396.435 45.5793C396.778 45.5793 397.114 45.4776 397.399 45.2869C397.685 45.0963 397.907 44.8253 398.038 44.5082C398.17 44.1912 398.204 43.8423 398.137 43.5057C398.07 43.1692 397.905 42.86 397.662 42.6173C397.419 42.3747 397.11 42.2094 396.774 42.1425C396.437 42.0755 396.088 42.1099 395.771 42.2412C395.454 42.3725 395.183 42.5949 394.993 42.8803C394.802 43.1656 394.7 43.5011 394.7 43.8442C394.7 44.3044 394.883 44.7457 395.208 45.0711C395.534 45.3965 395.975 45.5793 396.435 45.5793V45.5793Z" fill="white"/>
<path d="M152.152 73.8434C152.723 73.8525 153.284 73.6915 153.763 73.381C154.242 73.0705 154.618 72.6244 154.842 72.0997C155.067 71.5749 155.131 70.9951 155.025 70.4341C154.919 69.8732 154.649 69.3563 154.248 68.9495C153.848 68.5426 153.336 68.264 152.776 68.1493C152.217 68.0345 151.636 68.0888 151.108 68.3051C150.58 68.5214 150.128 68.89 149.81 69.364C149.492 69.838 149.322 70.396 149.322 70.9668C149.321 71.7219 149.618 72.4467 150.148 72.9849C150.678 73.5231 151.398 73.8315 152.152 73.8434V73.8434Z" fill="white"/>
<path d="M179.548 76.7199C180.687 76.7289 181.804 76.3992 182.756 75.7726C183.708 75.1459 184.453 74.2506 184.895 73.2001C185.338 72.1497 185.458 70.9915 185.241 69.8725C185.025 68.7535 184.48 67.7241 183.678 66.9149C182.875 66.1058 181.85 65.5533 180.733 65.3276C179.615 65.1018 178.456 65.2131 177.402 65.6472C176.348 66.0812 175.447 66.8186 174.813 67.7657C174.179 68.7127 173.84 69.8268 173.84 70.9667C173.834 71.72 173.977 72.4671 174.261 73.1649C174.545 73.8626 174.965 74.4972 175.496 75.0321C176.026 75.5669 176.657 75.9914 177.353 76.2811C178.048 76.5708 178.794 76.7199 179.548 76.7199Z" fill="white"/>
<path d="M206.579 78.8204C208.134 78.8294 209.657 78.3765 210.954 77.5191C212.252 76.6616 213.265 75.4382 213.867 74.004C214.468 72.5697 214.63 70.9892 214.332 69.4628C214.035 67.9363 213.29 66.5327 212.194 65.4298C211.097 64.3268 209.698 63.5743 208.173 63.2676C206.649 62.9608 205.067 63.1137 203.629 63.7067C202.192 64.2998 200.962 65.3063 200.097 66.5988C199.232 67.8913 198.771 69.4115 198.771 70.9668C198.765 71.9959 198.962 73.0162 199.352 73.9688C199.742 74.9213 200.316 75.7875 201.041 76.5174C201.767 77.2472 202.63 77.8264 203.58 78.2217C204.53 78.6169 205.549 78.8204 206.579 78.8204V78.8204Z" fill="white"/>
<path d="M233.702 80.464C235.58 80.464 237.416 79.907 238.978 78.8634C240.54 77.8198 241.757 76.3365 242.476 74.6011C243.195 72.8657 243.383 70.9561 243.017 69.1138C242.65 67.2715 241.746 65.5792 240.418 64.251C239.089 62.9227 237.397 62.0182 235.555 61.6517C233.712 61.2853 231.803 61.4734 230.067 62.1922C228.332 62.911 226.849 64.1283 225.805 65.6902C224.761 67.252 224.204 69.0882 224.204 70.9666C224.198 72.2155 224.44 73.4533 224.915 74.6083C225.39 75.7633 226.09 76.8127 226.973 77.6958C227.856 78.5789 228.905 79.2782 230.06 79.7534C231.215 80.2285 232.453 80.4701 233.702 80.464V80.464Z" fill="white"/>
<path d="M260.824 81.3772C262.885 81.3863 264.903 80.7834 266.621 79.645C268.339 78.5066 269.68 76.8838 270.475 74.9824C271.27 73.0809 271.483 70.9862 271.086 68.9638C270.69 66.9413 269.702 65.0821 268.248 63.6215C266.794 62.161 264.939 61.165 262.918 60.7596C260.897 60.3541 258.802 60.5576 256.897 61.3442C254.992 62.1308 253.363 63.4651 252.217 65.1781C251.071 66.8911 250.459 68.9057 250.459 70.9666C250.459 73.7198 251.55 76.3609 253.492 78.312C255.435 80.263 258.071 81.3652 260.824 81.3772Z" fill="white"/>
<path d="M287.946 81.8344C290.097 81.8435 292.203 81.2138 293.996 80.0252C295.789 78.8366 297.189 77.1426 298.019 75.1576C298.848 73.1727 299.07 70.9863 298.656 68.8753C298.242 66.7642 297.21 64.8236 295.692 63.2992C294.174 61.7749 292.238 60.7353 290.129 60.3123C288.019 59.8893 285.832 60.1018 283.844 60.9229C281.855 61.7441 280.155 63.1369 278.959 64.925C277.763 66.7131 277.125 68.8159 277.125 70.9672C277.124 73.8415 278.263 76.5987 280.291 78.6354C282.319 80.6721 285.072 81.8223 287.946 81.8344Z" fill="white"/>
<path d="M315.069 81.6511C317.182 81.6511 319.248 81.0245 321.005 79.8504C322.762 78.6764 324.132 77.0077 324.94 75.0553C325.749 73.103 325.961 70.9547 325.548 68.8821C325.136 66.8095 324.118 64.9057 322.624 63.4114C321.13 61.9172 319.226 60.8996 317.154 60.4873C315.081 60.075 312.933 60.2866 310.98 61.0953C309.028 61.904 307.359 63.2735 306.185 65.0305C305.011 66.7876 304.385 68.8533 304.385 70.9665C304.385 73.8003 305.51 76.5179 307.514 78.5217C309.518 80.5254 312.235 81.6511 315.069 81.6511V81.6511Z" fill="white"/>
<path d="M342.191 81.0579C344.186 81.0579 346.137 80.4661 347.797 79.3573C349.456 78.2485 350.75 76.6725 351.514 74.8286C352.277 72.9847 352.477 70.9558 352.088 68.9983C351.698 67.0408 350.737 65.2428 349.326 63.8316C347.915 62.4203 346.117 61.4592 344.159 61.0699C342.202 60.6805 340.173 60.8803 338.329 61.6441C336.485 62.4079 334.909 63.7013 333.8 65.3607C332.692 67.0202 332.1 68.9711 332.1 70.967C332.094 72.2938 332.351 73.6087 332.856 74.8357C333.36 76.0628 334.104 77.1776 335.042 78.1158C335.98 79.0541 337.095 79.7971 338.322 80.3021C339.549 80.8071 340.864 81.064 342.191 81.0579V81.0579Z" fill="white"/>
<path d="M369.314 79.7795C371.057 79.7795 372.761 79.2627 374.21 78.2943C375.659 77.326 376.789 75.9497 377.456 74.3394C378.123 72.7291 378.297 70.9572 377.957 69.2478C377.617 67.5383 376.778 65.9681 375.545 64.7357C374.313 63.5032 372.743 62.6639 371.033 62.3239C369.324 61.9838 367.552 62.1584 365.942 62.8254C364.331 63.4923 362.955 64.6219 361.987 66.0711C361.018 67.5203 360.502 69.2241 360.502 70.967C360.496 72.126 360.719 73.2746 361.16 74.3466C361.601 75.4185 362.25 76.3924 363.069 77.2119C363.889 78.0314 364.863 78.6803 365.935 79.121C367.006 79.5617 368.155 79.7855 369.314 79.7795Z" fill="white"/>
<path d="M396.435 77.7703C397.779 77.7612 399.089 77.3546 400.202 76.6015C401.315 75.8485 402.18 74.7828 402.688 73.5389C403.196 72.295 403.324 70.9285 403.056 69.6118C402.789 68.2951 402.137 67.0871 401.184 66.1402C400.231 65.1933 399.018 64.5498 397.7 64.291C396.381 64.0322 395.016 64.1695 393.775 64.6858C392.535 65.202 391.475 66.074 390.729 67.1919C389.984 68.3097 389.586 69.6232 389.586 70.9668C389.586 71.8641 389.763 72.7526 390.108 73.581C390.453 74.4094 390.958 75.1614 391.595 75.7938C392.231 76.4262 392.987 76.9263 393.817 77.2655C394.648 77.6047 395.538 77.7763 396.435 77.7703V77.7703Z" fill="white"/>
<path d="M423.512 75.4414C424.415 75.4414 425.298 75.1736 426.049 74.6719C426.8 74.1702 427.385 73.4571 427.731 72.6227C428.076 71.7884 428.167 70.8703 427.991 69.9846C427.814 69.0989 427.38 68.2853 426.741 67.6467C426.102 67.0081 425.289 66.5732 424.403 66.3971C423.517 66.2209 422.599 66.3113 421.765 66.6569C420.931 67.0025 420.218 67.5877 419.716 68.3386C419.214 69.0895 418.946 69.9723 418.946 70.8754C418.946 72.0864 419.427 73.2478 420.284 74.1041C421.14 74.9604 422.301 75.4414 423.512 75.4414Z" fill="white"/>
<path d="M450.635 72.1088C450.8 72.1425 450.972 72.1389 451.136 72.0983C451.3 72.0577 451.453 71.981 451.584 71.874C451.715 71.7669 451.821 71.6321 451.893 71.4792C451.966 71.3264 452.003 71.1593 452.003 70.9901C452.003 70.821 451.966 70.6539 451.893 70.5011C451.821 70.3482 451.715 70.2134 451.584 70.1063C451.453 69.9992 451.3 69.9226 451.136 69.882C450.972 69.8414 450.8 69.8378 450.635 69.8715C450.377 69.9239 450.145 70.0639 449.978 70.2677C449.811 70.4716 449.72 70.7268 449.72 70.9901C449.72 71.2535 449.811 71.5087 449.978 71.7126C450.145 71.9164 450.377 72.0564 450.635 72.1088V72.1088Z" fill="white"/>
<path d="M125.212 102.335C126.054 102.344 126.879 102.103 127.583 101.642C128.288 101.181 128.839 100.521 129.168 99.7459C129.496 98.9708 129.587 98.1156 129.428 97.2889C129.269 96.4622 128.869 95.7013 128.276 95.1028C127.684 94.5044 126.928 94.0954 126.103 93.9278C125.278 93.7602 124.422 93.8416 123.643 94.1616C122.865 94.4816 122.199 95.0258 121.73 95.7251C121.262 96.4244 121.011 97.2472 121.011 98.089C121.011 99.2073 121.452 100.281 122.239 101.076C123.025 101.871 124.094 102.323 125.212 102.335V102.335Z" fill="white"/>
<path d="M152.152 105.532C153.624 105.532 155.063 105.096 156.287 104.278C157.51 103.46 158.464 102.298 159.028 100.938C159.591 99.5776 159.738 98.0811 159.451 96.6374C159.164 95.1937 158.455 93.8675 157.414 92.8266C156.374 91.7858 155.047 91.0769 153.604 90.7897C152.16 90.5026 150.663 90.65 149.303 91.2133C147.943 91.7766 146.781 92.7305 145.963 93.9545C145.145 95.1784 144.709 96.6174 144.709 98.0894C144.709 100.063 145.493 101.956 146.889 103.352C148.285 104.748 150.178 105.532 152.152 105.532Z" fill="white"/>
<path d="M179.548 108.317C181.571 108.317 183.549 107.717 185.231 106.593C186.913 105.469 188.224 103.872 188.998 102.003C189.772 100.134 189.974 98.0777 189.58 96.0937C189.185 94.1096 188.211 92.2872 186.781 90.8568C185.35 89.4264 183.528 88.4523 181.544 88.0576C179.56 87.663 177.503 87.8655 175.634 88.6396C173.765 89.4138 172.168 90.7247 171.044 92.4067C169.92 94.0887 169.32 96.0661 169.32 98.089C169.32 99.4322 169.585 100.762 170.099 102.003C170.613 103.244 171.366 104.372 172.316 105.321C173.266 106.271 174.393 107.024 175.634 107.538C176.875 108.052 178.205 108.317 179.548 108.317V108.317Z" fill="white"/>
<path d="M206.58 110.053C208.946 110.053 211.259 109.351 213.226 108.036C215.193 106.722 216.726 104.854 217.632 102.668C218.537 100.482 218.774 98.0763 218.313 95.7557C217.851 93.435 216.712 91.3034 215.039 89.6304C213.366 87.9573 211.234 86.8179 208.913 86.3563C206.593 85.8947 204.187 86.1316 202.001 87.0371C199.815 87.9426 197.947 89.4759 196.633 91.4432C195.318 93.4105 194.616 95.7235 194.616 98.0895C194.616 101.262 195.877 104.305 198.12 106.549C200.364 108.792 203.407 110.053 206.58 110.053V110.053Z" fill="white"/>
<path d="M396.435 109.367C398.659 109.34 400.826 108.656 402.663 107.401C404.499 106.145 405.923 104.374 406.756 102.311C407.589 100.248 407.793 97.9849 407.342 95.8063C406.892 93.6277 405.807 91.6309 404.224 90.0673C402.642 88.5037 400.632 87.4431 398.448 87.0189C396.264 86.5947 394.004 86.8259 391.951 87.6834C389.898 88.5409 388.144 89.9864 386.911 91.838C385.678 93.6896 385.02 95.8646 385.02 98.0893C385.019 99.582 385.316 101.06 385.891 102.437C386.466 103.814 387.309 105.064 388.371 106.113C389.433 107.162 390.692 107.99 392.077 108.549C393.461 109.107 394.942 109.386 396.435 109.367V109.367Z" fill="white"/>
<path d="M423.513 106.902C425.257 106.911 426.966 106.402 428.421 105.439C429.876 104.476 431.013 103.103 431.687 101.493C432.361 99.8839 432.542 98.1106 432.207 96.3982C431.872 94.6857 431.036 93.1112 429.806 91.8742C428.575 90.6372 427.005 89.7933 425.294 89.4496C423.584 89.1058 421.809 89.2776 420.196 89.9433C418.584 90.6089 417.204 91.7384 416.234 93.1886C415.264 94.6387 414.746 96.3443 414.746 98.0892C414.74 99.2443 414.962 100.389 415.4 101.458C415.838 102.527 416.483 103.499 417.297 104.318C418.112 105.137 419.08 105.787 420.147 106.23C421.214 106.673 422.357 106.902 423.513 106.902V106.902Z" fill="white"/>
<path d="M450.635 103.979C451.449 104.051 452.269 103.953 453.043 103.691C453.817 103.429 454.528 103.008 455.131 102.456C455.734 101.905 456.215 101.233 456.544 100.485C456.874 99.7376 457.044 98.9293 457.044 98.1121C457.044 97.2949 456.874 96.4867 456.544 95.7388C456.215 94.9909 455.734 94.3196 455.131 93.7678C454.528 93.216 453.817 92.7956 453.043 92.5334C452.269 92.2712 451.449 92.1729 450.635 92.2448C449.169 92.3743 447.803 93.0485 446.809 94.1345C445.815 95.2206 445.263 96.6396 445.263 98.1121C445.263 99.5846 445.815 101.004 446.809 102.09C447.803 103.176 449.169 103.85 450.635 103.979Z" fill="white"/>
<path d="M477.758 100.053C478.037 100.096 478.323 100.078 478.595 100C478.868 99.9227 479.12 99.7871 479.335 99.6027C479.55 99.4184 479.722 99.1898 479.84 98.9326C479.958 98.6754 480.02 98.3957 480.02 98.1126C480.02 97.8295 479.958 97.5498 479.84 97.2926C479.722 97.0353 479.55 96.8067 479.335 96.6224C479.12 96.4381 478.868 96.3024 478.595 96.2247C478.323 96.1469 478.037 96.129 477.758 96.172C477.294 96.2433 476.871 96.4782 476.566 96.8341C476.261 97.1901 476.093 97.6436 476.093 98.1126C476.093 98.5816 476.261 99.0351 476.566 99.391C476.871 99.747 477.294 99.9818 477.758 100.053Z" fill="white"/>
<path d="M98.0899 129.321C98.9208 129.321 99.7329 129.074 100.424 128.613C101.115 128.151 101.653 127.495 101.971 126.728C102.289 125.96 102.372 125.115 102.21 124.3C102.048 123.486 101.648 122.737 101.06 122.15C100.473 121.562 99.7243 121.162 98.9095 121C98.0946 120.838 97.25 120.921 96.4824 121.239C95.7148 121.557 95.0587 122.095 94.5971 122.786C94.1355 123.477 93.8892 124.289 93.8892 125.12C93.901 126.23 94.3474 127.292 95.1327 128.077C95.9179 128.862 96.9795 129.309 98.0899 129.321V129.321Z" fill="white"/>
<path d="M125.213 133.339C126.82 133.339 128.391 132.863 129.728 131.97C131.065 131.077 132.106 129.807 132.721 128.322C133.337 126.837 133.498 125.203 133.184 123.626C132.87 122.05 132.096 120.601 130.96 119.465C129.823 118.328 128.375 117.554 126.798 117.24C125.222 116.927 123.587 117.088 122.102 117.703C120.617 118.318 119.348 119.36 118.455 120.696C117.562 122.033 117.085 123.604 117.085 125.212C117.085 126.279 117.295 127.336 117.704 128.322C118.112 129.308 118.711 130.204 119.465 130.959C120.22 131.714 121.116 132.312 122.102 132.721C123.088 133.129 124.145 133.339 125.213 133.339V133.339Z" fill="white"/>
<path d="M152.152 136.489C154.383 136.489 156.563 135.828 158.418 134.589C160.273 133.349 161.718 131.588 162.572 129.527C163.426 127.466 163.649 125.199 163.214 123.011C162.779 120.823 161.704 118.814 160.127 117.236C158.55 115.659 156.54 114.585 154.353 114.15C152.165 113.715 149.897 113.938 147.836 114.792C145.775 115.645 144.014 117.091 142.775 118.945C141.536 120.8 140.874 122.981 140.874 125.211C140.868 126.694 141.156 128.163 141.72 129.534C142.285 130.905 143.115 132.151 144.164 133.2C145.212 134.248 146.458 135.079 147.829 135.643C149.2 136.208 150.67 136.495 152.152 136.489V136.489Z" fill="white"/>
<path d="M450.636 134.983C452.568 134.983 454.457 134.41 456.064 133.336C457.671 132.262 458.924 130.736 459.663 128.951C460.403 127.165 460.596 125.201 460.219 123.305C459.842 121.41 458.912 119.669 457.545 118.302C456.178 116.936 454.437 116.005 452.542 115.628C450.646 115.251 448.682 115.444 446.896 116.184C445.111 116.924 443.585 118.176 442.511 119.783C441.437 121.39 440.864 123.279 440.864 125.212C440.864 127.803 441.894 130.288 443.726 132.121C445.559 133.953 448.044 134.983 450.636 134.983V134.983Z" fill="white"/>
<path d="M477.756 131.467C479.003 131.521 480.239 131.201 481.303 130.548C482.367 129.895 483.211 128.938 483.727 127.801C484.243 126.664 484.406 125.398 484.197 124.167C483.987 122.936 483.414 121.796 482.551 120.894C481.688 119.992 480.575 119.368 479.355 119.104C478.134 118.839 476.863 118.946 475.704 119.41C474.545 119.875 473.551 120.675 472.851 121.709C472.15 122.743 471.776 123.963 471.774 125.211C471.773 126.824 472.394 128.375 473.509 129.54C474.623 130.706 476.145 131.396 477.756 131.467V131.467Z" fill="white"/>
<path d="M504.879 126.947C505.222 126.947 505.558 126.845 505.843 126.654C506.128 126.463 506.351 126.192 506.482 125.875C506.613 125.558 506.648 125.209 506.581 124.873C506.514 124.536 506.349 124.227 506.106 123.985C505.863 123.742 505.554 123.577 505.218 123.51C504.881 123.443 504.532 123.477 504.215 123.608C503.898 123.74 503.627 123.962 503.436 124.247C503.246 124.533 503.144 124.868 503.144 125.211C503.144 125.672 503.327 126.113 503.652 126.438C503.978 126.764 504.419 126.947 504.879 126.947Z" fill="white"/>
<path d="M70.9681 155.211C71.5309 155.219 72.0836 155.061 72.5578 154.758C73.032 154.455 73.4068 154.019 73.6357 153.505C73.8647 152.991 73.9378 152.421 73.846 151.865C73.7543 151.31 73.5016 150.794 73.1193 150.381C72.737 149.968 72.2419 149.676 71.6954 149.541C71.1489 149.407 70.5749 149.436 70.0445 149.624C69.5142 149.813 69.0508 150.153 68.7118 150.602C68.3727 151.051 68.173 151.59 68.1372 152.152C68.1124 152.541 68.1669 152.931 68.2975 153.298C68.428 153.665 68.6319 154.002 68.8966 154.288C69.1614 154.574 69.4815 154.804 69.8376 154.962C70.1937 155.121 70.5783 155.206 70.9681 155.211V155.211Z" fill="white"/>
<path d="M98.0902 159.776C99.5543 159.776 100.986 159.343 102.205 158.533C103.425 157.723 104.379 156.572 104.947 155.222C105.515 153.873 105.673 152.386 105.4 150.947C105.128 149.509 104.437 148.183 103.414 147.135C102.391 146.087 101.082 145.364 99.6509 145.057C98.2194 144.749 96.729 144.871 95.3663 145.406C94.0035 145.942 92.829 146.867 91.9896 148.067C91.1503 149.267 90.6834 150.687 90.6475 152.151C90.6231 153.144 90.7976 154.131 91.1608 155.055C91.5239 155.979 92.0682 156.822 92.7618 157.532C93.4553 158.243 94.2841 158.807 95.1992 159.193C96.1143 159.578 97.0972 159.777 98.0902 159.776V159.776Z" fill="white"/>
<path d="M125.213 163.612C127.436 163.612 129.609 162.955 131.459 161.723C133.31 160.492 134.755 158.741 135.614 156.691C136.473 154.641 136.706 152.383 136.286 150.2C135.865 148.017 134.809 146.008 133.25 144.424C131.691 142.839 129.699 141.751 127.523 141.295C125.347 140.84 123.086 141.037 121.022 141.863C118.958 142.689 117.184 144.106 115.924 145.936C114.663 147.767 113.971 149.929 113.935 152.151C113.904 153.649 114.174 155.138 114.727 156.531C115.281 157.923 116.108 159.19 117.159 160.258C118.21 161.326 119.464 162.173 120.847 162.749C122.23 163.325 123.715 163.619 125.213 163.612V163.612Z" fill="white"/>
<path d="M477.757 161.831C479.629 161.84 481.462 161.295 483.026 160.264C484.59 159.234 485.814 157.765 486.545 156.041C487.276 154.317 487.48 152.415 487.134 150.575C486.787 148.735 485.904 147.039 484.596 145.699C483.288 144.359 481.613 143.436 479.781 143.045C477.95 142.655 476.044 142.814 474.303 143.504C472.562 144.193 471.064 145.382 469.997 146.921C468.93 148.459 468.341 150.279 468.305 152.151C468.281 153.41 468.507 154.661 468.971 155.831C469.434 157.002 470.126 158.068 471.005 158.969C471.885 159.87 472.935 160.586 474.094 161.078C475.253 161.569 476.498 161.825 477.757 161.831V161.831Z" fill="white"/>
<path d="M504.879 157.676C506.296 157.676 507.655 157.113 508.656 156.111C509.658 155.109 510.221 153.75 510.221 152.333C510.221 150.917 509.658 149.558 508.656 148.556C507.655 147.554 506.296 146.991 504.879 146.991C503.462 146.991 502.103 147.554 501.101 148.556C500.099 149.558 499.537 150.917 499.537 152.333C499.537 153.75 500.099 155.109 501.101 156.111C502.103 157.113 503.462 157.676 504.879 157.676Z" fill="white"/>
<path d="M43.8458 180.05C44.0032 180.05 44.1542 179.988 44.2655 179.876C44.3768 179.765 44.4394 179.614 44.4394 179.457C44.4394 179.299 44.3768 179.148 44.2655 179.037C44.1542 178.926 44.0032 178.863 43.8458 178.863C43.6884 178.863 43.5374 178.926 43.4261 179.037C43.3147 179.148 43.2522 179.299 43.2522 179.457C43.2522 179.614 43.3147 179.765 43.4261 179.876C43.5374 179.988 43.6884 180.05 43.8458 180.05V180.05Z" fill="white"/>
<path d="M70.9673 185.164C72.1054 185.191 73.2257 184.878 74.1841 184.263C75.1425 183.649 75.8953 182.762 76.3456 181.716C76.796 180.67 76.9233 179.514 76.7113 178.395C76.4993 177.277 75.9576 176.247 75.1559 175.439C74.3541 174.631 73.329 174.081 72.2122 173.859C71.0954 173.638 69.938 173.756 68.8887 174.198C67.8395 174.64 66.9463 175.385 66.324 176.339C65.7018 177.292 65.3788 178.41 65.3967 179.548C65.4199 181.022 66.0128 182.431 67.0513 183.478C68.0897 184.525 69.4931 185.129 70.9673 185.164Z" fill="white"/>
<path d="M98.0892 189.684C100.116 189.684 102.097 189.082 103.781 187.954C105.465 186.826 106.776 185.223 107.547 183.349C108.318 181.475 108.516 179.414 108.113 177.427C107.711 175.441 106.728 173.618 105.289 172.192C103.849 170.765 102.018 169.798 100.028 169.414C98.038 169.03 95.9787 169.245 94.1114 170.033C92.2442 170.821 90.6532 172.147 89.5404 173.841C88.4276 175.534 87.8432 177.521 87.8612 179.548C87.8853 182.244 88.9735 184.822 90.889 186.721C92.8045 188.619 95.3923 189.684 98.0892 189.684Z" fill="white"/>
<path d="M477.756 191.282C480.101 191.291 482.396 190.603 484.348 189.305C486.301 188.007 487.824 186.157 488.723 183.992C489.623 181.826 489.858 179.443 489.399 177.143C488.941 174.844 487.809 172.732 486.148 171.077C484.486 169.423 482.371 168.299 480.07 167.849C477.768 167.4 475.385 167.644 473.223 168.552C471.061 169.46 469.218 170.99 467.928 172.948C466.637 174.905 465.958 177.202 465.976 179.547C466 182.66 467.25 185.638 469.456 187.834C471.661 190.031 474.644 191.27 477.756 191.282Z" fill="white"/>
<path d="M504.88 187.584C506.491 187.584 508.066 187.105 509.404 186.207C510.743 185.31 511.784 184.035 512.397 182.545C513.009 181.055 513.165 179.416 512.844 177.837C512.523 176.258 511.739 174.81 510.594 173.677C509.448 172.544 507.991 171.777 506.408 171.474C504.826 171.171 503.189 171.345 501.705 171.974C500.222 172.603 498.959 173.659 498.077 175.007C497.195 176.356 496.734 177.936 496.752 179.548C496.776 181.687 497.643 183.731 499.165 185.236C500.686 186.74 502.74 187.584 504.88 187.584V187.584Z" fill="white"/>
<path d="M532.003 182.698C532.644 182.698 533.271 182.508 533.804 182.152C534.337 181.796 534.752 181.289 534.998 180.697C535.243 180.105 535.307 179.453 535.182 178.824C535.057 178.195 534.748 177.617 534.295 177.164C533.842 176.711 533.264 176.402 532.635 176.277C532.006 176.152 531.354 176.216 530.762 176.461C530.17 176.707 529.663 177.122 529.307 177.655C528.951 178.188 528.761 178.815 528.761 179.456C528.761 180.316 529.102 181.141 529.71 181.749C530.318 182.357 531.143 182.698 532.003 182.698V182.698Z" fill="white"/>
<path d="M43.8461 209.273C44.3789 209.273 44.8997 209.115 45.3428 208.819C45.7858 208.523 46.1311 208.102 46.335 207.61C46.5389 207.118 46.5922 206.576 46.4883 206.053C46.3843 205.531 46.1278 205.051 45.751 204.674C45.3742 204.297 44.8942 204.041 44.3716 203.937C43.8491 203.833 43.3074 203.886 42.8151 204.09C42.3229 204.294 41.9021 204.639 41.6061 205.082C41.3101 205.525 41.1521 206.046 41.1521 206.579C41.1521 206.933 41.2218 207.283 41.3572 207.61C41.4926 207.937 41.691 208.234 41.9411 208.484C42.1913 208.734 42.4883 208.933 42.8151 209.068C43.142 209.203 43.4923 209.273 43.8461 209.273V209.273Z" fill="white"/>
<path d="M70.9676 214.386C72.5119 214.386 74.0215 213.928 75.3055 213.07C76.5895 212.213 77.5903 210.993 78.1812 209.566C78.7722 208.14 78.9268 206.57 78.6255 205.055C78.3243 203.541 77.5806 202.149 76.4887 201.057C75.3967 199.965 74.0055 199.222 72.4909 198.921C70.9763 198.619 69.4064 198.774 67.9796 199.365C66.5529 199.956 65.3335 200.957 64.4755 202.241C63.6176 203.525 63.1597 205.034 63.1597 206.578C63.1597 208.649 63.9823 210.635 65.4466 212.099C66.9108 213.564 68.8968 214.386 70.9676 214.386V214.386Z" fill="white"/>
<path d="M98.0893 218.542C100.455 218.542 102.768 217.84 104.736 216.526C106.703 215.211 108.236 213.343 109.142 211.157C110.047 208.971 110.284 206.566 109.822 204.245C109.361 201.924 108.222 199.793 106.548 198.12C104.875 196.447 102.744 195.307 100.423 194.846C98.1026 194.384 95.6972 194.621 93.5112 195.526C91.3253 196.432 89.4569 197.965 88.1424 199.932C86.8278 201.9 86.1262 204.213 86.1262 206.579C86.1262 209.752 87.3866 212.794 89.6301 215.038C91.8736 217.281 94.9165 218.542 98.0893 218.542V218.542Z" fill="white"/>
<path d="M504.879 216.806C506.9 216.797 508.872 216.19 510.548 215.06C512.224 213.931 513.528 212.33 514.295 210.461C515.063 208.591 515.259 206.536 514.859 204.555C514.459 202.574 513.481 200.756 512.049 199.33C510.617 197.904 508.794 196.935 506.812 196.544C504.829 196.153 502.775 196.358 500.908 197.133C499.042 197.909 497.447 199.22 496.326 200.901C495.204 202.582 494.605 204.557 494.605 206.578C494.605 207.925 494.871 209.259 495.388 210.503C495.905 211.747 496.662 212.876 497.617 213.827C498.571 214.777 499.704 215.529 500.951 216.041C502.197 216.552 503.532 216.812 504.879 216.806Z" fill="white"/>
<path d="M532.002 212.058C533.085 212.058 534.145 211.737 535.046 211.134C535.947 210.532 536.649 209.677 537.064 208.675C537.479 207.674 537.587 206.573 537.376 205.51C537.164 204.447 536.642 203.47 535.876 202.704C535.11 201.938 534.134 201.416 533.071 201.205C532.008 200.993 530.906 201.102 529.905 201.516C528.904 201.931 528.048 202.633 527.446 203.535C526.844 204.436 526.522 205.495 526.522 206.579C526.522 207.298 526.664 208.011 526.94 208.675C527.215 209.34 527.618 209.944 528.127 210.453C528.636 210.962 529.24 211.365 529.905 211.641C530.57 211.916 531.282 212.058 532.002 212.058V212.058Z" fill="white"/>
<path d="M43.8453 238.13C44.7484 238.13 45.6312 237.863 46.3821 237.361C47.133 236.859 47.7182 236.146 48.0638 235.312C48.4094 234.477 48.4998 233.559 48.3237 232.674C48.1475 231.788 47.7126 230.974 47.074 230.336C46.4355 229.697 45.6219 229.262 44.7361 229.086C43.8504 228.91 42.9323 229 42.098 229.346C41.2637 229.691 40.5505 230.277 40.0488 231.028C39.5471 231.778 39.2793 232.661 39.2793 233.564C39.2793 234.775 39.7604 235.937 40.6167 236.793C41.473 237.649 42.6344 238.13 43.8453 238.13Z" fill="white"/>
<path d="M70.9682 243.153C72.8505 243.162 74.693 242.611 76.2618 241.571C77.8306 240.531 79.055 239.048 79.7794 237.311C80.5039 235.574 80.6959 233.66 80.3309 231.814C79.9659 229.967 79.0604 228.271 77.7294 226.94C76.3984 225.609 74.702 224.703 72.8554 224.338C71.0089 223.973 69.0955 224.165 67.3582 224.89C65.6209 225.614 64.1381 226.839 63.098 228.407C62.0579 229.976 61.5074 231.819 61.5165 233.701C61.5165 236.208 62.5123 238.612 64.2848 240.384C66.0574 242.157 68.4614 243.153 70.9682 243.153V243.153Z" fill="white"/>
<path d="M504.879 245.299C507.175 245.308 509.422 244.636 511.335 243.367C513.248 242.098 514.742 240.29 515.627 238.171C516.512 236.053 516.748 233.719 516.305 231.467C515.863 229.214 514.762 227.143 513.142 225.517C511.522 223.89 509.455 222.781 507.204 222.33C504.953 221.879 502.619 222.106 500.497 222.982C498.375 223.858 496.561 225.345 495.285 227.253C494.009 229.161 493.327 231.405 493.327 233.701C493.327 236.769 494.543 239.712 496.708 241.886C498.873 244.06 501.811 245.287 504.879 245.299V245.299Z" fill="white"/>
<path d="M532.002 240.824C533.411 240.824 534.788 240.406 535.96 239.624C537.131 238.841 538.044 237.729 538.583 236.427C539.122 235.125 539.263 233.693 538.989 232.312C538.714 230.93 538.035 229.661 537.039 228.664C536.043 227.668 534.774 226.99 533.392 226.715C532.01 226.44 530.578 226.581 529.277 227.12C527.975 227.659 526.863 228.572 526.08 229.744C525.297 230.915 524.879 232.292 524.879 233.701C524.879 235.59 525.63 237.402 526.966 238.738C528.302 240.074 530.113 240.824 532.002 240.824Z" fill="white"/>
<path d="M559.124 235.299C559.548 235.299 559.955 235.131 560.255 234.831C560.554 234.531 560.723 234.125 560.723 233.701C560.723 233.277 560.554 232.871 560.255 232.571C559.955 232.271 559.548 232.103 559.124 232.103C558.701 232.103 558.294 232.271 557.994 232.571C557.695 232.871 557.526 233.277 557.526 233.701C557.526 234.125 557.695 234.531 557.994 234.831C558.294 235.131 558.701 235.299 559.124 235.299V235.299Z" fill="white"/>
<path d="M43.8447 266.303C44.9284 266.303 45.9878 265.982 46.8889 265.38C47.7899 264.778 48.4922 263.922 48.9069 262.921C49.3216 261.919 49.4301 260.818 49.2187 259.755C49.0073 258.692 48.4855 257.716 47.7192 256.949C46.9529 256.183 45.9766 255.661 44.9137 255.45C43.8508 255.238 42.7491 255.347 41.7479 255.762C40.7467 256.176 39.891 256.879 39.2889 257.78C38.6868 258.681 38.3655 259.74 38.3655 260.824C38.3774 262.273 38.9585 263.66 39.9835 264.685C41.0085 265.71 42.3952 266.291 43.8447 266.303V266.303Z" fill="white"/>
<path d="M70.9667 271.188C73.0258 271.233 75.0518 270.664 76.786 269.553C78.5203 268.442 79.8843 266.84 80.7039 264.95C81.5235 263.061 81.7616 260.97 81.3878 258.945C81.0141 256.919 80.0453 255.051 78.6053 253.579C77.1652 252.106 75.3191 251.096 73.3026 250.677C71.286 250.258 69.1903 250.45 67.2831 251.227C65.3758 252.005 63.7433 253.333 62.594 255.042C61.4447 256.751 60.8306 258.764 60.8301 260.823C60.841 263.529 61.9054 266.125 63.7977 268.06C65.6899 269.995 68.2613 271.117 70.9667 271.188V271.188Z" fill="white"/>
<path d="M532.002 268.951C533.609 268.951 535.18 268.474 536.517 267.581C537.854 266.688 538.895 265.419 539.51 263.934C540.126 262.449 540.287 260.814 539.973 259.238C539.659 257.661 538.885 256.213 537.749 255.076C536.612 253.94 535.164 253.166 533.587 252.852C532.011 252.538 530.376 252.699 528.891 253.314C527.406 253.93 526.137 254.971 525.244 256.308C524.351 257.644 523.874 259.216 523.874 260.823C523.874 262.979 524.73 265.046 526.255 266.57C527.779 268.095 529.846 268.951 532.002 268.951V268.951Z" fill="white"/>
<path d="M559.125 263.289C559.613 263.289 560.089 263.144 560.495 262.873C560.9 262.603 561.216 262.217 561.403 261.767C561.589 261.316 561.638 260.821 561.543 260.342C561.448 259.864 561.213 259.425 560.868 259.08C560.524 258.735 560.084 258.5 559.606 258.405C559.128 258.31 558.632 258.359 558.181 258.545C557.731 258.732 557.346 259.048 557.075 259.453C556.804 259.859 556.659 260.336 556.659 260.823C556.659 261.477 556.919 262.104 557.381 262.567C557.844 263.029 558.471 263.289 559.125 263.289Z" fill="white"/>
<path d="M43.8453 282.055C42.6803 282.055 41.5415 282.401 40.5729 283.048C39.6042 283.695 38.8493 284.615 38.4034 285.691C37.9576 286.768 37.841 287.952 38.0683 289.094C38.2955 290.237 38.8565 291.287 39.6803 292.11C40.504 292.934 41.5536 293.495 42.6962 293.722C43.8388 293.95 45.0231 293.833 46.0994 293.387C47.1757 292.941 48.0956 292.186 48.7428 291.218C49.39 290.249 49.7355 289.11 49.7355 287.945C49.7355 286.383 49.1149 284.885 48.0103 283.78C46.9057 282.676 45.4075 282.055 43.8453 282.055V282.055Z" fill="white"/>
<path d="M70.968 277.124C68.8297 277.133 66.742 277.775 64.9684 278.97C63.1948 280.164 61.8149 281.857 61.0028 283.835C60.1908 285.814 59.983 287.988 60.4057 290.084C60.8284 292.18 61.8626 294.104 63.3778 295.613C64.893 297.122 66.8213 298.148 68.9192 298.562C71.0172 298.976 73.1907 298.759 75.1654 297.939C77.1401 297.118 78.8275 295.731 80.0146 293.953C81.2017 292.174 81.8352 290.084 81.8352 287.945C81.8352 286.52 81.5538 285.109 81.0071 283.793C80.4605 282.477 79.6593 281.282 78.6495 280.277C77.6398 279.272 76.4415 278.475 75.1233 277.934C73.8051 277.393 72.393 277.118 70.968 277.124V277.124Z" fill="white"/>
<path d="M498.326 298.804C495.74 297.217 493.805 294.759 492.87 291.873C492.349 293.899 491.425 295.801 490.154 297.464C488.884 299.127 487.292 300.517 485.473 301.553C487.332 302.615 488.95 304.053 490.224 305.774C491.497 307.496 492.398 309.464 492.87 311.552C493.746 308.647 495.638 306.154 498.2 304.527C500.762 302.901 503.823 302.25 506.825 302.693C509.827 303.136 512.57 304.643 514.553 306.94C516.536 309.237 517.627 312.171 517.627 315.205C517.627 318.24 516.536 321.173 514.553 323.47C512.57 325.767 509.827 327.275 506.825 327.718C503.823 328.161 500.762 327.509 498.2 325.883C495.638 324.257 493.746 321.763 492.87 318.858C492.334 321.043 491.329 323.085 489.926 324.843C488.523 326.601 486.754 328.033 484.742 329.04C487.339 330.357 489.496 332.401 490.949 334.924C492.402 337.447 493.088 340.339 492.924 343.246C492.759 346.153 491.751 348.949 490.022 351.291C488.293 353.634 485.919 355.422 483.19 356.437C485.288 357.295 487.15 358.643 488.62 360.368C490.091 362.093 491.127 364.145 491.642 366.353C492.157 368.56 492.136 370.859 491.581 373.056C491.026 375.254 489.953 377.287 488.452 378.985C486.95 380.683 485.064 381.998 482.951 382.818C481.692 383.306 480.374 383.611 479.038 383.727C479.264 383.748 479.491 383.775 479.717 383.808C482.778 384.254 485.576 385.787 487.599 388.127C489.623 390.466 490.736 393.456 490.736 396.549C490.736 399.643 489.623 402.632 487.599 404.972C485.576 407.312 482.778 408.845 479.717 409.291C476.656 409.737 473.537 409.067 470.93 407.402C468.323 405.737 466.402 403.19 465.519 400.225C464.902 402.688 463.682 404.958 461.968 406.831C460.254 408.705 458.101 410.122 455.702 410.955C457.806 411.768 459.677 413.088 461.148 414.797C462.619 416.507 463.646 418.553 464.136 420.754C464.627 422.956 464.566 425.244 463.959 427.416C463.353 429.589 462.22 431.577 460.66 433.207C459.1 434.836 457.162 436.054 455.018 436.754C452.874 437.454 450.591 437.614 448.37 437.22C446.149 436.826 444.061 435.889 442.289 434.493C440.517 433.098 439.118 431.286 438.214 429.219C437.432 431.305 436.212 433.199 434.637 434.774C433.062 436.349 431.168 437.569 429.082 438.352C431.149 439.255 432.96 440.655 434.356 442.426C435.752 444.198 436.688 446.287 437.083 448.507C437.477 450.728 437.317 453.011 436.617 455.155C435.917 457.299 434.698 459.237 433.069 460.797C431.44 462.357 429.451 463.49 427.279 464.097C425.107 464.703 422.818 464.764 420.617 464.273C418.416 463.783 416.369 462.756 414.66 461.285C412.951 459.814 411.631 457.943 410.818 455.84C409.985 458.238 408.568 460.391 406.694 462.105C404.821 463.819 402.551 465.039 400.088 465.657C403.052 466.54 405.6 468.46 407.265 471.067C408.929 473.674 409.6 476.793 409.154 479.854C408.708 482.915 407.175 485.713 404.835 487.736C402.495 489.76 399.505 490.873 396.412 490.873C393.319 490.873 390.329 489.76 387.99 487.736C385.65 485.713 384.117 482.915 383.671 479.854C383.638 479.628 383.611 479.401 383.59 479.175C383.474 480.511 383.169 481.829 382.681 483.088C381.86 485.201 380.546 487.087 378.848 488.589C377.15 490.09 375.117 491.163 372.919 491.718C370.722 492.273 368.423 492.294 366.215 491.779C364.008 491.264 361.956 490.228 360.231 488.757C358.506 487.287 357.158 485.425 356.299 483.327C355.285 486.056 353.497 488.43 351.154 490.159C348.811 491.888 346.016 492.896 343.109 493.061C340.202 493.226 337.31 492.539 334.787 491.086C332.264 489.633 330.219 487.477 328.903 484.88C327.896 486.891 326.464 488.66 324.706 490.063C322.948 491.467 320.906 492.471 318.721 493.007C321.613 493.883 324.095 495.77 325.713 498.323C327.331 500.876 327.977 503.925 327.534 506.915C327.091 509.905 325.589 512.636 323.301 514.61C321.012 516.585 318.09 517.671 315.068 517.671C312.046 517.671 309.124 516.585 306.835 514.61C304.547 512.636 303.044 509.905 302.602 506.915C302.159 503.925 302.805 500.876 304.423 498.323C306.041 495.77 308.522 493.883 311.415 493.007C309.339 492.502 307.391 491.572 305.693 490.275C303.995 488.978 302.585 487.343 301.552 485.473C300.513 487.257 299.131 488.817 297.485 490.063C295.839 491.31 293.963 492.217 291.964 492.733C294.838 493.668 297.283 495.598 298.862 498.175C300.44 500.752 301.047 503.807 300.574 506.792C300.101 509.777 298.578 512.495 296.28 514.457C293.982 516.42 291.059 517.498 288.037 517.498C285.015 517.498 282.092 516.42 279.794 514.457C277.496 512.495 275.973 509.777 275.5 506.792C275.027 503.807 275.634 500.752 277.212 498.175C278.79 495.598 281.236 493.668 284.11 492.733C282.029 492.181 280.084 491.207 278.395 489.872C276.706 488.537 275.31 486.868 274.293 484.971C273.193 486.989 271.654 488.735 269.789 490.078C267.923 491.422 265.78 492.329 263.517 492.733C266.492 493.376 269.124 495.095 270.906 497.562C272.689 500.028 273.496 503.067 273.173 506.092C272.85 509.118 271.42 511.918 269.156 513.952C266.893 515.987 263.958 517.112 260.915 517.112C257.872 517.112 254.936 515.987 252.673 513.952C250.41 511.918 248.979 509.118 248.656 506.092C248.333 503.067 249.14 500.028 250.923 497.562C252.706 495.095 255.337 493.376 258.312 492.733C255.864 492.309 253.556 491.298 251.584 489.787C249.612 488.276 248.035 486.31 246.988 484.058C245.7 486.766 243.612 489.014 241.006 490.499C238.4 491.983 235.401 492.632 232.414 492.358C229.427 492.084 226.597 490.901 224.304 488.968C222.011 487.034 220.366 484.444 219.592 481.546C218.974 483.768 217.806 485.798 216.195 487.448C214.583 489.097 212.582 490.314 210.376 490.984C208.169 491.654 205.829 491.757 203.573 491.282C201.316 490.807 199.216 489.77 197.467 488.267C195.718 486.764 194.377 484.844 193.567 482.685C192.758 480.526 192.507 478.197 192.837 475.915C193.168 473.633 194.069 471.471 195.457 469.63C196.846 467.789 198.676 466.328 200.78 465.383C197.072 463.909 194.045 461.11 192.287 457.529C190.787 460.338 188.408 462.579 185.514 463.907C182.62 465.236 179.37 465.579 176.263 464.885C173.155 464.191 170.36 462.498 168.306 460.064C166.252 457.63 165.053 454.591 164.891 451.41C164.725 453.792 163.885 456.078 162.471 458.002C161.056 459.925 159.124 461.407 156.899 462.275C154.675 463.143 152.25 463.361 149.906 462.904C147.563 462.447 145.397 461.333 143.662 459.693C141.927 458.053 140.693 455.954 140.105 453.64C139.517 451.326 139.598 448.892 140.339 446.622C141.08 444.353 142.451 442.34 144.292 440.819C146.132 439.299 148.367 438.332 150.736 438.032C147.283 437.671 144.071 436.095 141.671 433.587C139.271 431.078 137.839 427.799 137.631 424.334C137.401 427.567 135.924 430.584 133.514 432.75C131.103 434.916 127.945 436.062 124.706 435.946C121.468 435.831 118.4 434.463 116.149 432.131C113.899 429.799 112.641 426.684 112.641 423.443C112.641 420.202 113.899 417.088 116.149 414.756C118.4 412.424 121.468 411.056 124.706 410.94C127.945 410.825 131.103 411.971 133.514 414.137C135.924 416.303 137.401 419.32 137.631 422.553C137.768 420.123 138.507 417.766 139.782 415.693C141.058 413.62 142.829 411.898 144.937 410.681C141.777 409.085 139.239 406.483 137.723 403.284C136.141 405.954 133.736 408.039 130.868 409.225C128.001 410.412 124.826 410.636 121.82 409.864C118.814 409.092 116.14 407.366 114.2 404.944C112.259 402.523 111.156 399.537 111.057 396.435C111.046 393.761 111.79 391.138 113.203 388.868C114.617 386.599 116.643 384.774 119.047 383.605C116.863 382.647 114.931 381.196 113.402 379.366C111.873 377.536 110.789 375.376 110.235 373.057C109.353 375.984 107.448 378.496 104.868 380.135C102.287 381.774 99.2038 382.43 96.1797 381.984C93.1556 381.539 90.3926 380.02 88.3949 377.707C86.3973 375.393 85.2981 372.438 85.2981 369.381C85.2981 366.325 86.3973 363.37 88.3949 361.056C90.3926 358.742 93.1556 357.224 96.1797 356.778C99.2038 356.333 102.287 356.989 104.868 358.628C107.448 360.267 109.353 362.779 110.235 365.706C111.193 361.78 113.652 358.386 117.084 356.254C114.014 354.485 111.608 351.758 110.235 348.492C109.22 350.57 107.695 352.357 105.802 353.687C103.909 355.017 101.711 355.846 99.4113 356.097C97.1118 356.347 94.7863 356.012 92.6516 355.121C90.5169 354.23 88.6425 352.813 87.2033 351.002C85.764 349.192 84.8068 347.046 84.4208 344.765C84.0348 342.484 84.2326 340.143 84.9957 337.96C85.7589 335.776 87.0626 333.821 88.7853 332.278C90.5079 330.734 92.5934 329.652 94.8473 329.132C91.847 328.401 89.1641 326.718 87.2002 324.335C85.2363 321.952 84.0971 318.997 83.9531 315.912C83.8092 312.827 84.6682 309.779 86.4016 307.223C88.135 304.668 90.6496 302.742 93.5688 301.735C90.6613 300.765 88.1413 298.888 86.3787 296.38C84.6161 293.872 83.7036 290.866 83.7751 287.801C83.8466 284.737 84.8984 281.776 86.776 279.353C88.6537 276.93 91.2584 275.173 94.2081 274.339C90.5751 273.921 87.2569 272.077 84.9834 269.213C82.7099 266.349 81.6674 262.699 82.0852 259.066C82.503 255.433 84.3469 252.114 87.2112 249.841C89.7449 247.83 92.8934 246.782 96.101 246.856C94.1474 246.628 92.2633 245.968 90.5876 244.918C88.5547 243.645 86.9046 241.844 85.8123 239.708C84.72 237.573 84.2264 235.181 84.3837 232.787C84.541 230.393 85.3434 228.087 86.7059 226.112C88.0683 224.138 89.9398 222.569 92.1219 221.572C94.304 220.576 96.7152 220.188 99.0996 220.451C101.484 220.715 103.753 221.618 105.665 223.067C107.577 224.515 109.062 226.454 109.961 228.678C111.304 224.883 114.049 221.746 117.632 219.912C115.036 218.483 112.926 216.313 111.571 213.678C110.217 211.043 109.679 208.064 110.027 205.122C110.375 202.18 111.593 199.408 113.526 197.163C115.458 194.917 118.017 193.299 120.874 192.515C118.701 191.847 116.733 190.641 115.153 189.007C113.572 187.374 112.43 185.367 111.834 183.174C111.238 180.981 111.206 178.672 111.742 176.464C112.278 174.255 113.364 172.218 114.9 170.542C116.435 168.866 118.369 167.606 120.523 166.878C122.676 166.151 124.978 165.981 127.215 166.383C129.452 166.785 131.551 167.747 133.317 169.178C135.082 170.61 136.456 172.465 137.312 174.571C138.061 172.44 139.267 170.499 140.844 168.882C142.421 167.265 144.332 166.012 146.444 165.21C144.466 164.266 142.744 162.861 141.422 161.113C140.1 159.365 139.217 157.326 138.846 155.166C138.476 153.006 138.629 150.789 139.292 148.7C139.956 146.612 141.111 144.713 142.661 143.164C144.211 141.614 146.109 140.459 148.198 139.795C150.286 139.131 152.504 138.978 154.664 139.349C156.823 139.719 158.863 140.603 160.611 141.925C162.358 143.247 163.763 144.969 164.708 146.946C165.51 144.835 166.763 142.924 168.38 141.346C169.996 139.769 171.938 138.564 174.068 137.814C171.983 136.95 170.15 135.573 168.738 133.813C167.326 132.052 166.381 129.964 165.989 127.741C165.598 125.518 165.773 123.233 166.499 121.096C167.225 118.959 168.478 117.039 170.143 115.515C171.807 113.99 173.829 112.91 176.021 112.374C178.213 111.838 180.505 111.863 182.685 112.447C184.865 113.031 186.863 114.156 188.493 115.717C190.124 117.277 191.334 119.224 192.013 121.376C192.796 118.519 194.414 115.961 196.66 114.028C198.906 112.096 201.677 110.878 204.619 110.53C207.561 110.181 210.541 110.719 213.175 112.074C215.81 113.429 217.981 115.539 219.409 118.134C221.244 114.551 224.381 111.806 228.176 110.463C226.016 109.518 224.147 108.016 222.76 106.11C221.372 104.204 220.517 101.963 220.281 99.6176C220.046 97.2719 220.439 94.9059 221.42 92.7622C222.4 90.6185 223.934 88.7744 225.863 87.419C227.792 86.0636 230.046 85.2458 232.396 85.0494C234.745 84.8531 237.104 85.2853 239.231 86.3017C241.358 87.3181 243.176 88.8821 244.499 90.8332C245.701 92.6056 246.455 94.6395 246.701 96.7604C246.47 93.3429 247.519 89.9521 249.658 87.2571C251.932 84.3928 255.25 82.5489 258.883 82.1311C262.516 81.7133 266.166 82.7558 269.03 85.0293C271.895 87.3028 273.738 90.621 274.156 94.254C274.99 91.3043 276.747 88.6996 279.17 86.8219C281.593 84.9443 284.554 83.8925 287.618 83.821C290.683 83.7495 293.689 84.662 296.197 86.4246C298.705 88.1872 300.582 90.7072 301.552 93.6147C302.559 90.6955 304.485 88.1809 307.041 86.4475C309.596 84.7141 312.645 83.8551 315.729 83.999C318.814 84.143 321.769 85.2822 324.152 87.2461C326.535 89.21 328.218 91.8929 328.949 94.8932C329.5 92.6629 330.603 90.6069 332.157 88.9147C333.711 87.2224 335.666 85.9482 337.841 85.2092C340.016 84.4703 342.343 84.2903 344.606 84.6859C346.869 85.0815 348.996 86.04 350.792 87.4732C352.587 88.9063 353.994 90.7681 354.881 92.8872C355.769 95.0062 356.109 97.3145 355.871 99.5996C355.633 101.885 354.824 104.073 353.518 105.964C352.213 107.854 350.453 109.386 348.4 110.418C351.667 111.791 354.393 114.197 356.162 117.267C358.295 113.835 361.688 111.375 365.614 110.418C362.687 109.536 360.175 107.631 358.536 105.051C356.897 102.47 356.241 99.3867 356.687 96.3626C357.132 93.3385 358.651 90.5755 360.964 88.5778C363.278 86.5801 366.233 85.481 369.29 85.481C372.347 85.481 375.302 86.5801 377.615 88.5778C379.929 90.5755 381.447 93.3385 381.893 96.3626C382.339 99.3867 381.682 102.47 380.043 105.051C378.404 107.631 375.892 109.536 372.966 110.418C375.285 110.972 377.444 112.056 379.274 113.585C381.104 115.114 382.555 117.046 383.513 119.23C384.663 116.777 386.491 114.704 388.78 113.256C391.07 111.808 393.726 111.045 396.435 111.057C399.537 111.156 402.522 112.259 404.944 114.2C407.365 116.141 409.092 118.815 409.864 121.82C410.636 124.826 410.412 128.001 409.225 130.869C408.039 133.736 405.954 136.141 403.284 137.723C406.519 139.191 409.171 141.698 410.818 144.846C412.035 142.738 413.757 140.967 415.83 139.691C417.902 138.416 420.26 137.677 422.69 137.54C419.457 137.309 416.44 135.833 414.274 133.422C412.108 131.012 410.962 127.854 411.077 124.615C411.193 121.376 412.56 118.309 414.893 116.058C417.225 113.808 420.339 112.55 423.58 112.55C426.821 112.55 429.936 113.808 432.268 116.058C434.6 118.309 435.968 121.376 436.083 124.615C436.199 127.854 435.053 131.012 432.887 133.422C430.72 135.833 427.703 137.309 424.471 137.54C427.929 137.747 431.202 139.172 433.71 141.562C436.217 143.953 437.797 147.155 438.169 150.599C438.477 148.234 439.45 146.004 440.976 144.17C442.501 142.336 444.515 140.972 446.785 140.238C449.055 139.504 451.486 139.428 453.797 140.021C456.107 140.614 458.202 141.85 459.838 143.586C461.474 145.323 462.583 147.487 463.037 149.829C463.491 152.171 463.271 154.594 462.403 156.815C461.535 159.037 460.054 160.967 458.132 162.38C456.21 163.794 453.927 164.633 451.547 164.799C454.728 164.961 457.767 166.161 460.201 168.215C462.634 170.269 464.328 173.064 465.022 176.172C465.716 179.279 465.372 182.529 464.044 185.423C462.715 188.317 460.475 190.696 457.666 192.196C461.247 193.954 464.046 196.981 465.519 200.689C466.465 198.585 467.925 196.755 469.767 195.366C471.608 193.978 473.769 193.077 476.052 192.746C478.334 192.416 480.662 192.667 482.822 193.476C484.981 194.286 486.901 195.627 488.404 197.376C489.907 199.125 490.943 201.225 491.418 203.482C491.893 205.738 491.791 208.078 491.121 210.284C490.451 212.491 489.234 214.492 487.584 216.103C485.935 217.715 483.905 218.883 481.683 219.501C484.581 220.275 487.171 221.92 489.104 224.213C491.038 226.505 492.221 229.336 492.495 232.323C492.769 235.31 492.12 238.308 490.635 240.915C489.151 243.521 486.903 245.609 484.195 246.897C486.447 247.944 488.413 249.521 489.924 251.493C491.435 253.465 492.445 255.773 492.87 258.221C493.512 255.246 495.232 252.615 497.699 250.832C500.165 249.049 503.203 248.242 506.229 248.565C509.255 248.888 512.055 250.319 514.089 252.582C516.123 254.845 517.249 257.78 517.249 260.824C517.249 263.867 516.123 266.802 514.089 269.065C512.055 271.328 509.255 272.759 506.229 273.082C503.203 273.405 500.165 272.598 497.699 270.815C495.232 269.032 493.512 266.401 492.87 263.426C492.466 265.689 491.559 267.832 490.215 269.698C488.872 271.563 487.126 273.102 485.108 274.202C487.005 275.219 488.674 276.615 490.009 278.304C491.344 279.993 492.318 281.938 492.87 284.019C493.805 281.133 495.74 278.675 498.326 277.088C500.912 275.501 503.98 274.889 506.977 275.363C509.974 275.836 512.703 277.364 514.674 279.67C516.645 281.977 517.728 284.912 517.728 287.946C517.728 290.98 516.645 293.915 514.674 296.221C512.703 298.528 509.974 300.056 506.977 300.529C503.98 301.003 500.912 300.391 498.326 298.804Z" fill="white"/>
<path d="M532.001 279.452C530.321 279.452 528.679 279.95 527.283 280.884C525.886 281.817 524.798 283.143 524.155 284.695C523.512 286.247 523.344 287.955 523.671 289.602C523.999 291.25 524.808 292.763 525.996 293.951C527.184 295.138 528.697 295.947 530.344 296.275C531.992 296.603 533.699 296.434 535.251 295.792C536.803 295.149 538.13 294.06 539.063 292.664C539.996 291.267 540.494 289.625 540.494 287.945C540.494 285.693 539.599 283.533 538.007 281.94C536.414 280.347 534.254 279.452 532.001 279.452Z" fill="white"/>
<path d="M559.124 290.777C559.697 290.786 560.259 290.624 560.739 290.311C561.219 289.998 561.595 289.55 561.818 289.022C562.042 288.495 562.103 287.913 561.993 287.35C561.884 286.788 561.609 286.271 561.204 285.866C560.799 285.461 560.282 285.187 559.72 285.077C559.157 284.967 558.575 285.028 558.048 285.252C557.52 285.475 557.072 285.851 556.759 286.331C556.446 286.811 556.284 287.373 556.293 287.946C556.305 288.693 556.607 289.406 557.135 289.935C557.664 290.463 558.377 290.765 559.124 290.777V290.777Z" fill="white"/>
<path d="M43.8445 309.36C42.7177 309.369 41.6187 309.712 40.6861 310.344C39.7535 310.977 39.0291 311.871 38.6041 312.915C38.1791 313.959 38.0726 315.105 38.2979 316.209C38.5233 317.313 39.0704 318.326 39.8704 319.12C40.6704 319.913 41.6875 320.452 42.7934 320.669C43.8993 320.885 45.0445 320.77 46.0848 320.336C47.1251 319.903 48.0138 319.172 48.6389 318.234C49.2641 317.296 49.5977 316.195 49.5977 315.068C49.5978 314.314 49.4486 313.569 49.159 312.873C48.8693 312.178 48.4448 311.546 47.9099 311.016C47.3751 310.485 46.7405 310.066 46.0427 309.782C45.345 309.497 44.5979 309.354 43.8445 309.36V309.36Z" fill="white"/>
<path d="M70.9683 304.384C68.855 304.384 66.7893 305.011 65.0322 306.185C63.2752 307.359 61.9057 309.027 61.097 310.98C60.2883 312.932 60.0767 315.08 60.489 317.153C60.9013 319.226 61.9189 321.129 63.4131 322.624C64.9074 324.118 66.8112 325.135 68.8838 325.548C70.9564 325.96 73.1047 325.748 75.0571 324.94C77.0094 324.131 78.6781 322.762 79.8521 321.004C81.0262 319.247 81.6528 317.182 81.6528 315.068C81.6589 313.664 81.3866 312.272 80.8518 310.973C80.317 309.673 79.5302 308.493 78.5369 307.5C77.5435 306.506 76.3632 305.72 75.0642 305.185C73.7652 304.65 72.3731 304.378 70.9683 304.384V304.384Z" fill="white"/>
<path d="M532.002 306.712C530.346 306.694 528.722 307.168 527.335 308.076C525.949 308.983 524.864 310.281 524.218 311.806C523.571 313.332 523.393 315.014 523.705 316.641C524.017 318.268 524.805 319.766 525.97 320.943C527.135 322.121 528.624 322.926 530.247 323.256C531.87 323.586 533.555 323.426 535.087 322.796C536.619 322.166 537.93 321.095 538.852 319.719C539.774 318.343 540.267 316.724 540.267 315.068C540.267 312.867 539.399 310.756 537.852 309.191C536.305 307.627 534.203 306.736 532.002 306.712V306.712Z" fill="white"/>
<path d="M559.124 312.329C558.766 312.329 558.412 312.4 558.082 312.538C557.752 312.676 557.453 312.879 557.202 313.134C556.952 313.389 556.754 313.691 556.621 314.023C556.489 314.355 556.424 314.711 556.43 315.068C556.43 315.783 556.713 316.468 557.219 316.973C557.724 317.478 558.409 317.762 559.124 317.762C559.838 317.762 560.523 317.478 561.028 316.973C561.534 316.468 561.817 315.783 561.817 315.068C561.824 314.711 561.758 314.355 561.626 314.023C561.493 313.691 561.296 313.389 561.045 313.134C560.794 312.879 560.495 312.676 560.165 312.538C559.835 312.4 559.481 312.329 559.124 312.329V312.329Z" fill="white"/>
<path d="M43.8449 337.076C42.8335 337.076 41.8448 337.376 41.0038 337.938C40.1628 338.5 39.5073 339.299 39.1202 340.233C38.7332 341.168 38.6319 342.196 38.8292 343.188C39.0265 344.18 39.5136 345.091 40.2288 345.807C40.944 346.522 41.8552 347.009 42.8472 347.206C43.8393 347.403 44.8675 347.302 45.802 346.915C46.7364 346.528 47.5351 345.873 48.0971 345.032C48.659 344.191 48.9589 343.202 48.9589 342.19C48.9589 340.834 48.4201 339.533 47.4611 338.574C46.502 337.615 45.2012 337.076 43.8449 337.076Z" fill="white"/>
<path d="M70.9677 332.099C68.9719 332.099 67.0209 332.691 65.3614 333.8C63.702 334.909 62.4086 336.485 61.6448 338.328C60.8811 340.172 60.6812 342.201 61.0706 344.159C61.46 346.116 62.421 347.914 63.8323 349.326C65.2435 350.737 67.0416 351.698 68.999 352.087C70.9565 352.477 72.9854 352.277 74.8293 351.513C76.6732 350.749 78.2492 349.456 79.358 347.796C80.4668 346.137 81.0587 344.186 81.0587 342.19C81.0587 339.514 79.9955 336.947 78.1031 335.055C76.2107 333.162 73.644 332.099 70.9677 332.099V332.099Z" fill="white"/>
<path d="M504.88 330.227C502.514 330.227 500.201 330.929 498.234 332.243C496.266 333.558 494.733 335.426 493.828 337.612C492.922 339.798 492.685 342.204 493.147 344.524C493.608 346.845 494.748 348.976 496.421 350.649C498.094 352.323 500.226 353.462 502.546 353.923C504.867 354.385 507.272 354.148 509.458 353.243C511.644 352.337 513.512 350.804 514.827 348.837C516.141 346.869 516.843 344.556 516.843 342.19C516.843 339.018 515.583 335.975 513.339 333.731C511.096 331.488 508.053 330.227 504.88 330.227V330.227Z" fill="white"/>
<path d="M532.002 334.519C530.484 334.519 529.001 334.969 527.74 335.812C526.478 336.655 525.495 337.853 524.914 339.255C524.334 340.656 524.182 342.199 524.478 343.687C524.774 345.175 525.505 346.542 526.577 347.614C527.65 348.687 529.017 349.418 530.505 349.714C531.993 350.01 533.535 349.858 534.937 349.277C536.339 348.697 537.537 347.713 538.38 346.452C539.223 345.191 539.673 343.707 539.673 342.19C539.673 340.156 538.864 338.205 537.426 336.766C535.987 335.327 534.036 334.519 532.002 334.519V334.519Z" fill="white"/>
<path d="M559.124 340.227C558.603 340.227 558.104 340.434 557.736 340.802C557.368 341.17 557.161 341.669 557.161 342.19C557.161 342.711 557.368 343.21 557.736 343.579C558.104 343.947 558.603 344.154 559.124 344.154C559.645 344.154 560.144 343.947 560.512 343.579C560.881 343.21 561.087 342.711 561.087 342.19C561.087 341.669 560.881 341.17 560.512 340.802C560.144 340.434 559.645 340.227 559.124 340.227V340.227Z" fill="white"/>
<path d="M43.8452 365.615C43.1137 365.615 42.3987 365.831 41.7905 366.238C41.1822 366.644 40.7082 367.222 40.4283 367.898C40.1483 368.573 40.0751 369.317 40.2178 370.035C40.3605 370.752 40.7128 371.411 41.23 371.928C41.7472 372.446 42.4063 372.798 43.1237 372.94C43.8411 373.083 44.5848 373.01 45.2606 372.73C45.9364 372.45 46.514 371.976 46.9204 371.368C47.3268 370.76 47.5437 370.045 47.5437 369.313C47.5499 368.826 47.4584 368.342 47.2747 367.89C47.091 367.439 46.8188 367.029 46.4741 366.684C46.1295 366.339 45.7193 366.067 45.2678 365.884C44.8163 365.7 44.3326 365.608 43.8452 365.615V365.615Z" fill="white"/>
<path d="M70.967 360.5C69.2241 360.5 67.5203 361.017 66.0711 361.985C64.6219 362.953 63.4924 364.33 62.8254 365.94C62.1584 367.55 61.9838 369.322 62.3239 371.032C62.6639 372.741 63.5032 374.311 64.7357 375.544C65.9681 376.776 67.5383 377.616 69.2478 377.956C70.9572 378.296 72.7291 378.121 74.3394 377.454C75.9497 376.787 77.326 375.658 78.2943 374.208C79.2627 372.759 79.7795 371.055 79.7795 369.312C79.7856 368.153 79.5617 367.005 79.121 365.933C78.6803 364.861 78.0314 363.887 77.2119 363.068C76.3924 362.248 75.4185 361.599 74.3466 361.158C73.2746 360.718 72.126 360.494 70.967 360.5Z" fill="white"/>
<path d="M504.88 358.445C502.728 358.436 500.623 359.066 498.83 360.255C497.037 361.443 495.637 363.137 494.807 365.122C493.978 367.107 493.756 369.294 494.17 371.405C494.584 373.516 495.616 375.456 497.134 376.981C498.652 378.505 500.588 379.544 502.697 379.968C504.806 380.391 506.994 380.178 508.982 379.357C510.97 378.536 512.67 377.143 513.867 375.355C515.063 373.567 515.701 371.464 515.701 369.313C515.701 366.438 514.563 363.681 512.534 361.644C510.506 359.608 507.754 358.457 504.88 358.445V358.445Z" fill="white"/>
<path d="M532.002 363.057C530.765 363.057 529.555 363.424 528.527 364.112C527.498 364.799 526.696 365.776 526.223 366.919C525.749 368.062 525.625 369.32 525.867 370.533C526.108 371.747 526.704 372.861 527.579 373.736C528.454 374.611 529.568 375.207 530.782 375.448C531.995 375.689 533.253 375.566 534.396 375.092C535.539 374.619 536.516 373.817 537.203 372.788C537.891 371.759 538.258 370.55 538.258 369.313C538.264 368.49 538.106 367.673 537.794 366.912C537.482 366.15 537.021 365.458 536.439 364.876C535.857 364.294 535.165 363.833 534.403 363.521C533.641 363.209 532.825 363.051 532.002 363.057V363.057Z" fill="white"/>
<path d="M559.124 368.536C558.926 368.548 558.74 368.635 558.605 368.779C558.469 368.923 558.393 369.114 558.394 369.312C558.394 369.506 558.471 369.692 558.608 369.829C558.745 369.966 558.93 370.043 559.124 370.043C559.322 370.043 559.513 369.968 559.657 369.832C559.802 369.696 559.889 369.51 559.9 369.312C559.889 369.11 559.804 368.919 559.661 368.776C559.518 368.632 559.326 368.547 559.124 368.536V368.536Z" fill="white"/>
<path d="M43.8459 394.7C43.5028 394.7 43.1673 394.802 42.882 394.993C42.5966 395.184 42.3742 395.454 42.2429 395.772C42.1116 396.089 42.0772 396.437 42.1442 396.774C42.2111 397.111 42.3764 397.42 42.619 397.662C42.8617 397.905 43.1709 398.07 43.5074 398.137C43.844 398.204 44.1929 398.17 44.5099 398.038C44.827 397.907 45.098 397.685 45.2886 397.399C45.4793 397.114 45.581 396.779 45.581 396.435C45.581 396.208 45.5362 395.982 45.449 395.772C45.3618 395.561 45.234 395.37 45.0728 395.209C44.9117 395.048 44.7204 394.92 44.5099 394.833C44.2994 394.745 44.0738 394.7 43.8459 394.7V394.7Z" fill="white"/>
<path d="M70.9683 389.586C69.6247 389.586 68.3111 389.984 67.1933 390.729C66.0755 391.475 65.2035 392.535 64.6873 393.775C64.171 395.016 64.0336 396.381 64.2925 397.7C64.5513 399.018 65.1947 400.231 66.1417 401.184C67.0886 402.137 68.2965 402.789 69.6133 403.056C70.93 403.324 72.2964 403.196 73.5404 402.688C74.7843 402.18 75.85 401.315 76.603 400.202C77.356 399.089 77.7627 397.779 77.7717 396.435C77.7777 395.538 77.6062 394.648 77.267 393.817C76.9278 392.987 76.4276 392.231 75.7953 391.595C75.1629 390.958 74.4109 390.453 73.5824 390.108C72.754 389.763 71.8656 389.586 70.9683 389.586Z" fill="white"/>
<path d="M98.0907 385.02C95.86 385.02 93.6795 385.681 91.8249 386.921C89.9702 388.16 88.5246 389.921 87.671 391.982C86.8174 394.043 86.594 396.311 87.0292 398.498C87.4644 400.686 88.5385 402.696 90.1158 404.273C91.6931 405.85 93.7027 406.924 95.8904 407.36C98.0781 407.795 100.346 407.571 102.407 406.718C104.467 405.864 106.229 404.419 107.468 402.564C108.707 400.709 109.369 398.529 109.369 396.298C109.369 393.307 108.181 390.438 106.066 388.323C103.95 386.208 101.082 385.02 98.0907 385.02V385.02Z" fill="white"/>
<path d="M504.879 387.257C503.073 387.257 501.307 387.793 499.805 388.796C498.303 389.8 497.133 391.226 496.442 392.895C495.751 394.563 495.57 396.4 495.922 398.171C496.274 399.943 497.144 401.57 498.421 402.847C499.698 404.124 501.326 404.994 503.097 405.346C504.869 405.698 506.705 405.518 508.373 404.826C510.042 404.135 511.468 402.965 512.472 401.463C513.475 399.961 514.011 398.196 514.011 396.389C514.011 393.967 513.049 391.645 511.336 389.932C509.623 388.219 507.301 387.257 504.879 387.257Z" fill="white"/>
<path d="M532.003 391.96C531.1 391.96 530.217 392.228 529.466 392.73C528.715 393.232 528.13 393.945 527.784 394.779C527.439 395.614 527.348 396.532 527.524 397.417C527.7 398.303 528.135 399.117 528.774 399.755C529.412 400.394 530.226 400.829 531.112 401.005C531.998 401.181 532.916 401.091 533.75 400.745C534.584 400.399 535.297 399.814 535.799 399.063C536.301 398.312 536.569 397.43 536.569 396.527C536.569 395.316 536.088 394.154 535.231 393.298C534.375 392.442 533.214 391.96 532.003 391.96Z" fill="white"/>
<path d="M70.9677 419.083C70.0646 419.083 69.1818 419.35 68.4309 419.852C67.68 420.354 67.0948 421.067 66.7492 421.901C66.4036 422.736 66.3132 423.654 66.4893 424.539C66.6655 425.425 67.1004 426.239 67.739 426.877C68.3776 427.516 69.1911 427.951 70.0769 428.127C70.9626 428.303 71.8807 428.213 72.715 427.867C73.5494 427.521 74.2625 426.936 74.7642 426.185C75.2659 425.434 75.5337 424.552 75.5337 423.649C75.5337 422.438 75.0526 421.276 74.1963 420.42C73.34 419.564 72.1787 419.083 70.9677 419.083V419.083Z" fill="white"/>
<path d="M98.0907 414.745C96.3458 414.745 94.6402 415.263 93.19 416.233C91.7398 417.204 90.6104 418.583 89.9447 420.196C89.2791 421.809 89.1073 423.583 89.451 425.294C89.7948 427.004 90.6386 428.574 91.8756 429.805C93.1127 431.036 94.6872 431.871 96.3996 432.206C98.1121 432.541 99.8854 432.36 101.495 431.686C103.104 431.012 104.477 429.875 105.44 428.42C106.403 426.965 106.912 425.257 106.903 423.512C106.903 422.357 106.675 421.213 106.231 420.146C105.788 419.08 105.138 418.111 104.319 417.297C103.5 416.482 102.529 415.837 101.46 415.399C100.391 414.961 99.2458 414.739 98.0907 414.745V414.745Z" fill="white"/>
<path d="M477.757 412.872C475.642 412.872 473.574 413.5 471.816 414.676C470.058 415.852 468.689 417.524 467.881 419.479C467.074 421.434 466.865 423.584 467.281 425.658C467.697 427.732 468.719 429.636 470.218 431.128C471.717 432.621 473.625 433.635 475.7 434.042C477.776 434.449 479.926 434.231 481.877 433.415C483.829 432.599 485.494 431.223 486.663 429.46C487.831 427.697 488.45 425.626 488.441 423.511C488.441 422.11 488.165 420.723 487.627 419.429C487.09 418.136 486.302 416.961 485.309 415.972C484.316 414.984 483.138 414.201 481.842 413.669C480.546 413.137 479.158 412.866 477.757 412.872Z" fill="white"/>
<path d="M504.879 416.983C503.568 416.983 502.286 417.372 501.196 418.102C500.107 418.831 499.258 419.868 498.758 421.08C498.259 422.293 498.13 423.626 498.389 424.912C498.649 426.197 499.284 427.377 500.214 428.301C501.145 429.225 502.329 429.852 503.616 430.102C504.903 430.353 506.236 430.215 507.445 429.707C508.654 429.199 509.685 428.343 510.407 427.248C511.129 426.154 511.509 424.869 511.5 423.558C511.5 422.69 511.329 421.832 510.995 421.031C510.662 420.23 510.174 419.503 509.558 418.892C508.943 418.281 508.213 417.798 507.41 417.47C506.607 417.142 505.747 416.977 504.879 416.983V416.983Z" fill="white"/>
<path d="M532.003 421.823C531.657 421.823 531.32 421.926 531.034 422.118C530.748 422.311 530.526 422.585 530.396 422.905C530.266 423.224 530.234 423.576 530.305 423.913C530.376 424.251 530.545 424.56 530.793 424.801C531.04 425.042 531.353 425.203 531.693 425.265C532.032 425.326 532.383 425.286 532.699 425.147C533.015 425.009 533.283 424.779 533.468 424.488C533.653 424.197 533.747 423.857 533.738 423.512C533.726 423.06 533.538 422.63 533.214 422.314C532.889 421.999 532.455 421.822 532.003 421.823V421.823Z" fill="white"/>
<path d="M70.9678 449.538C70.7098 449.591 70.4778 449.731 70.3111 449.935C70.1445 450.138 70.0535 450.394 70.0535 450.657C70.0535 450.92 70.1445 451.175 70.3111 451.379C70.4778 451.583 70.7098 451.723 70.9678 451.776C71.1336 451.809 71.3048 451.806 71.469 451.765C71.6333 451.724 71.7864 451.648 71.9174 451.541C72.0484 451.434 72.1539 451.299 72.2264 451.146C72.2989 450.993 72.3365 450.826 72.3365 450.657C72.3365 450.488 72.2989 450.321 72.2264 450.168C72.1539 450.015 72.0484 449.88 71.9174 449.773C71.7864 449.666 71.6333 449.589 71.469 449.549C71.3048 449.508 71.1336 449.505 70.9678 449.538V449.538Z" fill="white"/>
<path d="M98.0909 444.789C96.6241 444.919 95.259 445.593 94.2646 446.679C93.2703 447.765 92.7188 449.184 92.7188 450.657C92.7188 452.129 93.2703 453.548 94.2646 454.634C95.259 455.72 96.6241 456.395 98.0909 456.524C98.9049 456.596 99.725 456.498 100.499 456.236C101.273 455.973 101.984 455.553 102.587 455.001C103.189 454.449 103.671 453.778 104 453.03C104.329 452.282 104.499 451.474 104.499 450.657C104.499 449.84 104.329 449.031 104 448.283C103.671 447.536 103.189 446.864 102.587 446.313C101.984 445.761 101.273 445.34 100.499 445.078C99.725 444.816 98.9049 444.718 98.0909 444.789V444.789Z" fill="white"/>
<path d="M125.213 440.863C123.267 440.854 121.363 441.423 119.742 442.498C118.12 443.574 116.855 445.106 116.106 446.902C115.358 448.698 115.159 450.675 115.537 452.584C115.914 454.492 116.85 456.246 118.226 457.621C119.601 458.997 121.355 459.933 123.263 460.31C125.172 460.688 127.15 460.489 128.945 459.741C130.741 458.992 132.274 457.727 133.349 456.105C134.424 454.484 134.993 452.58 134.984 450.634C134.984 448.043 133.955 445.557 132.122 443.725C130.29 441.892 127.804 440.863 125.213 440.863Z" fill="white"/>
<path d="M450.636 439.356C448.405 439.356 446.224 440.017 444.37 441.256C442.515 442.496 441.07 444.257 440.216 446.318C439.362 448.379 439.139 450.646 439.574 452.834C440.009 455.022 441.083 457.031 442.661 458.609C444.238 460.186 446.248 461.26 448.435 461.695C450.623 462.131 452.891 461.907 454.952 461.054C457.012 460.2 458.774 458.754 460.013 456.9C461.252 455.045 461.914 452.864 461.914 450.634C461.902 447.646 460.71 444.785 458.597 442.672C456.485 440.56 453.623 439.368 450.636 439.356V439.356Z" fill="white"/>
<path d="M477.757 442.826C476.196 442.799 474.662 443.237 473.352 444.086C472.041 444.934 471.014 446.153 470.399 447.588C469.785 449.024 469.613 450.609 469.904 452.143C470.195 453.676 470.937 455.089 472.034 456.199C473.131 457.309 474.534 458.067 476.064 458.376C477.595 458.685 479.182 458.532 480.624 457.934C482.067 457.337 483.298 456.324 484.162 455.023C485.025 453.723 485.482 452.195 485.473 450.634C485.462 448.582 484.648 446.617 483.206 445.158C481.764 443.699 479.808 442.862 477.757 442.826V442.826Z" fill="white"/>
<path d="M504.88 446.981C504.146 446.981 503.43 447.199 502.82 447.607C502.211 448.016 501.737 448.596 501.459 449.275C501.18 449.953 501.11 450.699 501.256 451.418C501.403 452.136 501.759 452.795 502.281 453.311C502.803 453.826 503.466 454.175 504.187 454.312C504.907 454.45 505.652 454.37 506.327 454.083C507.002 453.796 507.577 453.315 507.977 452.701C508.378 452.086 508.587 451.367 508.578 450.634C508.578 450.15 508.482 449.671 508.296 449.225C508.11 448.779 507.836 448.374 507.492 448.034C507.148 447.695 506.74 447.426 506.292 447.246C505.843 447.065 505.363 446.975 504.88 446.981Z" fill="white"/>
<path d="M98.0892 475.839C97.6256 475.91 97.2029 476.145 96.8976 476.501C96.5922 476.857 96.4243 477.31 96.4243 477.779C96.4243 478.248 96.5922 478.702 96.8976 479.058C97.2029 479.414 97.6256 479.649 98.0892 479.72C98.369 479.763 98.6547 479.745 98.9269 479.667C99.1991 479.589 99.4513 479.454 99.6661 479.269C99.881 479.085 100.053 478.857 100.172 478.599C100.29 478.342 100.351 478.062 100.351 477.779C100.351 477.496 100.29 477.216 100.172 476.959C100.053 476.702 99.881 476.474 99.6661 476.289C99.4513 476.105 99.1991 475.969 98.9269 475.891C98.6547 475.814 98.369 475.796 98.0892 475.839V475.839Z" fill="white"/>
<path d="M125.213 471.775C123.974 471.775 122.763 472.143 121.733 472.833C120.703 473.522 119.902 474.502 119.43 475.647C118.957 476.793 118.836 478.053 119.081 479.268C119.326 480.483 119.927 481.597 120.806 482.47C121.686 483.343 122.805 483.935 124.021 484.171C125.237 484.408 126.497 484.277 127.639 483.797C128.781 483.316 129.755 482.507 130.437 481.473C131.118 480.438 131.478 479.224 131.469 477.985C131.469 477.166 131.306 476.354 130.992 475.598C130.677 474.841 130.215 474.155 129.634 473.578C129.052 473 128.362 472.544 127.604 472.235C126.845 471.925 126.032 471.769 125.213 471.775V471.775Z" fill="white"/>
<path d="M152.153 468.305C150.272 468.305 148.434 468.863 146.871 469.909C145.309 470.954 144.091 472.44 143.374 474.178C142.656 475.916 142.471 477.828 142.841 479.672C143.211 481.515 144.12 483.208 145.453 484.534C146.786 485.86 148.483 486.761 150.328 487.123C152.173 487.484 154.084 487.289 155.819 486.563C157.553 485.838 159.034 484.613 160.072 483.045C161.11 481.478 161.659 479.637 161.65 477.757C161.65 476.511 161.404 475.279 160.926 474.129C160.448 472.979 159.748 471.935 158.865 471.057C157.983 470.179 156.936 469.483 155.784 469.011C154.632 468.539 153.398 468.299 152.153 468.305V468.305Z" fill="white"/>
<path d="M179.548 465.976C177.207 465.976 174.919 466.671 172.973 467.972C171.027 469.274 169.511 471.123 168.618 473.287C167.724 475.451 167.493 477.831 167.953 480.126C168.413 482.421 169.543 484.528 171.202 486.18C172.86 487.833 174.972 488.955 177.269 489.406C179.566 489.858 181.945 489.617 184.105 488.715C186.265 487.813 188.109 486.29 189.403 484.339C190.697 482.388 191.383 480.097 191.374 477.756C191.374 476.205 191.068 474.67 190.473 473.238C189.878 471.805 189.006 470.505 187.907 469.41C186.809 468.316 185.505 467.449 184.07 466.86C182.636 466.27 181.099 465.97 179.548 465.976V465.976Z" fill="white"/>
<path d="M423.513 467.209C421.4 467.209 419.334 467.836 417.577 469.01C415.82 470.184 414.45 471.852 413.641 473.805C412.833 475.757 412.621 477.905 413.033 479.978C413.446 482.051 414.463 483.954 415.958 485.449C417.452 486.943 419.356 487.961 421.428 488.373C423.501 488.785 425.649 488.574 427.602 487.765C429.554 486.956 431.223 485.587 432.397 483.83C433.571 482.073 434.197 480.007 434.197 477.894C434.203 476.489 433.931 475.097 433.396 473.798C432.861 472.499 432.075 471.318 431.081 470.325C430.088 469.332 428.908 468.545 427.609 468.01C426.31 467.475 424.918 467.203 423.513 467.209V467.209Z" fill="white"/>
<path d="M450.635 469.949C449.08 469.949 447.56 470.411 446.267 471.276C444.975 472.141 443.968 473.37 443.375 474.808C442.782 476.245 442.629 477.827 442.936 479.351C443.243 480.876 443.995 482.275 445.098 483.372C446.201 484.468 447.605 485.213 449.131 485.511C450.658 485.808 452.238 485.646 453.672 485.045C455.107 484.444 456.33 483.43 457.188 482.132C458.045 480.835 458.498 479.312 458.489 477.757C458.477 475.682 457.644 473.696 456.172 472.233C454.701 470.77 452.71 469.949 450.635 469.949V469.949Z" fill="white"/>
<path d="M477.757 473.556C476.713 473.665 475.746 474.156 475.043 474.936C474.34 475.716 473.951 476.729 473.951 477.779C473.951 478.829 474.34 479.842 475.043 480.622C475.746 481.402 476.713 481.894 477.757 482.003C478.349 482.065 478.947 482.001 479.512 481.817C480.078 481.633 480.598 481.332 481.04 480.934C481.482 480.536 481.835 480.049 482.077 479.506C482.319 478.962 482.444 478.374 482.444 477.779C482.444 477.185 482.319 476.597 482.077 476.053C481.835 475.51 481.482 475.023 481.04 474.625C480.598 474.227 480.078 473.926 479.512 473.742C478.947 473.558 478.349 473.494 477.757 473.556V473.556Z" fill="white"/>
<path d="M125.212 503.144C124.869 503.144 124.534 503.246 124.248 503.436C123.963 503.627 123.74 503.898 123.609 504.215C123.478 504.532 123.443 504.881 123.51 505.218C123.577 505.554 123.743 505.863 123.985 506.106C124.228 506.349 124.537 506.514 124.874 506.581C125.21 506.648 125.559 506.613 125.876 506.482C126.193 506.351 126.464 506.128 126.655 505.843C126.845 505.558 126.947 505.222 126.947 504.879C126.947 504.419 126.764 503.978 126.439 503.652C126.114 503.327 125.672 503.144 125.212 503.144V503.144Z" fill="white"/>
<path d="M152.151 499.537C150.735 499.537 149.376 500.1 148.374 501.102C147.372 502.103 146.809 503.462 146.809 504.879C146.809 506.296 147.372 507.655 148.374 508.657C149.376 509.659 150.735 510.221 152.151 510.221C153.568 510.221 154.927 509.659 155.929 508.657C156.931 507.655 157.494 506.296 157.494 504.879C157.494 503.462 156.931 502.103 155.929 501.102C154.927 500.1 153.568 499.537 152.151 499.537V499.537Z" fill="white"/>
<path d="M179.548 496.751C177.941 496.751 176.369 497.228 175.033 498.121C173.696 499.014 172.654 500.283 172.039 501.768C171.424 503.254 171.263 504.888 171.577 506.464C171.89 508.041 172.665 509.489 173.801 510.626C174.938 511.762 176.386 512.537 177.963 512.85C179.539 513.164 181.173 513.003 182.659 512.388C184.144 511.772 185.413 510.731 186.306 509.394C187.199 508.058 187.676 506.486 187.676 504.879C187.676 502.723 186.82 500.656 185.295 499.132C183.771 497.608 181.704 496.751 179.548 496.751V496.751Z" fill="white"/>
<path d="M206.579 494.605C204.556 494.605 202.579 495.205 200.897 496.329C199.215 497.453 197.904 499.05 197.13 500.919C196.356 502.788 196.153 504.845 196.548 506.829C196.942 508.813 197.916 510.635 199.347 512.065C200.777 513.496 202.6 514.47 204.584 514.865C206.568 515.259 208.624 515.057 210.493 514.283C212.362 513.508 213.959 512.197 215.083 510.516C216.207 508.834 216.807 506.856 216.807 504.833C216.807 502.121 215.729 499.519 213.811 497.601C211.893 495.683 209.292 494.605 206.579 494.605Z" fill="white"/>
<path d="M233.702 493.327C231.406 493.327 229.162 494.008 227.254 495.284C225.346 496.561 223.859 498.375 222.983 500.497C222.106 502.619 221.879 504.953 222.33 507.204C222.782 509.455 223.891 511.521 225.517 513.142C227.144 514.762 229.215 515.863 231.467 516.305C233.72 516.747 236.054 516.511 238.172 515.626C240.29 514.741 242.099 513.248 243.367 511.335C244.636 509.421 245.309 507.175 245.3 504.879C245.288 501.811 244.06 498.873 241.887 496.707C239.713 494.542 236.77 493.327 233.702 493.327V493.327Z" fill="white"/>
<path d="M342.19 492.915C339.824 492.915 337.511 493.617 335.544 494.931C333.577 496.246 332.043 498.114 331.138 500.3C330.232 502.486 329.996 504.892 330.457 507.212C330.919 509.533 332.058 511.664 333.731 513.338C335.404 515.011 337.536 516.15 339.856 516.612C342.177 517.073 344.582 516.836 346.768 515.931C348.954 515.025 350.823 513.492 352.137 511.525C353.452 509.557 354.153 507.244 354.153 504.878C354.153 501.706 352.893 498.663 350.649 496.419C348.406 494.176 345.363 492.915 342.19 492.915V492.915Z" fill="white"/>
<path d="M369.314 494.057C367.173 494.057 365.081 494.692 363.302 495.881C361.522 497.07 360.135 498.76 359.316 500.737C358.497 502.715 358.283 504.89 358.7 506.99C359.118 509.089 360.148 511.017 361.662 512.53C363.175 514.044 365.103 515.074 367.203 515.492C369.302 515.91 371.478 515.695 373.455 514.876C375.432 514.057 377.122 512.67 378.312 510.891C379.501 509.111 380.135 507.019 380.135 504.878C380.123 502.012 378.979 499.267 376.952 497.24C374.926 495.213 372.18 494.069 369.314 494.057Z" fill="white"/>
<path d="M396.435 495.701C394.629 495.701 392.863 496.237 391.361 497.24C389.86 498.243 388.689 499.67 387.998 501.338C387.307 503.007 387.126 504.843 387.478 506.615C387.831 508.386 388.7 510.013 389.977 511.29C391.255 512.568 392.882 513.437 394.653 513.79C396.425 514.142 398.261 513.961 399.93 513.27C401.598 512.579 403.025 511.408 404.028 509.907C405.031 508.405 405.567 506.639 405.567 504.833C405.567 502.411 404.605 500.088 402.892 498.376C401.18 496.663 398.857 495.701 396.435 495.701Z" fill="white"/>
<path d="M423.513 498.258C422.204 498.258 420.924 498.647 419.835 499.374C418.746 500.102 417.898 501.136 417.397 502.346C416.895 503.555 416.764 504.887 417.02 506.171C417.275 507.455 417.906 508.635 418.832 509.561C419.758 510.487 420.937 511.117 422.222 511.373C423.506 511.628 424.837 511.497 426.047 510.996C427.257 510.495 428.291 509.646 429.018 508.557C429.746 507.469 430.134 506.189 430.134 504.879C430.14 504.008 429.973 503.144 429.642 502.338C429.312 501.532 428.824 500.8 428.208 500.184C427.592 499.568 426.86 499.081 426.054 498.75C425.248 498.419 424.384 498.252 423.513 498.258V498.258Z" fill="white"/>
<path d="M450.634 501.226C449.9 501.226 449.184 501.444 448.574 501.853C447.965 502.261 447.491 502.841 447.213 503.52C446.934 504.198 446.864 504.944 447.01 505.663C447.156 506.382 447.513 507.04 448.035 507.556C448.557 508.071 449.22 508.42 449.941 508.557C450.661 508.695 451.406 508.615 452.081 508.328C452.756 508.041 453.33 507.56 453.731 506.946C454.132 506.332 454.341 505.612 454.332 504.879C454.332 504.395 454.236 503.916 454.05 503.47C453.864 503.024 453.59 502.619 453.246 502.279C452.902 501.94 452.494 501.672 452.046 501.491C451.597 501.31 451.117 501.22 450.634 501.226V501.226Z" fill="white"/>
<path d="M152.152 532.001C152.108 532.026 152.074 532.065 152.055 532.111C152.035 532.158 152.032 532.209 152.045 532.258C152.058 532.306 152.087 532.349 152.127 532.38C152.167 532.41 152.215 532.427 152.266 532.427C152.316 532.427 152.365 532.41 152.405 532.38C152.445 532.349 152.473 532.306 152.486 532.258C152.499 532.209 152.496 532.158 152.477 532.111C152.457 532.065 152.423 532.026 152.38 532.001H152.152Z" fill="white"/>
<path d="M179.548 528.759C178.906 528.759 178.28 528.949 177.746 529.305C177.213 529.662 176.798 530.168 176.552 530.76C176.307 531.353 176.243 532.005 176.368 532.633C176.493 533.262 176.802 533.84 177.255 534.293C177.709 534.747 178.286 535.055 178.915 535.181C179.544 535.306 180.196 535.241 180.788 534.996C181.381 534.751 181.887 534.335 182.243 533.802C182.599 533.269 182.789 532.642 182.789 532.001C182.789 531.141 182.448 530.317 181.84 529.709C181.232 529.101 180.407 528.759 179.548 528.759V528.759Z" fill="white"/>
<path d="M206.579 526.567C205.496 526.567 204.436 526.889 203.535 527.491C202.634 528.093 201.932 528.949 201.517 529.95C201.102 530.951 200.994 532.053 201.205 533.116C201.417 534.178 201.939 535.155 202.705 535.921C203.471 536.687 204.448 537.209 205.51 537.421C206.573 537.632 207.675 537.524 208.676 537.109C209.677 536.694 210.533 535.992 211.135 535.091C211.737 534.19 212.059 533.13 212.059 532.047C212.059 531.327 211.917 530.615 211.642 529.95C211.366 529.285 210.963 528.681 210.454 528.172C209.945 527.663 209.341 527.26 208.676 526.984C208.011 526.709 207.299 526.567 206.579 526.567Z" fill="white"/>
<path d="M233.702 524.878C232.28 524.869 230.888 525.283 229.702 526.067C228.516 526.851 227.59 527.97 227.042 529.282C226.494 530.594 226.348 532.039 226.623 533.434C226.898 534.829 227.582 536.11 228.587 537.115C229.593 538.121 230.874 538.804 232.269 539.08C233.664 539.355 235.109 539.209 236.421 538.661C237.732 538.112 238.851 537.187 239.636 536.001C240.42 534.815 240.834 533.423 240.825 532.001C240.825 530.112 240.074 528.3 238.739 526.964C237.403 525.628 235.591 524.878 233.702 524.878Z" fill="white"/>
<path d="M260.823 523.873C259.216 523.873 257.644 524.35 256.308 525.243C254.971 526.136 253.929 527.405 253.314 528.891C252.699 530.376 252.538 532.01 252.852 533.586C253.165 535.163 253.939 536.611 255.076 537.748C256.213 538.885 257.661 539.659 259.238 539.972C260.814 540.286 262.448 540.125 263.933 539.51C265.419 538.895 266.688 537.853 267.581 536.516C268.474 535.18 268.951 533.608 268.951 532.001C268.951 529.845 268.094 527.778 266.57 526.254C265.046 524.73 262.979 523.873 260.823 523.873V523.873Z" fill="white"/>
<path d="M287.947 523.509C286.267 523.509 284.625 524.007 283.229 524.94C281.832 525.873 280.743 527.199 280.101 528.751C279.458 530.303 279.29 532.011 279.617 533.658C279.945 535.306 280.754 536.819 281.942 538.007C283.129 539.195 284.643 540.003 286.29 540.331C287.938 540.659 289.645 540.491 291.197 539.848C292.749 539.205 294.075 538.116 295.009 536.72C295.942 535.323 296.44 533.681 296.44 532.001C296.44 529.749 295.545 527.589 293.952 525.996C292.36 524.403 290.199 523.509 287.947 523.509Z" fill="white"/>
<path d="M315.068 523.646C313.416 523.646 311.8 524.136 310.426 525.054C309.052 525.972 307.981 527.277 307.348 528.804C306.716 530.331 306.551 532.011 306.873 533.632C307.195 535.252 307.991 536.741 309.16 537.91C310.328 539.079 311.817 539.874 313.438 540.197C315.059 540.519 316.739 540.354 318.266 539.721C319.793 539.089 321.098 538.018 322.016 536.644C322.934 535.27 323.424 533.654 323.424 532.001C323.424 529.785 322.544 527.66 320.977 526.093C319.41 524.526 317.284 523.646 315.068 523.646V523.646Z" fill="white"/>
<path d="M342.192 524.33C340.675 524.33 339.191 524.78 337.93 525.623C336.668 526.466 335.685 527.664 335.105 529.065C334.524 530.467 334.372 532.01 334.668 533.498C334.964 534.986 335.695 536.352 336.768 537.425C337.84 538.498 339.207 539.229 340.695 539.525C342.183 539.821 343.726 539.669 345.127 539.088C346.529 538.508 347.727 537.524 348.57 536.263C349.413 535.001 349.863 533.518 349.863 532.001C349.863 530.994 349.664 529.996 349.279 529.065C348.893 528.135 348.328 527.289 347.616 526.577C346.904 525.865 346.058 525.3 345.127 524.914C344.197 524.529 343.199 524.33 342.192 524.33V524.33Z" fill="white"/>
<path d="M369.313 525.792C368.072 525.783 366.856 526.143 365.821 526.827C364.785 527.511 363.976 528.487 363.497 529.632C363.018 530.777 362.89 532.039 363.13 533.256C363.37 534.474 363.967 535.593 364.844 536.47C365.722 537.348 366.841 537.945 368.058 538.184C369.276 538.424 370.538 538.297 371.683 537.818C372.827 537.338 373.804 536.53 374.488 535.494C375.172 534.458 375.532 533.243 375.523 532.002C375.523 530.355 374.869 528.775 373.704 527.61C372.54 526.446 370.96 525.792 369.313 525.792Z" fill="white"/>
<path d="M396.435 527.572C395.532 527.572 394.649 527.84 393.898 528.342C393.147 528.843 392.562 529.556 392.216 530.391C391.871 531.225 391.78 532.143 391.956 533.029C392.133 533.915 392.567 534.728 393.206 535.367C393.845 536.005 394.658 536.44 395.544 536.616C396.43 536.793 397.348 536.702 398.182 536.357C399.016 536.011 399.729 535.426 400.231 534.675C400.733 533.924 401.001 533.041 401.001 532.138C401.001 530.927 400.52 529.766 399.663 528.909C398.807 528.053 397.646 527.572 396.435 527.572Z" fill="white"/>
<path d="M423.512 530.266C423.169 530.266 422.834 530.368 422.548 530.559C422.263 530.749 422.041 531.02 421.909 531.337C421.778 531.654 421.744 532.003 421.811 532.34C421.878 532.676 422.043 532.985 422.286 533.228C422.528 533.471 422.837 533.636 423.174 533.703C423.511 533.77 423.859 533.736 424.176 533.604C424.494 533.473 424.765 533.251 424.955 532.965C425.146 532.68 425.248 532.344 425.248 532.001C425.248 531.541 425.065 531.1 424.739 530.774C424.414 530.449 423.973 530.266 423.512 530.266V530.266Z" fill="white"/>
<path d="M233.702 557.571C233.286 557.571 232.886 557.733 232.587 558.023C232.289 558.313 232.115 558.708 232.104 559.124C232.104 559.547 232.272 559.954 232.572 560.254C232.871 560.553 233.278 560.722 233.702 560.722C234.125 560.722 234.532 560.553 234.832 560.254C235.131 559.954 235.3 559.547 235.3 559.124C235.288 558.708 235.114 558.313 234.816 558.023C234.517 557.733 234.118 557.571 233.702 557.571V557.571Z" fill="white"/>
<path d="M260.824 556.658C260.336 556.658 259.86 556.803 259.454 557.074C259.049 557.345 258.733 557.73 258.546 558.18C258.359 558.631 258.311 559.127 258.406 559.605C258.501 560.083 258.736 560.522 259.081 560.867C259.425 561.212 259.865 561.447 260.343 561.542C260.821 561.637 261.317 561.588 261.768 561.402C262.218 561.215 262.603 560.899 262.874 560.494C263.145 560.088 263.29 559.611 263.29 559.124C263.29 558.47 263.03 557.843 262.568 557.38C262.105 556.918 261.478 556.658 260.824 556.658V556.658Z" fill="white"/>
<path d="M287.946 556.293C287.373 556.284 286.81 556.446 286.33 556.759C285.85 557.071 285.475 557.52 285.251 558.047C285.028 558.575 284.967 559.157 285.077 559.719C285.186 560.281 285.461 560.798 285.866 561.203C286.271 561.608 286.788 561.883 287.35 561.993C287.912 562.102 288.495 562.041 289.022 561.818C289.549 561.595 289.998 561.219 290.311 560.739C290.623 560.259 290.786 559.697 290.777 559.124C290.765 558.377 290.463 557.663 289.934 557.135C289.406 556.607 288.693 556.305 287.946 556.293V556.293Z" fill="white"/>
<path d="M315.069 556.43C314.354 556.43 313.669 556.714 313.164 557.219C312.659 557.724 312.375 558.409 312.375 559.124C312.375 559.838 312.659 560.523 313.164 561.029C313.669 561.534 314.354 561.818 315.069 561.818C315.783 561.818 316.469 561.534 316.974 561.029C317.479 560.523 317.763 559.838 317.763 559.124C317.763 558.409 317.479 557.724 316.974 557.219C316.469 556.714 315.783 556.43 315.069 556.43V556.43Z" fill="white"/>
<path d="M342.192 557.16C341.671 557.16 341.172 557.367 340.804 557.735C340.435 558.103 340.229 558.603 340.229 559.123C340.229 559.644 340.435 560.143 340.804 560.512C341.172 560.88 341.671 561.087 342.192 561.087C342.713 561.087 343.212 560.88 343.58 560.512C343.948 560.143 344.155 559.644 344.155 559.123C344.155 558.603 343.948 558.103 343.58 557.735C343.212 557.367 342.713 557.16 342.192 557.16V557.16Z" fill="white"/>
<path d="M369.313 558.53C369.115 558.529 368.924 558.605 368.779 558.741C368.635 558.877 368.548 559.063 368.537 559.26C368.548 559.463 368.633 559.654 368.776 559.797C368.919 559.94 369.111 560.026 369.313 560.037C369.511 560.025 369.697 559.938 369.832 559.794C369.968 559.649 370.044 559.459 370.043 559.26C370.043 559.067 369.966 558.881 369.829 558.744C369.692 558.607 369.507 558.53 369.313 558.53V558.53Z" fill="white"/>
</g>
<defs>
<clipPath id="clip0">
<rect width="524" height="524" fill="white" transform="translate(38 38)"/>
</clipPath>
</defs>
</svg>