<svg xmlns="http://www.w3.org/2000/svg" width="600" height="600" viewBox="0 0 600 600" fill="none">
<path d="M243.476 171.59C247.246 172.21 251.005 172.955 254.753 173.826C257.011 170.708 259.427 167.682 262.001 164.747C258.004 163.096 253.974 161.606 249.91 160.276C247.63 163.945 245.485 167.716 243.476 171.59Z" fill="white"/>
<path d="M299.999 151.3C296.635 153.982 293.35 156.79 290.144 159.725C293.462 161.628 296.748 163.634 299.999 165.743C303.25 163.634 306.535 161.628 309.854 159.725C306.671 156.767 303.385 153.959 299.999 151.3Z" fill="white"/>
<path d="M290.144 440.309C293.35 443.244 296.635 446.052 299.999 448.735C303.363 446.052 306.648 443.244 309.854 440.309C306.535 438.429 303.25 436.423 299.999 434.291C296.748 436.4 293.462 438.407 290.144 440.309Z" fill="white"/>
<path d="M285.81 141.121C280.979 138.003 276.023 135.137 270.943 132.524C267.037 136.742 263.334 141.144 259.834 145.729C264.689 147.472 269.486 149.42 274.228 151.575C277.863 147.93 281.724 144.445 285.81 141.121Z" fill="white"/>
<path d="M285.81 458.878C281.836 455.554 277.987 452.115 274.262 448.562C269.52 450.717 264.711 452.665 259.834 454.408C263.334 458.993 267.026 463.406 270.909 467.648C275.989 464.919 280.956 461.996 285.81 458.878Z" fill="white"/>
<path d="M249.91 439.758C253.997 438.405 258.038 436.904 262.035 435.253C259.551 432.319 257.135 429.304 254.787 426.209C251.017 427.057 247.246 427.791 243.476 428.41C245.485 432.284 247.63 436.067 249.91 439.758Z" fill="white"/>
<path d="M283.541 120.143C289.163 123.261 294.649 126.7 300 130.46C305.329 126.769 310.815 123.33 316.459 120.143C311.227 115.467 305.731 111.104 300 107.075C294.269 111.104 288.773 115.467 283.541 120.143Z" fill="white"/>
<path d="M246.185 104.462C253.383 106.662 260.45 109.28 267.352 112.303C272.827 107.065 278.594 102.151 284.624 97.5844C277.655 93.6623 270.437 90.2157 263.017 87.2676C257.037 92.6135 251.414 98.3577 246.185 104.462Z" fill="white"/>
<path d="M356.523 171.59C354.514 167.716 352.369 163.945 350.089 160.276C346.025 161.606 341.995 163.096 337.999 164.747C340.482 167.682 342.898 170.708 345.246 173.826C348.949 172.955 352.708 172.21 356.523 171.59Z" fill="white"/>
<path d="M314.191 141.121C318.165 144.445 322.025 147.884 325.773 151.437C330.515 149.282 335.312 147.334 340.167 145.591C336.667 141.006 332.976 136.593 329.092 132.351C324.012 135.08 319.045 138.003 314.191 141.121Z" fill="white"/>
<path d="M329.092 467.477C332.976 463.258 336.667 458.845 340.167 454.237C335.312 452.494 330.503 450.545 325.739 448.39C322.014 452.059 318.165 455.498 314.191 458.707C319.023 461.94 323.99 464.863 329.092 467.477Z" fill="white"/>
<path d="M356.524 428.41C352.754 427.791 348.983 427.057 345.213 426.209C342.955 429.327 340.539 432.342 337.965 435.253C341.962 436.904 346.003 438.405 350.09 439.758C352.37 436.067 354.515 432.284 356.524 428.41Z" fill="white"/>
<path d="M336.948 87.2676C329.528 90.2157 322.31 93.6623 315.341 97.5844C321.371 102.151 327.138 107.065 332.613 112.303C339.526 109.279 346.605 106.661 353.814 104.462C348.574 98.3566 342.94 92.6123 336.948 87.2676Z" fill="white"/>
<path d="M218.72 186.067C214.408 185.907 210.118 185.907 205.851 186.067C204.948 190.308 204.203 194.607 203.616 198.963C207.364 198.23 211.145 197.622 214.961 197.141C216.135 193.404 217.388 189.712 218.72 186.067Z" fill="white"/>
<path d="M171.612 208.078C176.421 206.244 181.331 204.604 186.344 203.16C186.886 197.91 187.631 192.717 188.579 187.582C182.912 188.361 177.267 189.404 171.646 190.711C171.42 196.465 171.408 202.254 171.612 208.078Z" fill="white"/>
<path d="M171.713 409.323C177.267 410.629 182.912 411.673 188.646 412.452C187.698 407.317 186.953 402.124 186.411 396.874C181.421 395.429 176.511 393.79 171.679 391.956C171.431 397.733 171.442 403.522 171.713 409.323Z" fill="white"/>
<path d="M185.462 232.838C185.281 228.918 185.214 225.021 185.259 221.146C181.15 222.499 177.12 223.989 173.168 225.617C173.755 229.927 174.501 234.225 175.404 238.513C178.677 236.541 182.03 234.65 185.462 232.838Z" fill="white"/>
<path d="M223.935 136.684C230.279 137.647 236.579 138.931 242.833 140.536C246.626 135.24 250.645 130.093 254.889 125.095C248.393 122.528 241.755 120.346 235.009 118.561C230.974 124.378 227.276 130.429 223.935 136.684Z" fill="white"/>
<path d="M217.33 485.051C213.2 478.661 209.434 472.036 206.053 465.208C202.282 465.437 198.501 465.552 194.707 465.552C190.914 465.552 187.178 465.437 183.498 465.208C186.4 472.754 189.794 480.095 193.658 487.183C201.586 487.004 209.494 486.292 217.33 485.051Z" fill="white"/>
<path d="M225.798 430.507C221.282 430.828 216.767 430.989 212.251 430.989H210.354C212.093 436.537 214.08 441.97 216.315 447.289C221.959 446.601 227.604 445.627 233.248 444.366C230.562 439.873 228.078 435.253 225.798 430.507Z" fill="white"/>
<path d="M198.739 448.527C196.481 442.474 194.427 436.284 192.575 429.957C186.163 429.292 179.808 428.317 173.508 427.033C174.572 433.991 176.031 440.88 177.877 447.667C184.809 448.363 191.774 448.651 198.739 448.527Z" fill="white"/>
<path d="M210.321 169.045C215.469 169.045 220.639 169.205 225.832 169.526C228.09 164.781 230.54 160.195 233.181 155.771C227.582 154.532 221.938 153.558 216.248 152.847C214.035 158.098 212.06 163.497 210.321 169.045Z" fill="white"/>
<path d="M173.508 172.965C179.785 171.681 186.141 170.707 192.575 170.042C194.336 163.737 196.391 157.547 198.739 151.472C191.776 151.314 184.811 151.566 177.877 152.228C176.027 159.049 174.568 165.973 173.508 172.965Z" fill="white"/>
<path d="M218.72 413.967C217.366 410.344 216.113 406.665 214.961 402.928C211.145 402.423 207.364 401.816 203.616 401.105C204.203 405.438 204.948 409.737 205.851 414.001C210.141 414.116 214.431 414.104 218.72 413.967Z" fill="white"/>
<path d="M345.11 125.095C349.354 129.978 353.362 135.079 357.133 140.398C363.387 138.793 369.686 137.51 376.03 136.547C372.685 130.339 368.987 124.333 364.956 118.561C358.222 120.347 351.595 122.529 345.11 125.095Z" fill="white"/>
<path d="M183.531 134.794C191.043 134.355 198.574 134.355 206.086 134.794C209.468 127.965 213.234 121.34 217.364 114.951C209.517 113.708 201.597 112.996 193.657 112.819C189.805 119.907 186.422 127.248 183.531 134.794Z" fill="white"/>
<path d="M531.038 258.628C525.867 251.677 520.208 245.115 514.105 238.992C512.091 247.17 509.569 255.21 506.553 263.064C512.019 269.381 517.087 276.043 521.725 283.01C525.405 275.122 528.517 266.973 531.038 258.628Z" fill="white"/>
<path d="M374.202 169.492C379.395 169.125 384.565 168.964 389.713 169.01C387.974 163.462 385.988 158.029 383.752 152.71C378.108 153.398 372.464 154.372 366.819 155.633C369.461 160.149 371.922 164.769 374.202 169.492Z" fill="white"/>
<path d="M464.558 270.528C469.073 275.114 473.318 280.008 477.292 285.213C480.909 279.163 484.177 272.905 487.079 266.47C482.193 261.46 477.025 256.741 471.602 252.336C469.547 258.481 467.199 264.545 464.558 270.528Z" fill="white"/>
<path d="M457.379 358.153C455.731 352.628 453.812 347.171 451.622 341.783C447.716 345.177 443.663 348.432 439.464 351.55C440.728 356.663 441.778 361.798 442.613 366.956C447.671 364.251 452.593 361.317 457.379 358.153Z" fill="white"/>
<path d="M456.532 286.726C454.003 291.311 451.282 295.77 448.37 300.103C451.282 304.482 454.003 308.941 456.532 313.481C460.393 309.194 464.028 304.734 467.437 300.103C464.05 295.403 460.415 290.944 456.532 286.726Z" fill="white"/>
<path d="M487.113 333.496C484.21 327.061 480.942 320.803 477.325 314.754C473.329 319.844 469.084 324.738 464.591 329.438C467.233 335.422 469.581 341.497 471.636 347.664C477.06 343.249 482.227 338.519 487.113 333.496Z" fill="white"/>
<path d="M499.982 226.096C493.774 221.077 487.246 216.482 480.44 212.34C479.558 219.93 478.246 227.463 476.512 234.9C482.542 239.466 488.309 244.38 493.784 249.618C496.364 241.927 498.434 234.068 499.982 226.096Z" fill="white"/>
<path d="M254.889 474.733C250.645 469.85 246.626 464.749 242.833 459.43C236.579 461.035 230.279 462.318 223.935 463.281C227.28 469.489 230.978 475.495 235.009 481.267C241.755 479.482 248.393 477.3 254.889 474.733Z" fill="white"/>
<path d="M499.982 373.902C498.428 365.976 496.358 358.164 493.784 350.517C488.309 355.755 482.542 360.67 476.512 365.236C478.246 372.673 479.558 380.205 480.44 387.795C487.25 383.609 493.778 378.968 499.982 373.902Z" fill="white"/>
<path d="M464.524 396.462C463.966 389.407 463.005 382.391 461.646 375.45C456.182 378.843 450.537 381.972 444.712 384.838C445.187 391.372 445.345 397.894 445.187 404.405C451.778 402.14 458.235 399.487 464.524 396.462Z" fill="white"/>
<path d="M535.983 237.86C537.499 229.247 538.404 220.536 538.693 211.792C532.942 205.286 526.74 199.207 520.134 193.6C520.012 202.245 519.333 210.872 518.102 219.427C524.451 225.169 530.425 231.326 535.983 237.86Z" fill="white"/>
<path d="M461.646 224.55C463.006 217.609 463.967 210.593 464.525 203.538C458.224 200.512 451.756 197.859 445.153 195.594C445.311 202.106 445.153 208.628 444.679 215.162C450.504 218.005 456.16 221.134 461.646 224.55Z" fill="white"/>
<path d="M439.429 248.451C443.629 251.546 447.681 254.802 451.587 258.218C453.845 252.83 455.764 247.374 457.345 241.848C452.581 238.685 447.659 235.75 442.579 233.045C441.743 238.203 440.694 243.339 439.429 248.451Z" fill="white"/>
<path d="M430.251 276.685C432.87 279.573 435.388 282.508 437.804 285.488C440.061 281.774 442.206 278.003 444.238 274.174C441.055 271.263 437.77 268.466 434.383 265.783C433.119 269.428 431.742 273.062 430.251 276.685Z" fill="white"/>
<path d="M434.35 334.217C437.759 331.535 441.044 328.738 444.205 325.826C442.196 321.997 440.051 318.226 437.77 314.512C435.354 317.515 432.837 320.45 430.218 323.316C431.708 326.938 433.085 330.572 434.35 334.217Z" fill="white"/>
<path d="M414.536 367.163C414.717 371.083 414.784 374.98 414.739 378.855C418.848 377.502 422.879 376.012 426.83 374.384C426.243 370.074 425.498 365.776 424.595 361.488C421.321 363.46 417.968 365.351 414.536 367.163Z" fill="white"/>
<path d="M382.67 114.986C386.8 121.375 390.566 128 393.947 134.829C401.459 134.39 408.99 134.39 416.502 134.829C413.599 127.294 410.205 119.965 406.342 112.888C398.415 113.056 390.506 113.756 382.67 114.986Z" fill="white"/>
<path d="M428.288 190.711C422.734 189.404 417.09 188.361 411.355 187.582C412.303 192.717 413.048 197.91 413.59 203.16C418.58 204.604 423.49 206.244 428.322 208.078C428.57 202.277 428.559 196.488 428.288 190.711Z" fill="white"/>
<path d="M499.137 280.191C495.754 287.007 491.988 293.621 487.859 299.999C491.988 306.377 495.754 312.991 499.137 319.807C504.078 313.516 508.603 306.898 512.683 299.999C508.603 293.1 504.078 286.483 499.137 280.191Z" fill="white"/>
<path d="M394.149 413.966C395.053 409.725 395.798 405.426 396.385 401.07C392.637 401.804 388.855 402.411 385.039 402.893C383.865 406.63 382.612 410.321 381.28 413.966C385.57 414.104 389.86 414.104 394.149 413.966Z" fill="white"/>
<path d="M394.149 186.067C389.882 185.907 385.592 185.907 381.28 186.067C382.635 189.689 383.888 193.369 385.039 197.106C388.855 197.61 392.637 198.218 396.385 198.929C395.775 194.619 395.03 190.331 394.149 186.067Z" fill="white"/>
<path d="M401.262 151.473C403.52 157.525 405.575 163.715 407.426 170.043C413.838 170.708 420.194 171.682 426.493 172.966C425.43 166.008 423.971 159.119 422.124 152.333C415.193 151.636 408.227 151.349 401.262 151.473Z" fill="white"/>
<path d="M500.796 159.485C499.32 150.862 497.238 142.357 494.564 134.036C486.924 129.91 479.001 126.347 470.857 123.376C473.649 131.539 475.912 139.879 477.631 148.342C485.585 151.537 493.323 155.259 500.796 159.485Z" fill="white"/>
<path d="M481.762 193.461C489.022 197.49 496.023 201.981 502.725 206.907C503.487 198.252 503.635 189.552 503.166 180.875C496.001 176.126 488.508 171.909 480.746 168.254C481.608 176.626 481.947 185.045 481.762 193.461Z" fill="white"/>
<path d="M443.899 177.403C451.107 179.59 458.186 182.197 465.1 185.209C464.936 177.147 464.246 169.106 463.034 161.137C455.502 158.534 447.809 156.443 440.004 154.878C441.726 162.304 443.026 169.825 443.899 177.403Z" fill="white"/>
<path d="M434.891 136.753C443.088 138.019 451.199 139.81 459.173 142.117C456.982 133.717 454.198 125.488 450.842 117.494C442.516 115.527 434.061 114.171 425.544 113.437C429.14 121.001 432.262 128.788 434.891 136.753Z" fill="white"/>
<path d="M414.739 221.181C414.739 225.055 414.672 228.953 414.536 232.873C417.968 234.684 421.355 236.576 424.696 238.547C425.599 234.26 426.344 229.961 426.931 225.651C422.89 224.024 418.826 222.533 414.739 221.181Z" fill="white"/>
<path d="M185.259 378.82C185.259 374.946 185.327 371.048 185.463 367.128C182.031 365.317 178.644 363.425 175.303 361.454C174.399 365.741 173.654 370.039 173.067 374.35C177.109 375.977 181.173 377.468 185.259 378.82Z" fill="white"/>
<path d="M99.2056 440.344C100.681 448.967 102.764 457.471 105.437 465.792C113.077 469.918 121 473.481 129.144 476.453C126.352 468.289 124.089 459.949 122.37 451.486C114.417 448.292 106.678 444.57 99.2056 440.344Z" fill="white"/>
<path d="M118.237 406.573C110.978 402.544 103.976 398.053 97.274 393.127C96.5022 401.77 96.3437 410.459 96.7999 419.125C103.965 423.873 111.458 428.091 119.22 431.746C118.37 423.384 118.042 414.977 118.237 406.573Z" fill="white"/>
<path d="M68.9614 341.37C74.133 348.32 79.7922 354.883 85.8948 361.006C87.9087 352.828 90.4312 344.788 93.447 336.933C87.9806 330.616 82.913 323.954 78.2748 316.988C74.5952 324.876 71.4826 333.025 68.9614 341.37Z" fill="white"/>
<path d="M165.11 463.247C156.912 461.981 148.802 460.189 140.827 457.882C143.018 466.282 145.803 474.511 149.158 482.505C157.484 484.472 165.939 485.828 174.457 486.563C170.861 478.998 167.739 471.211 165.11 463.247Z" fill="white"/>
<path d="M156.101 422.598C148.893 420.41 141.814 417.804 134.9 414.791C135.064 422.853 135.754 430.895 136.966 438.864C144.498 441.466 152.191 443.557 159.996 445.123C158.274 437.696 156.974 430.176 156.101 422.598Z" fill="white"/>
<path d="M64.017 362.142C62.5017 370.754 61.5963 379.465 61.3076 388.209C67.0584 394.715 73.2606 400.795 79.8666 406.401C79.9881 397.756 80.6669 389.129 81.8986 380.575C75.5488 374.833 69.5756 368.675 64.017 362.142Z" fill="white"/>
<path d="M78.139 282.907C82.8112 275.949 87.9127 269.299 93.4129 262.996C90.397 255.142 87.8745 247.102 85.8606 238.923C79.7579 245.046 74.0988 251.609 68.9272 258.56C71.4168 266.89 74.4954 275.027 78.139 282.907Z" fill="white"/>
<path d="M129.008 123.547C120.864 126.518 112.942 130.081 105.302 134.208C102.682 142.476 100.645 150.922 99.2056 159.484C106.635 155.275 114.328 151.565 122.235 148.376C123.96 139.959 126.222 131.665 129.008 123.547Z" fill="white"/>
<path d="M159.996 154.843C152.191 156.409 144.498 158.5 136.966 161.102C135.754 169.071 135.064 177.113 134.9 185.174C141.814 182.162 148.893 179.556 156.101 177.368C156.974 169.79 158.274 162.27 159.996 154.843Z" fill="white"/>
<path d="M118.237 193.461C118.042 185.058 118.37 176.65 119.219 168.288C111.458 171.932 103.965 176.139 96.7992 180.875C96.33 189.552 96.4771 198.252 97.2395 206.908C103.952 201.98 110.966 197.489 118.237 193.461Z" fill="white"/>
<path d="M57.3453 276.409C53.0125 283.987 49.221 291.871 46 300.001C49.2223 308.118 53.0138 315.991 57.3453 323.557C60.3689 315.479 63.9099 307.61 67.9456 300.001C63.9085 292.38 60.3675 284.5 57.3453 276.409Z" fill="white"/>
<path d="M158.572 501.625C162.864 509.21 167.685 516.474 172.999 523.359C181.536 524.592 190.149 525.201 198.772 525.182C193.39 518.479 188.446 511.426 183.972 504.067C175.462 503.817 166.977 503.001 158.572 501.625Z" fill="white"/>
<path d="M81.9324 219.427C80.7006 210.872 80.0218 202.245 79.9004 193.6C73.2827 199.205 67.0691 205.285 61.3076 211.792C61.5964 220.536 62.5018 229.247 64.017 237.86C69.5863 231.325 75.5709 225.168 81.9324 219.427Z" fill="white"/>
<path d="M235.009 538.593C241.625 544.232 248.631 549.38 255.973 553.999C264.408 552.186 272.704 549.762 280.797 546.743C273.49 542.319 266.476 537.414 259.8 532.059C251.686 534.786 243.405 536.969 235.009 538.593Z" fill="white"/>
<path d="M228.203 500.248C220.087 501.92 211.875 503.068 203.616 503.687C208.511 510.848 213.91 517.641 219.77 524.011C228.265 522.965 236.674 521.299 244.933 519.025C238.97 513.132 233.382 506.861 228.203 500.248Z" fill="white"/>
<path d="M470.993 476.453C479.137 473.481 487.059 469.919 494.7 465.792C497.373 457.471 499.455 448.967 500.931 440.344C493.501 444.552 485.808 448.263 477.902 451.452C476.14 459.93 473.832 468.281 470.993 476.453Z" fill="white"/>
<path d="M521.86 317.092C517.222 324.058 512.155 330.72 506.688 337.037C509.704 344.891 512.227 352.932 514.24 361.11C520.343 354.987 526.002 348.424 531.174 341.474C528.653 333.129 525.54 324.98 521.86 317.092Z" fill="white"/>
<path d="M263.051 512.837C270.47 509.889 277.689 506.442 284.658 502.52C278.627 497.954 272.861 493.039 267.386 487.801C260.473 490.825 253.394 493.443 246.185 495.642C251.424 501.748 257.059 507.492 263.051 512.837Z" fill="white"/>
<path d="M440.004 445.157C447.809 443.592 455.502 441.501 463.034 438.899C464.246 430.93 464.936 422.888 465.1 414.826C458.186 417.838 451.107 420.445 443.899 422.632C443.026 430.21 441.726 437.731 440.004 445.157Z" fill="white"/>
<path d="M542.654 276.409C539.631 284.488 536.09 292.357 532.054 299.966C536.09 307.575 539.631 315.444 542.654 323.523C546.984 315.967 550.776 308.106 554 300.001C550.779 291.871 546.987 283.987 542.654 276.409Z" fill="white"/>
<path d="M481.764 406.54C481.959 414.943 481.631 423.351 480.781 431.713C488.542 428.069 496.035 423.862 503.201 419.126C503.67 410.449 503.523 401.749 502.761 393.093C496.048 398.02 489.035 402.511 481.764 406.54Z" fill="white"/>
<path d="M319.304 546.778C327.365 549.779 335.627 552.193 344.026 553.999C351.334 549.376 358.306 544.228 364.888 538.593C356.527 536.964 348.28 534.782 340.199 532.059C333.557 537.422 326.577 542.338 319.304 546.778Z" fill="white"/>
<path d="M300 513.111C292.935 517.485 285.605 521.402 278.054 524.837C285.043 529.837 292.377 534.319 300 538.249C307.622 534.319 314.956 529.837 321.945 524.837C314.394 521.402 307.064 517.485 300 513.111Z" fill="white"/>
<path d="M425.476 486.563C433.994 485.828 442.448 484.472 450.774 482.505C454.13 474.511 456.914 466.282 459.105 457.882C451.142 460.187 443.043 461.979 434.857 463.247C432.217 471.212 429.083 478.999 425.476 486.563Z" fill="white"/>
<path d="M169.75 323.316C167.131 320.427 164.613 317.492 162.197 314.512C159.94 318.226 157.795 321.997 155.763 325.826C158.946 328.738 162.231 331.535 165.618 334.217C166.882 330.572 168.259 326.938 169.75 323.316Z" fill="white"/>
<path d="M401.229 525.182C409.84 525.199 418.442 524.59 426.967 523.359C432.282 516.474 437.103 509.21 441.395 501.625C432.989 503.001 424.505 503.816 415.995 504.067C411.532 511.425 406.599 518.478 401.229 525.182Z" fill="white"/>
<path d="M355.101 518.887C363.345 521.205 371.744 522.918 380.23 524.011C386.075 517.672 391.462 510.914 396.351 503.79C388.092 503.171 379.88 502.023 371.763 500.351C366.598 506.879 361.033 513.07 355.101 518.887Z" fill="white"/>
<path d="M518.069 380.609C519.3 389.164 519.979 397.791 520.101 406.436C526.718 400.831 532.932 394.751 538.693 388.244C538.405 379.5 537.499 370.789 535.984 362.177C530.415 368.711 524.43 374.869 518.069 380.609Z" fill="white"/>
<path d="M371.797 99.7505C379.913 98.079 388.126 96.9304 396.385 96.3115C391.496 89.1871 386.108 82.4293 380.264 76.0906C371.769 77.1372 363.36 78.8037 355.101 81.077C361.049 86.9376 366.625 93.1746 371.797 99.7505Z" fill="white"/>
<path d="M428.39 391.922C423.581 393.756 418.67 395.396 413.658 396.84C413.116 402.09 412.371 407.283 411.423 412.418C417.09 411.639 422.734 410.596 428.356 409.289C428.582 403.534 428.593 397.746 428.39 391.922Z" fill="white"/>
<path d="M364.99 61.4064C358.374 55.7677 351.369 50.619 344.026 46C335.626 47.8177 327.364 50.2426 319.304 53.2562C326.611 57.6807 333.625 62.5859 340.301 67.9404C348.381 65.2175 356.629 63.0348 364.99 61.4064Z" fill="white"/>
<path d="M441.429 98.3753C437.137 90.79 432.315 83.5267 427.001 76.6412C418.464 75.4087 409.851 74.7995 401.229 74.8185C406.611 81.5213 411.554 88.5748 416.029 95.9336C424.539 96.1838 433.023 96.9994 441.429 98.3753Z" fill="white"/>
<path d="M300 86.8875C307.064 82.5131 314.394 78.5963 321.945 75.1607C314.955 70.1733 307.621 65.7027 300 61.7832C292.377 65.7134 285.043 70.1956 278.054 75.1951C285.604 78.6196 292.934 82.5248 300 86.8875Z" fill="white"/>
<path d="M280.696 53.2562C272.636 50.2425 264.374 47.8176 255.973 46C248.666 50.6231 241.694 55.7718 235.111 61.4064C243.473 63.0347 251.72 65.2174 259.8 67.9404C266.444 62.5897 273.424 57.6845 280.696 53.2562Z" fill="white"/>
<path d="M416.468 465.208C412.743 465.414 409.006 465.529 405.258 465.552C401.511 465.575 397.729 465.46 393.913 465.208C390.531 472.036 386.766 478.661 382.635 485.051C390.483 486.293 398.402 487.005 406.342 487.183C410.194 480.094 413.577 472.753 416.468 465.208Z" fill="white"/>
<path d="M376.064 463.315C369.72 462.352 363.42 461.068 357.166 459.463C353.396 464.782 349.377 469.883 345.11 474.766C351.606 477.333 358.244 479.515 364.99 481.3C369.021 475.528 372.719 469.523 376.064 463.315Z" fill="white"/>
<path d="M353.814 495.675C346.605 493.477 339.526 490.859 332.613 487.835C327.138 493.072 321.371 497.987 315.341 502.553C322.31 506.475 329.528 509.922 336.948 512.87C342.94 507.525 348.574 501.781 353.814 495.675Z" fill="white"/>
<path d="M316.459 479.892C310.815 476.774 305.329 473.335 300 469.575C294.672 473.266 289.185 476.705 283.541 479.892C288.771 484.603 294.267 489.001 300 493.063C305.734 489.001 311.23 484.603 316.459 479.892Z" fill="white"/>
<path d="M389.679 430.954H387.782C383.267 430.954 378.751 430.794 374.236 430.473C371.978 435.218 369.528 439.804 366.887 444.228C372.486 445.467 378.13 446.441 383.82 447.152C385.987 441.901 387.94 436.502 389.679 430.954Z" fill="white"/>
<path d="M426.493 427.033C420.216 428.317 413.861 429.292 407.426 429.957C405.665 436.261 403.611 442.451 401.262 448.527C408.225 448.685 415.191 448.432 422.124 447.77C423.975 440.95 425.433 434.026 426.493 427.033Z" fill="white"/>
<path d="M244.899 81.1117C236.64 78.8383 228.231 77.1718 219.736 76.1252C213.892 82.464 208.504 89.2218 203.616 96.3462C211.875 96.9651 220.087 98.1137 228.203 99.7851C233.375 93.2092 238.951 86.9723 244.899 81.1117Z" fill="white"/>
<path d="M123.487 365.236C117.457 360.67 111.69 355.755 106.215 350.517C103.641 358.164 101.571 365.976 100.018 373.902C106.225 378.921 112.753 383.516 119.559 387.658C120.447 380.114 121.758 372.628 123.487 365.236Z" fill="white"/>
<path d="M151.596 300C148.706 295.736 145.997 291.311 143.468 286.726C139.607 291.013 135.972 295.472 132.563 300.103C135.972 304.689 139.607 309.148 143.468 313.481C145.997 308.873 148.706 304.379 151.596 300Z" fill="white"/>
<path d="M135.441 329.473C130.926 324.888 126.681 319.993 122.707 314.789C119.09 320.838 115.822 327.096 112.92 333.531C117.815 338.566 122.994 343.308 128.431 347.734C130.463 341.452 132.8 335.365 135.441 329.473Z" fill="white"/>
<path d="M135.477 203.538C136.035 210.593 136.996 217.609 138.355 224.55C143.819 221.157 149.463 218.028 155.289 215.162C154.814 208.628 154.656 202.106 154.814 195.594C148.223 197.86 141.766 200.513 135.477 203.538Z" fill="white"/>
<path d="M169.75 276.685C168.259 273.062 166.882 269.428 165.618 265.783C162.209 268.466 158.924 271.263 155.763 274.174C157.772 278.003 159.917 281.774 162.197 285.488C164.613 282.508 167.131 279.573 169.75 276.685Z" fill="white"/>
<path d="M160.57 351.55C156.438 348.432 152.374 345.165 148.378 341.749C146.12 347.136 144.201 352.593 142.621 358.118C147.385 361.282 152.306 364.217 157.386 366.922C158.244 361.786 159.306 356.662 160.57 351.55Z" fill="white"/>
<path d="M142.621 241.848C144.269 247.374 146.188 252.83 148.378 258.218C152.284 254.825 156.337 251.569 160.536 248.451C159.272 243.339 158.222 238.203 157.386 233.045C152.329 235.75 147.407 238.685 142.621 241.848Z" fill="white"/>
<path d="M100.865 319.807C104.247 312.991 108.013 306.377 112.142 299.999C108.013 293.621 104.247 287.007 100.865 280.191C95.9233 286.483 91.3978 293.1 87.3179 299.999C91.3978 306.898 95.9233 313.516 100.865 319.807Z" fill="white"/>
<path d="M174.525 113.437C166.007 114.171 157.552 115.528 149.226 117.494C145.847 125.486 143.04 133.715 140.827 142.117C148.791 139.812 156.89 138.02 165.076 136.753C167.738 128.786 170.894 120.998 174.525 113.437Z" fill="white"/>
<path d="M198.772 74.8185C190.149 74.7995 181.536 75.4087 172.999 76.6412C167.685 83.5266 162.864 90.7899 158.572 98.3753C166.977 96.9994 175.462 96.1838 183.972 95.9336C188.446 88.5747 193.39 81.5212 198.772 74.8185Z" fill="white"/>
<path d="M138.355 375.45C136.996 382.391 136.034 389.407 135.477 396.462C141.777 399.488 148.245 402.141 154.848 404.405C154.69 397.894 154.848 391.372 155.322 384.838C149.497 381.995 143.842 378.866 138.355 375.45Z" fill="white"/>
<path d="M100.018 226.097C101.571 234.023 103.641 241.835 106.215 249.482C111.69 244.244 117.457 239.33 123.487 234.763C121.753 227.326 120.442 219.794 119.559 212.204C112.749 216.39 106.221 221.031 100.018 226.097Z" fill="white"/>
<path d="M135.442 270.528C132.8 264.544 130.452 258.469 128.398 252.302C122.961 256.727 117.782 261.469 112.887 266.505C115.789 272.939 119.057 279.197 122.674 285.247C126.693 280.157 130.949 275.251 135.442 270.528Z" fill="white"/>
</svg>