<svg xmlns="http://www.w3.org/2000/svg" width="600" height="600" viewBox="0 0 600 600" fill="none">
<g clip-path="url(#clip0)">
<path fill-rule="evenodd" clip-rule="evenodd" d="M699.483 -271.127L614.065 -185.599C610.322 -181.861 605.248 -179.763 599.958 -179.766C594.668 -179.77 589.597 -181.874 585.859 -185.617C582.121 -189.36 580.022 -194.434 580.026 -199.724C580.029 -205.013 582.133 -210.085 585.876 -213.823L671.295 -299.351C675.038 -303.089 680.112 -305.187 685.402 -305.184C690.691 -305.18 695.763 -303.076 699.501 -299.333C703.239 -295.59 705.337 -290.516 705.334 -285.226C705.331 -279.937 703.226 -274.865 699.483 -271.127ZM602.324 -143.91C606.063 -140.165 608.163 -135.089 608.163 -129.798C608.163 -124.506 606.063 -119.431 602.324 -115.686L538.656 -51.9372C534.902 -48.2499 529.844 -46.1951 524.583 -46.2202C519.321 -46.2453 514.283 -48.3483 510.565 -52.0712C506.846 -55.7941 504.75 -60.8353 504.732 -66.0968C504.714 -71.3584 506.775 -76.414 510.467 -80.1626L574.136 -143.91C575.986 -145.763 578.182 -147.233 580.601 -148.236C583.019 -149.239 585.612 -149.755 588.23 -149.755C590.848 -149.755 593.441 -149.239 595.859 -148.236C598.278 -147.233 600.475 -145.763 602.324 -143.91ZM469.466 -100.688C467.613 -98.8372 465.413 -97.3694 462.993 -96.3686C460.572 -95.3678 457.978 -94.8535 455.359 -94.8552C452.74 -94.8568 450.147 -95.3743 447.728 -96.3781C445.308 -97.3819 443.111 -98.8524 441.26 -100.706C439.409 -102.559 437.941 -104.758 436.94 -107.179C435.94 -109.599 435.425 -112.193 435.427 -114.812C435.429 -117.432 435.946 -120.025 436.95 -122.444C437.954 -124.863 439.424 -127.061 441.277 -128.912L483.133 -170.821C484.987 -172.672 487.186 -174.139 489.607 -175.14C492.027 -176.141 494.621 -176.655 497.24 -176.654C499.859 -176.652 502.453 -176.134 504.872 -175.131C507.291 -174.127 509.489 -172.656 511.34 -170.803C513.19 -168.95 514.658 -166.75 515.659 -164.33C516.66 -161.909 517.174 -159.316 517.173 -156.696C517.171 -154.077 516.653 -151.484 515.65 -149.065C514.646 -146.646 513.175 -144.448 511.322 -142.597L469.466 -100.688ZM467.758 -67.3321C471.497 -63.5873 473.596 -58.512 473.596 -53.2203C473.596 -47.9286 471.497 -42.8532 467.758 -39.1084L447.258 -18.5813C443.501 -14.9146 438.45 -12.877 433.201 -12.9102C427.952 -12.9435 422.927 -15.045 419.217 -18.759C415.507 -22.473 413.411 -27.4999 413.383 -32.7493C413.356 -37.9988 415.399 -43.0475 419.07 -46.8003L439.569 -67.3273C441.419 -69.1807 443.615 -70.6512 446.034 -71.6547C448.452 -72.6582 451.044 -73.1749 453.663 -73.1754C456.281 -73.1758 458.873 -72.6599 461.292 -71.6573C463.711 -70.6546 465.908 -69.1849 467.758 -67.3321ZM302.046 10.4972C302.027 10.5164 302.005 10.5324 301.985 10.5516L211.823 100.827C208.088 104.572 203.019 106.679 197.73 106.686C192.441 106.693 187.366 104.598 183.621 100.863C179.877 97.1282 177.769 92.0586 177.762 86.7697C177.756 81.4807 179.85 76.4057 183.585 72.6611L270.44 -14.304C274.154 -18.0477 276.235 -23.1103 276.226 -28.3841C276.218 -33.6579 274.121 -38.7136 270.394 -42.4452C266.667 -46.1768 261.614 -48.2805 256.341 -48.2959C251.067 -48.3114 246.002 -46.2374 242.253 -42.5277L224.314 -24.5667C220.572 -20.8285 215.497 -18.7302 210.207 -18.7336C204.917 -18.7368 199.845 -20.8414 196.107 -24.5843C192.368 -28.3272 190.27 -33.4019 190.273 -38.6919C190.277 -43.9818 192.381 -49.0538 196.124 -52.792L299.482 -156.281C301.335 -158.132 303.534 -159.599 305.955 -160.6C308.375 -161.601 310.969 -162.115 313.588 -162.114C316.208 -162.112 318.801 -161.594 321.22 -160.591C323.639 -159.587 325.837 -158.116 327.688 -156.263C329.539 -154.41 331.006 -152.21 332.007 -149.79C333.008 -147.369 333.522 -144.776 333.521 -142.156C333.519 -139.537 333.001 -136.944 331.998 -134.525C330.994 -132.106 329.523 -129.908 327.67 -128.057L294.353 -94.6978C290.61 -90.9598 288.506 -85.8881 288.502 -80.5984C288.499 -75.3087 290.597 -70.2344 294.335 -66.4917C298.073 -62.749 303.145 -60.6445 308.434 -60.6412C313.724 -60.6379 318.798 -62.7361 322.541 -66.4741L369.421 -113.413L377.209 -121.212C379.062 -123.063 381.261 -124.531 383.682 -125.531C386.102 -126.532 388.696 -127.046 391.315 -127.045C393.934 -127.043 396.528 -126.526 398.947 -125.522C401.366 -124.518 403.564 -123.047 405.415 -121.194C407.266 -119.341 408.733 -117.141 409.734 -114.721C410.735 -112.301 411.249 -109.707 411.248 -107.088C411.246 -104.468 410.728 -101.875 409.724 -99.456C408.721 -97.0368 407.25 -94.8391 405.397 -92.9882L302.046 10.4972ZM385.755 -186.216C382.007 -182.506 376.941 -180.432 371.668 -180.447C366.394 -180.463 361.341 -182.567 357.614 -186.298C353.887 -190.03 351.79 -195.085 351.782 -200.359C351.773 -205.633 353.854 -210.696 357.568 -214.439L361.839 -218.717C365.588 -222.426 370.653 -224.5 375.927 -224.485C381.201 -224.469 386.254 -222.366 389.98 -218.634C393.707 -214.903 395.804 -209.847 395.813 -204.573C395.821 -199.299 393.741 -194.237 390.026 -190.493L385.755 -186.216ZM201.975 140.557C203.829 142.411 205.299 144.611 206.302 147.032C207.305 149.453 207.821 152.048 207.821 154.669C207.821 157.29 207.305 159.885 206.302 162.307C205.299 164.728 203.829 166.928 201.975 168.781L182.479 188.274C178.727 191.97 173.666 194.034 168.399 194.014C163.132 193.994 158.086 191.893 154.362 188.169C150.638 184.445 148.536 179.399 148.516 174.133C148.497 168.866 150.559 163.804 154.255 160.052L173.752 140.557C177.494 136.815 182.571 134.713 187.863 134.713C193.156 134.713 198.232 136.815 201.975 140.557ZM28.53 174.591C24.787 178.332 19.7113 180.433 14.4192 180.433C9.12698 180.432 4.05173 178.329 0.309601 174.587C-3.43253 170.845 -5.53506 165.77 -5.53571 160.478C-5.53632 155.186 -3.43491 150.11 0.306335 146.367L85.8291 60.844C89.5812 57.1478 94.6424 55.0847 99.9093 55.1043C105.176 55.124 110.222 57.225 113.946 60.9492C117.671 64.6733 119.772 69.7188 119.792 74.9856C119.812 80.2525 117.749 85.3138 114.053 89.0661L28.53 174.591ZM-9.09836 268.668L8.86261 250.707L-83.8638 343.43L-30.4819 290.05L34.6435 224.928L73.0083 186.563C76.7514 182.82 81.8279 180.718 87.1211 180.719C92.4142 180.719 97.4903 182.822 101.233 186.565C104.975 190.308 107.078 195.385 107.077 200.678C107.077 205.971 104.974 211.047 101.23 214.79L15.7028 300.313L-87.7857 403.798C-91.5377 407.494 -96.5987 409.558 -101.866 409.539C-107.132 409.519 -112.178 407.418 -115.903 403.694C-119.627 399.971 -121.729 394.925 -121.749 389.658C-121.769 384.391 -119.707 379.33 -116.011 375.578L-61.2637 320.84C-59.4098 318.987 -57.9391 316.787 -56.9355 314.365C-55.932 311.944 -55.4154 309.348 -55.415 306.727C-55.4147 304.106 -55.9308 301.51 -56.9338 299.088C-57.9367 296.667 -59.4069 294.466 -61.2604 292.613C-63.1139 290.759 -65.3143 289.289 -67.7361 288.286C-70.1578 287.283 -72.7534 286.767 -75.3746 286.767C-77.9958 286.768 -80.5912 287.284 -83.0128 288.288C-85.4343 289.291 -87.6344 290.762 -89.4874 292.616L-122.843 325.972C-126.586 329.713 -131.662 331.815 -136.954 331.814C-142.246 331.813 -147.322 329.711 -151.064 325.969C-154.806 322.226 -156.908 317.151 -156.909 311.859C-156.91 306.567 -154.808 301.491 -151.067 297.748L-47.58 194.263C-43.8376 190.52 -38.7614 188.417 -33.4683 188.416C-28.1751 188.416 -23.0986 190.518 -19.3555 194.26C-15.6124 198.003 -13.5093 203.079 -13.5088 208.372C-13.5084 213.665 -15.6106 218.742 -19.3531 222.485L-37.3157 240.446C-40.9547 244.209 -42.9695 249.251 -42.9258 254.486C-42.8822 259.72 -40.7837 264.728 -37.0824 268.43C-33.3812 272.132 -28.3737 274.231 -23.1391 274.276C-17.9046 274.32 -12.862 272.306 -9.09836 268.668ZM-95.484 439.717C-93.6307 441.57 -92.1605 443.77 -91.1574 446.191C-90.1544 448.612 -89.6382 451.207 -89.6382 453.828C-89.6382 456.449 -90.1544 459.044 -91.1574 461.465C-92.1605 463.886 -93.6307 466.086 -95.484 467.939L-137.393 509.846C-141.145 513.543 -146.206 515.606 -151.473 515.586C-156.74 515.566 -161.786 513.465 -165.51 509.741C-169.234 506.017 -171.336 500.972 -171.356 495.705C-171.376 490.438 -169.313 485.377 -165.617 481.624L-123.708 439.718C-121.855 437.865 -119.655 436.395 -117.234 435.391C-114.812 434.388 -112.217 433.872 -109.596 433.872C-106.975 433.872 -104.38 434.388 -101.959 435.391C-99.5373 436.393 -97.3372 437.864 -95.484 439.717ZM-185.289 388.402C-187.137 390.278 -189.338 391.77 -191.765 392.791C-194.193 393.813 -196.798 394.344 -199.431 394.354C-202.065 394.364 -204.674 393.853 -207.109 392.849C-209.544 391.846 -211.756 390.371 -213.619 388.509C-215.481 386.647 -216.956 384.435 -217.959 382C-218.963 379.565 -219.474 376.956 -219.464 374.322C-219.454 371.689 -218.923 369.083 -217.902 366.656C-216.881 364.229 -215.389 362.028 -213.513 360.179L-209.237 355.902C-207.384 354.048 -205.184 352.577 -202.762 351.574C-200.341 350.57 -197.745 350.054 -195.124 350.053C-192.503 350.053 -189.907 350.569 -187.486 351.572C-185.064 352.575 -182.863 354.045 -181.01 355.899C-179.156 357.752 -177.686 359.953 -176.683 362.374C-175.68 364.796 -175.164 367.392 -175.165 370.013C-175.165 372.634 -175.682 375.23 -176.685 377.651C-177.689 380.073 -179.159 382.273 -181.013 384.126L-185.289 388.402ZM-133.972 538.076C-130.23 541.819 -128.128 546.895 -128.128 552.188C-128.128 557.48 -130.23 562.556 -133.972 566.299L-219.5 651.823C-221.353 653.677 -223.553 655.148 -225.974 656.151C-228.396 657.155 -230.991 657.671 -233.613 657.672C-236.234 657.672 -238.829 657.156 -241.251 656.153C-243.673 655.15 -245.873 653.68 -247.727 651.826C-249.58 649.973 -251.05 647.772 -252.053 645.351C-253.056 642.929 -253.572 640.333 -253.572 637.712C-253.572 635.091 -253.055 632.495 -252.052 630.074C-251.048 627.652 -249.577 625.452 -247.723 623.599L-162.197 538.076C-160.344 536.223 -158.144 534.752 -155.723 533.748C-153.302 532.744 -150.706 532.228 -148.085 532.227C-145.464 532.226 -142.869 532.742 -140.447 533.745C-138.025 534.747 -135.824 536.217 -133.97 538.07L-133.972 538.076ZM-82.6568 627.881C-78.9047 624.185 -73.8435 622.122 -68.5766 622.142C-63.3097 622.161 -58.2642 624.262 -54.5398 627.987C-50.8154 631.711 -48.7142 636.756 -48.6942 642.023C-48.6742 647.29 -50.7371 652.351 -54.4331 656.104L-74.957 676.618C-78.6997 680.359 -83.7754 682.461 -89.0675 682.461C-94.3597 682.46 -99.4351 680.358 -103.177 676.616C-106.92 672.874 -109.023 667.799 -109.024 662.507C-109.024 657.215 -106.923 652.139 -103.182 648.396L-82.6568 627.881ZM-95.4857 557.75C-97.339 555.897 -98.8091 553.697 -99.8122 551.276C-100.815 548.855 -101.331 546.26 -101.331 543.639C-101.331 541.018 -100.815 538.423 -99.8122 536.002C-98.8091 533.581 -97.339 531.381 -95.4857 529.528L-74.957 508.998C-71.2048 505.302 -66.1436 503.239 -60.8768 503.258C-55.6099 503.278 -50.5644 505.379 -46.84 509.103C-43.1156 512.827 -41.0143 517.873 -40.9944 523.139C-40.9744 528.406 -43.0372 533.468 -46.7332 537.22L-67.2603 557.745C-69.1138 559.598 -71.3142 561.068 -73.7357 562.071C-76.1573 563.073 -78.7526 563.589 -81.3735 563.588C-83.9944 563.588 -86.5894 563.071 -89.0105 562.067C-91.4316 561.064 -93.6313 559.593 -95.484 557.739L-95.4857 557.75ZM-62.1297 466.241C-63.9831 464.387 -65.4533 462.187 -66.4564 459.766C-67.4594 457.345 -67.9757 454.75 -67.9757 452.129C-67.9757 449.508 -67.4594 446.913 -66.4564 444.491C-65.4533 442.07 -63.9831 439.87 -62.1297 438.017L-41.5947 417.48C-37.852 413.737 -32.7757 411.634 -27.4826 411.634C-22.1895 411.634 -17.113 413.737 -13.3701 417.479C-9.62723 421.222 -7.52438 426.298 -7.52423 431.591C-7.52408 436.884 -9.62662 441.961 -13.3693 445.704L-33.9108 466.229C-37.6534 469.97 -42.7282 472.071 -48.0195 472.071C-53.3107 472.071 -58.3855 469.97 -62.1281 466.229L-62.1297 466.241ZM-4.82104 550.054C-2.98511 548.128 -0.782593 546.588 1.65695 545.526C4.09653 544.464 6.72388 543.9 9.38452 543.868C12.0451 543.836 14.6853 544.336 17.1497 545.34C19.6141 546.343 21.853 547.829 23.7347 549.71C25.6164 551.592 27.1029 553.83 28.1068 556.294C29.1107 558.759 29.6117 561.399 29.5803 564.059C29.5489 566.72 28.9857 569.347 27.924 571.787C26.8623 574.227 25.3234 576.43 23.3979 578.266L22.5431 579.121C18.7909 582.817 13.7298 584.88 8.46292 584.861C3.19601 584.841 -1.84958 582.74 -5.57394 579.016C-9.29834 575.292 -11.3996 570.246 -11.4196 564.979C-11.4395 559.712 -9.37671 554.651 -5.68069 550.899L-4.82104 550.054ZM6.2981 397.817C4.44473 395.964 2.97455 393.764 1.97147 391.343C0.968414 388.922 0.452118 386.326 0.452118 383.706C0.452118 381.085 0.968414 378.49 1.97147 376.068C2.97455 373.647 4.44473 371.447 6.2981 369.594L8.00775 367.884C11.7505 364.143 16.8262 362.041 22.1184 362.041C27.4106 362.041 32.486 364.144 36.2283 367.886C39.9707 371.628 42.0735 376.703 42.0744 381.995C42.0753 387.287 39.9742 392.363 36.2331 396.106L34.5219 397.817C32.6679 399.671 30.4671 401.141 28.0451 402.143C25.623 403.146 23.0272 403.661 20.4059 403.66C17.7846 403.66 15.1891 403.143 12.7676 402.139C10.3461 401.135 8.14618 399.664 6.2933 397.81L6.2981 397.817ZM7.15292 509.854C5.29953 508.001 3.82938 505.801 2.82629 503.38C1.82324 500.959 1.30695 498.363 1.30695 495.742C1.30695 493.122 1.82324 490.526 2.82629 488.105C3.82938 485.684 5.29953 483.484 7.15292 481.631L120.904 367.884C124.656 364.188 129.718 362.125 134.984 362.144C140.251 362.164 145.297 364.265 149.021 367.989C152.746 371.713 154.847 376.759 154.867 382.026C154.887 387.293 152.824 392.354 149.128 396.106L35.3719 509.846C31.629 513.589 26.5528 515.691 21.26 515.691C15.9671 515.691 10.8911 513.589 7.14813 509.846L7.15292 509.854ZM138.002 570.927C141.745 567.184 146.821 565.081 152.114 565.081C157.406 565.081 162.482 567.184 166.225 570.927C169.967 574.669 172.07 579.745 172.07 585.038C172.07 590.33 169.967 595.406 166.225 599.149L80.7001 684.668C76.9538 688.391 71.8843 690.477 66.6026 690.469C61.3209 690.461 56.2578 688.359 52.5229 684.625C48.7881 680.89 46.6861 675.827 46.6777 670.546C46.6693 665.264 48.7551 660.194 52.478 656.448L138.002 570.927ZM149.755 529.242C146.013 525.499 143.911 520.423 143.911 515.131C143.911 509.838 146.013 504.762 149.755 501.02L213.504 437.277C217.251 433.554 222.32 431.468 227.602 431.476C232.884 431.484 237.947 433.586 241.681 437.32C245.416 441.055 247.518 446.118 247.527 451.4C247.535 456.682 245.449 461.751 241.726 465.498L177.979 529.242C176.125 531.095 173.924 532.565 171.502 533.567C169.08 534.57 166.485 535.085 163.863 535.085C161.242 535.084 158.646 534.567 156.225 533.563C153.804 532.559 151.604 531.088 149.751 529.234L149.755 529.242ZM282.782 486.02C284.635 484.167 286.835 482.697 289.256 481.694C291.677 480.691 294.272 480.175 296.893 480.175C299.514 480.175 302.109 480.691 304.53 481.694C306.951 482.697 309.151 484.167 311.004 486.02C312.857 487.873 314.327 490.073 315.33 492.494C316.333 494.915 316.849 497.51 316.849 500.131C316.849 502.752 316.333 505.347 315.33 507.768C314.327 510.189 312.857 512.389 311.004 514.242L269.09 556.141C267.237 557.995 265.038 559.465 262.616 560.468C260.195 561.471 257.6 561.987 254.98 561.987C252.359 561.987 249.764 561.471 247.343 560.469C244.922 559.466 242.721 557.996 240.868 556.143C239.015 554.29 237.545 552.09 236.542 549.669C235.539 547.248 235.023 544.653 235.023 542.032C235.022 539.412 235.538 536.817 236.541 534.395C237.544 531.974 239.014 529.774 240.867 527.921L282.782 486.02ZM284.492 452.667C280.75 448.925 278.647 443.849 278.647 438.556C278.647 433.264 280.75 428.188 284.492 424.445L305.017 403.921C306.865 402.045 309.066 400.553 311.494 399.532C313.921 398.51 316.526 397.979 319.16 397.969C321.793 397.959 324.402 398.47 326.837 399.473C329.272 400.477 331.485 401.952 333.347 403.814C335.209 405.676 336.684 407.888 337.688 410.323C338.691 412.758 339.202 415.367 339.192 418.001C339.183 420.634 338.652 423.24 337.63 425.667C336.609 428.094 335.117 430.295 333.241 432.143L312.715 452.667C310.862 454.521 308.661 455.99 306.239 456.993C303.818 457.996 301.222 458.512 298.601 458.511C295.98 458.511 293.384 457.994 290.963 456.99C288.542 455.987 286.342 454.516 284.489 452.663L284.492 452.667ZM537.636 199.523C539.489 201.376 540.959 203.576 541.962 205.997C542.965 208.418 543.482 211.013 543.482 213.633C543.482 216.254 542.965 218.849 541.962 221.27C540.959 223.691 539.489 225.891 537.636 227.744L429.875 335.5C428.022 337.353 425.822 338.823 423.401 339.826C420.979 340.829 418.385 341.345 415.764 341.345C413.143 341.345 410.548 340.829 408.127 339.826C405.706 338.823 403.506 337.353 401.653 335.5C399.8 333.647 398.33 331.447 397.327 329.026C396.324 326.604 395.808 324.009 395.808 321.389C395.808 318.768 396.324 316.173 397.327 313.752C398.33 311.331 399.8 309.131 401.653 307.278L418.749 290.181L466.642 242.29L509.396 199.537C511.249 197.681 513.449 196.208 515.872 195.203C518.294 194.197 520.891 193.679 523.513 193.678C526.136 193.676 528.733 194.192 531.156 195.195C533.58 196.198 535.781 197.669 537.636 199.523ZM466.65 214.061C462.907 210.319 457.832 208.217 452.539 208.217C447.246 208.217 442.171 210.319 438.428 214.061L433.289 219.2C431.439 221.063 429.238 222.542 426.815 223.552C424.391 224.563 421.792 225.085 419.166 225.089C416.54 225.094 413.939 224.58 411.513 223.577C409.086 222.574 406.881 221.102 405.024 219.245C403.167 217.388 401.695 215.183 400.692 212.757C399.689 210.33 399.175 207.729 399.179 205.103C399.183 202.477 399.705 199.878 400.715 197.455C401.726 195.031 403.205 192.831 405.067 190.979L452.96 143.088C456.702 139.346 461.778 137.243 467.071 137.243C472.363 137.242 477.439 139.344 481.182 143.087C484.925 146.829 487.028 151.905 487.028 157.197C487.028 162.49 484.926 167.566 481.184 171.309C481.474 171.019 481.782 170.761 482.085 170.494C478.708 174.293 476.91 179.239 477.059 184.319C477.208 189.4 479.293 194.232 482.887 197.826C486.481 201.421 491.312 203.506 496.393 203.656C501.474 203.806 506.42 202.009 510.219 198.633C509.952 198.934 509.696 199.241 509.406 199.531L466.66 242.276C470.399 238.532 472.499 233.457 472.497 228.167C472.495 222.876 470.392 217.802 466.65 214.061ZM511.322 1.94577C515.06 5.69095 517.159 10.7662 517.159 16.0576C517.159 21.349 515.06 26.4243 511.322 30.1695L397.715 143.921C395.867 145.797 393.666 147.288 391.239 148.309C388.812 149.331 386.207 149.861 383.573 149.87C380.94 149.879 378.331 149.367 375.897 148.363C373.463 147.358 371.252 145.882 369.391 144.019C367.531 142.156 366.057 139.943 365.056 137.507C364.055 135.072 363.546 132.462 363.559 129.829C363.571 127.196 364.105 124.591 365.129 122.166C366.154 119.74 367.648 117.541 369.526 115.695L483.133 1.94577C484.983 0.0926819 487.18 -1.37747 489.599 -2.38052C492.017 -3.38361 494.61 -3.8999 497.228 -3.8999C499.846 -3.8999 502.439 -3.38361 504.857 -2.38052C507.275 -1.37747 509.472 0.0926819 511.322 1.94577ZM371.234 1.08932C373.088 -0.76178 375.287 -2.22977 377.708 -3.23077C380.128 -4.23175 382.722 -4.74619 385.341 -4.74469C387.961 -4.74323 390.554 -4.2258 392.974 -3.22208C395.393 -2.21832 397.591 -0.747894 399.442 1.10529C401.293 2.9585 402.761 5.15814 403.762 7.57864C404.763 9.99918 405.278 12.5932 405.276 15.2125C405.275 17.8318 404.757 20.4252 403.753 22.8446C402.75 25.264 401.279 27.4619 399.426 29.313L397.718 31.0243C395.865 32.8752 393.665 34.3429 391.245 35.3437C388.824 36.3445 386.231 36.8588 383.611 36.8572C380.992 36.8555 378.399 36.338 375.98 35.3342C373.56 34.3304 371.363 32.8599 369.512 31.0067C367.661 29.1535 366.193 26.9539 365.192 24.5334C364.192 22.113 363.677 19.5191 363.679 16.9C363.681 14.2808 364.198 11.6876 365.202 9.2684C366.206 6.84924 367.676 4.65146 369.529 2.80057L371.234 1.08932ZM340.155 32.2297C343.912 28.5604 348.964 26.5207 354.215 26.5533C359.467 26.5859 364.493 28.6881 368.204 32.4037C371.915 36.1194 374.011 41.1487 374.037 46.4C374.063 51.6514 372.017 56.7011 368.343 60.4534L344.933 83.8923C344.908 83.9179 344.88 83.9372 344.856 83.9628L297.021 131.857C296.996 131.884 296.973 131.913 296.948 131.94L291.169 137.726C292.135 136.787 293.194 135.948 294.329 135.222C291.877 139.046 290.805 143.592 291.289 148.108C291.774 152.624 293.786 156.84 296.993 160.056C300.2 163.273 304.409 165.298 308.924 165.796C313.439 166.294 317.988 165.236 321.819 162.796C321.046 164.01 320.145 165.137 319.13 166.158C322.878 162.448 327.944 160.374 333.217 160.389C338.491 160.405 343.544 162.508 347.271 166.24C350.998 169.972 353.095 175.027 353.103 180.301C353.112 185.575 351.031 190.638 347.317 194.381L299.483 242.277C295.753 245.983 290.71 248.065 285.452 248.071C280.194 248.077 275.147 246.005 271.409 242.308C267.67 238.61 265.544 233.586 265.492 228.328C265.44 223.07 267.467 218.005 271.131 214.234L283.994 201.356C287.737 197.618 289.841 192.546 289.844 187.257C289.848 181.967 287.75 176.893 284.011 173.15C280.273 169.407 275.202 167.303 269.912 167.299C264.622 167.296 259.548 169.394 255.805 173.132L242.945 186.009C243.002 185.95 243.049 185.887 243.105 185.83L260.489 168.423C256.72 172.131 251.631 174.19 246.344 174.147C241.056 174.103 236.002 171.961 232.294 168.191C228.585 164.422 226.526 159.333 226.57 154.046C226.613 148.758 228.755 143.704 232.525 139.996L340.155 32.2297ZM382.837 354.311C386.579 358.054 388.681 363.129 388.681 368.422C388.681 373.715 386.579 378.79 382.837 382.533L381.126 384.243C377.379 387.966 372.31 390.052 367.028 390.044C361.746 390.036 356.683 387.934 352.948 384.199C349.214 380.465 347.112 375.402 347.103 370.12C347.095 364.838 349.181 359.769 352.904 356.022L354.613 354.311C358.357 350.569 363.433 348.467 368.726 348.468C374.019 348.468 379.094 350.571 382.837 354.314V354.311ZM240.867 383.391C239.013 381.538 237.543 379.338 236.54 376.917C235.537 374.496 235.021 371.901 235.021 369.28C235.021 366.659 235.537 364.064 236.54 361.643C237.543 359.222 239.013 357.022 240.867 355.169L354.613 241.427C358.365 237.731 363.427 235.668 368.693 235.688C373.96 235.707 379.006 237.808 382.73 241.532C386.455 245.256 388.556 250.302 388.576 255.569C388.596 260.836 386.533 265.897 382.837 269.649L269.09 383.391C265.348 387.133 260.271 389.236 254.979 389.236C249.686 389.236 244.61 387.133 240.867 383.391ZM247.48 269.518C249.333 271.371 250.803 273.571 251.806 275.992C252.809 278.414 253.326 281.009 253.326 283.63C253.326 286.251 252.809 288.846 251.806 291.267C250.803 293.689 249.333 295.889 247.48 297.742L199.584 345.635C197.736 347.511 195.535 349.003 193.107 350.024C190.68 351.046 188.075 351.577 185.441 351.587C182.808 351.597 180.198 351.086 177.763 350.082C175.329 349.079 173.116 347.604 171.254 345.742C169.392 343.88 167.917 341.668 166.913 339.233C165.91 336.798 165.399 334.189 165.408 331.555C165.418 328.922 165.949 326.316 166.971 323.889C167.992 321.462 169.484 319.261 171.36 317.412L176.492 312.28C178.368 310.432 179.86 308.231 180.881 305.804C181.903 303.376 182.434 300.771 182.444 298.138C182.453 295.504 181.942 292.895 180.939 290.46C179.935 288.025 178.46 285.813 176.598 283.951C174.736 282.089 172.523 280.613 170.089 279.61C167.654 278.607 165.044 278.096 162.411 278.106C159.777 278.116 157.172 278.647 154.745 279.668C152.317 280.69 150.116 282.182 148.268 284.058L143.135 289.19L136.831 295.493L100.372 331.949L83.2678 349.06C81.4198 350.936 79.2188 352.428 76.7915 353.45C74.3643 354.471 71.7589 355.003 69.1254 355.013C66.4919 355.023 63.8826 354.511 61.4476 353.508C59.0127 352.505 56.8004 351.03 54.9382 349.168C53.076 347.306 51.6007 345.093 50.5975 342.659C49.5942 340.224 49.0828 337.614 49.0926 334.981C49.1025 332.347 49.6334 329.742 50.6548 327.315C51.6763 324.887 53.1681 322.686 55.0441 320.838L162.808 213.077C166.561 209.381 171.622 207.318 176.889 207.337C182.156 207.357 187.201 209.458 190.925 213.182C194.65 216.906 196.751 221.952 196.771 227.219C196.791 232.486 194.728 237.547 191.032 241.299C191.32 241.011 191.629 240.755 191.93 240.487C188.559 244.288 186.766 249.232 186.917 254.31C187.069 259.388 189.154 264.217 192.746 267.809C196.338 271.401 201.167 273.486 206.245 273.638C211.323 273.79 216.267 271.996 220.068 268.625C219.8 268.926 219.544 269.235 219.256 269.523C222.998 265.78 228.074 263.677 233.367 263.676C238.66 263.675 243.736 265.776 247.48 269.518ZM432.439 392.796L535.923 289.317C537.776 287.463 539.977 285.993 542.398 284.99C544.82 283.987 547.415 283.471 550.036 283.471C552.657 283.471 555.252 283.987 557.674 284.99C560.095 285.993 562.295 287.463 564.148 289.317C566.002 291.17 567.472 293.37 568.475 295.792C569.478 298.213 569.994 300.808 569.994 303.429C569.994 306.05 569.478 308.646 568.475 311.067C567.472 313.489 566.002 315.689 564.148 317.542L550.956 330.733L482.045 399.641L468.349 413.337L406.164 475.52L375.139 506.542C371.392 510.265 366.322 512.351 361.04 512.342C355.759 512.333 350.696 510.231 346.961 506.496C343.227 502.761 341.126 497.698 341.118 492.416C341.11 487.134 343.196 482.065 346.92 478.319L432.439 392.796ZM366.587 571.535C368.435 569.659 370.636 568.167 373.063 567.145C375.491 566.124 378.096 565.593 380.73 565.583C383.363 565.573 385.972 566.084 388.407 567.087C390.842 568.09 393.055 569.565 394.917 571.427C396.779 573.289 398.254 575.502 399.258 577.936C400.261 580.371 400.772 582.981 400.763 585.614C400.753 588.248 400.222 590.853 399.2 593.28C398.179 595.708 396.687 597.909 394.811 599.757L390.534 604.033C386.787 607.756 381.718 609.842 376.436 609.834C371.154 609.826 366.091 607.724 362.356 603.989C358.622 600.255 356.52 595.192 356.511 589.91C356.503 584.628 358.589 579.559 362.312 575.812L366.587 571.535ZM458.099 480.023C461.795 476.271 463.858 471.21 463.838 465.943C463.819 460.676 461.718 455.631 457.993 451.906C454.269 448.182 449.224 446.081 443.957 446.061C438.69 446.041 433.629 448.104 429.876 451.8L482.042 399.636C478.346 403.389 476.284 408.45 476.305 413.717C476.325 418.984 478.427 424.029 482.152 427.753C485.876 431.477 490.922 433.577 496.189 433.596C501.456 433.615 506.517 431.552 510.269 427.855L528.23 409.894C530.078 408.018 532.279 406.526 534.706 405.504C537.133 404.483 539.739 403.952 542.372 403.942C545.006 403.932 547.615 404.443 550.05 405.446C552.485 406.449 554.697 407.924 556.559 409.786C558.422 411.648 559.897 413.861 560.9 416.296C561.903 418.73 562.415 421.34 562.405 423.973C562.395 426.607 561.864 429.212 560.843 431.64C559.821 434.067 558.329 436.268 556.453 438.116L452.968 541.595C451.115 543.449 448.916 544.919 446.495 545.922C444.074 546.926 441.479 547.443 438.858 547.443C436.238 547.444 433.643 546.928 431.221 545.926C428.8 544.924 426.599 543.454 424.746 541.601C422.892 539.749 421.422 537.549 420.419 535.128C419.415 532.707 418.898 530.112 418.898 527.492C418.897 524.871 419.413 522.276 420.415 519.854C421.417 517.433 422.887 515.233 424.74 513.379L458.099 480.023ZM562.437 236.29C558.695 232.548 556.593 227.472 556.593 222.179C556.593 216.887 558.695 211.811 562.437 208.068L604.345 166.17C608.097 162.474 613.158 160.411 618.425 160.431C623.692 160.45 628.737 162.551 632.462 166.275C636.186 170 638.287 175.045 638.307 180.312C638.327 185.579 636.264 190.64 632.568 194.392L590.661 236.297C586.918 240.039 581.842 242.141 576.549 242.141C571.256 242.141 566.18 240.039 562.437 236.297V236.29ZM661.647 276.485C665.389 272.742 670.465 270.64 675.758 270.64C681.051 270.64 686.126 272.742 689.869 276.485C693.611 280.227 695.714 285.303 695.714 290.596C695.714 295.888 693.611 300.964 689.869 304.707L604.345 390.233C602.491 392.086 600.292 393.556 597.87 394.559C595.449 395.562 592.854 396.078 590.234 396.078C587.613 396.078 585.018 395.562 582.597 394.559C580.175 393.556 577.976 392.086 576.123 390.233C574.269 388.38 572.799 386.18 571.797 383.759C570.794 381.337 570.278 378.742 570.278 376.122C570.278 373.501 570.794 370.906 571.797 368.485C572.799 366.064 574.269 363.864 576.123 362.011L661.647 276.485ZM-372 -366H827V833H-372V-366Z" fill="white"/>
</g>
<defs>
<clipPath id="clip0">
<rect width="600" height="600" fill="white"/>
</clipPath>
</defs>
</svg>